<svg id="Layer_1" height="512" viewBox="0 0 512 512" width="512" xmlns="http://www.w3.org/2000/svg" data-name="Layer 1"><path d="m447.94 62.96v91.6h-84.71v-91.6a42.355 42.355 0 1 1 84.71 0z" fill="#e48e66"/><path d="m297 438.09h-2.94a1.481 1.481 0 0 1 -1.48-1.78l.62-4.77.27-2.04a53.052 53.052 0 0 0 -15.7-45.61 80.207 80.207 0 0 1 -25.17-61.61c1.48-40.58 34.35-74.04 74.93-76.71a80.129 80.129 0 0 1 85 79.97 80.059 80.059 0 0 1 -21.89 55.08c-1.06 1.11-2.15 2.21-3.28 3.27-10.96 10.36-16.59 25.47-15.7 40.87l.59 11.25a2.024 2.024 0 0 1 -1.97 2.08z" fill="#f8ec7d"/><path d="m112.69 20.6h292.89a42.353 42.353 0 0 0 -42.35 42.36v188.63a80.593 80.593 0 0 0 -35.7-6.02c-40.58 2.67-73.45 36.13-74.93 76.71a80.207 80.207 0 0 0 25.17 61.61 53.052 53.052 0 0 1 15.7 45.61l-.27 2.04-36.83-33.38-42.71 34.63-37.4-29.91-37.39 29.91-37.41-29.91-37.4 29.91v-363.56a48.627 48.627 0 0 1 48.63-48.63z" fill="#6fe3ff"/><path d="m368.08 463.72v11.42a16.258 16.258 0 0 1 -16.25 16.26h-38.58a16.258 16.258 0 0 1 -16.25-16.26v-11.42z" fill="#cc7350"/><path d="m297 438.09h71.08v25.63h-71.08z" fill="#e48e66"/><path d="m362.71 330.76-36.53 84.13-.52-54.37h-23.3l36.52-84.13.53 54.37z" fill="#6fe3ff"/><g fill="#63316d"><path d="m61.46 438.2a6 6 0 0 0 6.347-.721l33.653-26.914 33.663 26.915a6 6 0 0 0 7.5 0l33.643-26.913 33.652 26.913a6 6 0 0 0 7.526-.026l38.713-31.389 30.695 27.817-.175 1.338a7.269 7.269 0 0 0 1.228 5.693 7.658 7.658 0 0 0 3.1 2.512v31.715a22.28 22.28 0 0 0 22.25 22.26h38.58a22.28 22.28 0 0 0 22.25-22.26v-32.04a8.03 8.03 0 0 0 4.168-7.248l-.006-.153-.592-11.282c-.8-13.912 4.237-27.093 13.815-36.146 1.1-1.034 2.251-2.18 3.532-3.523a86.151 86.151 0 0 0 -25.772-137.048v-87.14h78.71a6 6 0 0 0 6-6v-91.6a48.419 48.419 0 0 0 -46.04-48.3v-.06h-295.21a54.691 54.691 0 0 0 -54.63 54.63v363.56a6 6 0 0 0 3.4 5.41zm241.54 5.89h59.08v13.63h-59.08zm48.83 41.31h-38.58a10.266 10.266 0 0 1 -10.25-10.26v-5.42h59.08v5.42a10.266 10.266 0 0 1 -10.25 10.26zm54.7-159.848a74.058 74.058 0 0 1 -20.23 50.926c-1.11 1.163-2.1 2.156-3.061 3.051-12.174 11.509-18.578 28.121-17.57 45.545l.368 7.016h-66.857l.231-1.756a58.855 58.855 0 0 0 -17.527-50.812 74.2 74.2 0 0 1 -23.284-57.022c1.361-37.312 31.813-68.474 69.279-70.938a74.125 74.125 0 0 1 78.655 73.991zm35.41-262.592v85.6h-72.71v-85.6a36.355 36.355 0 1 1 72.71 0zm-371.88 6.27a42.679 42.679 0 0 1 42.63-42.63h261.027c-.794.7-1.577 1.414-2.332 2.17a48.069 48.069 0 0 0 -14.155 34.19v180.128a86.646 86.646 0 0 0 -30.093-3.5c-43.576 2.867-78.95 39.1-80.533 82.456a86.207 86.207 0 0 0 27.032 66.2 46.5 46.5 0 0 1 14.2 30.347l-27.436-24.876a6 6 0 0 0 -7.808-.215l-38.957 31.587-33.627-26.893a6 6 0 0 0 -7.5 0l-33.643 26.913-33.662-26.914a6 6 0 0 0 -7.494 0l-27.649 22.116z"/><path d="m102.88 198.07h2.68a6 6 0 0 0 0-12h-2.68a6 6 0 0 0 0 12z"/><path d="m132.24 198.07h20.21a6 6 0 0 0 0-12h-20.21a6 6 0 0 0 0 12z"/><path d="m179.57 198.07h144.83a6 6 0 0 0 0-12h-144.83a6 6 0 0 0 0 12z"/><path d="m102.88 141.08h2.68a6 6 0 0 0 0-12h-2.68a6 6 0 0 0 0 12z"/><path d="m132.24 141.08h20.21a6 6 0 0 0 0-12h-20.21a6 6 0 0 0 0 12z"/><path d="m179.57 141.08h144.83a6 6 0 0 0 0-12h-144.83a6 6 0 0 0 0 12z"/><path d="m102.88 84.1h2.68a6 6 0 0 0 0-12h-2.68a6 6 0 0 0 0 12z"/><path d="m132.24 84.1h20.21a6 6 0 0 0 0-12h-20.21a6 6 0 0 0 0 12z"/><path d="m179.57 84.1h144.83a6 6 0 0 0 0-12h-144.83a6 6 0 0 0 0 12z"/><path d="m102.88 255.05h2.68a6 6 0 0 0 0-12h-2.68a6 6 0 0 0 0 12z"/><path d="m132.24 255.05h20.21a6 6 0 0 0 0-12h-20.21a6 6 0 0 0 0 12z"/><path d="m179.57 255.05h87.85a6 6 0 0 0 0-12h-87.85a6 6 0 0 0 0 12z"/><path d="m119.977 373.115c-.036 0-.071-.006-.107-.006s-.07 0-.106.006a11.005 11.005 0 0 1 -10.884-11 6 6 0 0 0 -12 0 23.035 23.035 0 0 0 16.99 22.2v4.9a6 6 0 0 0 12 0v-4.9a22.993 22.993 0 0 0 -6-45.191 10.99 10.99 0 1 1 11-10.99 6 6 0 0 0 12 0 23.029 23.029 0 0 0 -17-22.191v-4.123a6 6 0 0 0 -12 0v4.13a22.988 22.988 0 0 0 6 45.18 10.993 10.993 0 0 1 .107 21.985z"/><path d="m174.53 369.83h50.72a6 6 0 0 0 0-12h-50.72a6 6 0 0 0 0 12z"/><path d="m344.88 276.331a6 6 0 0 0 -11.5-2.33l-36.52 84.13a6 6 0 0 0 5.5 8.389h17.357l.463 48.427a6 6 0 0 0 11.5 2.332l36.53-84.13a6 6 0 0 0 -5.5-8.389h-17.358zm-12.97 110.3-.25-26.166a6 6 0 0 0 -6-5.942h-14.154l21.649-49.874.255 26.172a6 6 0 0 0 6 5.942h14.153z"/></g></svg>