<svg height="511pt" viewBox="-76 1 511 511.99896" width="511pt" xmlns="http://www.w3.org/2000/svg"><path d="m343.179688 147.09375h-28.902344v-95.585938h28.902344c8.707031 0 15.765624 7.058594 15.765624 15.765626v64.058593c-.003906 8.703125-7.058593 15.761719-15.765624 15.761719zm0 0" fill="#273c47"/><path d="m16.265625 115.507812h28.195313v-64h-28.195313c-8.707031 0-15.765625 7.058594-15.765625 15.765626v32.472656c0 8.703125 7.058594 15.761718 15.765625 15.761718zm0 0" fill="#273c47"/><path d="m16.265625 197.207031h28.535156v-64h-28.535156c-8.707031 0-15.765625 7.058594-15.765625 15.765625v32.472656c0 8.703126 7.058594 15.761719 15.765625 15.761719zm0 0" fill="#273c47"/><path d="m313.746094 0h-268.046875c-18.511719 0-33.523438 15.007812-33.523438 33.523438v444.953124c0 18.511719 15.011719 33.523438 33.523438 33.523438h268.046875c18.515625 0 33.523437-15.011719 33.523437-33.523438v-444.953124c0-18.515626-15.007812-33.523438-33.523437-33.523438zm0 0" fill="#405968"/><path d="m71.570312 512h-25.871093c-18.515625 0-33.523438-15.003906-33.523438-33.519531v-444.960938c0-18.515625 15.007813-33.519531 33.523438-33.519531h25.871093c-18.515624 0-33.519531 15.003906-33.519531 33.519531v444.960938c0 18.515625 15.003907 33.519531 33.519531 33.519531zm0 0" fill="#273c47"/><path d="m24.484375 51.511719h310.46875v389.027343h-310.46875zm0 0" fill="#f7e352"/><path d="m24.484375 51.511719h13.5625v389.027343h-13.5625zm0 0" fill="#f4be53"/><path d="m321.390625 51.511719h13.5625v389.027343h-13.5625zm0 0" fill="#fced95"/><path d="m205.59375 34.421875h-51.742188c-4.328124 0-7.835937-3.507813-7.835937-7.835937 0-4.328126 3.507813-7.835938 7.835937-7.835938h51.742188c4.328125 0 7.835938 3.507812 7.835938 7.835938 0 4.328124-3.507813 7.835937-7.835938 7.835937zm0 0" fill="#273c47"/><path d="m205.59375 481.96875h-51.742188c-4.328124 0-7.835937-3.507812-7.835937-7.835938 0-4.328124 3.507813-7.835937 7.835937-7.835937h51.742188c4.328125 0 7.835938 3.507813 7.835938 7.835937 0 4.328126-3.507813 7.835938-7.835938 7.835938zm0 0" fill="#273c47"/><path d="m313.5 247.640625c0 2.632813-.074219 5.246094-.230469 7.835937-1.839843 31.972657-14.921875 60.9375-35.339843 82.996094-3.550782 3.84375-7.324219 7.480469-11.304688 10.867188-12.9375 11.074218-28.011719 19.71875-44.523438 25.222656-3.613281 1.214844-7.292968 2.269531-11.042968 3.167969-7.597656 1.828125-15.457032 3-23.5 3.46875-2.59375.144531-5.203125.21875-7.835938.21875-2.632812 0-5.246094-.074219-7.839844-.230469-12.054687-.6875-23.6875-2.988281-34.679687-6.675781-16.457031-5.507813-31.480469-14.128907-44.386719-25.160157-3.980468-3.40625-7.761718-7.042968-11.316406-10.890624-20.417969-22.054688-33.488281-51.019532-35.328125-82.984376-.15625-2.589843-.230469-5.203124-.230469-7.835937s.074219-5.246094.230469-7.835937c1.839844-31.964844 14.910156-60.929688 35.328125-82.988282 3.554688-3.84375 7.324219-7.46875 11.304688-10.875 12.90625-11.046875 27.941406-19.664062 44.398437-25.171875 10.992187-3.6875 22.625-5.988281 34.679687-6.675781 2.59375-.160156 5.207032-.230469 7.839844-.230469 2.632813 0 5.242188.070313 7.835938.21875 8.042968.46875 15.902344 1.640625 23.5 3.46875 3.75.898438 7.429687 1.953125 11.042968 3.167969 16.511719 5.503906 31.585938 14.144531 44.523438 25.222656 3.980469 3.394532 7.761719 7.03125 11.316406 10.875 20.417969 22.058594 33.488282 51.011719 35.328125 82.988282.15625 2.589843.230469 5.203124.230469 7.835937zm0 0" fill="#62a5b5"/><path d="m313.5 247.640625c0 63.09375-43.671875 115.980469-102.441406 130.089844-58.769532-14.101563-102.449219-66.996094-102.449219-130.089844s43.679687-115.988281 102.449219-130.089844c58.769531 14.109375 102.441406 66.996094 102.441406 130.089844zm0 0" fill="#8dc2d3"/><g fill="#405968"><path d="m222.101562 120.71875c-3.613281-1.214844-7.292968-2.269531-11.042968-3.167969-10.054688-2.414062-20.542969-3.6875-31.335938-3.6875-14.871094 0-29.164062 2.421875-42.519531 6.90625-6.371094 6.675781-12.253906 14.929688-17.5 24.648438-14.796875 27.429687-22.945313 63.738281-22.945313 102.222656s8.148438 74.792969 22.945313 102.222656c5.246094 9.714844 11.128906 17.972657 17.5 24.648438 13.355469 4.484375 27.648437 6.90625 42.519531 6.90625 10.792969 0 21.28125-1.273438 31.335938-3.6875 3.75-.898438 7.429687-1.953125 11.042968-3.167969 24.679688-25.796875 40.585938-73.550781 40.585938-126.921875 0-53.375-15.90625-101.125-40.585938-126.921875zm-27.972656 255.234375c-4.710937 2.089844-9.570312 3.15625-14.40625 3.15625-17.054687 0-33.46875-13.019531-46.226562-36.6875-13.585938-25.179687-21.066406-58.847656-21.066406-94.78125s7.480468-69.601563 21.066406-94.78125c12.757812-23.65625 29.171875-36.6875 46.226562-36.6875 4.835938 0 9.695313 1.066406 14.40625 3.15625 30.648438 13.644531 52.882813 67.605469 52.882813 128.3125s-22.234375 114.667969-52.882813 128.3125zm0 0"/><path d="m277.941406 156.816406-.0625.054688c-18.148437 17.460937-40.617187 29.789062-64.992187 35.640625-10.804688 2.589843-21.964844 3.90625-33.164063 3.90625-36.792968 0-71.648437-14.042969-98.167968-39.546875l-.054688-.054688c3.554688-3.84375 7.324219-7.46875 11.304688-10.875 23.53125 22.453125 54.378906 34.804688 86.917968 34.804688 9.964844 0 19.902344-1.171875 29.507813-3.46875 21.492187-5.160156 41.324219-15.988282 57.394531-31.335938 3.980469 3.394532 7.761719 7.03125 11.316406 10.875zm0 0"/><path d="m277.929688 338.472656c-3.550782 3.84375-7.324219 7.480469-11.304688 10.867188-16.058594-15.339844-35.902344-26.175782-57.394531-31.335938-9.605469-2.300781-19.542969-3.46875-29.507813-3.46875-32.539062 0-63.375 12.359375-86.90625 34.816406-3.980468-3.40625-7.761718-7.042968-11.316406-10.890624l.054688-.050782c26.519531-25.503906 61.375-39.550781 98.167968-39.550781 11.199219 0 22.359375 1.316406 33.164063 3.910156 24.375 5.851563 46.851562 18.179688 64.992187 35.652344zm0 0"/><path d="m313.5 247.640625c0 2.632813-.074219 5.246094-.230469 7.835937h-267.097656c-.15625-2.589843-.230469-5.203124-.230469-7.835937s.074219-5.246094.230469-7.835937h267.097656c.15625 2.589843.230469 5.203124.230469 7.835937zm0 0"/><path d="m187.558594 114.082031v267.117188c-2.59375.144531-5.203125.21875-7.835938.21875-2.632812 0-5.246094-.074219-7.839844-.230469v-267.09375c2.59375-.160156 5.207032-.230469 7.839844-.230469 2.632813 0 5.242188.070313 7.835938.21875zm0 0"/></g></svg>