<?xml version="1.0" encoding="iso-8859-1"?>
<!-- Generator: Adobe Illustrator 19.0.0, SVG Export Plug-In . SVG Version: 6.00 Build 0)  -->
<svg version="1.1" id="Capa_1" xmlns="http://www.w3.org/2000/svg" xmlns:xlink="http://www.w3.org/1999/xlink" x="0px" y="0px"
	 viewBox="0 0 512 512" style="enable-background:new 0 0 512 512;" xml:space="preserve">
<circle style="fill:#B9EAFF;" cx="256" cy="256" r="256"/>
<path style="fill:#00BAFF;" d="M512,256c0-8.33-0.412-16.563-1.19-24.69L356.5,77l-201,352.333l81.996,81.996
	C243.608,511.766,249.776,512,256,512C397.385,512,512,397.385,512,256z"/>
<rect x="155.5" y="77" style="fill:#333333;" width="201" height="352.33"/>
<rect x="255.67" y="77" style="fill:#1A1A1A;" width="100.83" height="352.33"/>
<rect x="172" y="101.5" style="fill:#FFDC00;" width="168" height="282"/>
<rect x="255.67" y="101.5" style="fill:#FFC000;" width="84.33" height="282"/>
<circle style="fill:#1A1A1A;" cx="256" cy="404.5" r="12.5"/>
<path d="M256,392c-0.113,0-0.221,0.014-0.333,0.017v24.967c0.112,0.003,0.221,0.017,0.333,0.017c6.904,0,12.5-5.597,12.5-12.5
	S262.904,392,256,392z"/>
<polygon style="fill:#FF6838;" points="295.365,303.892 222.175,274.692 222.175,210.308 295.365,181.108 "/>
<polygon style="fill:#AE4E32;" points="222.175,242.333 222.175,274.692 295.365,303.892 295.365,242.333 "/>
<rect x="192.13" y="210.28" style="fill:#FF9451;" width="30.04" height="64.45"/>
<rect x="192.13" y="242.33" style="fill:#F7674F;" width="30.04" height="32.392"/>
<path style="fill:#FFFFFF;" d="M341.227,308.054c36.147-36.146,36.15-94.962,0.006-131.11l15.521-15.519
	c44.702,44.703,44.699,117.443-0.007,162.15L341.227,308.054z"/>
<path style="fill:#E0E0E0;" d="M368.336,242.333c0.041,23.796-8.992,47.605-27.108,65.721l15.52,15.521
	c22.395-22.396,33.57-51.826,33.53-81.242L368.336,242.333L368.336,242.333z"/>
<path style="fill:#FFFFFF;" d="M308.572,275.399c18.139-18.138,18.144-47.657,0.007-65.799l15.522-15.519
	c26.693,26.7,26.689,70.142-0.01,96.839L308.572,275.399z"/>
<path style="fill:#E0E0E0;" d="M322.175,242.333c0.041,11.97-4.491,23.954-13.603,33.065l15.52,15.521
	c13.392-13.392,20.063-30.996,20.022-48.586L322.175,242.333L322.175,242.333z"/>
<path style="fill:#FFFFFF;" d="M369.429,336.259c51.698-51.697,51.704-135.818,0.009-187.52l15.521-15.519
	c60.252,60.258,60.247,158.304-0.01,218.56L369.429,336.259z"/>
<path style="fill:#E0E0E0;" d="M408.204,242.333c0.041,34.011-12.884,68.034-38.775,93.925l15.52,15.521
	c30.171-30.17,45.235-69.815,45.194-109.446H408.204z"/>
<g>
</g>
<g>
</g>
<g>
</g>
<g>
</g>
<g>
</g>
<g>
</g>
<g>
</g>
<g>
</g>
<g>
</g>
<g>
</g>
<g>
</g>
<g>
</g>
<g>
</g>
<g>
</g>
<g>
</g>
</svg>
