<?xml version="1.0" encoding="iso-8859-1"?>
<!-- Generator: Adobe Illustrator 19.0.0, SVG Export Plug-In . SVG Version: 6.00 Build 0)  -->
<svg version="1.1" id="Capa_1" xmlns="http://www.w3.org/2000/svg" xmlns:xlink="http://www.w3.org/1999/xlink" x="0px" y="0px"
	 viewBox="0 0 512 512" style="enable-background:new 0 0 512 512;" xml:space="preserve">
<path style="fill:#D9EEF7;" d="M448,96h-64c-11.767-0.035-21.298-9.566-21.333-21.333v-64H85.333C73.566,10.702,64.035,20.233,64,32
	v245.333h384V96z"/>
<path style="fill:#AAC4DA;" d="M448,96h-64c-11.767-0.035-21.298-9.566-21.333-21.333v-64L448,96z"/>
<path style="fill:#FFE451;" d="M437.333,277.333V480c-0.035,11.768-9.566,21.298-21.333,21.333H96
	c-11.767-0.035-21.298-9.566-21.333-21.333V277.333H437.333z"/>
<g>
	<path style="fill:#AAC4DA;" d="M394.667,416v32c0,5.891-4.776,10.667-10.667,10.667h-42.667c-5.891,0-10.667-4.776-10.667-10.667
		v-21.333c0-5.891,4.776-10.667,10.667-10.667H394.667z"/>
	<circle style="fill:#AAC4DA;" cx="138.667" cy="437.333" r="21.333"/>
</g>
<g>
	<path style="fill:#4C5B66;" d="M74.667,32c0-5.891,4.776-10.667,10.667-10.667H352v53.333c0,17.673,14.327,32,32,32h21.333V85.333
		H384c-5.891,0-10.667-4.776-10.667-10.667V36.416l64,64v144.917h21.333V96c-0.001-2.829-1.125-5.541-3.125-7.541L370.208,3.125
		c-2-2.001-4.713-3.125-7.541-3.125H85.333c-17.673,0-32,14.327-32,32l0,0v213.333h21.333V32z"/>
	<path style="fill:#4C5B66;" d="M181.333,138.667c0.244-11.538-8.911-21.089-20.449-21.333c-0.295-0.006-0.589-0.006-0.884,0
		h-53.333C100.776,117.333,96,122.109,96,128v106.667c0,5.891,4.776,10.667,10.667,10.667H160
		c11.538,0.244,21.089-8.911,21.333-20.449c0.006-0.295,0.006-0.589,0-0.884v-32c0.022-3.737-0.934-7.414-2.773-10.667
		c1.803-3.267,2.756-6.935,2.773-10.667V138.667z M117.333,138.667H160v32h-42.667V138.667z M160,224h-42.667v-32H160V224z"/>
	<path style="fill:#4C5B66;" d="M202.667,117.333H224v128h-21.333V117.333z"/>
	<path style="fill:#4C5B66;" d="M245.333,117.333v96c-0.502,17.171,13.01,31.498,30.181,32c0.606,0.018,1.213,0.018,1.819,0H320V224
		h-42.667c-5.365,0.527-10.14-3.395-10.667-8.76c-0.062-0.634-0.062-1.273,0-1.907v-96H245.333z"/>
	<path style="fill:#4C5B66;" d="M341.333,117.333v96c-0.502,17.171,13.01,31.498,30.181,32c0.606,0.018,1.213,0.018,1.819,0H416V224
		h-42.667c-5.365,0.527-10.14-3.395-10.667-8.76c-0.062-0.634-0.062-1.273,0-1.907v-96H341.333z"/>
	<path style="fill:#4C5B66;" d="M469.333,266.667H42.667V288H64v192c0,17.673,14.327,32,32,32h320c17.673,0,32-14.327,32-32V288
		h21.333V266.667z M426.667,480c0,5.891-4.776,10.667-10.667,10.667H96c-5.891,0-10.667-4.776-10.667-10.667V288h341.333V480z"/>
	<path style="fill:#4C5B66;" d="M320,426.667V448c0,11.782,9.551,21.333,21.333,21.333H384c11.782,0,21.333-9.551,21.333-21.333v-32
		c0-5.891-4.776-10.667-10.667-10.667h-53.333C329.551,405.333,320,414.885,320,426.667z M384,426.667V448h-42.667v-21.333H384z"/>
	<path style="fill:#4C5B66;" d="M138.667,469.333c17.673,0,32-14.327,32-32s-14.327-32-32-32s-32,14.327-32,32
		S120.994,469.333,138.667,469.333z M138.667,426.667c5.891,0,10.667,4.776,10.667,10.667S144.558,448,138.667,448
		S128,443.224,128,437.333S132.776,426.667,138.667,426.667z"/>
	<path style="fill:#4C5B66;" d="M138.667,384h234.667c5.891,0,10.667-4.776,10.667-10.667V352h-21.333v10.667H149.333V352H128
		v21.333C128,379.224,132.776,384,138.667,384z"/>
	<path style="fill:#4C5B66;" d="M128,309.333h21.333v21.333H128V309.333z"/>
	<path style="fill:#4C5B66;" d="M170.667,309.333H192v21.333h-21.333V309.333z"/>
	<path style="fill:#4C5B66;" d="M213.333,309.333H384v21.333H213.333V309.333z"/>
</g>
<g>
</g>
<g>
</g>
<g>
</g>
<g>
</g>
<g>
</g>
<g>
</g>
<g>
</g>
<g>
</g>
<g>
</g>
<g>
</g>
<g>
</g>
<g>
</g>
<g>
</g>
<g>
</g>
<g>
</g>
</svg>
