<svg width="93" height="103" viewBox="0 0 93 103" fill="none" xmlns="http://www.w3.org/2000/svg">
<path d="M1.86289 1.61362C0.555486 3.18221 -0.10567 5.18972 0.0137667 7.22822V95.7843C-0.0989113 97.8219 0.56145 99.827 1.86289 101.399L2.16547 101.701L51.7555 52.0778V50.9011L2.16547 1.31104L1.86289 1.61362Z" fill="url(#paint0_linear_102_3)"/>
<path d="M68.2967 68.6191L51.7555 52.0779V50.9012L68.2967 34.3936L68.6665 34.5953L88.2672 45.7236C93.8818 48.8839 93.8818 54.0951 88.2672 57.289L68.6665 68.4174L68.2967 68.6191Z" fill="url(#paint1_linear_102_3)"/>
<path d="M68.6666 68.4171L51.8564 51.6069L1.86292 101.399C3.01526 102.346 4.44995 102.883 5.94114 102.926C7.43233 102.969 8.89535 102.514 10.0999 101.634L68.5657 68.4171" fill="url(#paint2_linear_102_3)"/>
<path d="M68.6666 34.5951L10.0999 1.34458C8.90827 0.428432 7.43553 -0.0455962 5.93323 0.00345867C4.43092 0.0525135 2.99225 0.621609 1.86292 1.61355L51.7555 51.5062L68.6666 34.5951Z" fill="url(#paint3_linear_102_3)"/>
<path opacity="0.1" d="M68.2968 68.0474L10.0999 101.063C8.93906 101.928 7.53001 102.395 6.0823 102.395C4.63459 102.395 3.22554 101.928 2.06467 101.063L1.76208 101.365L2.06467 101.668C3.22554 102.533 4.63459 103 6.0823 103C7.53001 103 8.93906 102.533 10.0999 101.668L68.5658 68.4508L68.2968 68.0474Z" fill="black"/>
<path opacity="0.07" d="M1.86286 100.861C0.559248 99.277 -0.100842 97.2608 0.0137414 95.2126V95.7842C-0.0989366 97.8218 0.561424 99.8269 1.86286 101.399L2.16544 101.096L1.86286 100.861Z" fill="black"/>
<path opacity="0.07" d="M88.2673 56.6836L68.2968 68.0473L68.6666 68.4171L88.2673 57.1543C89.4169 56.6487 90.4118 55.847 91.1502 54.831C91.8885 53.815 92.3439 52.6212 92.4698 51.3716C92.2404 52.5267 91.7397 53.6107 91.009 54.5343C90.2784 55.4579 89.3386 56.1946 88.2673 56.6836Z" fill="black"/>
<path opacity="0.3" d="M10.0999 1.94976L88.2673 46.295C89.3282 46.772 90.2616 47.4925 90.9919 48.3979C91.7221 49.3034 92.2284 50.3683 92.4698 51.5062C92.3508 50.2545 91.898 49.0576 91.1588 48.0405C90.4196 47.0233 89.4211 46.2232 88.2673 45.7235L10.0999 1.34459C4.58616 -1.81572 0.0137939 0.806669 0.0137939 7.22816V7.7997C0.0137939 1.41184 4.58616 -1.24417 10.0999 1.94976Z" fill="white"/>
<defs>
<linearGradient id="paint0_linear_102_3" x1="47.3849" y1="6.28685" x2="-19.8222" y2="73.494" gradientUnits="userSpaceOnUse">
<stop stop-color="#008EFF"/>
<stop offset="0.01" stop-color="#008FFF"/>
<stop offset="0.26" stop-color="#00ACFF"/>
<stop offset="0.51" stop-color="#00C0FF"/>
<stop offset="0.76" stop-color="#00CDFF"/>
<stop offset="1" stop-color="#00D1FF"/>
</linearGradient>
<linearGradient id="paint1_linear_102_3" x1="88.9396" y1="51.5063" x2="-7.95427" y2="51.5063" gradientUnits="userSpaceOnUse">
<stop stop-color="#FFD800"/>
<stop offset="1" stop-color="#FF8A00"/>
</linearGradient>
<linearGradient id="paint2_linear_102_3" x1="59.4882" y1="60.6844" x2="-31.623" y2="151.796" gradientUnits="userSpaceOnUse">
<stop stop-color="#FF3A44"/>
<stop offset="1" stop-color="#B11162"/>
</linearGradient>
<linearGradient id="paint3_linear_102_3" x1="-10.7111" y1="-27.8715" x2="30.0032" y2="12.8091" gradientUnits="userSpaceOnUse">
<stop stop-color="#328E71"/>
<stop offset="0.07" stop-color="#2D9571"/>
<stop offset="0.48" stop-color="#15BD74"/>
<stop offset="0.8" stop-color="#06D575"/>
<stop offset="1" stop-color="#00DE76"/>
</linearGradient>
</defs>
</svg>
