<svg id="Capa_1" enable-background="new 0 0 512 512" height="512" viewBox="0 0 512 512" width="512" xmlns="http://www.w3.org/2000/svg" xmlns:xlink="http://www.w3.org/1999/xlink"><linearGradient id="SVGID_1_" gradientUnits="userSpaceOnUse" x1="484.555" x2="-53.445" y1="672.3" y2="-139.701"><stop offset=".008" stop-color="#ffe8dc" stop-opacity="0"/><stop offset=".9977" stop-color="#ff9494"/></linearGradient><g><path d="m419.843 204.806c1.055-7.758 1.571-15.687 1.509-23.748-.692-90.025-74.256-163.486-164.281-164.057-91.815-.581-166.428 73.673-166.428 165.354 0 7.615.516 15.109 1.513 22.45 4.043 29.747-9.887 59.143-35.212 75.263-35.611 22.668-56.944 51.54-56.944 82.98 0 72.876 114.615 131.954 256 131.954s256-59.078 256-131.954c0-31.44-21.334-60.312-56.946-82.98-25.325-16.12-39.254-45.516-35.211-75.262z" fill="url(#SVGID_1_)"/><g><g><path d="m157.012 115.836c-23.697.562-45.394 11.806-60.439 28.922h-32.368c-11.046 0-20 8.954-20 20v17.16c0 8.319 5.149 15.769 12.931 18.709l18.792 7.101c3.19 32.036 24.467 58.738 53.486 69.742 17.446 6.616 29.364 22.897 30.9 41.492l10.348 125.225c.214 2.593 2.381 4.588 4.983 4.588h.559v7.317c0 11.046 8.954 20 20 20 11.046 0 20-8.954 20-20v-7.317h.382c2.761 0 5-2.239 5-5v-177.869c0-6.792 2.211-13.356 6.09-18.932 9.395-13.508 14.91-29.915 14.91-47.617 0-46.816-38.506-84.637-85.574-83.521z" fill="#00c" opacity=".1"/><path d="m447.795 144.758h-32.368c-15.045-17.116-36.742-28.36-60.439-28.922-47.068-1.116-85.574 36.705-85.574 83.52 0 17.702 5.515 34.109 14.91 47.617 3.878 5.576 6.09 12.14 6.09 18.932v177.869c0 2.761 2.239 5 5 5h.382v7.317c0 11.046 8.954 20 20 20 11.046 0 20-8.954 20-20v-7.317h.559c2.602 0 4.769-1.995 4.983-4.588l10.348-125.225c1.537-18.595 13.454-34.876 30.9-41.492 29.019-11.005 50.296-37.706 53.486-69.742l18.792-7.101c7.782-2.94 12.931-10.39 12.931-18.709v-17.16c0-11.045-8.954-19.999-20-19.999z" fill="#00c" opacity=".1"/><g><g><path d="m131.538 201.741-74.403-28.114c-7.782-2.94-12.931-10.39-12.931-18.709v-17.16c0-11.046 8.954-20 20-20h67.333v83.983z" fill="#ff9d33"/><path d="m196.205 449.091c-11.046 0-20-8.954-20-20v-14.603h40v14.603c0 11.046-8.954 20-20 20z" fill="#ffab66"/><path d="m215.451 434.475c.479-1.715.754-3.516.754-5.384v-14.603h-40v14.603c0 1.868.275 3.669.754 5.384z" fill="#ff9d33"/><path d="m242.586 172.356c0-46.815-38.506-84.637-85.574-83.52-44.2 1.048-81.475 39.231-81.515 83.443-.032 35.738 22.38 66.231 53.917 78.191 17.446 6.616 29.364 22.897 30.9 41.492l10.348 125.225c.214 2.593 2.381 4.588 4.983 4.588h40.941c2.761 0 5-2.239 5-5v-177.869c0-6.792 2.211-13.356 6.09-18.932 9.395-13.509 14.91-29.916 14.91-47.618z" fill="#fff"/><path d="m166.578 367.758 4.085 49.428c.214 2.593 2.381 4.588 4.983 4.588h40.941c2.761 0 5-2.239 5-5v-49.016z" fill="#9494ff"/><path d="m173.205 205.091h-54.667c-7.364 0-13.333-5.97-13.333-13.333 0-7.364 5.97-13.333 13.333-13.333h54.667c7.364 0 13.333 5.97 13.333 13.333 0 7.364-5.969 13.333-13.333 13.333z" fill="#b3b3ff"/><g><path d="m179.205 230.384c-2.761 0-5-2.239-5-5v-3.5c0-2.761 2.239-5 5-5s5 2.239 5 5v3.5c0 2.762-2.239 5-5 5z" fill="#4d4dff"/></g><g><path d="m164.872 230.384c-2.761 0-5-2.239-5-5v-3.5c0-2.761 2.239-5 5-5s5 2.239 5 5v3.5c0 2.762-2.239 5-5 5z" fill="#4d4dff"/></g></g><g><path d="m380.462 201.741 74.403-28.114c7.782-2.94 12.931-10.39 12.931-18.709v-17.16c0-11.046-8.954-20-20-20h-67.333v83.983z" fill="#ff9d33"/><path d="m315.795 449.091c11.046 0 20-8.954 20-20v-14.603h-40v14.603c0 11.046 8.954 20 20 20z" fill="#ffab66"/><path d="m335.041 434.475c.479-1.715.754-3.516.754-5.384v-14.603h-40v14.603c0 1.868.275 3.669.754 5.384z" fill="#ff9d33"/><path d="m269.414 172.356c0-46.815 38.506-84.637 85.574-83.52 44.2 1.048 81.475 39.231 81.515 83.443.032 35.738-22.38 66.231-53.917 78.191-17.446 6.616-29.364 22.897-30.9 41.492l-10.348 125.225c-.214 2.593-2.381 4.588-4.983 4.588h-40.941c-2.761 0-5-2.239-5-5v-177.869c0-6.792-2.211-13.356-6.09-18.932-9.395-13.509-14.91-29.916-14.91-47.618z" fill="#fff"/><path d="m345.422 367.758-4.085 49.428c-.214 2.593-2.381 4.588-4.983 4.588h-40.941c-2.761 0-5-2.239-5-5v-49.016z" fill="#9494ff"/><path d="m338.795 205.091h54.667c7.364 0 13.333-5.97 13.333-13.333 0-7.364-5.97-13.333-13.333-13.333h-54.667c-7.364 0-13.333 5.97-13.333 13.333 0 7.364 5.969 13.333 13.333 13.333z" fill="#b3b3ff"/><g><path d="m332.795 230.384c-2.761 0-5-2.239-5-5v-3.5c0-2.761 2.239-5 5-5s5 2.239 5 5v3.5c0 2.762-2.239 5-5 5z" fill="#4d4dff"/></g><g><path d="m347.128 230.384c-2.761 0-5-2.239-5-5v-3.5c0-2.761 2.239-5 5-5s5 2.239 5 5v3.5c0 2.762-2.238 5-5 5z" fill="#4d4dff"/></g></g></g><g fill="#00c"><path d="m174.89 85.229c-2.721-.492-5.319 1.313-5.81 4.031-.491 2.717 1.313 5.318 4.031 5.81 37.36 6.753 64.476 39.257 64.476 77.287 0 16.101-4.846 31.579-14.015 44.762-4.569 6.57-6.985 14.104-6.985 21.788v177.869h-40.94l-10.35-125.226c-1.701-20.583-15.09-38.542-34.11-45.755-30.349-11.509-50.719-41.05-50.689-73.511.015-17.26 6.24-34.482 17.528-48.496 11.142-13.832 26.472-23.708 43.167-27.809 2.682-.659 4.322-3.367 3.663-6.048-.658-2.681-3.366-4.322-6.048-3.663-17.497 4.298-32.869 13.782-44.583 26.49h-30.02c-13.785 0-25 11.215-25 25v17.16c0 10.335 6.496 19.733 16.163 23.386l15.972 6.035c4.389 31.684 25.895 59.275 56.301 70.806 15.436 5.854 26.305 20.466 27.69 37.228l10.349 125.225c.295 3.565 2.489 6.593 5.525 8.117v3.376c0 13.785 11.215 25 25 25s25-11.215 25-25v-3.456c3.194-1.672 5.381-5.013 5.381-8.861v-177.868c0-5.632 1.796-11.192 5.195-16.078 10.34-14.867 15.805-32.32 15.805-50.472 0-42.87-30.573-79.512-72.696-87.127zm-115.987 83.72c-5.801-2.192-9.698-7.831-9.698-14.032v-17.16c0-8.271 6.729-15 15-15h22.027c-9.928 14.366-15.718 31.541-15.734 49.517 0 .355.016.708.02 1.063zm137.302 275.142c-8.271 0-15-6.729-15-15v-2.317h30v2.317c0 8.271-6.729 15-15 15z"/><path d="m447.8 112.76h-30.214c-15.875-17.165-38.203-28.347-62.479-28.922-24.094-.573-46.805 8.367-64.008 25.167-17.208 16.805-26.685 39.304-26.685 63.353 0 18.152 5.465 35.604 15.805 50.472 3.398 4.886 5.195 10.445 5.195 16.078v63.592c0 2.761 2.239 5 5 5s5-2.239 5-5v-63.594c0-7.684-2.416-15.218-6.985-21.788-9.169-13.183-14.015-28.661-14.015-44.762 0-21.333 8.407-41.291 23.672-56.198 15.26-14.902 35.438-22.829 56.784-22.324 41.502.984 76.596 36.91 76.633 78.449.03 32.46-20.341 62.002-50.689 73.511-19.021 7.213-32.41 25.173-34.11 45.755l-10.349 125.225h-40.94v-80.274c0-2.761-2.239-5-5-5s-5 2.239-5 5v80.274c0 3.848 2.188 7.189 5.381 8.861v3.456c0 13.785 11.215 25 25 25s25-11.215 25-25v-3.376c3.037-1.525 5.231-4.552 5.525-8.118l10.349-125.225c1.385-16.762 12.254-31.375 27.69-37.228 30.406-11.531 51.912-39.123 56.301-70.806l15.966-6.031c9.674-3.651 16.174-13.05 16.174-23.388v-17.16c-.001-13.784-11.216-24.999-25.001-24.999zm-132.005 331.331c-8.271 0-15-6.729-15-15v-2.317h30v2.317c0 8.271-6.729 15-15 15zm147.005-289.171c0 6.202-3.9 11.841-9.707 14.033l-11.611 4.386c.004-.355.02-.708.02-1.064-.016-18.085-5.931-35.223-15.876-49.515h22.174c8.271 0 15 6.729 15 15z"/><path d="m256 51.621c-9.542 0-18.889 2.611-27.031 7.55-2.361 1.432-3.114 4.507-1.682 6.868 1.432 2.362 4.506 3.115 6.868 1.682 6.579-3.991 14.132-6.1 21.845-6.1s15.266 2.109 21.845 6.1c.811.492 1.705.726 2.588.726 1.69 0 3.339-.857 4.28-2.408 1.432-2.361.679-5.436-1.682-6.868-8.142-4.939-17.489-7.55-27.031-7.55z"/><path d="m270.671 82.276c1.432-2.361.679-5.436-1.682-6.868-3.914-2.374-8.405-3.628-12.99-3.628s-9.076 1.255-12.99 3.628c-2.361 1.432-3.114 4.507-1.682 6.868s4.507 3.114 6.868 1.682c4.698-2.85 10.908-2.85 15.606 0 .811.492 1.705.726 2.588.726 1.693 0 3.342-.857 4.282-2.408z"/><path d="m221.165 50.637c10.492-6.364 22.537-9.728 34.835-9.728s24.343 3.364 34.835 9.728c.811.492 1.705.726 2.588.726 1.69 0 3.339-.857 4.28-2.408 1.432-2.361.679-5.436-1.682-6.868-12.055-7.313-25.894-11.178-40.021-11.178s-27.966 3.865-40.021 11.178c-2.361 1.432-3.114 4.507-1.682 6.868s4.507 3.115 6.868 1.682z"/></g><g opacity=".1"><g><path d="m280.433 95.447c-.883 0-1.778-.234-2.588-.726-6.579-3.991-14.132-6.1-21.845-6.1s-15.266 2.109-21.845 6.1c-2.361 1.433-5.436.68-6.868-1.682-1.432-2.361-.679-5.436 1.682-6.868 8.143-4.939 17.49-7.55 27.031-7.55s18.889 2.611 27.031 7.55c2.361 1.432 3.114 4.507 1.682 6.868-.941 1.551-2.59 2.408-4.28 2.408z" fill="#00c"/></g><g><path d="m266.392 111.684c-.883 0-1.778-.234-2.588-.726-4.698-2.85-10.908-2.85-15.606 0-2.361 1.433-5.436.68-6.868-1.682s-.679-5.436 1.682-6.868c3.914-2.374 8.405-3.628 12.99-3.628s9.076 1.255 12.99 3.628c2.361 1.432 3.114 4.507 1.682 6.868-.943 1.551-2.592 2.408-4.282 2.408z" fill="#00c"/></g><g><path d="m293.423 78.363c-.883 0-1.778-.234-2.588-.726-10.491-6.364-22.537-9.729-34.835-9.729s-24.344 3.364-34.835 9.729c-2.362 1.433-5.437.68-6.868-1.682-1.432-2.361-.679-5.436 1.682-6.868 12.055-7.313 25.895-11.179 40.021-11.179s27.966 3.866 40.021 11.179c2.361 1.432 3.114 4.507 1.682 6.868-.94 1.551-2.59 2.408-4.28 2.408z" fill="#00c"/></g></g></g><g><path d="m95.868 322.871c-1.484 0-2.954-.658-3.94-1.917l-9.591-12.248c-1.703-2.174-1.32-5.316.854-7.019l12.248-9.591c2.174-1.702 5.316-1.32 7.019.854l9.591 12.248c1.703 2.174 1.32 5.316-.854 7.019l-12.248 9.591c-.914.716-2.001 1.063-3.079 1.063zm-2.575-16.394 3.426 4.375 4.375-3.426-3.426-4.375z" fill="#ff6c6c"/></g><g><path d="m388.117 395c-1.28 0-2.559-.488-3.536-1.464l-11-11c-1.953-1.953-1.953-5.119 0-7.071l11-11c1.953-1.952 5.118-1.952 7.071 0l11 11c1.953 1.953 1.953 5.119 0 7.071l-11 11c-.976.976-2.256 1.464-3.535 1.464zm-3.929-16 3.929 3.929 3.929-3.929-3.929-3.929z" fill="#ff6c6c"/></g><g><path d="m408.104 70.92c-7.175 0-13.012-5.837-13.012-13.012s5.837-13.012 13.012-13.012 13.012 5.837 13.012 13.012-5.837 13.012-13.012 13.012zm0-16.023c-1.661 0-3.012 1.351-3.012 3.012s1.351 3.012 3.012 3.012 3.012-1.351 3.012-3.012-1.35-3.012-3.012-3.012z" fill="#6c6cff"/></g><g><path d="m159.042 59.375c-7.175 0-13.012-5.837-13.012-13.012s5.837-13.012 13.012-13.012 13.012 5.837 13.012 13.012-5.837 13.012-13.012 13.012zm0-16.024c-1.661 0-3.012 1.351-3.012 3.012s1.351 3.012 3.012 3.012 3.012-1.351 3.012-3.012-1.351-3.012-3.012-3.012z" fill="#ff9d33"/></g><g><path d="m418.128 344.963c-7.175 0-13.012-5.837-13.012-13.012s5.837-13.012 13.012-13.012 13.012 5.837 13.012 13.012-5.837 13.012-13.012 13.012zm0-16.024c-1.661 0-3.012 1.351-3.012 3.012s1.351 3.012 3.012 3.012 3.012-1.351 3.012-3.012c0-1.66-1.351-3.012-3.012-3.012z" fill="#ff9d33"/></g></g></g></svg>