<svg id="Capa_1" enable-background="new 0 0 512 512" height="512" viewBox="0 0 512 512" width="512" xmlns="http://www.w3.org/2000/svg" xmlns:xlink="http://www.w3.org/1999/xlink"><linearGradient id="SVGID_1_" gradientUnits="userSpaceOnUse" x1="709.106" x2="-74.894" y1="260.632" y2="252.632"><stop offset=".007" stop-color="#9494ff"/><stop offset=".992" stop-color="#ffe8dc" stop-opacity="0"/></linearGradient><g><path d="m419.843 204.806c1.055-7.758 1.571-15.687 1.509-23.748-.692-90.025-74.256-163.486-164.281-164.057-91.815-.581-166.428 73.673-166.428 165.354 0 7.615.516 15.109 1.513 22.45 4.043 29.747-9.887 59.143-35.212 75.263-35.611 22.668-56.944 51.54-56.944 82.98 0 72.876 114.615 131.954 256 131.954s256-59.078 256-131.954c0-31.44-21.334-60.312-56.946-82.98-25.325-16.12-39.254-45.516-35.211-75.262z" fill="url(#SVGID_1_)"/><g><g fill="#00c"><path d="m62.556 410.76h386.888c14.908 0 26.994-12.085 26.994-26.994v-141.587c0-14.908-12.085-26.994-26.994-26.994h-386.888c-14.908 0-26.994 12.085-26.994 26.994v141.587c0 14.908 12.086 26.994 26.994 26.994z" opacity=".1"/><g><path d="m280.433 172.765c-.883 0-1.778-.234-2.588-.726-6.579-3.991-14.132-6.1-21.845-6.1s-15.266 2.109-21.845 6.1c-2.362 1.434-5.437.68-6.868-1.682-1.432-2.361-.679-5.436 1.682-6.868 8.143-4.939 17.49-7.55 27.031-7.55s18.889 2.611 27.031 7.55c2.361 1.432 3.114 4.507 1.682 6.868-.941 1.55-2.59 2.408-4.28 2.408z" opacity=".1"/><path d="m266.392 189.002c-.884 0-1.778-.234-2.589-.726-4.697-2.851-10.908-2.851-15.605 0-2.361 1.432-5.437.679-6.869-1.681-1.432-2.361-.68-5.436 1.681-6.869 3.913-2.374 8.405-3.629 12.99-3.629s9.077 1.255 12.99 3.629c2.361 1.433 3.113 4.508 1.681 6.869-.941 1.55-2.589 2.407-4.279 2.407z" opacity=".1"/><path d="m293.423 155.681c-.883 0-1.778-.234-2.588-.726-10.491-6.364-22.537-9.729-34.835-9.729s-24.344 3.364-34.835 9.729c-2.361 1.433-5.436.68-6.868-1.682-1.432-2.361-.679-5.436 1.682-6.868 12.055-7.313 25.895-11.179 40.021-11.179s27.966 3.866 40.021 11.179c2.361 1.432 3.114 4.507 1.682 6.868-.94 1.551-2.59 2.408-4.28 2.408z" opacity=".1"/></g></g><g><path d="m62.556 383.76h386.888c14.908 0 26.994-12.085 26.994-26.994v-141.587c0-14.908-12.085-26.994-26.994-26.994h-386.888c-14.908 0-26.994 12.085-26.994 26.994v141.587c0 14.908 12.086 26.994 26.994 26.994z" fill="#6c6cff"/><path d="m62.556 188.186h193.444v195.574h-193.444c-14.908 0-26.994-12.085-26.994-26.994v-141.587c0-14.908 12.086-26.993 26.994-26.993z" fill="#ff6c6c"/><path d="m107.987 188.186h296.026v195.574h-296.026z" fill="#2c27ff" transform="matrix(-1 0 0 -1 512 571.946)"/><path d="m127.78 210.983h256.44v149.98h-256.44z" fill="#ebebff"/><g><path d="m449.444 388.76h-297.444c-2.761 0-5-2.239-5-5s2.239-5 5-5h297.444c12.127 0 21.994-9.866 21.994-21.994v-85.266c0-2.761 2.239-5 5-5s5 2.239 5 5v85.266c-.001 17.641-14.353 31.994-31.994 31.994z" fill="#00c"/></g><g><path d="m118 388.76h-55.444c-17.641 0-31.994-14.353-31.994-31.994v-141.587c0-17.641 14.353-31.994 31.994-31.994h386.888c17.641 0 31.994 14.353 31.994 31.994v22.321c0 2.761-2.239 5-5 5s-5-2.239-5-5v-22.321c0-12.127-9.866-21.994-21.994-21.994h-386.888c-12.127 0-21.994 9.866-21.994 21.994v141.587c0 12.127 9.866 21.994 21.994 21.994h55.444c2.761 0 5 2.239 5 5s-2.239 5-5 5z" fill="#00c"/></g><circle cx="76.263" cy="321.043" fill="#2c27ff" r="16.597"/><g fill="#ffb3b3"><circle cx="76.763" cy="244.377" r="7.25"/><circle cx="76.763" cy="274.377" r="7.25"/><circle cx="91.763" cy="259.377" r="7.25"/><circle cx="61.763" cy="259.377" r="7.25"/></g><circle cx="438.596" cy="253.723" fill="#2c27ff" r="16.597"/><g fill="#b3b3ff"><circle cx="438.096" cy="330.389" r="7.25"/><circle cx="438.096" cy="300.389" r="7.25"/><circle cx="423.096" cy="315.389" r="7.25"/><circle cx="453.096" cy="315.389" r="7.25"/></g><g fill="#fff"><path d="m236.09 210.983-108.31 108.32v-37.62l70.69-70.7z"/><path d="m327.1 210.983-149.98 149.98h-49.34v-15.46l134.52-134.52z"/><path d="m384.22 291.623v69.34h-69.34z"/></g></g><g><path d="m280.433 145.765c-.883 0-1.778-.234-2.588-.726-6.579-3.991-14.132-6.1-21.845-6.1s-15.266 2.109-21.845 6.1c-2.361 1.433-5.436.68-6.868-1.682-1.432-2.361-.679-5.436 1.682-6.868 8.143-4.939 17.49-7.55 27.031-7.55s18.889 2.611 27.031 7.55c2.361 1.432 3.114 4.507 1.682 6.868-.941 1.55-2.59 2.408-4.28 2.408z" fill="#00c"/></g><g><path d="m266.392 162.002c-.884 0-1.778-.234-2.589-.726-4.697-2.851-10.908-2.851-15.605 0-2.362 1.433-5.436.68-6.869-1.681-1.432-2.361-.68-5.436 1.681-6.869 3.913-2.374 8.405-3.629 12.99-3.629s9.077 1.255 12.99 3.629c2.361 1.433 3.113 4.508 1.681 6.869-.941 1.55-2.589 2.407-4.279 2.407z" fill="#00c"/></g><g><path d="m293.423 128.681c-.883 0-1.778-.234-2.588-.726-10.491-6.364-22.537-9.729-34.835-9.729s-24.344 3.364-34.835 9.729c-2.361 1.434-5.436.68-6.868-1.682-1.432-2.361-.679-5.436 1.682-6.868 12.055-7.313 25.895-11.179 40.021-11.179s27.966 3.866 40.021 11.179c2.361 1.432 3.114 4.507 1.682 6.868-.94 1.551-2.59 2.408-4.28 2.408z" fill="#00c"/></g><g><path d="m445.847 439.73c-1.28 0-2.559-.488-3.536-1.464l-11-11c-1.953-1.953-1.953-5.119 0-7.071l11-11c1.953-1.952 5.118-1.952 7.071 0l11 11c1.953 1.953 1.953 5.119 0 7.071l-11 11c-.976.976-2.256 1.464-3.535 1.464zm-3.929-16 3.929 3.929 3.929-3.929-3.929-3.929z" fill="#ff9d33"/></g><g><path d="m92.86 164.819c-1.28 0-2.559-.488-3.536-1.464l-11-11c-1.953-1.953-1.953-5.119 0-7.071l11-11c1.953-1.952 5.118-1.952 7.071 0l11 11c1.953 1.953 1.953 5.119 0 7.071l-11 11c-.976.976-2.255 1.464-3.535 1.464zm-3.929-16 3.929 3.929 3.929-3.929-3.929-3.929z" fill="#ff6c6c"/></g><g><path d="m181.935 447.024c-7.175 0-13.012-5.837-13.012-13.012s5.837-13.012 13.012-13.012 13.012 5.837 13.012 13.012c0 7.176-5.837 13.012-13.012 13.012zm0-16.024c-1.661 0-3.012 1.351-3.012 3.012s1.351 3.012 3.012 3.012 3.012-1.351 3.012-3.012c0-1.66-1.351-3.012-3.012-3.012z" fill="#6c6cff"/></g><g><path d="m312.868 91c-7.175 0-13.012-5.837-13.012-13.012s5.837-13.012 13.012-13.012 13.012 5.837 13.012 13.012c0 7.174-5.837 13.012-13.012 13.012zm0-16.024c-1.661 0-3.012 1.351-3.012 3.012s1.351 3.012 3.012 3.012 3.012-1.351 3.012-3.012-1.351-3.012-3.012-3.012z" fill="#6c6cff"/></g><g><path d="m376.208 161.788c-7.175 0-13.012-5.837-13.012-13.012s5.837-13.012 13.012-13.012 13.012 5.837 13.012 13.012-5.837 13.012-13.012 13.012zm0-16.024c-1.661 0-3.012 1.351-3.012 3.012s1.351 3.012 3.012 3.012 3.012-1.351 3.012-3.012-1.351-3.012-3.012-3.012z" fill="#ff6c6c"/></g></g></g></svg>