<svg id="Capa_1" enable-background="new 0 0 512 512" height="512" viewBox="0 0 512 512" width="512" xmlns="http://www.w3.org/2000/svg" xmlns:xlink="http://www.w3.org/1999/xlink"><linearGradient id="SVGID_1_" gradientUnits="userSpaceOnUse" x1="263.202" x2="247.202" y1="683.502" y2="-24.499"><stop offset=".007" stop-color="#9494ff"/><stop offset=".992" stop-color="#ffe8dc" stop-opacity="0"/></linearGradient><path d="m419.843 206.555c1.055-7.758 1.571-15.687 1.509-23.748-.692-90.025-74.256-163.486-164.281-164.057-91.815-.581-166.428 73.673-166.428 165.354 0 7.615.516 15.109 1.513 22.45 4.043 29.747-9.887 59.143-35.212 75.263-35.611 22.668-56.944 51.54-56.944 82.98 0 72.876 114.615 131.954 256 131.954s256-59.078 256-131.954c0-31.44-21.334-60.312-56.946-82.98-25.325-16.12-39.254-45.516-35.211-75.262z" fill="url(#SVGID_1_)"/><path d="m170.514 130.11c.284 4.926 4.182 9.497 9.984 9.497h27.517v85.811c0 5.521 4.476 9.997 9.997 9.997h75.978c5.521 0 9.997-4.476 9.997-9.997v-85.811h27.517c5.802 0 9.7-4.571 9.984-9.497l.034-24.877h-171.042z" fill="#4d4dff"/><path d="m371.967 153.788c-1.28 0-2.559-.488-3.536-1.464-1.953-1.953-1.953-5.119 0-7.071l9.997-9.998c1.952-1.952 5.118-1.952 7.071 0 1.953 1.953 1.953 5.119 0 7.071l-9.997 9.998c-.976.976-2.255 1.464-3.535 1.464z" fill="#ff9d33"/><path d="m381.921 495.249h-251.842c-2.761 0-4.999-2.238-4.999-4.999v-204.09c0-2.761 2.238-4.999 4.999-4.999h251.841c2.761 0 4.999 2.238 4.999 4.999v204.09c0 2.761-2.238 4.999-4.998 4.999z" fill="#00c" opacity=".1"/><path d="m444.857 160.307-76.003 76.004c-1.875 1.875-2.928 4.418-2.928 7.069v68.687h20.994v-64.132l72.783-72.782c1.171-1.171 1.171-3.07 0-4.241l-10.604-10.604c-1.172-1.172-3.071-1.172-4.242-.001z" fill="#ffab66"/><path d="m62.902 160.307-10.604 10.604c-1.171 1.171-1.171 3.07 0 4.241l72.783 72.782v64.132h20.994v-68.686c0-2.651-1.053-5.194-2.928-7.069l-76.003-76.004c-1.172-1.171-3.071-1.171-4.242 0z" fill="#ffab66"/><path d="m208.014 115.746v85.811c0 5.521 4.476 9.997 9.997 9.997h75.978c5.521 0 9.997-4.476 9.997-9.997v-85.811h27.517c8.906 0 13.367-10.768 7.069-17.066l-75.503-75.503c-3.904-3.904-10.234-3.904-14.138 0l-75.503 75.503c-6.298 6.298-1.837 17.066 7.069 17.066z" fill="#9494ff"/><path d="m381.921 474.255h-251.842c-2.761 0-4.999-2.238-4.999-4.999v-204.09c0-2.761 2.238-4.999 4.999-4.999h251.841c2.761 0 4.999 2.238 4.999 4.999v204.091c0 2.76-2.238 4.998-4.998 4.998z" fill="#ffc599"/><path d="m285.492 329.147h-58.983c-2.761 0-4.999-2.238-4.999-4.999v-63.982h68.98v63.982c0 2.761-2.238 4.999-4.998 4.999z" fill="#ffe8dc"/><path d="m256 329.147h-29.492c-2.761 0-4.999-2.238-4.999-4.999v-63.982h34.491z" fill="#ffd6bb"/><path d="m249.002 474.255h-98.472v-87.374c0-2.761 2.238-4.999 4.999-4.999h88.475c2.761 0 4.999 2.238 4.999 4.999v87.374z" fill="#fff"/><path d="m180.572 407.75h-12.496c-2.761 0-4.999-2.238-4.999-4.999s2.238-4.999 4.999-4.999h12.496c2.761 0 4.999 2.238 4.999 4.999s-2.238 4.999-4.999 4.999z" fill="#ff2c2c"/><path d="m231.558 433.742h-63.482c-2.761 0-4.999-2.238-4.999-4.999s2.238-4.999 4.999-4.999h63.482c2.761 0 4.999 2.238 4.999 4.999s-2.238 4.999-4.999 4.999z" fill="#9494ff"/><path d="m231.558 453.737h-63.482c-2.761 0-4.999-2.238-4.999-4.999s2.238-4.999 4.999-4.999h63.482c2.761 0 4.999 2.238 4.999 4.999s-2.238 4.999-4.999 4.999z" fill="#9494ff"/><path d="m78.753 336.147c-1.28 0-2.559-.488-3.536-1.464l-6.461-6.462-6.461 6.462c-1.952 1.952-5.118 1.952-7.071 0-1.953-1.953-1.953-5.119 0-7.071l9.997-9.998c.938-.938 2.209-1.464 3.536-1.464s2.598.527 3.536 1.464l9.997 9.998c1.953 1.953 1.953 5.119 0 7.071-.978.976-2.258 1.464-3.537 1.464z" fill="#ff9d33"/><path d="m427.951 334.047c-1.28 0-2.559-.488-3.536-1.464-1.953-1.953-1.953-5.119 0-7.071l9.997-9.997c1.953-1.952 5.118-1.952 7.071 0 1.953 1.953 1.953 5.119 0 7.071l-9.997 9.997c-.976.976-2.256 1.464-3.535 1.464z" fill="#6c6cff"/><path d="m147.392 194.428c-1.28 0-2.559-.488-3.536-1.464-1.953-1.953-1.953-5.119 0-7.071l9.997-9.997c1.953-1.952 5.118-1.952 7.071 0 1.953 1.953 1.953 5.119 0 7.071l-9.997 9.997c-.976.975-2.255 1.464-3.535 1.464z" fill="#ff6c6c"/><path d="m165.514 130.117c0 .093.003.187.008.28.466 8.101 6.903 14.21 14.975 14.21h22.517v80.811c0 8.27 6.728 14.997 14.997 14.997h75.979c8.27 0 14.997-6.728 14.997-14.997v-80.811h22.517c8.072 0 14.509-6.109 14.975-14.21.005-.093.008-.187.008-.28l.032-23.848c.171-4.076-1.351-8.064-4.411-11.124-1.953-1.952-5.118-1.952-7.071 0-1.953 1.953-1.953 5.119 0 7.071 2.191 2.19 1.383 4.722 1.083 5.446s-1.519 3.084-4.617 3.084h-27.517c-2.761 0-5 2.239-5 5v85.811c0 2.756-2.242 4.998-4.997 4.998h-75.979c-2.755 0-4.997-2.242-4.997-4.998v-85.811c0-2.761-2.239-5-5-5h-27.517c-3.098 0-4.317-2.361-4.617-3.084s-1.107-3.255 1.083-5.446l75.503-75.503c.944-.944 2.199-1.463 3.533-1.463s2.589.52 3.533 1.464l51.461 51.461c1.953 1.952 5.118 1.952 7.071 0 1.953-1.953 1.953-5.119 0-7.071l-51.461-51.46c-2.833-2.833-6.599-4.393-10.604-4.393s-7.772 1.56-10.604 4.393l-75.503 75.503c-3.06 3.06-4.582 7.048-4.411 11.124zm165.989-9.371c1.753 0 3.432-.294 4.997-.834l-.014 10.026c-.185 2.285-1.971 4.668-4.983 4.668h-22.517v-13.861h22.517zm-113.492 95.808h75.979c1.754 0 3.431-.318 4.997-.874v9.738c0 2.755-2.242 4.997-4.997 4.997h-75.979c-2.755 0-4.997-2.242-4.997-4.997v-9.738c1.566.556 3.243.874 4.997.874zm-37.514-95.808h22.517v13.861h-22.517c-3.013 0-4.798-2.384-4.983-4.668l-.014-10.026c1.565.539 3.244.833 4.997.833z" fill="#00c"/><path d="m463.237 167.375-10.604-10.604c-3.119-3.119-8.193-3.119-11.313 0l-76.002 76.003c-2.833 2.833-4.393 6.599-4.393 10.605v16.787c0 2.761 2.239 5 5 5l15.994-.001.001 204.089-251.84.001-.001-204.089h201.846c2.761 0 5-2.239 5-5s-2.239-5-5-5h-180.85v-11.786c0-4.006-1.56-7.772-4.393-10.604l-76.003-76.004c-3.12-3.119-8.194-3.119-11.313 0l-10.604 10.604c-1.511 1.511-2.343 3.52-2.343 5.656 0 2.137.832 4.146 2.343 5.656l71.318 71.318v219.25c0 5.513 4.485 9.999 9.999 9.999h251.842c5.513 0 9.999-4.485 9.999-9.999v-219.25l71.317-71.317c1.512-1.511 2.344-3.52 2.344-5.657-.001-2.137-.833-4.145-2.344-5.657zm-405.988 5.657 7.774-7.774 74.588 74.59c.944.943 1.463 2.198 1.463 3.533v11.787h-10.994v-7.232c0-1.326-.527-2.598-1.464-3.536zm326.135 71.367c-.938.938-1.464 2.209-1.464 3.536v7.232h-10.994v-11.787c0-1.335.52-2.589 1.464-3.533l74.588-74.589 7.774 7.774z" fill="#00c"/><path d="m103.746 74.917c-1.28 0-2.559-.488-3.536-1.464l-6.461-6.461-6.461 6.461c-1.953 1.952-5.118 1.952-7.071 0-1.953-1.953-1.953-5.119 0-7.071l9.997-9.997c1.953-1.952 5.118-1.952 7.071 0l9.997 9.997c1.953 1.953 1.953 5.119 0 7.071-.977.976-2.257 1.464-3.536 1.464z" fill="#6c6cff"/></svg>