<svg id="Capa_1" enable-background="new 0 0 512 512" height="512" viewBox="0 0 512 512" width="512" xmlns="http://www.w3.org/2000/svg" xmlns:xlink="http://www.w3.org/1999/xlink"><linearGradient id="SVGID_1_" gradientUnits="userSpaceOnUse" x1="-107" x2="724.004" y1="258.5" y2="258.5"><stop offset=".007" stop-color="#9494ff"/><stop offset=".992" stop-color="#ffe8dc" stop-opacity="0"/></linearGradient><path d="m512 258.5c0-27.631-12.504-53.535-34.347-75.837-15.199-15.518-27.854-33.295-37.513-52.751-30.889-62.217-83.554-103.196-143.336-103.196-42.483 0-81.369 20.698-111.403 55.003-19.88 22.707-44.981 40.125-72.987 51.371-67.839 27.242-112.414 73.243-112.414 125.41s44.575 98.168 112.414 125.41c28.006 11.246 53.107 28.664 72.988 51.371 30.034 34.305 68.92 55.003 111.403 55.003 59.782 0 112.447-40.979 143.336-103.196 9.659-19.456 22.314-37.233 37.513-52.751 21.842-22.302 34.346-48.206 34.346-75.837z" fill="url(#SVGID_1_)"/><path d="m426.177 329.983c-10.312 0-18.671 8.359-18.671 18.671v-17.996c0-10.312-8.359-18.671-18.671-18.671-2.147 0-4.2.38-6.12 1.047v-256.434c0-12.205-9.895-22.1-22.1-22.1h-191.729c-12.206 0-22.1 9.895-22.1 22.1v375.7c0 12.206 9.894 22.1 22.1 22.1h91.683c7.827 28.308 33.752 49.1 64.551 49.1h52.745c36.994 0 66.984-29.99 66.984-66.984v-87.862c-.001-10.312-8.36-18.671-18.672-18.671z" fill="#00c" opacity=".1"/><path d="m395.162 123.064h-21.517v-66.897h21.517c3.802 0 6.884 3.082 6.884 6.884v53.13c0 3.801-3.082 6.883-6.884 6.883z" fill="#6c6cff"/><path d="m131.189 191.9h24.666v-135.733h-24.666c-3.802 0-3.734 3.082-3.734 6.884v121.966c0 3.801-.067 6.883 3.734 6.883z" fill="#6c6cff"/><path d="m360.615 433.4h-191.729c-12.205 0-22.1-9.895-22.1-22.1v-375.7c0-12.205 9.894-22.1 22.1-22.1h191.729c12.205 0 22.1 9.894 22.1 22.1v375.7c0 12.205-9.895 22.1-22.1 22.1z" fill="#ff9d33"/><path d="m146.786 65.614h235.929v315.671h-235.929z" fill="#fff"/><path d="m357.117 381.285h-184.733v-75.446c0-2.761 2.238-4.999 4.999-4.999h174.736c2.761 0 4.999 2.238 4.999 4.999v75.446z" fill="#ebebff"/><path d="m285.005 44.493h-40.51c-2.761 0-4.999-2.238-4.999-4.999s2.238-4.999 4.999-4.999h40.51c2.761 0 4.999 2.238 4.999 4.999s-2.238 4.999-4.999 4.999z" fill="#ff4d4d"/><path d="m244.422 400.407v12.664c0 2.761 2.238 4.999 4.999 4.999h30.659c2.761 0 4.999-2.238 4.999-4.999v-12.664c0-2.761-2.238-4.999-4.999-4.999h-30.659c-2.761.001-4.999 2.239-4.999 4.999z" fill="#ff4d4d"/><path d="m343.741 411.738h-16.516c-2.761 0-4.999-2.238-4.999-4.999s2.238-4.999 4.999-4.999h16.516c2.761 0 4.999 2.238 4.999 4.999s-2.238 4.999-4.999 4.999z" fill="#ff4d4d"/><path d="m202.275 411.738h-16.516c-2.761 0-4.999-2.238-4.999-4.999s2.238-4.999 4.999-4.999h16.516c2.761 0 4.999 2.238 4.999 4.999s-2.238 4.999-4.999 4.999z" fill="#ff4d4d"/><path d="m352.118 239.104h-174.736c-2.761 0-4.999-2.238-4.999-4.999v-75.297c0-2.761 2.238-4.999 4.999-4.999h174.736c2.761 0 4.999 2.238 4.999 4.999v75.297c0 2.761-2.238 4.999-4.999 4.999z" fill="#ff4d4d"/><g fill="#fff"><path d="m211.096 220.282c-2.761 0-5-2.239-5-5v-37.651c0-2.761 2.239-5 5-5s5 2.239 5 5v37.651c0 2.761-2.239 5-5 5z"/><path d="m222.984 198.447h-11.888c-2.761 0-5-2.239-5-5v-15.816c0-2.761 2.239-5 5-5h11.888c7.118 0 12.908 5.791 12.908 12.908.001 7.117-5.79 12.908-12.908 12.908zm-6.888-10h6.888c1.604 0 2.908-1.305 2.908-2.908s-1.305-2.908-2.908-2.908h-6.888z"/><path d="m224.621 220.282h-13.524c-2.761 0-5-2.239-5-5v-21.859c0-2.761 2.239-5 5-5h13.524c8.784 0 15.93 7.146 15.93 15.93s-7.147 15.929-15.93 15.929zm-8.525-10h8.524c3.27 0 5.93-2.66 5.93-5.93s-2.66-5.93-5.93-5.93h-8.524z"/><path d="m268.826 220.282h-8.928c-7.038 0-12.763-5.726-12.763-12.763v-29.888c0-2.761 2.239-5 5-5s5 2.239 5 5v29.888c0 1.523 1.239 2.763 2.763 2.763h8.928c1.523 0 2.763-1.24 2.763-2.763v-29.888c0-2.761 2.238-5 5-5s5 2.239 5 5v29.888c0 7.037-5.726 12.763-12.763 12.763z"/><path d="m310.641 196.993h-8.928c-7.037 0-12.763-5.726-12.763-12.763v-6.599c0-2.761 2.238-5 5-5s5 2.239 5 5v6.599c0 1.523 1.239 2.763 2.763 2.763h8.928c1.523 0 2.764-1.24 2.764-2.763v-6.599c0-2.761 2.238-5 5-5s5 2.239 5 5v6.599c-.001 7.037-5.726 12.763-12.764 12.763z"/><path d="m306.177 220.282c-2.762 0-5-2.239-5-5v-23.289c0-2.761 2.238-5 5-5s5 2.239 5 5v23.289c0 2.761-2.239 5-5 5z"/></g><path d="m426.177 308.983c-10.312 0-18.671 8.359-18.671 18.671v-17.996c0-10.312-8.359-18.671-18.671-18.671-10.312 0-18.671 8.359-18.671 18.671v-11.997c0-10.312-8.359-18.671-18.671-18.671-10.312 0-18.671 8.359-18.671 18.671v-66.092c0-10.312-8.359-18.671-18.671-18.671-10.312 0-18.671 8.359-18.671 18.671v116.392c0-10.312-8.359-18.671-18.671-18.671-10.312 0-18.671 8.359-18.671 18.671v67.555c0 36.994 29.99 66.984 66.984 66.984h52.745c36.994 0 66.984-29.99 66.984-66.984v-87.862c-.003-10.312-8.362-18.671-18.674-18.671z" fill="#ffd6bb"/><path d="m332.82 246.445h-12.298c-6.491 0-11.771-5.28-11.771-11.771v-3.477c0-2.761 2.238-5 5-5s5 2.239 5 5v3.477c0 .977.795 1.771 1.771 1.771h12.298c2.762 0 5 2.239 5 5s-2.238 5-5 5z" fill="#fff3ee"/><path d="m332.82 274.689h-12.071c-2.762 0-5-2.239-5-5s2.238-5 5-5h12.071c2.762 0 5 2.239 5 5s-2.238 5-5 5z" fill="#ffab66"/><path d="m332.82 318.551h-12.071c-2.762 0-5-2.239-5-5s2.238-5 5-5h12.071c2.762 0 5 2.239 5 5 0 2.762-2.238 5-5 5z" fill="#ffab66"/><path d="m370.163 321.551h-12.071c-2.762 0-5-2.239-5-5s2.238-5 5-5h12.071c2.762 0 5 2.239 5 5s-2.238 5-5 5z" fill="#ffab66"/><path d="m407.506 327.549h-12.071c-2.762 0-5-2.239-5-5s2.238-5 5-5h12.071c2.762 0 5 2.239 5 5s-2.238 5-5 5z" fill="#ffab66"/><path d="m444.849 336.547h-12.071c-2.762 0-5-2.239-5-5s2.238-5 5-5h12.071c2.762 0 5 2.239 5 5s-2.239 5-5 5z" fill="#ffab66"/><path d="m269.428 383.996h-11.293c-2.761 0-5-2.239-5-5s2.239-5 5-5h11.293c2.762 0 5 2.239 5 5s-2.239 5-5 5z" fill="#ffab66"/><path d="m270.434 362.946h-12.299c-2.761 0-5-2.239-5-5s2.239-5 5-5h12.299c.977 0 1.771-.794 1.771-1.771v-3.477c0-2.761 2.238-5 5-5s5 2.239 5 5v3.477c0 6.491-5.28 11.771-11.771 11.771z" fill="#fff3ee"/><path d="m243.367 285.081h-65.984c-2.761 0-4.999-2.238-4.999-4.999s2.238-4.999 4.999-4.999h65.984c2.761 0 4.999 2.238 4.999 4.999s-2.238 4.999-4.999 4.999z" fill="#ffab66"/><path d="m213.374 264.86h-35.991c-2.761 0-4.999-2.238-4.999-4.999s2.238-4.999 4.999-4.999h35.991c2.761 0 4.999 2.238 4.999 4.999s-2.238 4.999-4.999 4.999z" fill="#ffab66"/><path d="m426.177 303.983c-5.104 0-9.836 1.624-13.706 4.382-.674-12.453-11.019-22.377-23.637-22.377-5.509 0-10.585 1.892-14.611 5.06-2.868-9.844-11.973-17.057-22.73-17.057-5.089 0-9.808 1.614-13.672 4.357v-46.778c0-13.052-10.619-23.671-23.671-23.671-13.053 0-23.672 10.619-23.672 23.671v97.078c-3.863-2.743-8.583-4.357-13.671-4.357-13.053 0-23.672 10.619-23.672 23.671v67.556c0 4.399.418 8.7 1.178 12.883h-85.427c-9.429 0-17.1-7.671-17.1-17.1v-25.015h73.214c2.761 0 5-2.239 5-5s-2.239-5-5-5h-73.214v-305.672h225.929v187.886c0 2.761 2.238 5 5 5s5-2.239 5-5v-130.436h7.447c6.553 0 11.884-5.331 11.884-11.884v-53.13c0-6.553-5.331-11.884-11.884-11.884h-7.447v-15.566c0-14.943-12.157-27.1-27.1-27.1h-191.729c-14.943 0-27.1 12.157-27.1 27.1v15.566h-10.596c-3.777 0-6.668 1.877-7.933 5.151-.803 2.079-.802 4.346-.801 6.539v122.354c0 2.193-.001 4.46.801 6.539 1.265 3.273 4.156 5.151 7.933 5.151h10.596v214.4c0 14.943 12.157 27.1 27.1 27.1h88c9.585 28.504 36.541 49.101 68.234 49.101h52.745c39.692 0 71.984-32.292 71.984-71.984v-87.862c0-13.053-10.62-23.672-23.672-23.672zm-31.015-242.816c1.039 0 1.884.845 1.884 1.884v53.13c0 1.039-.845 1.884-1.884 1.884h-7.447v-56.898zm-226.276-42.667h191.729c9.429 0 17.1 7.671 17.1 17.1v25.014h-225.929v-25.014c0-9.429 7.671-17.1 17.1-17.1zm-36.414 168.4c-.018-.56-.018-125.174 0-125.733h9.313v58.199c-1.894.712-3.249 2.525-3.249 4.667s1.355 3.956 3.249 4.667v58.2zm307.377 228.616c0 34.178-27.806 61.984-61.984 61.984h-52.745c-34.179 0-61.984-27.806-61.984-61.984v-67.556c0-7.538 6.133-13.671 13.672-13.671 7.538 0 13.671 6.133 13.671 13.671v32.86c0 2.761 2.238 5 5 5s5-2.239 5-5v-149.251c0-7.539 6.133-13.671 13.672-13.671 7.538 0 13.671 6.133 13.671 13.671v66.092 50.038c0 2.761 2.238 5 5 5s5-2.239 5-5v-50.038c0-7.538 6.133-13.671 13.672-13.671 7.538 0 13.671 6.133 13.671 13.671v50.038c0 2.761 2.238 5 5 5s5-2.239 5-5v-38.04c0-7.539 6.133-13.671 13.671-13.671 7.539 0 13.672 6.133 13.672 13.671v38.041c0 2.761 2.238 5 5 5s5-2.239 5-5v-20.044c0-7.539 6.133-13.671 13.671-13.671 7.539 0 13.672 6.133 13.672 13.671v87.86z" fill="#00c"/><path d="m176.735 89.079-5.833 5.832c-1.953 1.953-1.953 5.118 0 7.071.977.977 2.256 1.465 3.536 1.465 1.279 0 2.559-.488 3.535-1.464l2.297-2.297 2.296 2.297c1.953 1.952 5.118 1.952 7.071 0 1.953-1.953 1.953-5.119 0-7.071l-5.832-5.832c-1.951-1.952-5.117-1.953-7.07-.001z" fill="#00c"/><path d="m338.232 120.835c-9.159 0-16.61-7.451-16.61-16.61s7.451-16.61 16.61-16.61 16.61 7.451 16.61 16.61-7.45 16.61-16.61 16.61zm0-23.22c-3.645 0-6.61 2.965-6.61 6.61s2.966 6.61 6.61 6.61 6.61-2.965 6.61-6.61-2.965-6.61-6.61-6.61z" fill="#ffab66"/><path d="m349.843 132.446c-2.762 0-5-2.239-5-5 0-3.645-2.966-6.61-6.61-6.61s-6.61 2.965-6.61 6.61c0 2.761-2.238 5-5 5s-5-2.239-5-5c0-9.159 7.451-16.61 16.61-16.61s16.61 7.451 16.61 16.61c0 2.761-2.239 5-5 5z" fill="#ffab66"/><path d="m305.74 132.445h-12.497c-2.761 0-4.999-2.238-4.999-4.999s2.238-4.999 4.999-4.999h12.497c2.761 0 4.999 2.238 4.999 4.999s-2.238 4.999-4.999 4.999z" fill="#d9d9ff"/><path d="m305.74 115.222h-12.497c-2.761 0-4.999-2.238-4.999-4.999s2.238-4.999 4.999-4.999h12.497c2.761 0 4.999 2.238 4.999 4.999s-2.238 4.999-4.999 4.999z" fill="#d9d9ff"/><path d="m442.777 269.861c-1.279 0-2.56-.488-3.535-1.464l-6.465-6.464-6.465 6.464c-1.951 1.952-5.119 1.952-7.07 0-1.953-1.953-1.953-5.119 0-7.071l10-10c1.951-1.952 5.119-1.952 7.07 0l10 10c1.953 1.953 1.953 5.119 0 7.071-.975.976-2.255 1.464-3.535 1.464z" fill="#6c6cff"/><path d="m115.152 233c-1.28 0-2.559-.488-3.536-1.464l-6.464-6.464-6.464 6.464c-1.953 1.952-5.118 1.952-7.071 0-1.953-1.953-1.953-5.119 0-7.071l10-10c1.953-1.952 5.118-1.952 7.071 0l10 10c1.953 1.953 1.953 5.119 0 7.071-.977.976-2.256 1.464-3.536 1.464z" fill="#ff9d33"/><path d="m238.373 497.5c-1.28 0-2.559-.488-3.536-1.464l-6.464-6.464-6.464 6.464c-1.953 1.952-5.118 1.952-7.071 0-1.953-1.953-1.953-5.119 0-7.071l10-10c1.953-1.952 5.118-1.952 7.071 0l10 10c1.953 1.953 1.953 5.119 0 7.071-.977.976-2.257 1.464-3.536 1.464z" fill="#ff6c6c"/><path d="m427.777 223c-1.279 0-2.56-.488-3.535-1.464-1.953-1.953-1.953-5.119 0-7.071l10-10c1.951-1.952 5.119-1.952 7.07 0 1.953 1.953 1.953 5.119 0 7.071l-10 10c-.975.976-2.255 1.464-3.535 1.464z" fill="#ff6c6c"/><path d="m67.152 200.298c-1.28 0-2.559-.488-3.536-1.464-1.953-1.953-1.953-5.119 0-7.071l10-10c1.953-1.952 5.118-1.952 7.071 0 1.953 1.953 1.953 5.119 0 7.071l-10 10c-.976.976-2.255 1.464-3.535 1.464z" fill="#ff6c6c"/></svg>