<svg id="Capa_1" enable-background="new 0 0 512 512" height="512" viewBox="0 0 512 512" width="512" xmlns="http://www.w3.org/2000/svg" xmlns:xlink="http://www.w3.org/1999/xlink"><linearGradient id="SVGID_1_" gradientUnits="userSpaceOnUse" x1="517.282" x2="-119.913" y1="-43.218" y2="593.978"><stop offset=".0023" stop-color="#ffc599"/><stop offset=".992" stop-color="#ffe8dc" stop-opacity="0"/></linearGradient><g><path d="m430.91 171.888c-8.356-8.356-18.026-14.923-28.717-19.765-28.021-12.69-50.051-35.407-62.434-63.565-22.917-52.113-74.975-88.512-135.546-88.558-79.311-.06-145.162 63.163-148.147 142.418-1.277 33.922 8.857 65.421 26.87 90.969 22.877 32.448 28.821 73.782 17.021 111.69-16.764 53.857-10.919 104.898 20.973 136.791 55.888 55.888 170.586 31.804 256.185-53.795 85.598-85.599 109.683-200.296 53.795-256.185z" fill="url(#SVGID_1_)"/><g><path d="m400.833 220.167c5.523 0 10-4.477 10-10v-12.287c0-5.523-4.477-10-10-10h-15.333v-2.65c0-23.598-19.13-42.729-42.729-42.729h-6.728v-76.761h-155.086v76.76h-6.728c-23.598 0-42.729 19.13-42.729 42.729v2.651h-15.333c-5.523 0-10 4.477-10 10v12.287c0 5.523 4.477 10 10 10h15.333v98.667h-15.333c-5.523 0-10 4.477-10 10v12.287c0 5.523 4.477 10 10 10h15.333v2.65c0 23.598 19.13 42.729 42.729 42.729h6.731v71.76c0 2.761 2.239 5 5 5h145.08c2.761 0 5-2.239 5-5v-71.76h6.731c23.598 0 42.729-19.13 42.729-42.729v-2.651h15.333c5.523 0 10-4.477 10-10v-12.287c0-5.523-4.477-10-10-10h-15.333v-98.667h15.333z" fill="#00c" opacity=".1"/><g><g><path d="m180.957 38.74h155.087v101.046h-155.087z" fill="#6c6cff"/><path d="m180.96 345.21h155.08v101.05h-155.08z" fill="#6c6cff"/><path d="m180.96 345.21h155.08v49.24h-155.08z" fill="#4d4dff"/></g><g><g fill="#fff"><g><path d="m400.833 324.121h-23.333v-32.287h23.333c5.523 0 10 4.477 10 10v12.287c0 5.522-4.477 10-10 10z"/><path d="m400.833 193.167h-23.333v-32.287h23.333c5.523 0 10 4.477 10 10v12.287c0 5.522-4.477 10-10 10z"/></g><g><path d="m116.167 324.121h23.333v-32.287h-23.333c-5.523 0-10 4.477-10 10v12.287c0 5.522 4.477 10 10 10z"/><path d="m116.167 193.167h23.333v-32.287h-23.333c-5.523 0-10 4.477-10 10v12.287c0 5.522 4.477 10 10 10z"/></g></g><g><path d="m342.771 369.5h-168.542c-23.598 0-42.729-19.13-42.729-42.729v-168.542c0-23.598 19.13-42.729 42.729-42.729h168.542c23.598 0 42.729 19.13 42.729 42.729v168.542c0 23.599-19.13 42.729-42.729 42.729z" fill="#8383ff"/><path d="m222.458 115.5h-48.229c-23.598 0-42.729 19.13-42.729 42.729v48.229c30.319-30.319 60.639-60.639 90.958-90.958z" fill="#b3b3ff"/><path d="m281.054 115.5h-40.512l-109.042 109.042v39.974z" fill="#b3b3ff"/><path d="m131.5 205.5h254v78h-254z" fill="#ffc599"/><path d="m190.73 205.5-59.23 59.02v-39.98l19.04-19.04z" fill="#ffe8dc"/><g fill="#00c"><path d="m336.043 398.5c-2.762 0-5 2.239-5 5v42.759c0 2.761 2.238 5 5 5s5-2.239 5-5v-42.759c0-2.761-2.238-5-5-5z"/><path d="m400.833 198.167c8.271 0 15-6.729 15-15v-12.287c0-8.271-6.729-15-15-15h-10.393c-1.229-25.23-22.139-45.379-47.669-45.379h-1.728v-71.761c0-2.761-2.238-5-5-5s-5 2.239-5 5v71.76h-116.086c-2.762 0-5 2.239-5 5s2.238 5 5 5h127.814c20.804 0 37.729 16.925 37.729 37.729v168.542c0 20.804-16.925 37.729-37.729 37.729h-168.542c-20.804 0-37.729-16.925-37.729-37.729v-168.542c0-20.804 16.925-37.729 37.729-37.729h6.728c2.762 0 5-2.239 5-5v-76.76c0-2.761-2.238-5-5-5s-5 2.239-5 5v71.76h-1.728c-25.53 0-46.44 20.149-47.669 45.379h-10.393c-8.271 0-15 6.729-15 15v12.287c0 8.271 6.729 15 15 15h10.333v88.667h-10.333c-8.271 0-15 6.729-15 15v12.288c0 8.271 6.729 15 15 15h10.393c1.229 25.231 22.14 45.379 47.669 45.379h1.729v71.76c0 2.761 2.238 5 5 5s5-2.239 5-5v-71.76h156.814c25.529 0 46.439-20.149 47.669-45.379h10.393c8.271 0 15-6.729 15-15v-12.288c0-8.271-6.729-15-15-15h-10.334v-88.667h10.333zm-284.666-10c-2.757 0-5-2.243-5-5v-12.287c0-2.757 2.243-5 5-5h10.333v22.287zm-5 125.954v-12.288c0-2.757 2.243-5 5-5h10.333v22.288h-10.333c-2.757 0-5-2.244-5-5zm294.666-143.242v12.287c0 2.757-2.243 5-5 5h-10.333v-22.287h10.333c2.757 0 5 2.244 5 5zm-5 125.954c2.757 0 5 2.243 5 5v12.288c0 2.757-2.243 5-5 5h-10.333v-22.288z"/></g><path d="m337.84 148.546h-40.34c-2.761 0-5 2.239-5 5 0 2.761 2.239 5 5 5h40.599c2.91 0 5.238-2.485 4.98-5.448-.228-2.627-2.602-4.552-5.239-4.552z" fill="#fff"/><g><g><g><g><g><path d="m176.398 262.531h-5.332c-6.508 0-11.803-5.294-11.803-11.802v-16.457c0-6.508 5.295-11.803 11.803-11.803h5.332c6.508 0 11.803 5.295 11.803 11.803v16.457c-.001 6.507-5.296 11.802-11.803 11.802zm-5.333-30.062c-.994 0-1.803.809-1.803 1.803v16.457c0 .994.809 1.802 1.803 1.802h5.332c.994 0 1.803-.809 1.803-1.802v-16.457c0-.994-.809-1.803-1.803-1.803z" fill="#ff7300"/></g><g><path d="m217.878 262.09h-18.108c-2.122 0-4.012-1.339-4.716-3.341s-.068-4.23 1.586-5.559c5.043-4.049 12.846-11.451 14.406-15.227.6-1.451.505-3.052-.248-4.177-.584-.875-1.455-1.318-2.586-1.318-1.898 0-3.442 1.544-3.442 3.442 0 2.761-2.238 5-5 5s-5-2.239-5-5c0-7.412 6.03-13.442 13.442-13.442 4.479 0 8.451 2.099 10.898 5.759 2.624 3.922 3.064 8.99 1.178 13.555-1.354 3.274-4.398 6.997-7.594 10.308h5.184c2.762 0 5 2.239 5 5s-2.238 5-5 5z" fill="#ff7300"/></g></g><g><g><path d="m279.817 262.531h-5.331c-6.508 0-11.803-5.294-11.803-11.802v-16.457c0-6.508 5.295-11.803 11.803-11.803h5.331c6.508 0 11.803 5.295 11.803 11.803v16.457c0 6.507-5.295 11.802-11.803 11.802zm-5.331-30.062c-.994 0-1.803.809-1.803 1.803v16.457c0 .994.809 1.802 1.803 1.802h5.331c.994 0 1.803-.809 1.803-1.802v-16.457c0-.994-.809-1.803-1.803-1.803z" fill="#ff7300"/></g><g><path d="m321.298 262.09h-18.108c-2.122 0-4.012-1.339-4.716-3.341s-.068-4.23 1.586-5.559c5.043-4.049 12.846-11.451 14.406-15.227.6-1.452.505-3.052-.247-4.177-.585-.875-1.455-1.318-2.587-1.318-1.898 0-3.442 1.544-3.442 3.442 0 2.761-2.238 5-5 5s-5-2.239-5-5c0-7.412 6.03-13.442 13.442-13.442 4.479 0 8.452 2.099 10.899 5.76 2.624 3.923 3.063 8.99 1.177 13.555-1.354 3.274-4.398 6.996-7.594 10.307h5.184c2.762 0 5 2.239 5 5s-2.238 5-5 5z" fill="#ff7300"/></g></g></g><g><g><path d="m242.78 240.051c-2.762 0-5-2.239-5-5v-.115c0-2.761 2.238-5 5-5s5 2.239 5 5v.115c0 2.761-2.238 5-5 5z" fill="#ff7300"/></g><g><path d="m242.78 255.064c-2.762 0-5-2.239-5-5v-.115c0-2.761 2.238-5 5-5s5 2.239 5 5v.115c0 2.761-2.238 5-5 5z" fill="#ff7300"/></g></g></g><g><g><path d="m352.737 235.386c-1.279 0-2.559-.488-3.535-1.464l-2.299-2.298-2.299 2.298c-1.951 1.952-5.118 1.953-7.071 0-1.952-1.953-1.952-5.118.001-7.071l5.834-5.833c1.951-1.952 5.119-1.952 7.07 0l5.834 5.833c1.953 1.953 1.953 5.118.001 7.071-.976.975-2.256 1.464-3.536 1.464z" fill="#ff7300"/></g></g></g><g><g><path d="m272.833 161.463c-1.279 0-2.56-.488-3.536-1.465l-2.297-2.298-2.299 2.298c-1.951 1.952-5.119 1.952-7.07 0-1.953-1.953-1.953-5.119 0-7.071l5.834-5.834c.938-.938 2.209-1.464 3.535-1.464 1.326 0 2.599.527 3.536 1.465l5.833 5.834c1.952 1.953 1.952 5.119-.001 7.071-.976.976-2.256 1.464-3.535 1.464z" fill="#fff"/></g></g><g><g><path d="m232.166 161.463c-1.279 0-2.56-.488-3.535-1.464-1.953-1.953-1.953-5.119 0-7.071l5.834-5.834c1.951-1.952 5.119-1.952 7.07 0 1.953 1.953 1.953 5.119 0 7.071l-5.834 5.834c-.975.976-2.256 1.464-3.535 1.464z" fill="#fff"/></g></g><g><circle cx="177.341" cy="320.63" fill="#ff4d4d" r="11.13"/><circle cx="217.921" cy="320.63" fill="#ffc599" r="11.13"/><circle cx="258.5" cy="320.63" fill="#d9d9ff" r="11.13"/><circle cx="299.079" cy="320.63" fill="#ff8b00" r="11.13"/><circle cx="339.659" cy="320.63" fill="#fff" r="11.13"/></g></g></g></g><g><path d="m66.958 272.001c-1.279 0-2.56-.488-3.535-1.464l-11-11c-1.953-1.953-1.953-5.119 0-7.071l11-11c1.951-1.952 5.119-1.952 7.07 0l11 11c1.953 1.953 1.953 5.119 0 7.071l-11 11c-.975.976-2.256 1.464-3.535 1.464zm-3.929-16 3.929 3.929 3.929-3.929-3.929-3.929z" fill="#ff9d33"/></g><g><path d="m399.833 422.737c-1.279 0-2.56-.488-3.535-1.464l-11-11c-1.953-1.953-1.953-5.119 0-7.071l11-11c1.951-1.952 5.119-1.952 7.07 0l11 11c1.953 1.953 1.953 5.119 0 7.071l-11 11c-.975.976-2.256 1.464-3.535 1.464zm-3.929-16 3.929 3.929 3.929-3.929-3.929-3.929z" fill="#ff6c6c"/></g><g><path d="m385.5 86.884c-7.175 0-13.012-5.837-13.012-13.012s5.837-13.012 13.012-13.012 13.012 5.837 13.012 13.012-5.837 13.012-13.012 13.012zm0-16.024c-1.661 0-3.012 1.351-3.012 3.012s1.351 3.012 3.012 3.012 3.012-1.351 3.012-3.012-1.351-3.012-3.012-3.012z" fill="#ff6c6c"/></g><g><path d="m66.958 328.439c-7.175 0-13.012-5.837-13.012-13.012s5.837-13.012 13.012-13.012 13.012 5.837 13.012 13.012-5.837 13.012-13.012 13.012zm0-16.023c-1.661 0-3.012 1.351-3.012 3.012s1.351 3.012 3.012 3.012 3.012-1.351 3.012-3.012-1.351-3.012-3.012-3.012z" fill="#6c6cff"/></g><g><path d="m139.512 94.896c-7.175 0-13.012-5.837-13.012-13.012s5.837-13.012 13.012-13.012 13.012 5.837 13.012 13.012-5.837 13.012-13.012 13.012zm0-16.024c-1.661 0-3.012 1.351-3.012 3.012s1.351 3.012 3.012 3.012 3.012-1.351 3.012-3.012c-.001-1.661-1.351-3.012-3.012-3.012z" fill="#6c6cff"/></g></g></g></svg>