<svg id="Capa_1" enable-background="new 0 0 512 512" height="512" viewBox="0 0 512 512" width="512" xmlns="http://www.w3.org/2000/svg" xmlns:xlink="http://www.w3.org/1999/xlink"><linearGradient id="SVGID_1_" gradientUnits="userSpaceOnUse" x1="514.782" x2="-122.413" y1="-43.218" y2="593.978"><stop offset=".0023" stop-color="#ffc599"/><stop offset=".992" stop-color="#ffe8dc" stop-opacity="0"/></linearGradient><path d="m428.41 171.888c-8.356-8.356-18.026-14.923-28.717-19.765-28.021-12.69-50.051-35.407-62.434-63.565-22.917-52.113-74.975-88.512-135.546-88.558-79.311-.06-145.162 63.163-148.147 142.418-1.277 33.922 8.857 65.421 26.87 90.969 22.877 32.448 28.821 73.782 17.021 111.69-16.764 53.857-10.919 104.898 20.973 136.791 55.888 55.888 170.586 31.804 256.185-53.795 85.598-85.599 109.683-200.296 53.795-256.185z" fill="url(#SVGID_1_)"/><path d="m351.888 476.5h-191.775c-12.208 0-22.105-9.897-22.105-22.105v-375.79c0-12.208 9.897-22.105 22.105-22.105h191.775c12.208 0 22.105 9.897 22.105 22.105v375.789c0 12.209-9.897 22.106-22.105 22.106z" fill="#00c" opacity=".1"/><path d="m386.443 145.09h-21.522v-66.913h21.522c3.803 0 6.885 3.083 6.885 6.885v53.143c0 3.803-3.082 6.885-6.885 6.885z" fill="#6c6cff"/><path d="m122.407 213.943h24.672v-135.766h-24.672c-3.803 0-3.735 3.083-3.735 6.885v121.995c0 3.803-.067 6.886 3.735 6.886z" fill="#6c6cff"/><path d="m351.888 455.5h-191.775c-12.208 0-22.105-9.897-22.105-22.105v-375.79c0-12.208 9.897-22.105 22.105-22.105h191.775c12.208 0 22.105 9.897 22.105 22.105v375.789c0 12.209-9.897 22.106-22.105 22.106z" fill="#ff9d33"/><path d="m138.01 87.63h235.98v315.74h-235.98z" fill="#ffd9d9"/><circle cx="240.027" cy="141.796" fill="#ff9d33" r="37.914"/><path d="m373.99 87.63v47.35l-101.23 101.23c-1.95 1.95-5.12 1.95-7.07 0l-53.24-53.25c-1.95-1.95-1.95-5.11 0-7.07l88.27-88.26z" fill="#ff4d4d"/><circle cx="194.659" cy="119.589" fill="#b3b3ff" r="16.992"/><path d="m279.757 200.523c-1.279 0-2.56-.488-3.535-1.464l-26.624-26.624c-1.953-1.953-1.953-5.119 0-7.071 1.951-1.952 5.119-1.952 7.07 0l26.624 26.624c1.953 1.953 1.953 5.119 0 7.071-.976.976-2.256 1.464-3.535 1.464z" fill="#ffd9d9"/><g fill="#fff"><path d="m264.316 185.083c-1.279 0-2.56-.488-3.535-1.464l-11.184-11.184c-1.953-1.953-1.953-5.119 0-7.071l8.406-8.406c2.438-2.438 5.68-3.781 9.127-3.781 3.448 0 6.689 1.343 9.128 3.781 2.438 2.438 3.78 5.679 3.78 9.127s-1.343 6.689-3.781 9.127l-8.406 8.406c-.975.977-2.255 1.465-3.535 1.465zm-4.112-16.184 4.112 4.112 4.871-4.871c.549-.549.852-1.28.852-2.056s-.303-1.507-.852-2.056c-1.099-1.098-3.013-1.099-4.113 0z"/><path d="m279.757 200.523c-1.326 0-2.598-.527-3.535-1.464l-15.457-15.457c-.938-.938-1.465-2.209-1.465-3.536s.526-2.598 1.465-3.536l9.563-9.563c3.008-3.009 7.008-4.666 11.264-4.666 4.255 0 8.255 1.657 11.264 4.667 3.008 3.008 4.665 7.008 4.665 11.264 0 4.254-1.657 8.255-4.665 11.263l-9.563 9.563c-.939.938-2.21 1.465-3.536 1.465zm-8.386-20.457 8.386 8.386 6.026-6.027h.001c1.12-1.12 1.736-2.609 1.736-4.192 0-1.584-.616-3.073-1.736-4.193s-2.609-1.737-4.192-1.737c-1.584 0-3.073.617-4.192 1.737z"/><path d="m308.775 168.289c-3.409 0-6.614-1.328-9.025-3.739l-21.133-21.134c-1.953-1.953-1.953-5.119 0-7.071 1.951-1.952 5.119-1.952 7.07 0l21.134 21.134c1.045 1.044 2.864 1.043 3.907 0l6.313-6.313c.523-.522.811-1.216.811-1.954s-.288-1.432-.81-1.954l-21.134-21.134c-1.953-1.953-1.953-5.119 0-7.071 1.951-1.952 5.119-1.952 7.07 0l21.134 21.134c2.411 2.411 3.739 5.616 3.739 9.025 0 3.41-1.328 6.615-3.739 9.025l-6.312 6.312c-2.41 2.412-5.615 3.74-9.025 3.74z"/><path d="m321.875 122.253c-3.409 0-6.614-1.328-9.025-3.739l-4.665-4.666c-1.953-1.953-1.953-5.119 0-7.071 1.951-1.952 5.119-1.952 7.07 0l4.666 4.666c1.045 1.044 2.864 1.043 3.907 0l6.313-6.313c.522-.522.811-1.216.811-1.954s-.288-1.432-.81-1.954l-4.666-4.666c-1.953-1.953-1.953-5.119 0-7.071 1.951-1.952 5.119-1.952 7.07 0l4.666 4.666c2.411 2.411 3.739 5.616 3.739 9.025s-1.328 6.614-3.739 9.025l-6.312 6.313c-2.411 2.411-5.616 3.739-9.025 3.739z"/><path d="m346.989 133.291c-1.279 0-2.56-.488-3.535-1.464l-16.469-16.468c-1.953-1.953-1.953-5.119 0-7.071 1.951-1.952 5.119-1.952 7.07 0l16.469 16.468c1.953 1.953 1.953 5.119 0 7.071-.975.975-2.255 1.464-3.535 1.464z"/><path d="m138.007 187.5h235.985v215.873h-235.985z"/></g><path d="" style="fill:none;stroke:#00c;stroke-width:10;stroke-linecap:round;stroke-linejoin:round;stroke-miterlimit:10"/><path d="m276.26 66.5h-40.52c-2.762 0-5-2.239-5-5s2.238-5 5-5h40.52c2.762 0 5 2.239 5 5s-2.239 5-5 5z" fill="#ff4d4d"/><path d="m235.667 422.5v12.667c0 2.761 2.239 5 5 5h30.667c2.761 0 5-2.239 5-5v-12.667c0-2.761-2.239-5-5-5h-30.667c-2.762 0-5 2.238-5 5z" fill="#ff4d4d"/><path d="m335.01 433.833h-16.52c-2.762 0-5-2.239-5-5s2.238-5 5-5h16.52c2.762 0 5 2.239 5 5s-2.239 5-5 5z" fill="#ff4d4d"/><path d="m193.51 433.833h-16.52c-2.762 0-5-2.239-5-5s2.238-5 5-5h16.52c2.762 0 5 2.239 5 5s-2.239 5-5 5z" fill="#ff4d4d"/><circle cx="168.795" cy="174.489" fill="#ff4d4d" r="5.59"/><circle cx="185.705" cy="174.489" fill="#ff9494" r="5.59"/><path d="m230.772 295.777h-48c-2.762 0-5-2.239-5-5s2.238-5 5-5h48c2.762 0 5 2.239 5 5s-2.238 5-5 5z" fill="#d9d9ff"/><path d="m230.772 275.55h-48c-2.762 0-5-2.239-5-5s2.238-5 5-5h48c2.762 0 5 2.239 5 5s-2.238 5-5 5z" fill="#d9d9ff"/><path d="m219.948 248.032h-26.351c-4.813 0-8.729-3.916-8.729-8.729v-26.351c0-4.813 3.916-8.729 8.729-8.729h26.351c4.813 0 8.729 3.916 8.729 8.729v26.351c0 4.813-3.916 8.729-8.729 8.729zm-25.08-10h23.809v-23.809h-23.809z" fill="#b3b3ff"/><path d="m329.228 295.777h-48c-2.762 0-5-2.239-5-5s2.238-5 5-5h48c2.762 0 5 2.239 5 5s-2.239 5-5 5z" fill="#d9d9ff"/><path d="m329.228 275.55h-48c-2.762 0-5-2.239-5-5s2.238-5 5-5h48c2.762 0 5 2.239 5 5s-2.239 5-5 5z" fill="#d9d9ff"/><path d="m386.443 73.177h-7.451v-15.572c0-14.946-12.159-27.105-27.104-27.105h-191.776c-14.945 0-27.104 12.16-27.104 27.105v15.571h-10.601c-3.777 0-6.669 1.877-7.934 5.151-.803 2.079-.803 4.347-.802 6.54v122.383c-.001 2.193-.001 4.461.802 6.54 1.265 3.273 4.156 5.151 7.934 5.151h10.601v214.452c0 14.946 12.159 27.105 27.104 27.105h191.775c14.945 0 27.104-12.16 27.104-27.105v-283.303h7.451c6.554 0 11.885-5.332 11.885-11.885v-53.143c.001-6.554-5.33-11.885-11.884-11.885zm-226.331-32.677h191.775c9.432 0 17.104 7.673 17.104 17.105v25.021h-225.983v-25.021c0-9.432 7.673-17.105 17.104-17.105zm191.776 410h-191.776c-9.432 0-17.104-7.673-17.104-17.105v-25.021h196.981c2.762 0 5-2.239 5-5s-2.238-5-5-5h-196.981v-276.744c0-2.761-2.238-5-5-5s-5 2.239-5 5v19.761c-1.895.711-3.25 2.525-3.25 4.668s1.355 3.957 3.25 4.668v58.215h-9.318c-.018-.56-.018-125.206 0-125.766h9.318v4.453c0 2.761 2.238 5 5 5 .01 0 .019-.003.029-.003h230.955v340.768c0 9.433-7.673 17.106-17.104 17.106zm36.44-312.295c0 1.04-.846 1.885-1.885 1.885h-7.451v-56.913h7.451c1.039 0 1.885.846 1.885 1.885z" fill="#00c"/><path d="m318.403 204.223h-26.351c-4.813 0-8.729 3.916-8.729 8.729v26.351c0 4.813 3.916 8.729 8.729 8.729h26.351c4.813 0 8.729-3.916 8.729-8.729v-26.351c0-4.813-3.916-8.729-8.729-8.729zm-1.271 33.809h-23.809v-23.809h23.809z" fill="#00c"/><path d="m230.772 388.984h-48c-2.762 0-5-2.239-5-5s2.238-5 5-5h48c2.762 0 5 2.239 5 5s-2.238 5-5 5z" fill="#d9d9ff"/><path d="m219.948 361.465h-26.351c-4.813 0-8.729-3.916-8.729-8.729v-26.351c0-4.813 3.916-8.729 8.729-8.729h26.351c4.813 0 8.729 3.916 8.729 8.729v26.351c0 4.813-3.916 8.729-8.729 8.729zm-25.08-10h23.809v-23.809h-23.809z" fill="#ff4d4d"/><path d="m329.228 388.984h-48c-2.762 0-5-2.239-5-5s2.238-5 5-5h48c2.762 0 5 2.239 5 5s-2.239 5-5 5z" fill="#d9d9ff"/><path d="m318.403 361.465h-26.351c-4.813 0-8.729-3.916-8.729-8.729v-26.351c0-4.813 3.916-8.729 8.729-8.729h26.351c4.813 0 8.729 3.916 8.729 8.729v26.351c0 4.813-3.916 8.729-8.729 8.729zm-25.08-10h23.809v-23.809h-23.809z" fill="#ff9d33"/><path d="m101.104 57.167c-1.279 0-2.56-.488-3.535-1.464l-6.465-6.464-6.465 6.464c-1.951 1.952-5.119 1.952-7.07 0-1.953-1.953-1.953-5.119 0-7.071l10-10c1.951-1.952 5.119-1.952 7.07 0l10 10c1.953 1.953 1.953 5.119 0 7.071-.976.975-2.256 1.464-3.535 1.464z" fill="#ff9d33"/><path d="m444.771 337.657c-1.279 0-2.56-.488-3.535-1.464l-6.465-6.464-6.465 6.464c-1.951 1.952-5.119 1.952-7.07 0-1.953-1.953-1.953-5.119 0-7.071l10-10c1.951-1.952 5.119-1.952 7.07 0l10 10c1.953 1.953 1.953 5.119 0 7.071-.976.975-2.256 1.464-3.535 1.464z" fill="#6c6cff"/><path d="m87.229 269.912c-1.279 0-2.56-.488-3.535-1.464l-6.465-6.464-6.465 6.464c-1.951 1.952-5.119 1.952-7.07 0-1.953-1.953-1.953-5.119 0-7.071l10-10c1.951-1.952 5.119-1.952 7.07 0l10 10c1.953 1.953 1.953 5.119 0 7.071-.975.976-2.255 1.464-3.535 1.464z" fill="#6c6cff"/><path d="m426.771 128.225c-1.279 0-2.56-.488-3.535-1.464-1.953-1.953-1.953-5.119 0-7.071l10-10c1.951-1.952 5.119-1.952 7.07 0 1.953 1.953 1.953 5.119 0 7.071l-10 10c-.976.976-2.256 1.464-3.535 1.464z" fill="#ff6c6c"/><path d="m89.104 333.657c-1.279 0-2.56-.488-3.535-1.464-1.953-1.953-1.953-5.119 0-7.071l10-10c1.951-1.952 5.119-1.952 7.07 0 1.953 1.953 1.953 5.119 0 7.071l-10 10c-.976.975-2.256 1.464-3.535 1.464z" fill="#ff6c6c"/></svg>