<svg id="Capa_1" enable-background="new 0 0 512 512" height="512" viewBox="0 0 512 512" width="512" xmlns="http://www.w3.org/2000/svg" xmlns:xlink="http://www.w3.org/1999/xlink"><linearGradient id="SVGID_1_" gradientUnits="userSpaceOnUse" x1="484.555" x2="-53.445" y1="672.3" y2="-139.701"><stop offset=".008" stop-color="#ffe8dc" stop-opacity="0"/><stop offset=".9977" stop-color="#ff9494"/></linearGradient><g><path d="m419.843 204.806c1.055-7.758 1.571-15.687 1.509-23.748-.692-90.025-74.256-163.486-164.281-164.057-91.815-.581-166.428 73.673-166.428 165.354 0 7.615.516 15.109 1.513 22.45 4.043 29.747-9.887 59.143-35.212 75.263-35.611 22.668-56.944 51.54-56.944 82.98 0 72.876 114.615 131.954 256 131.954s256-59.078 256-131.954c0-31.44-21.334-60.312-56.946-82.98-25.325-16.12-39.254-45.516-35.211-75.262z" fill="url(#SVGID_1_)"/><g><g><g fill="#00c" opacity=".1"><path d="m195.631 299.539h-95.575c-9.73 0-17.617 7.888-17.617 17.617v132.654c0 9.73 7.888 17.617 17.617 17.617h95.575c9.73 0 17.617-7.888 17.617-17.617v-132.654c.001-9.729-7.887-17.617-17.617-17.617z"/><path d="m328.094 71.572c-55.915-.001-101.198 45.053-101.468 100.968-.146 30.196 12.901 57.346 33.709 76.023 16.766 15.049 28.07 34.998 32.14 56.765-5.302 3.15-8.866 8.917-8.866 15.532v39.055c0 8.381 5.713 15.409 13.451 17.454v26.064c0 5.585 4.528 10.112 10.112 10.112s10.112-4.528 10.112-10.112v-25.445h21.617v25.445c0 5.585 4.528 10.112 10.112 10.112s10.112-4.528 10.112-10.112v-26.064c7.738-2.045 13.451-9.073 13.451-17.454v-39.055c0-6.614-3.564-12.382-8.866-15.532 4.068-21.765 15.369-41.714 32.134-56.759 20.697-18.574 33.717-45.53 33.717-75.529 0-56.039-45.429-101.467-101.467-101.468z"/></g><g><g><g><path d="m195.631 440.428h-95.575c-9.73 0-17.617-7.888-17.617-17.617v-132.654c0-9.73 7.888-17.617 17.617-17.617h95.575c9.73 0 17.617 7.888 17.617 17.617v132.653c.001 9.73-7.887 17.618-17.617 17.618z" fill="#fff"/></g><path d="m166.636 272.539v5.253c0 10.378-8.413 18.792-18.792 18.792-10.378 0-18.792-8.413-18.792-18.792v-5.253z" fill="#ff6c6c"/></g><g><path d="m123.33 389.272v-49.21c0-13.54 10.97-24.52 24.51-24.52s24.52 10.98 24.52 24.52v49.21c0 13.55-10.98 24.52-24.52 24.52-6.77 0-12.9-2.74-17.33-7.18-4.44-4.44-7.18-10.56-7.18-17.34z" fill="#6c6cff"/><circle cx="147.844" cy="389.276" fill="#ff6c6c" r="24.518"/></g></g><g><g><path d="m317.284 338.01v38.423c0 5.585-4.528 10.112-10.112 10.112s-10.112-4.528-10.112-10.112v-38.423z" fill="#ffab66"/><path d="m359.126 338.01v38.423c0 5.585-4.528 10.112-10.112 10.112-5.585 0-10.112-4.528-10.112-10.112v-38.423z" fill="#ffab66"/><g fill="#ff9d33"><path d="m297.06 338.01h20.225v30.157h-15.6c-1.594 0-3.145-.211-4.625-.599z"/><path d="m359.126 338.01v29.558c-1.48.388-3.03.599-4.625.599h-15.6v-30.157z"/></g></g><path d="m260.335 221.563c19.714 17.696 31.884 42.165 33.61 68.401h68.295c1.725-26.233 13.89-50.703 33.604-68.395 20.697-18.574 33.717-45.53 33.717-75.529 0-56.039-45.428-101.467-101.467-101.468-55.915-.001-101.198 45.053-101.468 100.968-.146 30.197 12.901 57.346 33.709 76.023z" fill="#2c27ff"/><g><path d="m347.028 278.404h-37.87l3.39-16.75 6.94-34.34h17.21l6.94 34.34z" fill="#6c6cff"/></g><path d="m343.638 261.654c-4.71 2.68-10.07 4.11-15.54 4.11s-10.84-1.43-15.55-4.11l6.94-34.34h17.21z" fill="#4d4dff"/><path d="m354.504 350.988h-52.822c-9.981 0-18.073-8.091-18.073-18.073v-39.055c0-9.981 8.091-18.073 18.073-18.073h52.822c9.981 0 18.073 8.091 18.073 18.073v39.055c-.001 9.982-8.092 18.073-18.073 18.073z" fill="#6c6cff"/><path d="m283.609 299.102h88.968v14.286h-88.968z" fill="#b3b3ff"/><g fill="#00c"><path d="m195.631 267.539h-95.575c-12.471 0-22.617 10.146-22.617 22.617v31.844c0 2.761 2.239 5 5 5s5-2.239 5-5v-31.844c0-6.957 5.66-12.617 12.617-12.617h95.575c6.958 0 12.618 5.66 12.618 12.617v132.654c0 6.957-5.66 12.617-12.618 12.617h-95.575c-6.957 0-12.617-5.66-12.617-12.617v-66.81c0-2.761-2.239-5-5-5s-5 2.239-5 5v66.811c0 12.471 10.146 22.617 22.617 22.617h95.575c12.471 0 22.618-10.146 22.618-22.617v-132.655c0-12.471-10.146-22.617-22.618-22.617z"/><path d="m169.366 234.252c1.69 0 3.339-.857 4.28-2.408 1.432-2.361.679-5.436-1.682-6.868-7.266-4.408-15.606-6.737-24.119-6.737s-16.854 2.33-24.12 6.737c-2.361 1.432-3.114 4.507-1.682 6.868 1.432 2.36 4.507 3.115 6.868 1.682 5.703-3.459 12.25-5.287 18.934-5.287s13.23 1.828 18.933 5.287c.81.492 1.704.726 2.588.726z"/><path d="m147.844 235.997c-4.147 0-8.211 1.135-11.751 3.283-2.361 1.432-3.114 4.507-1.682 6.868 1.432 2.36 4.508 3.115 6.868 1.682 3.953-2.397 9.176-2.398 13.13 0 .811.492 1.705.726 2.588.726 1.69 0 3.339-.857 4.28-2.407 1.432-2.361.679-5.436-1.682-6.868-3.54-2.149-7.604-3.284-11.751-3.284z"/><path d="m117.468 218.478c9.148-5.55 19.652-8.483 30.376-8.483s21.228 2.933 30.376 8.483c.811.492 1.705.726 2.588.726 1.69 0 3.339-.857 4.28-2.407 1.432-2.361.679-5.436-1.682-6.868-10.712-6.498-23.009-9.933-35.563-9.933s-24.851 3.435-35.563 9.933c-2.361 1.432-3.114 4.507-1.682 6.868 1.434 2.361 4.509 3.114 6.87 1.681z"/><path d="m417.805 88.684c-1.489-2.325-4.582-3.004-6.907-1.513-2.325 1.489-3.003 4.582-1.513 6.907 9.928 15.498 15.176 33.465 15.176 51.961 0 27.352-11.684 53.525-32.057 71.808-16.229 14.565-27.397 33.169-32.438 53.622-1.782-.443-3.645-.682-5.562-.682h-52.822c-1.937 0-3.818.243-5.618.695-5.036-20.453-16.159-39.072-32.389-53.64-20.5-18.402-32.182-44.746-32.049-72.279.124-25.711 10.208-49.836 28.394-67.932 18.186-18.095 42.361-28.06 68.074-28.06 21.82 0 42.404 7.106 59.525 20.551 2.171 1.705 5.315 1.328 7.021-.845 1.705-2.172 1.327-5.315-.845-7.021-18.899-14.841-41.619-22.686-65.701-22.686-.002 0 .001 0-.001 0-28.373 0-55.056 11-75.127 30.971-20.073 19.974-31.203 46.599-31.34 74.973-.146 30.386 12.745 59.46 35.37 79.768 15.317 13.748 25.65 31.448 29.931 50.854-5.079 4.236-8.318 10.607-8.318 17.722v39.055c0 9.288 5.52 17.306 13.448 20.961v22.557c0 8.334 6.78 15.115 15.115 15.115s15.115-6.781 15.115-15.115v-20.446h11.61v20.446c0 8.334 6.781 15.115 15.116 15.115s15.115-6.781 15.115-15.115v-22.558c7.928-3.655 13.447-11.673 13.447-20.961v-39.052c0-7.116-3.24-13.489-8.321-17.725 4.28-19.405 14.614-37.102 29.928-50.845 22.482-20.177 35.377-49.063 35.377-79.25.002-20.412-5.792-40.245-16.754-57.356zm-105.518 287.75c0 2.82-2.295 5.115-5.115 5.115s-5.115-2.295-5.115-5.115v-20.446h10.23zm36.727 5.115c-2.821 0-5.116-2.295-5.116-5.115v-20.446h10.231v20.446c0 2.82-2.295 5.115-5.115 5.115zm18.562-48.633c0 7.208-5.864 13.073-13.072 13.073h-52.822c-7.209 0-13.073-5.864-13.073-13.073v-39.056c0-7.208 5.864-13.073 13.073-13.073h52.822c7.208 0 13.072 5.864 13.072 13.073z"/></g><g><path d="m352.795 216.702c0 12.138-5.488 22.995-14.117 30.222-6.117 5.123-15.05 5.124-21.168.001-8.632-7.227-14.121-18.084-14.121-30.223 0-12.137 5.486-22.988 14.116-30.214 6.12-5.125 15.059-5.124 21.178.001 8.627 7.226 14.112 18.077 14.112 30.213z" fill="#d9d9ff"/><g><path d="m349.232 214.247c-7.047 0-10.896-3.096-13.705-5.356-2.44-1.963-3.913-3.148-7.438-3.148-3.522 0-4.995 1.185-7.435 3.147-2.81 2.261-6.657 5.356-13.704 5.356s-10.895-3.096-13.704-5.356c-2.44-1.963-3.913-3.148-7.437-3.148-2.762 0-5-2.239-5-5s2.238-5 5-5c7.047 0 10.895 3.096 13.704 5.356 2.44 1.963 3.913 3.148 7.437 3.148 3.522 0 4.995-1.185 7.435-3.147 2.81-2.261 6.657-5.356 13.704-5.356s10.896 3.096 13.705 5.356c2.44 1.963 3.913 3.148 7.438 3.148 3.523 0 4.996-1.185 7.437-3.147 2.81-2.261 6.658-5.356 13.705-5.356 2.762 0 5 2.239 5 5s-2.238 5-5 5c-3.524 0-4.997 1.185-7.438 3.148-2.809 2.259-6.657 5.355-13.704 5.355z" fill="#9494ff"/></g></g></g><g opacity=".1"><g><path d="m169.366 261.253c-.883 0-1.778-.234-2.588-.726-5.702-3.459-12.249-5.287-18.933-5.287-6.685 0-13.232 1.828-18.934 5.287-2.361 1.434-5.436.679-6.868-1.682s-.679-5.436 1.682-6.868c7.266-4.408 15.606-6.737 24.12-6.737s16.854 2.33 24.12 6.737c2.361 1.432 3.114 4.507 1.682 6.868-.942 1.55-2.591 2.408-4.281 2.408z" fill="#00c"/></g><g><path d="m156.997 275.555c-.884 0-1.778-.234-2.589-.726-3.951-2.397-9.177-2.397-13.128 0-2.362 1.433-5.436.679-6.869-1.681-1.432-2.361-.68-5.436 1.681-6.869 3.54-2.147 7.604-3.283 11.752-3.283s8.211 1.135 11.751 3.283c2.361 1.433 3.113 4.508 1.681 6.869-.94 1.55-2.589 2.407-4.279 2.407z" fill="#00c"/></g><g><path d="m180.809 246.203c-.883 0-1.778-.234-2.588-.726-9.148-5.549-19.652-8.483-30.376-8.483s-21.228 2.934-30.376 8.483c-2.361 1.433-5.436.679-6.868-1.682s-.679-5.436 1.682-6.868c10.713-6.499 23.01-9.933 35.563-9.933s24.85 3.435 35.563 9.933c2.361 1.432 3.114 4.507 1.682 6.868-.943 1.551-2.592 2.408-4.282 2.408z" fill="#00c"/></g></g></g><g><path d="m157.002 160.347c-1.28 0-2.559-.488-3.536-1.464l-11-11c-1.953-1.953-1.953-5.119 0-7.071l11-11c1.953-1.952 5.118-1.952 7.071 0l11 11c1.953 1.953 1.953 5.119 0 7.071l-11 11c-.976.976-2.255 1.464-3.535 1.464zm-3.929-16 3.929 3.929 3.929-3.929-3.929-3.929z" fill="#ff6c6c"/></g><g><path d="m429.561 409.472c-1.279 0-2.56-.488-3.535-1.464l-11-11c-1.953-1.953-1.953-5.119 0-7.071l11-11c1.951-1.952 5.119-1.952 7.07 0l11 11c1.953 1.953 1.953 5.119 0 7.071l-11 11c-.976.975-2.256 1.464-3.535 1.464zm-3.929-16 3.929 3.929 3.929-3.929-3.929-3.929z" fill="#ff6c6c"/></g><g><path d="m267 451.688c-1.279 0-2.56-.488-3.535-1.464l-11-11c-1.953-1.953-1.953-5.119 0-7.071l11-11c1.951-1.952 5.119-1.952 7.07 0l11 11c1.953 1.953 1.953 5.119 0 7.071l-11 11c-.975.976-2.256 1.464-3.535 1.464zm-3.929-16 3.929 3.929 3.929-3.929-3.929-3.929z" fill="#ff9d33"/></g><g><path d="m65.458 228.259c-7.175 0-13.012-5.837-13.012-13.012s5.837-13.012 13.012-13.012 13.012 5.837 13.012 13.012-5.837 13.012-13.012 13.012zm0-16.024c-1.661 0-3.012 1.351-3.012 3.012s1.351 3.012 3.012 3.012 3.012-1.351 3.012-3.012-1.351-3.012-3.012-3.012z" fill="#6c6cff"/></g><g><path d="m413.988 296.159c-7.175 0-13.012-5.837-13.012-13.012s5.837-13.012 13.012-13.012 13.012 5.837 13.012 13.012-5.837 13.012-13.012 13.012zm0-16.024c-1.661 0-3.012 1.351-3.012 3.012s1.351 3.012 3.012 3.012 3.012-1.351 3.012-3.012-1.351-3.012-3.012-3.012z" fill="#ff9d33"/></g></g></g></svg>