<svg id="Capa_1" enable-background="new 0 0 512 512" height="512" viewBox="0 0 512 512" width="512" xmlns="http://www.w3.org/2000/svg" xmlns:xlink="http://www.w3.org/1999/xlink"><linearGradient id="SVGID_1_" gradientUnits="userSpaceOnUse" x1="-107" x2="724.004" y1="256" y2="256"><stop offset=".007" stop-color="#9494ff"/><stop offset=".992" stop-color="#ffe8dc" stop-opacity="0"/></linearGradient><g><path d="m512 256c0-27.631-12.504-53.535-34.347-75.837-15.199-15.518-27.854-33.295-37.513-52.751-30.889-62.217-83.554-103.196-143.336-103.196-42.483 0-81.369 20.698-111.403 55.003-19.88 22.707-44.981 40.125-72.987 51.371-67.839 27.242-112.414 73.243-112.414 125.41s44.575 98.168 112.414 125.41c28.006 11.246 53.107 28.664 72.988 51.371 30.034 34.305 68.92 55.003 111.403 55.003 59.782 0 112.447-40.979 143.336-103.196 9.659-19.456 22.314-37.233 37.513-52.751 21.842-22.302 34.346-48.206 34.346-75.837z" fill="url(#SVGID_1_)"/><g><g><g fill="#00c" opacity=".1"><path d="m210.419 295.341h-95.575c-9.73 0-17.617 7.888-17.617 17.617v132.654c0 9.73 7.888 17.617 17.617 17.617h95.575c9.73 0 17.617-7.888 17.617-17.617v-132.654c.001-9.729-7.887-17.617-17.617-17.617z"/><path d="m404.773 217.963h-9.311v-88.398c0-29.663-24.132-53.795-53.795-53.795-29.662 0-53.794 24.132-53.794 53.795v88.398h-8.574c-5.523 0-10 4.477-10 10v225.267c0 5.523 4.477 10 10 10h125.474c5.523 0 10-4.477 10-10v-225.267c0-5.523-4.478-10-10-10zm-89.354-88.398c0-14.473 11.775-26.248 26.248-26.248 14.474 0 26.248 11.775 26.248 26.248v88.398h-52.496z"/></g><g><g><g><g><path d="m210.419 436.23h-95.575c-9.73 0-17.617-7.888-17.617-17.617v-132.655c0-9.73 7.888-17.617 17.617-17.617h95.575c9.73 0 17.617 7.888 17.617 17.617v132.654c.001 9.73-7.887 17.618-17.617 17.618z" fill="#fff"/></g><path d="m181.424 268.341v5.253c0 10.378-8.413 18.792-18.792 18.792-10.378 0-18.792-8.413-18.792-18.792v-5.253z" fill="#ffab66"/></g><g><path d="m178.944 352.598h-32.624c-2.761 0-5-2.239-5-5v-32.625c0-2.761 2.239-5 5-5h32.625c2.761 0 5 2.239 5 5v32.625c-.001 2.761-2.239 5-5.001 5z" fill="#8383ff"/><path d="m178.944 406.598h-32.624c-2.761 0-5-2.239-5-5v-32.625c0-2.761 2.239-5 5-5h32.625c2.761 0 5 2.239 5 5v32.625c-.001 2.761-2.239 5-5.001 5z" fill="#ff6c6c"/></g></g><g><g><path d="m315.419 205.076v-102.511c0-14.473 11.775-26.248 26.247-26.248 14.474 0 26.248 11.775 26.248 26.248v102.511h27.547v-102.511c0-29.663-24.132-53.795-53.795-53.795-29.662 0-53.794 24.132-53.794 53.795v102.511z" fill="#ffab66"/></g><path d="m404.773 436.23h-125.474c-5.523 0-10-4.477-10-10v-225.267c0-5.523 4.477-10 10-10h125.474c5.523 0 10 4.477 10 10v225.267c0 5.522-4.477 10-10 10z" fill="#b3b3ff"/><g fill="#00c"><path d="m210.42 263.341h-95.575c-12.471 0-22.617 10.146-22.617 22.618v132.654c0 12.471 10.146 22.617 22.617 22.617h95.575c12.471 0 22.617-10.146 22.617-22.617v-132.655c0-12.471-10.146-22.617-22.617-22.617zm12.617 155.271c0 6.957-5.66 12.617-12.617 12.617h-95.575c-6.957 0-12.617-5.66-12.617-12.617v-132.654c0-6.958 5.66-12.618 12.617-12.618h95.575c6.957 0 12.617 5.66 12.617 12.618z"/><path d="m184.154 230.055c1.69 0 3.339-.857 4.28-2.408 1.432-2.361.679-5.436-1.683-6.868-7.266-4.408-15.606-6.737-24.12-6.737s-16.854 2.33-24.12 6.737c-2.36 1.432-3.113 4.507-1.681 6.868 1.433 2.36 4.507 3.115 6.868 1.682 5.701-3.459 12.248-5.287 18.933-5.287s13.231 1.828 18.935 5.287c.811.491 1.705.726 2.588.726z"/><path d="m162.632 231.798c-4.146 0-8.21 1.135-11.751 3.283-2.361 1.432-3.114 4.507-1.683 6.868 1.432 2.36 4.506 3.115 6.868 1.683 3.956-2.399 9.178-2.398 13.13 0 .811.492 1.705.726 2.589.726 1.689 0 3.339-.857 4.279-2.407 1.433-2.361.68-5.436-1.681-6.869-3.539-2.148-7.604-3.284-11.751-3.284z"/><path d="m129.667 215.005c.883 0 1.777-.234 2.588-.726 9.15-5.549 19.654-8.483 30.377-8.483 10.724 0 21.228 2.934 30.377 8.483 2.361 1.433 5.437.68 6.868-1.682 1.432-2.361.679-5.436-1.683-6.868-10.712-6.499-23.01-9.933-35.563-9.933-12.552 0-24.85 3.435-35.563 9.933-2.361 1.432-3.114 4.507-1.683 6.868.942 1.551 2.592 2.409 4.282 2.408z"/><path d="m404.772 185.963h-4.311v-83.398c0-32.419-26.375-58.794-58.795-58.794-32.419 0-58.794 26.375-58.794 58.794v83.398h-3.574c-8.271 0-15 6.729-15 15v29.037c0 2.761 2.238 5 5 5s5-2.239 5-5v-29.037c0-2.757 2.243-5 5-5h125.474c2.757 0 5 2.243 5 5v225.267c0 2.757-2.243 5-5 5h-28.105c-2.762 0-5 2.239-5 5s2.238 5 5 5h28.105c8.271 0 15-6.729 15-15v-225.267c0-8.271-6.728-15-15-15zm-111.899-83.398c0-26.905 21.889-48.794 48.794-48.794s48.795 21.889 48.795 48.794v83.398h-17.547v-83.398c0-17.23-14.018-31.248-31.248-31.248-17.229 0-31.247 14.018-31.247 31.248v83.398h-17.547zm70.042 83.398h-42.495v-83.398c0-11.716 9.531-21.248 21.247-21.248s21.248 9.532 21.248 21.248z"/><path d="m342.666 431.229h-63.367c-2.757 0-5-2.243-5-5v-162.229c0-2.761-2.238-5-5-5s-5 2.239-5 5v162.229c0 8.271 6.729 15 15 15h63.367c2.762 0 5-2.239 5-5s-2.238-5-5-5z"/></g><path d="m338.629 236.677v152.31c0 2.76-2.24 5-5 5h-26.66c-2.76 0-5-2.24-5-5v-152.31c0-2.76 2.24-5 5-5h26.66c2.76 0 5 2.24 5 5z" fill="#ebebff"/><path d="m338.629 254.607v20.59l-36.66 36.66v-20.59z" fill="#fff"/><path d="m338.629 292.727v46.74l-36.66 36.66v-46.74z" fill="#fff"/><g fill="#6c6cff"><circle cx="370.099" cy="383.841" r="7.801"/><circle cx="370.099" cy="358.425" r="7.801"/></g></g></g><g opacity=".1"><g><path d="m184.154 257.055c-.883 0-1.777-.234-2.588-.726-5.703-3.459-12.25-5.287-18.935-5.287s-13.231 1.828-18.933 5.287c-2.361 1.433-5.436.68-6.868-1.682-1.433-2.361-.68-5.436 1.681-6.868 7.266-4.408 15.606-6.737 24.12-6.737s16.854 2.33 24.12 6.737c2.361 1.432 3.114 4.507 1.683 6.868-.941 1.55-2.589 2.408-4.28 2.408z" fill="#00c"/></g><g><path d="m171.785 271.357c-.884 0-1.778-.234-2.589-.726-3.952-2.397-9.174-2.399-13.13 0-2.362 1.432-5.437.679-6.868-1.683-1.432-2.361-.679-5.436 1.683-6.868 3.541-2.148 7.604-3.283 11.751-3.283s8.212 1.135 11.752 3.283c2.36 1.433 3.113 4.508 1.681 6.869-.941 1.551-2.59 2.408-4.28 2.408z" fill="#00c"/></g><g><path d="m129.667 242.005c-1.69 0-3.34-.857-4.28-2.408-1.432-2.361-.679-5.436 1.683-6.868 10.713-6.499 23.011-9.933 35.563-9.933 12.553 0 24.851 3.435 35.563 9.933 2.361 1.432 3.114 4.507 1.683 6.868-1.432 2.361-4.507 3.114-6.868 1.682-9.149-5.549-19.653-8.483-30.377-8.483-10.723 0-21.227 2.934-30.377 8.483-.813.492-1.707.726-2.59.726z" fill="#00c"/></g></g></g><g><path d="m143.84 91.771c-1.279 0-2.56-.488-3.535-1.464l-11-11c-1.953-1.953-1.953-5.119 0-7.071l11-11c1.951-1.952 5.119-1.952 7.07 0l11 11c1.953 1.953 1.953 5.119 0 7.071l-11 11c-.976.975-2.256 1.464-3.535 1.464zm-3.929-16 3.929 3.929 3.929-3.929-3.929-3.929z" fill="#ff6c6c"/></g><g><path d="m86.228 187.645c-1.279 0-2.56-.488-3.535-1.464l-11-11c-1.953-1.953-1.953-5.119 0-7.071l11-11c1.951-1.952 5.119-1.952 7.07 0l11 11c1.953 1.953 1.953 5.119 0 7.071l-11 11c-.976.976-2.256 1.464-3.535 1.464zm-3.929-16 3.929 3.929 3.929-3.929-3.929-3.929z" fill="#ff9d33"/></g><g><path d="m451.765 238.047c-1.279 0-2.56-.488-3.535-1.464l-11-11c-1.953-1.953-1.953-5.119 0-7.071l11-11c1.951-1.952 5.119-1.952 7.07 0l11 11c1.953 1.953 1.953 5.119 0 7.071l-11 11c-.976.976-2.256 1.464-3.535 1.464zm-3.929-16 3.929 3.929 3.929-3.929-3.929-3.929z" fill="#ff9d33"/></g><g><path d="m56 419.609c-7.175 0-13.012-5.837-13.012-13.012s5.837-13.011 13.012-13.011 13.012 5.837 13.012 13.012-5.837 13.011-13.012 13.011zm0-16.023c-1.661 0-3.012 1.351-3.012 3.012s1.351 3.012 3.012 3.012 3.012-1.351 3.012-3.012-1.351-3.012-3.012-3.012z" fill="#6c6cff"/></g><g><path d="m236.049 173.652c-7.175 0-13.012-5.837-13.012-13.012s5.837-13.012 13.012-13.012 13.012 5.837 13.012 13.012-5.837 13.012-13.012 13.012zm0-16.024c-1.661 0-3.012 1.351-3.012 3.012s1.351 3.012 3.012 3.012 3.012-1.351 3.012-3.012-1.351-3.012-3.012-3.012z" fill="#6c6cff"/></g></g></g></svg>