<svg id="Capa_1" enable-background="new 0 0 512 512" height="512" viewBox="0 0 512 512" width="512" xmlns="http://www.w3.org/2000/svg" xmlns:xlink="http://www.w3.org/1999/xlink"><linearGradient id="SVGID_1_" gradientUnits="userSpaceOnUse" x1="514.782" x2="-122.413" y1="-43.218" y2="593.978"><stop offset=".0023" stop-color="#ffc599"/><stop offset=".992" stop-color="#ffe8dc" stop-opacity="0"/></linearGradient><g><path d="m428.41 171.888c-8.356-8.356-18.026-14.923-28.717-19.765-28.021-12.69-50.051-35.407-62.434-63.565-22.917-52.113-74.975-88.512-135.546-88.558-79.311-.06-145.162 63.163-148.147 142.418-1.277 33.922 8.857 65.421 26.87 90.969 22.877 32.448 28.821 73.782 17.021 111.69-16.764 53.857-10.919 104.898 20.973 136.791 55.888 55.888 170.586 31.804 256.185-53.795 85.598-85.599 109.683-200.296 53.795-256.185z" fill="url(#SVGID_1_)"/><g><g><g fill="#00c" opacity=".1"><path d="m210.419 325.341h-95.575c-9.73 0-17.617 7.888-17.617 17.617v132.654c0 9.73 7.888 17.617 17.617 17.617h95.575c9.73 0 17.617-7.888 17.617-17.617v-132.654c.001-9.729-7.887-17.617-17.617-17.617z"/><path d="m404.773 247.963h-89.311v-148.398c0-29.941-24.587-54.247-54.631-53.788-29.517.451-52.959 25.085-52.959 54.605v105.694c0 2.761 2.239 5 5 5h17.547c2.761 0 5-2.239 5-5v-106.511c0-14.737 12.207-26.676 27.042-26.236 14.276.423 25.454 12.511 25.454 26.794v147.84h-8.616c-5.523 0-10 4.477-10 10v225.267c0 5.523 4.477 10 10 10h125.474c5.523 0 10-4.477 10-10v-225.267c0-5.523-4.478-10-10-10z"/></g><g><g><g><g><path d="m210.419 466.23h-95.575c-9.73 0-17.617-7.888-17.617-17.617v-132.655c0-9.73 7.888-17.617 17.617-17.617h95.575c9.73 0 17.617 7.888 17.617 17.617v132.654c.001 9.73-7.887 17.618-17.617 17.618z" fill="#fff"/></g><path d="m181.424 298.341v5.253c0 10.378-8.413 18.792-18.792 18.792-10.378 0-18.792-8.413-18.792-18.792v-5.253z" fill="#ffab66"/></g><g><path d="m178.944 382.598h-32.624c-2.761 0-5-2.239-5-5v-32.625c0-2.761 2.239-5 5-5h32.625c2.761 0 5 2.239 5 5v32.625c-.001 2.761-2.239 5-5.001 5z" fill="#8383ff"/><path d="m178.944 436.598h-32.624c-2.761 0-5-2.239-5-5v-32.625c0-2.761 2.239-5 5-5h32.625c2.761 0 5 2.239 5 5v32.625c-.001 2.761-2.239 5-5.001 5z" fill="#ff6c6c"/></g></g><g><g><path d="m287.915 235.076v-161.953c0-14.283-11.178-26.371-25.454-26.794-14.834-.44-27.042 11.499-27.042 26.236v106.511c0 2.761-2.239 5-5 5h-17.547c-2.761 0-5-2.239-5-5v-105.694c0-29.521 23.442-54.155 52.959-54.605 30.044-.459 54.631 23.847 54.631 53.788v162.511z" fill="#ffab66"/></g><path d="m404.773 466.23h-125.474c-5.523 0-10-4.477-10-10v-225.267c0-5.523 4.477-10 10-10h125.474c5.523 0 10 4.477 10 10v225.267c0 5.522-4.477 10-10 10z" fill="#b3b3ff"/><g fill="#00c"><path d="m210.42 293.341h-95.575c-12.471 0-22.617 10.146-22.617 22.618v132.654c0 12.471 10.146 22.617 22.617 22.617h95.575c12.471 0 22.617-10.146 22.617-22.617v-43.113c0-2.761-2.238-5-5-5s-5 2.239-5 5v43.112c0 6.957-5.66 12.617-12.617 12.617h-95.575c-6.957 0-12.617-5.66-12.617-12.617v-132.654c0-6.958 5.66-12.618 12.617-12.618h95.575c6.957 0 12.617 5.66 12.617 12.618v55.542c0 2.761 2.238 5 5 5s5-2.239 5-5v-55.542c0-12.471-10.146-22.617-22.617-22.617z"/><path d="m184.154 260.055c1.69 0 3.339-.857 4.28-2.408 1.432-2.361.679-5.436-1.683-6.868-7.266-4.408-15.606-6.737-24.12-6.737s-16.854 2.33-24.12 6.737c-2.36 1.432-3.113 4.507-1.681 6.868s4.506 3.116 6.868 1.682c5.701-3.459 12.248-5.287 18.933-5.287s13.231 1.828 18.935 5.287c.811.491 1.705.726 2.588.726z"/><path d="m162.632 261.798c-4.146 0-8.21 1.135-11.751 3.283-2.361 1.432-3.114 4.507-1.683 6.868s4.507 3.114 6.868 1.683c3.956-2.399 9.178-2.398 13.13 0 .811.492 1.705.726 2.589.726 1.689 0 3.339-.857 4.279-2.407 1.433-2.361.68-5.436-1.681-6.869-3.539-2.148-7.604-3.284-11.751-3.284z"/><path d="m129.667 245.005c.883 0 1.777-.234 2.588-.726 9.15-5.549 19.654-8.483 30.377-8.483 10.724 0 21.228 2.934 30.377 8.483 2.361 1.434 5.437.68 6.868-1.682 1.432-2.361.679-5.436-1.683-6.868-10.712-6.499-23.01-9.933-35.563-9.933-12.552 0-24.85 3.435-35.563 9.933-2.361 1.432-3.114 4.507-1.683 6.868.942 1.551 2.592 2.409 4.282 2.408z"/><path d="m404.772 215.963h-111.857v-142.84c0-17.035-13.596-31.297-30.306-31.792-8.507-.243-16.577 2.879-22.696 8.819-6.122 5.943-9.493 13.903-9.493 22.415v106.511h-17.547v-105.694c0-26.948 21.548-49.202 48.034-49.606 13.184-.199 25.581 4.784 34.978 14.038 9.4 9.257 14.577 21.599 14.577 34.751v114.397c0 2.761 2.238 5 5 5s5-2.239 5-5v-114.397c0-15.852-6.236-30.724-17.56-41.876-11.319-11.147-26.258-17.146-42.147-16.912-31.916.487-57.882 27.226-57.882 59.605v105.694c0 5.514 4.486 10 10 10h17.547c5.514 0 10-4.486 10-10v-106.511c0-5.784 2.294-11.197 6.459-15.24 4.162-4.041 9.674-6.178 15.434-5.999 11.36.336 20.603 10.114 20.603 21.796v142.84h-3.616c-8.271 0-15 6.729-15 15v225.267c0 8.271 6.729 15 15 15h125.474c8.271 0 15-6.729 15-15v-225.266c-.002-8.271-6.73-15-15.002-15zm5 240.266c0 2.757-2.243 5-5 5h-125.473c-2.757 0-5-2.243-5-5v-225.266c0-2.757 2.243-5 5-5h125.474c2.757 0 5 2.243 5 5v225.266z"/></g><path d="m338.629 266.677v152.31c0 2.76-2.24 5-5 5h-26.66c-2.76 0-5-2.24-5-5v-152.31c0-2.76 2.24-5 5-5h26.66c2.76 0 5 2.24 5 5z" fill="#ebebff"/><path d="m338.629 284.607v20.59l-36.66 36.66v-20.59z" fill="#fff"/><path d="m338.629 322.727v46.74l-36.66 36.66v-46.74z" fill="#fff"/><g fill="#ff6c6c"><circle cx="370.099" cy="413.841" r="7.801"/><circle cx="370.099" cy="388.425" r="7.801"/></g></g></g><g opacity=".1"><g><path d="m184.154 287.223c-.883 0-1.777-.234-2.588-.726-5.703-3.459-12.25-5.287-18.935-5.287s-13.231 1.828-18.933 5.287c-2.361 1.433-5.436.68-6.868-1.682-1.433-2.361-.68-5.436 1.681-6.868 7.266-4.408 15.606-6.737 24.12-6.737s16.854 2.33 24.12 6.737c2.361 1.432 3.114 4.507 1.683 6.868-.941 1.551-2.589 2.408-4.28 2.408z" fill="#00c"/></g><g><path d="m171.785 301.526c-.884 0-1.778-.234-2.589-.726-3.952-2.397-9.174-2.399-13.13 0-2.362 1.432-5.437.679-6.868-1.683-1.432-2.361-.679-5.436 1.683-6.868 3.541-2.148 7.604-3.283 11.751-3.283s8.212 1.135 11.752 3.283c2.36 1.433 3.113 4.508 1.681 6.869-.941 1.55-2.59 2.408-4.28 2.408z" fill="#00c"/></g><g><path d="m129.667 272.174c-1.69 0-3.34-.857-4.28-2.408-1.432-2.361-.679-5.436 1.683-6.868 10.713-6.499 23.011-9.933 35.563-9.933 12.553 0 24.851 3.435 35.563 9.933 2.361 1.432 3.114 4.507 1.683 6.868-1.432 2.361-4.507 3.114-6.868 1.682-9.149-5.549-19.653-8.483-30.377-8.483-10.723 0-21.227 2.934-30.377 8.483-.813.492-1.707.726-2.59.726z" fill="#00c"/></g></g></g><g><path d="m148.473 165.64c-7.175 0-13.012-5.837-13.012-13.012s5.837-13.012 13.012-13.012 13.012 5.837 13.012 13.012-5.838 13.012-13.012 13.012zm0-16.024c-1.661 0-3.012 1.351-3.012 3.012s1.351 3.012 3.012 3.012 3.012-1.351 3.012-3.012c-.001-1.661-1.351-3.012-3.012-3.012z" fill="#6c6cff"/></g><g><path d="m61.47 288.147c-7.175 0-13.012-5.837-13.012-13.012s5.837-13.012 13.012-13.012 13.012 5.837 13.012 13.012-5.837 13.012-13.012 13.012zm0-16.023c-1.661 0-3.012 1.351-3.012 3.012s1.351 3.012 3.012 3.012 3.012-1.351 3.012-3.012-1.351-3.012-3.012-3.012z" fill="#ff9d33"/></g><g><path d="m370.1 195.657c-7.175 0-13.012-5.837-13.012-13.012s5.837-13.012 13.012-13.012 13.012 5.837 13.012 13.012-5.838 13.012-13.012 13.012zm0-16.024c-1.661 0-3.012 1.351-3.012 3.012s1.351 3.012 3.012 3.012 3.012-1.351 3.012-3.012-1.351-3.012-3.012-3.012z" fill="#ff6c6c"/></g><g><path d="m388.9 108.317c-1.279 0-2.56-.488-3.535-1.464l-11-11c-1.953-1.953-1.953-5.119 0-7.071l11-11c1.951-1.952 5.119-1.952 7.07 0l11 11c1.953 1.953 1.953 5.119 0 7.071l-11 11c-.975.976-2.255 1.464-3.535 1.464zm-3.928-16 3.929 3.929 3.929-3.929-3.929-3.929z" fill="#ff9d33"/></g><g><path d="m447.542 398.285c-1.279 0-2.56-.488-3.535-1.464l-11-11c-1.953-1.953-1.953-5.119 0-7.071l11-11c1.951-1.952 5.119-1.952 7.07 0l11 11c1.953 1.953 1.953 5.119 0 7.071l-11 11c-.975.976-2.256 1.464-3.535 1.464zm-3.929-16 3.929 3.929 3.929-3.929-3.929-3.929z" fill="#6c6cff"/></g></g></g></svg>