<svg id="Capa_1" enable-background="new 0 0 512 512" height="512" viewBox="0 0 512 512" width="512" xmlns="http://www.w3.org/2000/svg" xmlns:xlink="http://www.w3.org/1999/xlink"><linearGradient id="SVGID_1_" gradientUnits="userSpaceOnUse" x1="514.782" x2="-122.413" y1="-43.218" y2="593.978"><stop offset=".0023" stop-color="#ffc599"/><stop offset=".992" stop-color="#ffe8dc" stop-opacity="0"/></linearGradient><path d="m428.41 171.888c-8.356-8.356-18.026-14.923-28.717-19.765-28.021-12.69-50.051-35.407-62.434-63.565-22.917-52.113-74.975-88.512-135.546-88.558-79.311-.06-145.162 63.163-148.147 142.418-1.277 33.922 8.857 65.421 26.87 90.969 22.877 32.448 28.821 73.782 17.021 111.69-16.764 53.857-10.919 104.898 20.973 136.791 55.888 55.888 170.586 31.804 256.185-53.795 85.598-85.599 109.683-200.296 53.795-256.185z" fill="url(#SVGID_1_)"/><path d="m334.47 476.5h-191.775c-12.208 0-22.105-9.897-22.105-22.105v-375.79c0-12.208 9.897-22.105 22.105-22.105h191.775c12.208 0 22.105 9.897 22.105 22.105v375.789c0 12.209-9.897 22.106-22.105 22.106z" fill="#00c" opacity=".1"/><path d="m439.582 376.423h-221.333c-5.523 0-10-4.477-10-10v-140.923c0-5.523 4.477-10 10-10h221.333c5.523 0 10 4.477 10 10v140.923c0 5.523-4.477 10-10 10z" fill="#00c" opacity=".1"/><path d="m369.025 145.09h-21.522v-66.913h21.522c3.803 0 6.885 3.083 6.885 6.885v53.143c0 3.803-3.082 6.885-6.885 6.885z" fill="#6c6cff"/><path d="m104.989 213.943h24.672v-135.766h-24.672c-3.803 0-3.735 3.083-3.735 6.885v121.995c0 3.803-.067 6.886 3.735 6.886z" fill="#6c6cff"/><path d="m334.47 455.5h-191.775c-12.208 0-22.105-9.897-22.105-22.105v-375.79c0-12.208 9.897-22.105 22.105-22.105h191.775c12.208 0 22.105 9.897 22.105 22.105v375.789c0 12.209-9.897 22.106-22.105 22.106z" fill="#ff9d33"/><path d="m120.59 87.63h235.98v315.74h-235.98z" fill="#fff"/><path d="m356.57 215.5v160.92h-138.32c-5.52 0-10-4.47-10-10v-140.92c0-5.52 4.48-10 10-10z" fill="#ebebff"/><path d="m186.092 376.92h-36c-2.762 0-5-2.239-5-5s2.238-5 5-5h36c2.762 0 5 2.239 5 5s-2.238 5-5 5z" fill="#ebebff"/><path d="m186.092 356.693h-36c-2.762 0-5-2.239-5-5s2.238-5 5-5h36c2.762 0 5 2.239 5 5s-2.238 5-5 5z" fill="#ebebff"/><g fill="#ff4d4d"><path d="m238.582 290.095c-36.629 0-66.429-29.8-66.429-66.428s29.8-66.428 66.429-66.428 66.429 29.8 66.429 66.428-29.8 66.428-66.429 66.428zm0-122.857c-31.115 0-56.429 25.313-56.429 56.428s25.313 56.428 56.429 56.428 56.429-25.313 56.429-56.428-25.314-56.428-56.429-56.428z"/><path d="m238.582 319c-52.566 0-95.333-42.767-95.333-95.333s42.767-95.333 95.333-95.333 95.333 42.767 95.333 95.333-42.767 95.333-95.333 95.333zm0-180.667c-47.053 0-85.333 38.28-85.333 85.333s38.28 85.334 85.333 85.334 85.333-38.28 85.333-85.333-38.28-85.334-85.333-85.334z"/><path d="m258.842 66.5h-40.52c-2.762 0-5-2.239-5-5s2.238-5 5-5h40.52c2.762 0 5 2.239 5 5s-2.238 5-5 5z"/><path d="m218.249 422.5v12.667c0 2.761 2.239 5 5 5h30.667c2.761 0 5-2.239 5-5v-12.667c0-2.761-2.239-5-5-5h-30.667c-2.762 0-5 2.238-5 5z"/><path d="m317.592 433.833h-16.52c-2.762 0-5-2.239-5-5s2.238-5 5-5h16.52c2.762 0 5 2.239 5 5s-2.238 5-5 5z"/><path d="m176.092 433.833h-16.52c-2.762 0-5-2.239-5-5s2.238-5 5-5h16.52c2.762 0 5 2.239 5 5s-2.238 5-5 5z"/></g><path d="m439.582 358.423h-221.333c-5.523 0-10-4.477-10-10v-140.923c0-5.523 4.477-10 10-10h221.333c5.523 0 10 4.477 10 10v140.923c0 5.523-4.477 10-10 10z" fill="#ffc599"/><path d="m208.249 223.667h241.333v32.667h-241.333z" fill="#2c27ff"/><path d="m280.572 334.623h-42.5c-2.762 0-5-2.239-5-5s2.238-5 5-5h42.5c2.762 0 5 2.239 5 5s-2.238 5-5 5z" fill="#fff"/><path d="m249.667 282.962h-11.594c-2.762 0-5-2.239-5-5s2.238-5 5-5h11.594c2.762 0 5 2.239 5 5s-2.239 5-5 5z" fill="#ff4d4d"/><path d="m343.572 334.623h-42.5c-2.762 0-5-2.239-5-5s2.238-5 5-5h42.5c2.762 0 5 2.239 5 5s-2.238 5-5 5z" fill="#fff"/><path d="m316.572 314.397h-78.5c-2.762 0-5-2.239-5-5s2.238-5 5-5h78.5c2.762 0 5 2.239 5 5s-2.238 5-5 5z" fill="#fff"/><path d="m419.99 292.962c-1.279 0-2.56-.488-3.535-1.464-1.953-1.953-1.953-5.119 0-7.071l10-10c1.951-1.952 5.119-1.952 7.07 0 1.953 1.953 1.953 5.119 0 7.071l-10 10c-.975.976-2.255 1.464-3.535 1.464z" fill="#ff8b00"/><path d="m396.056 292.962c-1.279 0-2.56-.488-3.535-1.464-1.953-1.953-1.953-5.119 0-7.071l10-10c1.951-1.952 5.119-1.952 7.07 0 1.953 1.953 1.953 5.119 0 7.071l-10 10c-.976.976-2.256 1.464-3.535 1.464z" fill="#ff8b00"/><path d="m372.12 292.962c-1.279 0-2.56-.488-3.535-1.464-1.953-1.953-1.953-5.119 0-7.071l10-10c1.951-1.952 5.119-1.952 7.07 0 1.953 1.953 1.953 5.119 0 7.071l-10 10c-.975.976-2.256 1.464-3.535 1.464z" fill="#ff8b00"/><path d="m348.186 292.962c-1.279 0-2.56-.488-3.535-1.464-1.953-1.953-1.953-5.119 0-7.071l10-10c1.951-1.952 5.119-1.952 7.07 0 1.953 1.953 1.953 5.119 0 7.071l-10 10c-.976.976-2.256 1.464-3.535 1.464z" fill="#ff8b00"/><path d="m439.582 192.5h-78.012v-42.41h7.455c6.554 0 11.885-5.332 11.885-11.885v-53.143c0-6.554-5.331-11.885-11.885-11.885h-7.455v-15.567c0-14.948-12.157-27.11-27.101-27.11h-191.779c-14.943 0-27.101 12.162-27.101 27.11v15.567h-10.601c-3.777 0-6.669 1.877-7.934 5.151-.803 2.079-.803 4.347-.802 6.54v122.383c-.001 2.193-.001 4.461.802 6.54 1.265 3.273 4.156 5.151 7.934 5.151h10.601v214.448c0 14.948 12.157 27.11 27.101 27.11h191.78c14.943 0 27.101-12.162 27.101-27.11v-69.967h78.012c8.271 0 15-6.729 15-15v-140.923c-.001-8.271-6.729-15-15.001-15zm-70.557-109.323c1.039 0 1.885.846 1.885 1.885v53.143c0 1.04-.846 1.885-1.885 1.885h-7.455v-56.913zm-226.335-42.677h191.78c9.43 0 17.101 7.675 17.101 17.11v25.017h-225.981v-25.017c0-9.435 7.671-17.11 17.1-17.11zm191.78 410h-191.78c-9.43 0-17.101-7.675-17.101-17.11v-25.017h225.98v25.017c.001 9.435-7.67 17.11-17.099 17.11zm110.112-102.077c0 2.757-2.243 5-5 5h-82.989c-2.76 0-4.997 2.236-5 4.995l-.023.005v39.95h-225.98v-184.433c0-2.761-2.238-5-5-5-.008 0-.016.002-.024.002h-14.294c-.018-.56-.018-125.206 0-125.766h9.318v4.46 53.755c-1.895.711-3.25 2.525-3.25 4.668s1.355 3.957 3.25 4.668v29.352c0 2.761 2.238 5 5 5s5-2.239 5-5v-87.452h225.98v99.873h-133.321c-8.271 0-15 6.729-15 15v140.923c0 8.271 6.729 15 15 15h104.343c2.762 0 5-2.239 5-5s-2.238-5-5-5h-104.343c-2.757 0-5-2.243-5-5v-140.923c0-2.757 2.243-5 5-5h221.333c2.757 0 5 2.243 5 5z" fill="#00c"/><path d="m317.949 124.541 2.299-2.298 2.299 2.298c.977.976 2.256 1.464 3.535 1.464s2.56-.488 3.536-1.465c1.952-1.953 1.952-5.118-.001-7.071l-5.834-5.833c-1.951-1.952-5.119-1.952-7.07 0l-5.834 5.833c-1.953 1.953-1.953 5.118-.001 7.071 1.953 1.954 5.12 1.953 7.071.001z" fill="#00c"/><path d="m401.056 168.167c-1.279 0-2.56-.488-3.535-1.464-1.953-1.953-1.953-5.119 0-7.071l10-10c1.951-1.952 5.119-1.952 7.07 0 1.953 1.953 1.953 5.119 0 7.071l-10 10c-.976.975-2.256 1.464-3.535 1.464z" fill="#ff6c6c"/><path d="m393.542 419.316c-1.279 0-2.56-.488-3.535-1.464-1.953-1.953-1.953-5.119 0-7.071l10-10c1.951-1.952 5.119-1.952 7.07 0 1.953 1.953 1.953 5.119 0 7.071l-10 10c-.975.976-2.256 1.464-3.535 1.464z" fill="#ff9d33"/><path d="m62.418 180.379c-1.279 0-2.56-.488-3.535-1.464-1.953-1.953-1.953-5.119 0-7.071l10-10c1.951-1.952 5.119-1.952 7.07 0 1.953 1.953 1.953 5.119 0 7.071l-10 10c-.975.976-2.256 1.464-3.535 1.464z" fill="#ff6c6c"/><path d="m86.795 346.726c-1.279 0-2.56-.488-3.535-1.464l-6.465-6.464-6.465 6.464c-1.951 1.952-5.119 1.952-7.07 0-1.953-1.953-1.953-5.119 0-7.071l10-10c1.951-1.952 5.119-1.952 7.07 0l10 10c1.953 1.953 1.953 5.119 0 7.071-.976.975-2.256 1.464-3.535 1.464z" fill="#ff9d33"/><path d="m439.99 125.172c-1.279 0-2.56-.488-3.535-1.464l-6.465-6.464-6.465 6.464c-1.951 1.952-5.119 1.952-7.07 0-1.953-1.953-1.953-5.119 0-7.071l10-10c1.951-1.952 5.119-1.952 7.07 0l10 10c1.953 1.953 1.953 5.119 0 7.071-.975.976-2.255 1.464-3.535 1.464z" fill="#6c6cff"/><path d="m295.01 264.578h-56.938c-2.761 0-5-2.239-5-5v-6.49c0-2.761 2.239-5 5-5h56.938c2.761 0 5 2.239 5 5v6.49c0 2.762-2.238 5-5 5z" fill="#ff4d4d"/></svg>