<svg id="Capa_1" enable-background="new 0 0 512 512" height="512" viewBox="0 0 512 512" width="512" xmlns="http://www.w3.org/2000/svg" xmlns:xlink="http://www.w3.org/1999/xlink"><linearGradient id="SVGID_1_" gradientUnits="userSpaceOnUse" x1="223.035" x2="307.035" y1="-174.119" y2="921.881"><stop offset=".0023" stop-color="#ffc599"/><stop offset=".992" stop-color="#ffe8dc" stop-opacity="0"/></linearGradient><g><path d="m512 256c0-27.631-12.504-53.535-34.347-75.837-15.199-15.518-27.854-33.295-37.513-52.751-30.889-62.217-83.554-103.196-143.336-103.196-42.483 0-81.369 20.698-111.403 55.003-19.88 22.707-44.981 40.125-72.987 51.371-67.839 27.242-112.414 73.243-112.414 125.41s44.575 98.168 112.414 125.41c28.006 11.246 53.107 28.664 72.988 51.371 30.034 34.305 68.92 55.003 111.403 55.003 59.782 0 112.447-40.979 143.336-103.196 9.659-19.456 22.314-37.233 37.513-52.751 21.842-22.302 34.346-48.206 34.346-75.837z" fill="url(#SVGID_1_)"/><g><g><g><path d="m397.878 161.902h-264.296c-11.046 0-20 8.954-20 20v232.757c0 11.046 8.954 20 20 20h306c11.046 0 20-8.954 20-20v-191.052c0-5.304-2.107-10.391-5.858-14.142l-41.704-41.705c-3.751-3.751-8.838-5.858-14.142-5.858z" fill="#00c" opacity=".1"/><path d="m459.582 196.61v191.05c0 11.04-8.95 20-20 20h-306c-11.05 0-20-8.96-20-20v-232.76c0-11.04 8.95-20 20-20h264.3c5.3 0 10.39 2.11 14.14 5.86l41.7 41.7c3.75 3.75 5.86 8.84 5.86 14.15z" fill="#ff6c6c"/><path d="m228.152 180.4c0 48.53-39.34 87.87-87.87 87.87-9.31 0-18.28-1.45-26.7-4.14v-109.23c0-11.04 8.95-20 20-20h81.89c8.05 13.27 12.68 28.85 12.68 45.5z" fill="#ff4d4d"/><path d="m429.582 204.89v162.77c0 5.52-4.48 10-10 10h-266c-5.52 0-10-4.48-10-10v-192.76c0-5.52 4.48-10 10-10h236.01c2.65 0 5.2 1.06 7.07 2.93l29.99 29.99c1.88 1.87 2.93 4.42 2.93 7.07z" fill="#ffd6bb"/><g><path d="m439.582 412.659h-306c-13.785 0-25-11.215-25-25v-109.325c0-2.761 2.239-5 5-5s5 2.239 5 5v109.325c0 8.271 6.729 15 15 15h306c8.271 0 15-6.729 15-15v-191.053c0-4.006-1.56-7.773-4.393-10.607l-41.705-41.704c-2.833-2.833-6.6-4.393-10.606-4.393h-139.966c-2.761 0-5-2.239-5-5s2.239-5 5-5h139.966c6.677 0 12.956 2.6 17.677 7.322l41.705 41.705c4.722 4.722 7.322 11 7.322 17.678v191.052c0 13.785-11.215 25-25 25z" fill="#00c"/></g><g><path d="m233.912 245.82v50.92c0 5.52-4.47 10-10 10h-80.33v-70.92h80.33c5.53 0 10 4.48 10 10z" fill="#ff9d33"/><path d="m208.462 235.82c-15.46 19.01-38.7 31.42-64.88 32.38v-32.38z" fill="#ff8b00"/><g><path d="m257.912 184.9v30.92c0 11.05-8.95 20-20 20h-94.33v-60.92c0-5.52 4.48-10 10-10h84.33c11.05 0 20 8.96 20 20z" fill="#ffab66"/><path d="m228.152 180.4c0 21.01-7.37 40.3-19.69 55.42h-64.88v-60.92c0-5.52 4.48-10 10-10h73.21c.89 5.04 1.36 10.22 1.36 15.5z" fill="#ff9d33"/><path d="m237.916 377.659h-84.333c-5.523 0-10-4.477-10-10v-60.919h94.333c11.046 0 20 8.954 20 20v30.919c0 11.046-8.955 20-20 20z" fill="#ffab66"/></g></g><g><path d="m349.249 306.74h80.333v-70.919h-80.333c-5.523 0-10 4.477-10 10v50.919c0 5.523 4.477 10 10 10z" fill="#ff9d33"/><g fill="#ffab66"><path d="m429.582 204.89v30.93h-94.33c-11.05 0-20-8.95-20-20v-30.92c0-11.04 8.95-20 20-20h54.34c2.65 0 5.2 1.06 7.07 2.93l29.99 29.99c1.88 1.87 2.93 4.42 2.93 7.07z"/><path d="m335.249 377.659h84.333c5.523 0 10-4.477 10-10v-60.919h-94.333c-11.046 0-20 8.954-20 20v30.919c0 11.046 8.954 20 20 20z"/></g></g></g><g><path d="m78.582 363.44c-1.326 0-2.598-.527-3.536-1.464l-11.292-11.292c-1.953-1.953-1.953-5.119 0-7.071l11.292-11.292c1.953-1.952 5.118-1.952 7.071 0l11.292 11.292c.938.938 1.464 2.209 1.464 3.536s-.527 2.598-1.464 3.536l-11.292 11.292c-.937.936-2.209 1.463-3.535 1.463zm-4.221-16.293 4.221 4.221 4.221-4.221-4.221-4.221z" fill="#6c6cff"/></g><g><path d="m210.457 72.132c-1.28 0-2.559-.488-3.536-1.464l-11.292-11.292c-.938-.938-1.464-2.209-1.464-3.536s.527-2.598 1.464-3.536l11.292-11.292c1.953-1.952 5.118-1.952 7.071 0l11.292 11.292c.938.938 1.464 2.209 1.464 3.536s-.527 2.598-1.464 3.536l-11.292 11.292c-.976.976-2.256 1.464-3.535 1.464zm-4.222-16.292 4.221 4.221 4.221-4.221-4.221-4.221z" fill="#ff9d33"/></g><g><path d="m402.395 101.573c-1.326 0-2.598-.527-3.536-1.464l-11.292-11.292c-1.953-1.953-1.953-5.119 0-7.071l11.292-11.292c1.953-1.952 5.118-1.952 7.071 0l11.292 11.292c.938.938 1.464 2.209 1.464 3.536s-.527 2.598-1.464 3.536l-11.292 11.292c-.937.936-2.209 1.463-3.535 1.463zm-4.222-16.293 4.221 4.221 4.221-4.221-4.221-4.221z" fill="#6c6cff"/></g><path d="" fill="#8383ff"/><g><path d="m425.582 472.453c-7.175 0-13.012-5.837-13.012-13.012s5.837-13.012 13.012-13.012 13.012 5.837 13.012 13.012-5.837 13.012-13.012 13.012zm0-16.024c-1.661 0-3.012 1.351-3.012 3.012s1.351 3.012 3.012 3.012 3.012-1.351 3.012-3.012-1.351-3.012-3.012-3.012z" fill="#ff6c6c"/></g><g><path d="m451.57 132.914c-7.175 0-13.012-5.837-13.012-13.012s5.837-13.012 13.012-13.012 13.012 5.837 13.012 13.012-5.837 13.012-13.012 13.012zm0-16.024c-1.661 0-3.012 1.351-3.012 3.012s1.351 3.012 3.012 3.012 3.012-1.351 3.012-3.012-1.351-3.012-3.012-3.012z" fill="#ff6c6c"/></g><path d="" fill="#8383ff"/></g><g><circle cx="140.283" cy="161.902" fill="#8383ff" r="87.865"/><g><path d="m140.283 254.768c-51.206 0-92.865-41.659-92.865-92.865 0-51.207 41.659-92.866 92.865-92.866 51.207 0 92.866 41.659 92.866 92.866 0 51.205-41.659 92.865-92.866 92.865zm0-175.731c-45.692 0-82.865 37.173-82.865 82.866 0 45.692 37.173 82.865 82.865 82.865s82.866-37.173 82.866-82.865c0-45.693-37.173-82.866-82.866-82.866z" fill="#00c"/></g><g><g><g><path d="m108.645 192.993h-17.244c-2.761 0-5-2.239-5-5s2.239-5 5-5h17.244c4.85 0 8.795-3.946 8.795-8.795s-3.946-8.795-8.795-8.795h-14.244c-4.411 0-8-3.589-8-8v-18.591c0-4.411 3.589-8 8-8h28.04c2.761 0 5 2.239 5 5s-2.239 5-5 5h-26.04v14.591h12.244c10.364 0 18.795 8.431 18.795 18.795s-8.431 18.795-18.795 18.795z" fill="#fff"/></g></g><g><path d="m163.075 192.993c-17.143 0-31.09-13.947-31.09-31.09 0-17.144 13.947-31.091 31.09-31.091 2.761 0 5 2.239 5 5s-2.239 5-5 5c-11.629 0-21.09 9.461-21.09 21.091s9.461 21.09 21.09 21.09c9.908 0 18.241-6.866 20.492-16.09h-16.916c-2.761 0-5-2.239-5-5s2.239-5 5-5h22.515c2.761 0 5 2.239 5 5 0 17.142-13.948 31.09-31.091 31.09z" fill="#fff"/></g></g></g></g></g></svg>