<svg id="Capa_1" enable-background="new 0 0 512 512" height="512" viewBox="0 0 512 512" width="512" xmlns="http://www.w3.org/2000/svg" xmlns:xlink="http://www.w3.org/1999/xlink"><linearGradient id="SVGID_1_" gradientUnits="userSpaceOnUse" x1="440.448" x2="68.448" y1="761.498" y2="-278.502"><stop offset=".008" stop-color="#ffe8dc" stop-opacity="0"/><stop offset=".993" stop-color="#9494ff"/></linearGradient><g><path d="m512 192.135c0-77.209-114.615-139.799-256-139.799s-256 62.59-256 139.799c0 12.48 2.999 24.577 8.62 36.089 10.007 20.491 12.502 43.828 7.537 66.086-2.036 9.127-3.179 18.59-3.333 28.294-1.235 77.812 61.961 142.061 139.782 142.06 58.443 0 108.503-35.865 129.385-86.785 11.468-27.964 35.565-48.919 65.155-55.077 96.38-20.057 164.854-70.992 164.854-130.667z" fill="url(#SVGID_1_)"/><g><path d="" fill="#8383ff"/><g><path d="m64.274 318.001c-1.279 0-2.56-.488-3.535-1.464l-11-11c-1.953-1.953-1.953-5.119 0-7.071l11-11c1.951-1.952 5.119-1.952 7.07 0l11 11c1.953 1.953 1.953 5.119 0 7.071l-11 11c-.975.976-2.255 1.464-3.535 1.464zm-3.928-16 3.929 3.929 3.929-3.929-3.929-3.929z" fill="#ff9d33"/></g><g><path d="m428.714 343.957c-1.279 0-2.56-.488-3.535-1.464l-11-11c-1.953-1.953-1.953-5.119 0-7.071l11-11c1.951-1.952 5.119-1.952 7.07 0l11 11c1.953 1.953 1.953 5.119 0 7.071l-11 11c-.976.976-2.256 1.464-3.535 1.464zm-3.929-16 3.929 3.929 3.929-3.929-3.929-3.929z" fill="#6c6cff"/></g><g><path d="m90.478 75.792c-1.326 0-2.598-.527-3.535-1.464l-11.293-11.292c-1.953-1.953-1.953-5.119 0-7.071l11.292-11.292c.938-.938 2.209-1.464 3.535-1.464s2.598.527 3.535 1.464l11.293 11.292c.938.938 1.465 2.209 1.465 3.536s-.526 2.598-1.465 3.536l-11.292 11.291c-.938.938-2.209 1.464-3.535 1.464zm-4.221-16.292 4.221 4.221 4.222-4.221-4.222-4.221z" fill="#6c6cff"/></g><g><path d="m450.714 390.998c-7.175 0-13.012-5.837-13.012-13.012s5.837-13.012 13.012-13.012 13.012 5.837 13.012 13.012-5.837 13.012-13.012 13.012zm0-16.024c-1.661 0-3.012 1.351-3.012 3.012s1.351 3.012 3.012 3.012 3.012-1.351 3.012-3.012-1.351-3.012-3.012-3.012z" fill="#ff9d33"/></g><g><path d="m95.006 273.765c-7.175 0-13.012-5.837-13.012-13.012s5.837-13.012 13.012-13.012 13.012 5.837 13.012 13.012-5.837 13.012-13.012 13.012zm0-16.024c-1.661 0-3.012 1.351-3.012 3.012s1.351 3.012 3.012 3.012 3.012-1.351 3.012-3.012-1.351-3.012-3.012-3.012z" fill="#ff6c6c"/></g><g><g><g><g><path d="m139.062 468.171c0 11.5 9.33 20.83 20.84 20.83h206.12c11.51 0 20.84-9.33 20.84-20.83v-392.34c0-11.5-9.33-20.83-20.84-20.83h-206.12c-11.51 0-20.84 9.33-20.84 20.83z" fill="#00c" opacity=".1"/><path d="m386.862 48.83v392.34c0 11.5-9.33 20.83-20.84 20.83h-206.12c-11.51 0-20.84-9.33-20.84-20.83v-392.34c0-11.5 9.33-20.83 20.84-20.83h206.12c11.51 0 20.84 9.33 20.84 20.83z" fill="#8383ff"/><path d="m330.508 56.006 8.453-28.007h-152l8.453 28.007c1.274 4.222 5.164 7.11 9.573 7.11h115.946c4.412 0 8.301-2.889 9.575-7.11z" fill="#ffab66"/><g fill="#00c"><path d="m366.025 22.999h-206.127c-14.246 0-25.836 11.59-25.836 25.835v64.999c0 2.761 2.238 5 5 5s5-2.239 5-5v-64.999c0-8.732 7.104-15.835 15.836-15.835h23.349l7.38 24.452c1.926 6.379 7.697 10.666 14.36 10.666h115.946c6.665 0 12.436-4.287 14.36-10.666l7.381-24.452h23.35c8.731 0 15.835 7.104 15.835 15.835v392.333c0 8.732-7.104 15.835-15.835 15.835h-206.126c-8.732 0-15.836-7.104-15.836-15.835v-124c0-2.761-2.238-5-5-5s-5 2.239-5 5v124c0 14.246 11.59 25.835 25.836 25.835h206.127c14.245 0 25.835-11.59 25.835-25.835v-392.333c0-14.245-11.589-25.835-25.835-25.835zm-40.304 31.563c-.642 2.126-2.564 3.554-4.786 3.554h-115.947c-2.221 0-4.145-1.429-4.786-3.555l-6.508-21.562h138.535z"/><path d="m139.063 288.166c2.762 0 5-2.239 5-5v-135.333c0-2.761-2.238-5-5-5s-5 2.239-5 5v135.333c0 2.762 2.238 5 5 5z"/></g></g></g><g><circle cx="218.97" cy="45.557" fill="#6c6cff" r="4.854"/></g><g><circle cx="235.295" cy="45.557" fill="#6c6cff" r="4.854"/></g><g><path d="m303.563 50.411h-37.202c-2.573 0-4.659-2.086-4.659-4.659s2.086-4.659 4.659-4.659h37.202c2.573 0 4.659 2.086 4.659 4.659-.001 2.573-2.086 4.659-4.659 4.659z" fill="#ff8b00"/></g></g><g><g fill="#fff"><path d="m180.446 99.669h-14.368c-1.657 0-3-1.343-3-3v-10.169c0-1.657 1.343-3 3-3h14.368c1.657 0 3 1.343 3 3v10.169c0 1.657-1.344 3-3 3z"/><path d="m180.446 130.554h-14.368c-1.657 0-3-1.343-3-3v-10.169c0-1.657 1.343-3 3-3h14.368c1.657 0 3 1.343 3 3v10.169c0 1.657-1.344 3-3 3z"/><path d="m180.446 161.439h-14.368c-1.657 0-3-1.343-3-3v-10.169c0-1.657 1.343-3 3-3h14.368c1.657 0 3 1.343 3 3v10.169c0 1.657-1.344 3-3 3z"/><path d="m180.446 192.324h-14.368c-1.657 0-3-1.343-3-3v-10.169c0-1.657 1.343-3 3-3h14.368c1.657 0 3 1.343 3 3v10.169c0 1.656-1.344 3-3 3z"/><path d="m180.446 223.208h-14.368c-1.657 0-3-1.343-3-3v-10.169c0-1.657 1.343-3 3-3h14.368c1.657 0 3 1.343 3 3v10.169c0 1.657-1.344 3-3 3z"/><path d="m180.446 254.093h-14.368c-1.657 0-3-1.343-3-3v-10.169c0-1.657 1.343-3 3-3h14.368c1.657 0 3 1.343 3 3v10.169c0 1.657-1.344 3-3 3z"/><path d="m180.446 284.978h-14.368c-1.657 0-3-1.343-3-3v-10.169c0-1.657 1.343-3 3-3h14.368c1.657 0 3 1.343 3 3v10.169c0 1.657-1.344 3-3 3z"/><path d="m180.446 315.863h-14.368c-1.657 0-3-1.343-3-3v-10.169c0-1.657 1.343-3 3-3h14.368c1.657 0 3 1.343 3 3v10.169c0 1.657-1.344 3-3 3z"/><path d="m180.446 346.748h-14.368c-1.657 0-3-1.343-3-3v-10.169c0-1.657 1.343-3 3-3h14.368c1.657 0 3 1.343 3 3v10.169c0 1.657-1.344 3-3 3z"/><path d="m359.846 99.669h-14.368c-1.657 0-3-1.343-3-3v-10.169c0-1.657 1.343-3 3-3h14.368c1.657 0 3 1.343 3 3v10.169c0 1.657-1.343 3-3 3z"/><path d="m359.846 130.554h-14.368c-1.657 0-3-1.343-3-3v-10.169c0-1.657 1.343-3 3-3h14.368c1.657 0 3 1.343 3 3v10.169c0 1.657-1.343 3-3 3z"/><path d="m359.846 161.439h-14.368c-1.657 0-3-1.343-3-3v-10.169c0-1.657 1.343-3 3-3h14.368c1.657 0 3 1.343 3 3v10.169c0 1.657-1.343 3-3 3z"/><path d="m359.846 192.324h-14.368c-1.657 0-3-1.343-3-3v-10.169c0-1.657 1.343-3 3-3h14.368c1.657 0 3 1.343 3 3v10.169c0 1.656-1.343 3-3 3z"/><path d="m359.846 223.208h-14.368c-1.657 0-3-1.343-3-3v-10.169c0-1.657 1.343-3 3-3h14.368c1.657 0 3 1.343 3 3v10.169c0 1.657-1.343 3-3 3z"/><path d="m359.846 254.093h-14.368c-1.657 0-3-1.343-3-3v-10.169c0-1.657 1.343-3 3-3h14.368c1.657 0 3 1.343 3 3v10.169c0 1.657-1.343 3-3 3z"/><path d="m359.846 284.978h-14.368c-1.657 0-3-1.343-3-3v-10.169c0-1.657 1.343-3 3-3h14.368c1.657 0 3 1.343 3 3v10.169c0 1.657-1.343 3-3 3z"/><path d="m359.846 315.863h-14.368c-1.657 0-3-1.343-3-3v-10.169c0-1.657 1.343-3 3-3h14.368c1.657 0 3 1.343 3 3v10.169c0 1.657-1.343 3-3 3z"/><path d="m359.846 346.748h-14.368c-1.657 0-3-1.343-3-3v-10.169c0-1.657 1.343-3 3-3h14.368c1.657 0 3 1.343 3 3v10.169c0 1.657-1.343 3-3 3z"/></g><path d="m320.295 161.439h-114.667c-2.761 0-5-2.239-5-5v-67.939c0-2.761 2.239-5 5-5h114.667c2.761 0 5 2.239 5 5v67.939c0 2.761-2.239 5-5 5z" fill="#ff6c6c"/><path d="m320.295 254.093h-114.667c-2.761 0-5-2.239-5-5v-67.939c0-2.761 2.239-5 5-5h114.667c2.761 0 5 2.239 5 5v67.939c0 2.762-2.239 5-5 5z" fill="#ffab66"/><path d="m320.295 346.748h-114.667c-2.761 0-5-2.239-5-5v-67.939c0-2.761 2.239-5 5-5h114.667c2.761 0 5 2.239 5 5v67.939c0 2.761-2.239 5-5 5z" fill="#ff6c6c"/><path d="m180.446 377.633h-14.368c-1.657 0-3-1.343-3-3v-10.169c0-1.657 1.343-3 3-3h14.368c1.657 0 3 1.343 3 3v10.169c0 1.656-1.344 3-3 3z" fill="#fff"/><path d="m180.446 408.517h-14.368c-1.657 0-3-1.343-3-3v-10.169c0-1.657 1.343-3 3-3h14.368c1.657 0 3 1.343 3 3v10.169c0 1.657-1.344 3-3 3z" fill="#fff"/><path d="m180.446 439.402h-14.368c-1.657 0-3-1.343-3-3v-10.169c0-1.657 1.343-3 3-3h14.368c1.657 0 3 1.343 3 3v10.169c0 1.657-1.344 3-3 3z" fill="#fff"/><path d="m359.846 377.633h-14.368c-1.657 0-3-1.343-3-3v-10.169c0-1.657 1.343-3 3-3h14.368c1.657 0 3 1.343 3 3v10.169c0 1.656-1.343 3-3 3z" fill="#fff"/><path d="m359.846 408.517h-14.368c-1.657 0-3-1.343-3-3v-10.169c0-1.657 1.343-3 3-3h14.368c1.657 0 3 1.343 3 3v10.169c0 1.657-1.343 3-3 3z" fill="#fff"/><path d="m359.846 439.402h-14.368c-1.657 0-3-1.343-3-3v-10.169c0-1.657 1.343-3 3-3h14.368c1.657 0 3 1.343 3 3v10.169c0 1.657-1.343 3-3 3z" fill="#fff"/><path d="m320.295 439.402h-114.667c-2.761 0-5-2.239-5-5v-67.939c0-2.761 2.239-5 5-5h114.667c2.761 0 5 2.239 5 5v67.939c0 2.762-2.239 5-5 5z" fill="#ffab66"/></g><path d="m311.152 176.15-77.95 77.94h-27.57c-2.76 0-5-2.24-5-5v-13.86l59.08-59.08z" fill="#ffc599"/><path d="m325.292 200.99v21.15l-31.95 31.95h-21.14z" fill="#ffc599"/><path d="m243.082 268.81-42.45 42.44v-37.44c0-2.76 2.24-5 5-5z" fill="#ff9494"/><path d="m279.092 268.81-76.71 76.72c-1.07-.9-1.75-2.26-1.75-3.78v-16.1l56.85-56.84z" fill="#ff9494"/><path d="m309.862 361.46-77.95 77.94h-26.28c-2.76 0-5-2.24-5-5v-10.38l62.56-62.56z" fill="#ffc599"/><path d="m325.292 366.46v11.71l-61.23 61.23h-18l77.06-77.06c1.31.9 2.17 2.41 2.17 4.12z" fill="#ffc599"/><g fill="#ff9494"><path d="m273.212 83.5-72.58 72.58v-36.96l35.62-35.62z"/><path d="m311.032 83.5-77.94 77.94h-21.17l77.95-77.94z"/></g></g></g></g></svg>