<svg id="Capa_1" enable-background="new 0 0 512 512" height="512" viewBox="0 0 512 512" width="512" xmlns="http://www.w3.org/2000/svg" xmlns:xlink="http://www.w3.org/1999/xlink"><linearGradient id="SVGID_1_" gradientUnits="userSpaceOnUse" x1="256" x2="256" y1="600.693" y2="63.55"><stop offset=".0023" stop-color="#ffc599"/><stop offset=".992" stop-color="#ffe8dc" stop-opacity="0"/></linearGradient><path d="m465.257 166.613c-14.861-17.312-24.645-38.356-29.218-60.708-3.878-18.954-12.095-35.401-24.961-48.267-58.773-58.773-192.264-20.572-298.161 85.325s-144.098 239.388-85.325 298.161c27.937 27.937 72.757 33.955 123.469 21.212 29.453-7.401 60.532-4.287 88.29 8.03 23.202 10.295 48.799 16.173 75.724 16.566 105.676 1.543 193.748-82.552 196.839-188.195 1.479-50.505-16.354-96.822-46.657-132.124z" fill="url(#SVGID_1_)"/><path d="m482.369 455.861-100.229-100.228c-3.566-3.566-9.333-3.582-12.924-.056l-142.861-142.862 35.219-35.219 20.046 20.044c3.9 3.91 10.23 3.91 14.14 0l16.26-16.26 13.333 13.333c3.905 3.905 10.237 3.905 14.142 0l26.779-26.779c3.905-3.905 3.905-10.237 0-14.142l-115.278-115.279c-3.905-3.905-10.237-3.905-14.142 0l-26.779 26.779c-3.905 3.905-3.905 10.237 0 14.142l13.331 13.33-16.266 16.266c-3.9 3.91-3.9 10.24 0 14.14l20.046 20.044-92.616 92.616-20.04-20.04c-3.91-3.91-10.24-3.91-14.14 0l-16.263 16.263-13.335-13.335c-3.905-3.905-10.237-3.905-14.142 0l-26.779 26.779c-3.905 3.905-3.905 10.237 0 14.142l83.716 83.716c-35.701 8.326-62.304 40.328-62.304 78.565 0 44.567 36.129 80.696 80.696 80.696 27.713 0 52.156-13.975 66.686-35.256 8.846 6.663 19.848 10.616 31.775 10.616 29.197 0 52.867-23.669 52.867-52.867 0-29.197-23.669-52.867-52.867-52.867-10.701 0-20.652 3.189-28.975 8.655-5.855-9.896-13.762-18.424-23.136-25.016l7.742-7.742c3.905-3.905 3.905-10.237 0-14.142l-13.333-13.333 16.262-16.264c3.91-3.91 3.91-10.24 0-14.14l-20.045-20.045 35.215-35.215 142.862 142.862c-3.524 3.591-3.506 9.356.059 12.921l100.228 100.228c3.586 3.586 9.4 3.586 12.986 0l22.064-22.064c3.586-3.586 3.586-9.4 0-12.986z" fill="#00c" opacity=".1"/><path d="m380.43 345.79-22.18 22.19-175.37-175.37 22.19-22.18z" fill="#b3b3ff"/><path d="m193.883 175.06h31.374v44.109h-31.374z" fill="#9494ff" transform="matrix(.707 -.707 .707 .707 -78.002 205.858)"/><path d="m269.04 149.03-107.55 107.55-34.39-34.38 107.56-107.56z" fill="#6c6cff"/><path d="m140.699 206.392h24.561v48.631h-24.561z" fill="#4d4dff" transform="matrix(.707 -.707 .707 .707 -118.312 175.668)"/><path d="m230.883 116.206h24.565v48.628h-24.565z" fill="#4d4dff" transform="matrix(.707 -.707 .707 .707 -28.141 213.1)"/><path d="m210.359 171.471-8.921-8.921c-1.953-1.953-5.118-1.953-7.071 0l-19.359 19.359c-1.953 1.953-1.953 5.118 0 7.071l8.921 8.921c1.953 1.953 5.118 1.953 7.071 0l19.359-19.359c1.953-1.952 1.953-5.118 0-7.071z" fill="#4d4dff"/><path d="m189 283.3-21.92 21.92-88.61-88.61 21.92-21.92c3.9-3.91 10.23-3.91 14.14 0l74.47 74.47c3.91 3.9 3.91 10.23 0 14.14z" fill="#ff4d4d"/><path d="m119.556 190.483h21.998v125.313h-21.998z" fill="#ff2c2c" transform="matrix(.707 -.707 .707 .707 -140.731 166.373)"/><path d="m186.07 327.038-26.779 26.779c-3.905 3.905-10.237 3.905-14.142 0l-115.278-115.279c-3.905-3.905-3.905-10.237 0-14.142l26.779-26.779c3.905-3.905 10.237-3.905 14.142 0l115.278 115.278c3.905 3.906 3.905 10.237 0 14.143z" fill="#ff9d33"/><path d="m317.68 154.62-21.92 21.92c-3.91 3.91-10.24 3.91-14.14 0l-74.48-74.47c-3.9-3.9-3.9-10.23 0-14.14l21.92-21.92z" fill="#ff4d4d"/><path d="m317.68 154.62-15.56 15.56-88.61-88.62 15.55-15.55z" fill="#ff2c2c"/><path d="m210.075 44.192 26.779-26.779c3.905-3.905 10.237-3.905 14.142 0l115.278 115.278c3.905 3.905 3.905 10.237 0 14.142l-26.779 26.779c-3.905 3.905-10.237 3.905-14.142 0l-115.278-115.278c-3.905-3.905-3.905-10.237 0-14.142z" fill="#ff9d33"/><path d="m482.369 447.847-22.064 22.064c-3.586 3.586-9.4 3.586-12.986 0l-100.229-100.228c-3.586-3.586-3.586-9.4 0-12.986l22.064-22.064c3.586-3.586 9.4-3.586 12.986 0l100.228 100.228c3.587 3.586 3.587 9.4.001 12.986z" fill="#ff9d33"/><path d="m363.456 364.323h49.568v22.917h-49.568z" fill="#ffc599" transform="matrix(.707 -.707 .707 .707 -152.005 384.591)"/><path d="m201.536 162.648-8.921-8.921c-1.953-1.953-5.118-1.953-7.071 0l-19.359 19.359c-1.953 1.953-1.953 5.118 0 7.071l8.921 8.921c1.953 1.953 5.118 1.953 7.071 0l19.359-19.359c1.952-1.953 1.952-5.119 0-7.071z" fill="#d9d9ff"/><circle cx="131.978" cy="400.819" fill="#ff9d33" r="80.696"/><circle cx="131.978" cy="400.819" fill="#fff" r="59.539"/><path d="m138.872 427.171h-19.012c-2.762 0-5-2.239-5-5s2.238-5 5-5h19.012c3.13 0 5.676-2.546 5.676-5.676s-2.546-5.676-5.676-5.676h-13.788c-8.644 0-15.676-7.032-15.676-15.676s7.032-15.676 15.676-15.676h19.013c2.762 0 5 2.239 5 5s-2.238 5-5 5h-19.013c-3.13 0-5.676 2.546-5.676 5.676s2.546 5.676 5.676 5.676h13.788c8.644 0 15.676 7.032 15.676 15.676s-7.032 15.676-15.676 15.676z" fill="#ff7300"/><path d="m131.979 435.12c-2.762 0-5-2.239-5-5v-58.603c0-2.761 2.238-5 5-5s5 2.239 5 5v58.603c0 2.762-2.239 5-5 5z" fill="#ff7300"/><circle cx="230.439" cy="404.008" fill="#ff9d33" r="52.867"/><g fill="#00c"><path d="m485.903 431.326-100.227-100.23c-4.262-4.26-10.576-5.223-15.781-2.918l-136.467-136.466 7.796-7.796c1.953-1.953 1.953-5.119 0-7.071-1.951-1.952-5.119-1.952-7.07 0l-65.198 65.197-27.312-27.312 26.021-26.021 3.904 3.904c1.889 1.889 4.4 2.929 7.071 2.929s5.183-1.04 7.071-2.929l19.357-19.358c1.89-1.889 2.931-4.4 2.931-7.072 0-2.671-1.04-5.182-2.93-7.071l-3.904-3.904 26.021-26.021 50.892 50.892c2.833 2.833 6.6 4.394 10.606 4.394s7.773-1.561 10.606-4.394l12.728-12.728 9.797 9.797c2.924 2.924 6.765 4.386 10.605 4.386 3.842 0 7.683-1.462 10.606-4.386l26.778-26.779c5.849-5.849 5.849-15.365 0-21.213l-115.273-115.278c-2.833-2.833-6.6-4.393-10.606-4.393s-7.773 1.56-10.606 4.393l-26.779 26.778c-5.849 5.849-5.849 15.365 0 21.213l9.797 9.797-12.728 12.728c-5.849 5.849-5.849 15.365 0 21.213l16.509 16.509-26.323 26.323c-1.433-.768-3.043-1.176-4.715-1.176-2.671 0-5.183 1.04-7.07 2.929l-19.36 19.359c-3.183 3.184-3.764 7.998-1.747 11.78l-26.328 26.328-16.509-16.509c-2.833-2.833-6.6-4.394-10.605-4.394-4.007 0-7.773 1.561-10.606 4.394l-12.731 12.73-9.792-9.792c-2.832-2.838-6.6-4.402-10.611-4.401-4.011 0-7.778 1.563-10.604 4.397l-26.78 26.78c-5.841 5.84-5.844 15.354 0 21.211l77.738 77.738c-33.589 11.605-57.79 43.522-57.79 81.006 0 47.253 38.443 85.696 85.696 85.696 27.591 0 52.153-13.126 67.837-33.441 8.889 5.568 19.383 8.8 30.623 8.8 31.908 0 57.867-25.959 57.867-57.867s-25.959-57.867-57.867-57.867c-9.899 0-19.222 2.502-27.379 6.902-4.768-7.071-10.565-13.39-17.167-18.755l3.717-3.717c5.837-5.853 5.835-15.366-.005-21.207l-9.799-9.799 12.73-12.73c2.834-2.833 4.394-6.6 4.394-10.606 0-4.007-1.56-7.774-4.394-10.607l-16.509-16.509 28.143-28.143 136.466 136.465c-2.306 5.206-1.342 11.521 2.919 15.782l100.229 100.229c2.765 2.765 6.396 4.147 10.028 4.147s7.264-1.383 10.028-4.147l22.063-22.064c5.529-5.528 5.529-14.526-.002-20.055zm-272.293-383.599 26.778-26.778c.976-.975 2.256-1.462 3.536-1.462s2.561.487 3.536 1.462l115.277 115.278c1.949 1.949 1.949 5.122 0 7.071l-26.778 26.779c-1.948 1.948-5.121 1.95-7.071 0l-115.278-115.279c-1.949-1.949-1.949-5.121 0-7.071zm-4.395 47.273c0-1.335.52-2.591 1.464-3.535l12.729-12.728 81.542 81.542-12.727 12.728c-.944.944-2.2 1.465-3.536 1.465s-2.592-.521-3.536-1.465l-74.472-74.472c-.945-.943-1.464-2.199-1.464-3.535zm-20.135 62.263 8.92 8.92-19.359 19.359-8.921-8.92zm89.226 246.745c0 26.394-21.473 47.867-47.867 47.867s-47.866-21.473-47.866-47.867 21.473-47.867 47.866-47.867c26.394 0 47.867 21.474 47.867 47.867zm-83.588-45.475c-13.471 10.604-22.146 27.04-22.146 45.475 0 17.083 7.446 32.456 19.258 43.058-13.856 17.894-35.521 29.45-59.851 29.45-41.739 0-75.696-33.957-75.696-75.696s33.957-75.696 75.696-75.696c26.086-.001 49.123 13.271 62.739 33.409zm-7.788-82.304c0 1.335-.52 2.591-1.464 3.535l-12.731 12.73-61.07-61.07c-1.951-1.952-5.119-1.952-7.07 0-1.953 1.953-1.953 5.119 0 7.071l77.939 77.939c1.946 1.947 1.944 5.12.001 7.069l-4.867 4.867c-13.231-8.382-28.899-13.248-45.69-13.248-5.746 0-11.359.578-16.792 1.662l-81.776-81.775c-1.949-1.954-1.951-5.127-.005-7.073l26.785-26.785c.941-.944 2.194-1.463 3.529-1.463s2.589.52 3.535 1.468l13.34 13.34c1.951 1.952 5.119 1.952 7.07 0 .027-.027.045-.06.072-.088l16.186-16.186c.944-.944 2.2-1.465 3.536-1.465 1.335 0 2.591.521 3.535 1.465l74.472 74.471c.945.945 1.465 2.2 1.465 3.536zm39.427-77.445 135.788 135.788-15.116 15.116-135.788-135.788zm252.476 245.527-22.063 22.064c-1.631 1.631-4.285 1.631-5.916 0l-100.229-100.228c-1.63-1.63-1.63-4.284 0-5.915l22.064-22.064c.815-.815 1.887-1.223 2.958-1.223s2.143.408 2.958 1.223l100.228 100.229c1.63 1.63 1.63 4.284 0 5.914z"/><path d="m212.817 407.037c-2.679.672-4.305 3.388-3.633 6.066 2.45 9.768 11.19 16.589 21.254 16.589s18.804-6.822 21.254-16.589c.672-2.679-.954-5.395-3.633-6.066-2.674-.671-5.395.954-6.066 3.633-1.333 5.313-6.084 9.023-11.555 9.023s-10.222-3.71-11.555-9.023c-.671-2.679-3.393-4.304-6.066-3.633z"/><path d="m248.351 398.839c2.762 0 5-2.239 5-5v-.115c0-2.761-2.238-5-5-5s-5 2.239-5 5v.115c0 2.761 2.238 5 5 5z"/><path d="m212.526 398.839c2.762 0 5-2.239 5-5v-.115c0-2.761-2.238-5-5-5s-5 2.239-5 5v.115c0 2.761 2.239 5 5 5z"/></g><path d="m417.587 262.432c-1.279 0-2.56-.488-3.535-1.464-1.953-1.953-1.953-5.119 0-7.071l10-10c1.951-1.952 5.119-1.952 7.07 0 1.953 1.953 1.953 5.119 0 7.071l-10 10c-.976.976-2.256 1.464-3.535 1.464z" fill="#ff9d33"/><path d="m161.305 93.648c-1.279 0-2.56-.488-3.535-1.464-1.953-1.953-1.953-5.119 0-7.071l10-10c1.951-1.952 5.119-1.952 7.07 0 1.953 1.953 1.953 5.119 0 7.071l-10 10c-.976.975-2.256 1.464-3.535 1.464z" fill="#ff6c6c"/><path d="m45.942 337.967c-1.279 0-2.56-.488-3.535-1.464-1.953-1.953-1.953-5.119 0-7.071l10-10c1.951-1.952 5.119-1.952 7.07 0 1.953 1.953 1.953 5.119 0 7.071l-10 10c-.975.975-2.255 1.464-3.535 1.464z" fill="#ff6c6c"/><path d="m346.999 235.16c-1.279 0-2.56-.488-3.535-1.464l-6.465-6.464-6.465 6.464c-1.951 1.952-5.119 1.952-7.07 0-1.953-1.953-1.953-5.119 0-7.071l10-10c1.951-1.952 5.119-1.952 7.07 0l10 10c1.953 1.953 1.953 5.119 0 7.071-.975.976-2.256 1.464-3.535 1.464z" fill="#6c6cff"/><path d="m336.796 438.519c-1.279 0-2.56-.488-3.535-1.464l-6.465-6.464-6.465 6.464c-1.951 1.952-5.119 1.952-7.07 0-1.953-1.953-1.953-5.119 0-7.071l10-10c1.951-1.952 5.119-1.952 7.07 0l10 10c1.953 1.953 1.953 5.119 0 7.071-.976.976-2.256 1.464-3.535 1.464z" fill="#6c6cff"/></svg>