<svg id="Capa_1" enable-background="new 0 0 511.57 511.57" height="512" viewBox="0 0 511.57 511.57" width="512" xmlns="http://www.w3.org/2000/svg" xmlns:xlink="http://www.w3.org/1999/xlink"><linearGradient id="SVGID_1_" gradientUnits="userSpaceOnUse" x1="425.341" x2="149.341" y1="-65.75" y2="454.25"><stop offset=".007" stop-color="#9494ff"/><stop offset=".992" stop-color="#ffe8dc" stop-opacity="0"/></linearGradient><g><path d="m511.451 266.775c1.411-27.595-9.754-54.103-30.429-77.492-14.386-16.274-26.117-34.674-34.77-54.598-27.672-63.713-78.175-107.328-137.879-110.381-42.428-2.17-82.32 16.515-114.066 49.242-21.014 21.663-46.971 37.775-75.516 47.577-69.142 23.742-116.008 67.406-118.672 119.505s39.504 100.316 105.863 130.987c27.396 12.662 51.574 31.338 70.269 55.031 28.243 35.794 66.021 58.451 108.448 60.62 59.704 3.053 114.393-35.183 148.419-95.741 10.64-18.937 24.187-36.044 40.158-50.766 22.953-21.158 36.764-46.389 38.175-73.984z" fill="url(#SVGID_1_)"/><g><g><path d="m76.683 251.956v-33.675h75.399v21.683c0 2.761 2.239 5 5 5h151.87c2.761 0 5-2.239 5-5v-21.683h75.399v33.675h10v-38.675c0-2.762-2.239-5-5-5h-80.399v-7.932c0-2.761-2.239-5-5-5h-151.87c-2.761 0-5 2.239-5 5v7.932h-80.399c-2.761 0-5 2.238-5 5v38.675z" fill="#00c" opacity=".1"/><g><g fill="#00c" opacity=".1"><path d="m221.284 347.535h-19.213v-38.124c0-2.761-2.239-5-5-5h-84.164l-5.92-17.006c-.7-2.01-2.594-3.356-4.722-3.356h-59.984c-2.761 0-5 2.239-5 5v119.303c0 2.761 2.239 5 5 5h156.419c2.037 0 3.871-1.236 4.635-3.125l22.584-55.817c1.33-3.287-1.089-6.875-4.635-6.875z"/><path d="m469.284 347.535h-19.213v-38.124c0-2.761-2.239-5-5-5h-84.164l-5.92-17.006c-.7-2.01-2.594-3.356-4.722-3.356h-59.984c-2.761 0-5 2.239-5 5v119.303c0 2.761 2.239 5 5 5h156.419c2.037 0 3.871-1.236 4.635-3.125l22.584-55.817c1.33-3.287-1.089-6.875-4.635-6.875z"/></g><g><path d="m112.907 274.411-5.92-17.006c-.7-2.01-2.594-3.356-4.722-3.356h-59.984c-2.761 0-5 2.239-5 5v124.303h164.79v-103.941c0-2.761-2.239-5-5-5z" fill="#ffab66"/><path d="m62.647 320.66-25.366 62.692h164.79l23.848-58.941c1.33-3.287-1.089-6.875-4.635-6.875h-154.002c-2.037-.001-3.871 1.235-4.635 3.124z" fill="#ffd6bb"/><path d="m100.077 277.156h-48.5v-11.618h45.087z" fill="#8383ff"/></g><g><path d="m360.907 274.411-5.92-17.006c-.7-2.01-2.594-3.356-4.722-3.356h-59.984c-2.761 0-5 2.239-5 5v124.303h164.79v-103.941c0-2.761-2.239-5-5-5z" fill="#ffab66"/><path d="m310.647 320.66-25.366 62.692h164.79l23.848-58.941c1.33-3.287-1.089-6.875-4.635-6.875h-154.002c-2.037-.001-3.871 1.235-4.635 3.124z" fill="#ffd6bb"/><path d="m348.077 277.156h-48.5v-11.618h45.087z" fill="#ff6c6c"/></g></g><path d="m308.951 217.964h-151.87c-2.761 0-5-2.239-5-5v-39.614c0-2.761 2.239-5 5-5h151.87c2.761 0 5 2.239 5 5v39.614c0 2.762-2.239 5-5 5z" fill="#ff6c6c"/><g><g fill="#00c"><path d="m477.576 316.944c-1.861-2.761-4.961-4.409-8.292-4.409h-14.213v-33.124c0-5.514-4.486-10-10-10h-45.722v-83.13c0-2.762-2.239-5-5-5h-75.398v-7.932c0-5.514-4.486-10-10-10h-151.87c-5.514 0-10 4.486-10 10v7.932h-75.398c-2.761 0-5 2.238-5 5v62.768h-24.402c-5.514 0-10 4.486-10 10v22.736c0 2.762 2.239 5 5 5s5-2.238 5-5v-22.736h24.401v31.458c0 2.762 2.239 5 5 5s5-2.238 5-5v-31.459h25.582l5.92 17.007c.7 2.01 2.594 3.356 4.722 3.356h84.165v33.124h-129.789c-4.096 0-7.734 2.453-9.27 6.249l-15.731 38.88v-41.879c0-2.762-2.239-5-5-5s-5 2.238-5 5v67.566c0 2.715 2.285 5 5 5h80.537 84.253c2.037 0 3.871-1.236 4.635-3.125l23.849-58.941c1.249-3.088.883-6.579-.979-9.341-1.861-2.761-4.961-4.409-8.292-4.409h-14.213v-33.124c0-5.514-4.486-10-10-10h-80.611l-4.751-13.65c-1.397-4.015-5.193-6.712-9.444-6.712h-25.582v-57.768h70.398v21.683c0 5.514 4.486 10 10 10h81.204c2.761 0 5-2.238 5-5s-2.239-5-5-5h-81.204v-39.614h151.87v39.614h-36.666c-2.761 0-5 2.238-5 5s2.239 5 5 5h36.666c5.514 0 10-4.486 10-10v-21.683h70.398v78.13h-24.889l-4.751-13.65c-1.397-4.015-5.193-6.712-9.444-6.712h-59.983c-5.514 0-10 4.486-10 10v124.303c0 2.715 2.285 5 5 5h63.278 101.512c2.037 0 3.871-1.236 4.635-3.125l23.849-58.941c1.247-3.089.882-6.58-.98-9.342zm-256.291 5.591-22.584 55.816h-72.149-81.854l22.583-55.817v.001zm128.98-63.487 5.92 17.007c.7 2.01 2.594 3.356 4.722 3.356h28.442v11.096c0 2.762 2.239 5 5 5s5-2.238 5-5v-11.096h45.722v33.124h-129.79c-4.096 0-7.734 2.453-9.27 6.249l-15.731 38.88v-98.615zm96.436 119.304h-89.133-64.87l22.583-55.817v.001h154.003z"/><path d="m261.729 108.818c1.432-2.36.679-5.436-1.682-6.868-8.144-4.939-17.491-7.551-27.031-7.551-9.541 0-18.888 2.611-27.031 7.551-2.361 1.433-3.114 4.508-1.682 6.869.94 1.55 2.589 2.407 4.28 2.407.883 0 1.778-.234 2.588-.726 6.58-3.992 14.133-6.102 21.845-6.102 7.711 0 15.265 2.109 21.845 6.102 2.361 1.432 5.436.68 6.868-1.682z"/><path d="m233.016 114.559c-4.584 0-9.076 1.255-12.99 3.628-2.361 1.433-3.114 4.508-1.682 6.868 1.433 2.361 4.507 3.115 6.868 1.683 4.698-2.852 10.908-2.852 15.606 0 .811.491 1.705.726 2.588.726 1.69 0 3.339-.857 4.28-2.408 1.432-2.36.679-5.436-1.682-6.868-3.912-2.374-8.403-3.629-12.988-3.629z"/><path d="m195.592 94.143c.883 0 1.778-.234 2.588-.727 10.492-6.364 22.538-9.729 34.835-9.729 12.298 0 24.344 3.364 34.835 9.729 2.361 1.434 5.435.679 6.868-1.681 1.432-2.361.68-5.437-1.682-6.868-12.055-7.313-25.894-11.18-40.021-11.18s-27.967 3.865-40.022 11.18c-2.361 1.432-3.114 4.507-1.682 6.868.943 1.55 2.591 2.408 4.281 2.408z"/></g><g opacity=".1"><g><path d="m257.449 138.226c-.883 0-1.778-.234-2.588-.726-6.579-3.991-14.132-6.1-21.845-6.1s-15.266 2.109-21.845 6.1c-2.361 1.433-5.436.68-6.868-1.682-1.432-2.361-.679-5.436 1.682-6.868 8.143-4.939 17.49-7.55 27.031-7.55s18.889 2.611 27.031 7.55c2.361 1.432 3.114 4.507 1.682 6.868-.94 1.551-2.59 2.408-4.28 2.408z" fill="#00c"/></g><g><path d="m243.408 154.463c-.883 0-1.778-.234-2.588-.726-4.698-2.85-10.908-2.85-15.606 0-2.361 1.433-5.436.68-6.868-1.682s-.679-5.436 1.682-6.868c3.914-2.374 8.405-3.628 12.99-3.628s9.076 1.255 12.99 3.628c2.361 1.432 3.114 4.507 1.682 6.868-.943 1.551-2.592 2.408-4.282 2.408z" fill="#00c"/></g><g><path d="m270.439 121.142c-.883 0-1.778-.234-2.588-.726-10.491-6.364-22.537-9.729-34.835-9.729s-24.344 3.364-34.835 9.729c-2.362 1.433-5.437.68-6.868-1.682-1.432-2.361-.679-5.436 1.682-6.868 12.055-7.313 25.895-11.179 40.021-11.179s27.966 3.866 40.021 11.179c2.361 1.432 3.114 4.507 1.682 6.868-.94 1.551-2.59 2.408-4.28 2.408z" fill="#00c"/></g></g></g><g><circle cx="254.437" cy="193.157" fill="#fff" r="7.443"/><path d="m279.295 185.714c4.11 0 7.443 3.332 7.443 7.443 0 4.11-3.332 7.443-7.443 7.443s-7.443-3.332-7.443-7.443c0-4.11 3.332-7.443 7.443-7.443" fill="#fff"/><g><path d="m184.335 200.087c-2.835 0-5.133-2.298-5.133-5.133v-3.593c0-2.835 2.298-5.133 5.133-5.133s5.133 2.298 5.133 5.133v3.593c0 2.834-2.297 5.133-5.133 5.133z" fill="#ff2c2c"/></g><path d="m200.92 186.228c2.835 0 5.133 2.298 5.133 5.133v3.593c0 2.835-2.298 5.133-5.133 5.133s-5.133-2.298-5.133-5.133v-3.593c0-2.835 2.298-5.133 5.133-5.133" fill="#ffab66"/></g></g><g><path d="m343.65 119.105c-1.28 0-2.559-.488-3.536-1.465l-11.292-11.292c-1.953-1.952-1.953-5.118 0-7.07l11.292-11.292c1.953-1.953 5.118-1.953 7.071 0l11.292 11.292c.938.938 1.464 2.209 1.464 3.535s-.527 2.598-1.464 3.535l-11.292 11.292c-.975.976-2.255 1.465-3.535 1.465zm-4.22-16.292 4.221 4.221 4.221-4.221-4.221-4.221z" fill="#ff9d33"/></g><g><path d="m271.852 449.883c-1.326 0-2.598-.526-3.536-1.465l-11.292-11.293c-.938-.938-1.464-2.209-1.464-3.535s.527-2.598 1.464-3.535l11.292-11.292c1.953-1.953 5.118-1.953 7.071 0l11.292 11.292c.938.938 1.464 2.209 1.464 3.535s-.527 2.598-1.464 3.535l-11.292 11.293c-.937.939-2.209 1.465-3.535 1.465zm-4.221-16.293 4.221 4.222 4.221-4.222-4.221-4.221z" fill="#ff6c6c"/></g><g><path d="m388.785 151.238c-7.175 0-13.012-5.837-13.012-13.012s5.837-13.012 13.012-13.012 13.012 5.837 13.012 13.012-5.837 13.012-13.012 13.012zm0-16.023c-1.661 0-3.012 1.351-3.012 3.012s1.351 3.012 3.012 3.012 3.012-1.351 3.012-3.012-1.351-3.012-3.012-3.012z" fill="#ff6c6c"/></g><g><path d="m235.401 418.352c-7.175 0-13.012-5.837-13.012-13.012s5.837-13.012 13.012-13.012 13.012 5.837 13.012 13.012-5.837 13.012-13.012 13.012zm0-16.024c-1.661 0-3.012 1.351-3.012 3.012s1.351 3.012 3.012 3.012 3.012-1.351 3.012-3.012-1.351-3.012-3.012-3.012z" fill="#6c6cff"/></g><g><path d="m99.089 100.826c-7.175 0-13.012-5.837-13.012-13.012s5.837-13.012 13.012-13.012 13.012 5.837 13.012 13.012-5.837 13.012-13.012 13.012zm0-16.023c-1.661 0-3.012 1.351-3.012 3.012s1.351 3.012 3.012 3.012 3.012-1.351 3.012-3.012-1.351-3.012-3.012-3.012z" fill="#6c6cff"/></g></g></g></svg>