<svg id="Capa_1" enable-background="new 0 0 512 512" height="512" viewBox="0 0 512 512" width="512" xmlns="http://www.w3.org/2000/svg" xmlns:xlink="http://www.w3.org/1999/xlink"><linearGradient id="SVGID_1_" gradientUnits="userSpaceOnUse" x1="256" x2="256" y1="-3.777" y2="630.805"><stop offset=".007" stop-color="#9494ff"/><stop offset=".992" stop-color="#ffe8dc" stop-opacity="0"/></linearGradient><path d="m512 192.135c0-77.209-114.615-139.799-256-139.799s-256 62.59-256 139.799c0 12.48 2.999 24.577 8.62 36.089 10.007 20.491 12.502 43.828 7.537 66.086-2.036 9.127-3.179 18.59-3.333 28.294-1.235 77.812 61.961 142.061 139.782 142.06 58.443 0 108.503-35.865 129.385-86.785 11.468-27.964 35.565-48.919 65.155-55.077 96.38-20.057 164.854-70.992 164.854-130.667z" fill="url(#SVGID_1_)"/><g fill="#00c" opacity=".1"><path d="m285.562 291.722.053-11.412c.004-.8-.313-1.569-.879-2.135l-55.566-55.565-9.899-9.895 35.218-35.215 20.04 20.04c3.9 3.91 10.24 3.91 14.14 0l16.262-16.262 13.334 13.334c3.905 3.905 10.237 3.905 14.142 0l26.779-26.779c3.905-3.905 3.905-10.237 0-14.142l-115.277-115.278c-3.905-3.905-10.237-3.905-14.142 0l-26.779 26.779c-3.905 3.905-3.905 10.237 0 14.142l13.334 13.334-16.262 16.262c-3.91 3.91-3.91 10.24 0 14.14l20.04 20.04-92.616 92.624-20.044-20.044c-3.9-3.91-10.23-3.91-14.14 0l-16.261 16.261-13.334-13.334c-3.905-3.905-10.237-3.905-14.142 0l-26.779 26.779c-3.905 3.905-3.905 10.237 0 14.142l83.716 83.716c-35.701 8.326-62.304 40.328-62.304 78.565 0 44.567 36.129 80.696 80.696 80.696 28.64 0 53.776-14.933 68.098-37.424 9.254 7.961 21.285 12.783 34.449 12.783 29.198 0 52.867-23.669 52.867-52.867 0-29.197-23.669-52.867-52.867-52.867-11.977 0-23.02 3.988-31.884 10.702-5.952-10.768-14.297-20.021-24.314-27.063l7.742-7.742c3.905-3.905 3.905-10.237 0-14.142l-13.334-13.334 16.261-16.261c3.91-3.91 3.91-10.24 0-14.14l-20.045-20.045 33.617-33.614 10.138 9.658 53.326 50.817c1.815 1.73 4.825.602 5.057-1.894l.375-4.036c.191-2.06 2.361-3.312 4.24-2.448l12.69 5.835c1.982.912 4.244-.529 4.254-2.711z"/><path d="m490.414 227.969-18.231-25.323c-2.963-4.116-8.702-5.05-12.817-2.087l-115.033 82.817c-4.092 2.946-5.035 8.633-2.135 12.744l-56.807 40.898c-2.039 1.468-1.478 4.642.94 5.323l8.85 2.49c1.967.553 2.817 2.867 1.677 4.562l-7.638 11.355c-1.267 1.884-.063 4.438 2.197 4.66l6.129.601c.726.071 1.453-.125 2.046-.551l60.94-43.873c2.978 4.055 8.671 4.964 12.762 2.019l115.034-82.817c4.114-2.964 5.049-8.702 2.086-12.818z"/></g><path d="m285.614 259.311-.053 11.412c-.01 2.181-2.271 3.623-4.253 2.712l-12.69-5.835c-1.879-.864-4.049.388-4.24 2.448l-.375 4.036c-.232 2.496-3.242 3.624-5.057 1.894l-53.326-50.818-31.94-30.43 24.3-24.3 31.19 31.18 55.566 55.566c.566.565.882 1.334.878 2.135z" fill="#b3b3ff"/><path d="m229.17 201.61-23.55 23.55-31.94-30.43 24.3-24.3z" fill="#9494ff"/><path d="m261.96 149.03-107.56 107.55-34.38-34.38 107.55-107.56z" fill="#6c6cff"/><path d="m171.77 239.22-17.37 17.36-34.38-34.38 17.36-17.37z" fill="#4d4dff"/><path d="m223.798 116.202h24.565v48.635h-24.565z" fill="#4d4dff" transform="matrix(.707 -.707 .707 .707 -30.216 208.092)"/><path d="m203.116 171.314-8.921-8.921c-1.953-1.953-5.118-1.953-7.071 0l-19.359 19.359c-1.953 1.953-1.953 5.118 0 7.071l8.921 8.921c1.953 1.953 5.118 1.953 7.071 0l19.359-19.359c1.952-1.952 1.952-5.118 0-7.071z" fill="#4d4dff"/><path d="m181.91 283.3-21.92 21.92-88.61-88.61 21.92-21.92c3.91-3.91 10.24-3.91 14.14 0l74.47 74.47c3.91 3.9 3.91 10.23 0 14.14z" fill="#ff4d4d"/><path d="m112.466 190.483h21.998v125.313h-21.998z" fill="#ff2c2c" transform="matrix(.707 -.707 .707 .707 -142.805 161.36)"/><path d="m178.983 327.038-26.779 26.779c-3.905 3.905-10.237 3.905-14.142 0l-115.278-115.279c-3.905-3.905-3.905-10.237 0-14.142l26.779-26.779c3.905-3.905 10.237-3.905 14.142 0l115.278 115.278c3.905 3.906 3.905 10.237 0 14.143z" fill="#ff9d33"/><path d="m310.59 154.62-21.92 21.92c-3.9 3.91-10.24 3.91-14.14 0l-74.47-74.47c-3.91-3.9-3.91-10.23 0-14.14l21.92-21.92z" fill="#ff4d4d"/><path d="m247.511 55.438h21.998v125.314h-21.998z" fill="#ff2c2c" transform="matrix(.707 -.707 .707 .707 -7.758 217.469)"/><path d="m202.988 44.192 26.779-26.779c3.905-3.905 10.237-3.905 14.142 0l115.278 115.278c3.905 3.905 3.905 10.237 0 14.142l-26.779 26.779c-3.905 3.905-10.237 3.905-14.142 0l-115.278-115.278c-3.905-3.905-3.905-10.237 0-14.142z" fill="#ff9d33"/><path d="m297.545 345.009-6.129-.601c-2.26-.222-3.464-2.776-2.196-4.66l7.638-11.355c1.14-1.695.29-4.009-1.677-4.562l-8.85-2.49c-2.419-.68-2.979-3.855-.94-5.323l69.679-50.164 18.333 25.465-73.811 53.14c-.594.426-1.321.622-2.047.55z" fill="#b3b3ff"/><path d="m472.183 181.646 18.231 25.323c2.963 4.116 2.029 9.854-2.087 12.817l-115.034 82.817c-4.116 2.963-9.854 2.029-12.817-2.087l-18.231-25.323c-2.963-4.116-2.029-9.854 2.087-12.817l115.034-82.817c4.115-2.963 9.854-2.028 12.817 2.087z" fill="#ff9d33"/><path d="m361.142 251.511h49.568v22.917h-49.568z" fill="#ffc599" transform="matrix(-.584 -.812 .812 -.584 397.998 729.817)"/><path d="m194.449 162.648-8.921-8.921c-1.953-1.953-5.118-1.953-7.071 0l-19.359 19.359c-1.953 1.953-1.953 5.118 0 7.071l8.921 8.921c1.953 1.953 5.118 1.953 7.071 0l19.359-19.359c1.952-1.953 1.952-5.119 0-7.071z" fill="#d9d9ff"/><circle cx="124.892" cy="400.819" fill="#ff4d4d" r="80.696"/><circle cx="124.892" cy="400.819" fill="#fff" r="59.539"/><path d="m131.786 427.171h-19.013c-2.762 0-5-2.239-5-5s2.238-5 5-5h19.013c3.129 0 5.675-2.546 5.675-5.676s-2.546-5.676-5.675-5.676h-13.789c-8.644 0-15.676-7.032-15.676-15.676s7.032-15.676 15.676-15.676h19.013c2.762 0 5 2.239 5 5s-2.238 5-5 5h-19.013c-3.13 0-5.676 2.546-5.676 5.676s2.546 5.676 5.676 5.676h13.789c8.644 0 15.675 7.032 15.675 15.676s-7.031 15.676-15.675 15.676z" fill="#ff4d4d"/><path d="m124.892 435.12c-2.762 0-5-2.239-5-5v-58.603c0-2.761 2.238-5 5-5s5 2.239 5 5v58.603c0 2.762-2.239 5-5 5z" fill="#ff4d4d"/><circle cx="227.439" cy="404.008" fill="#ff2c2c" r="52.867"/><g fill="#00c"><path d="m320.689 211.233c-1.953-1.953-5.12-1.953-7.071 0l-6.114 6.114c-1.953 1.953-1.953 5.118-.001 7.071.977.977 2.257 1.465 3.536 1.465s2.56-.488 3.535-1.464l6.114-6.114c1.954-1.954 1.954-5.119.001-7.072z"/><path d="m290.772 199.367-1.692 10.535c-.438 2.727 1.417 5.292 4.144 5.729.269.043.535.064.799.064 2.412 0 4.536-1.75 4.931-4.208l1.692-10.535c.438-2.727-1.417-5.292-4.144-5.729-2.731-.441-5.291 1.417-5.73 4.144z"/><path d="m321.222 242.906c.264 0 .53-.021.799-.064l10.534-1.692c2.727-.438 4.582-3.003 4.144-5.729-.438-2.727-3.009-4.584-5.729-4.144l-10.534 1.692c-2.727.438-4.582 3.003-4.144 5.729.394 2.458 2.518 4.208 4.93 4.208z"/><path d="m494.472 204.048-18.231-25.323c-2.213-3.074-5.491-5.103-9.23-5.712-3.739-.608-7.492.275-10.565 2.489l-115.033 82.817c-3.075 2.213-5.104 5.492-5.713 9.23-.324 1.993-.212 3.987.287 5.883l-53.518 38.529c-2.515 1.811-3.742 4.833-3.203 7.884.539 3.052 2.728 5.47 5.712 6.309l6.189 1.742-6.095 9.062c-1.587 2.359-1.812 5.303-.6 7.875 1.213 2.573 3.626 4.274 6.456 4.552l6.129.602c.261.026.521.039.782.039 1.669 0 3.304-.523 4.673-1.508l57.649-41.504c1.64 1.075 3.495 1.814 5.488 2.138.771.125 1.543.188 2.31.188 2.949 0 5.816-.919 8.256-2.676l115.033-82.817c3.075-2.213 5.104-5.492 5.713-9.23.607-3.742-.275-7.495-2.489-10.569zm-197.191 135.912-2.043-.201 5.769-8.576c1.427-2.123 1.752-4.823.87-7.225-.883-2.401-2.88-4.248-5.343-4.941l-4.855-1.366 49.379-35.55 12.49 17.35zm189.809-126.954c-.18 1.103-.778 2.069-1.685 2.723l-115.034 82.817c-.905.653-2.009.915-3.115.733-1.104-.179-2.069-.777-2.723-1.684l-18.23-25.324c-.653-.907-.914-2.013-.734-3.115s.778-2.069 1.685-2.723l115.033-82.817c.721-.518 1.566-.789 2.436-.789.227 0 .454.018.682.055 1.103.18 2.068.778 2.722 1.685l18.231 25.323c.651.907.912 2.014.732 3.116z"/><path d="m227.438 346.141c-11.123 0-21.518 3.162-30.347 8.623-4.971-7.767-11.156-14.682-18.287-20.477l3.714-3.714h.001c5.847-5.848 5.847-15.364-.001-21.213l-9.797-9.797 12.727-12.728c2.834-2.833 4.394-6.6 4.394-10.606 0-4.007-1.56-7.774-4.394-10.607l-16.509-16.508 26.621-26.621 59.934 57.101c1.523 1.452 3.485 2.217 5.496 2.217.946 0 1.903-.169 2.829-.516 2.896-1.085 4.874-3.673 5.159-6.751l.113-1.218 10.124 4.651c2.483 1.142 5.34.945 7.643-.524s3.685-3.977 3.697-6.708l.054-11.41c.011-2.121-.845-4.197-2.344-5.695l-41.515-41.52c-1.951-1.952-5.119-1.952-7.07 0-1.953 1.953-1.953 5.119 0 7.071l40.928 40.929-.035 7.473-9.868-4.534c-2.355-1.082-5.098-.954-7.341.341-2.22 1.282-3.694 3.56-3.957 6.106l-56.771-54.088 51.849-51.849 16.509 16.509c2.833 2.833 6.6 4.394 10.606 4.394s7.773-1.561 10.606-4.394l12.728-12.728 9.797 9.797c2.924 2.924 6.765 4.386 10.606 4.386 3.84 0 7.682-1.462 10.605-4.386l26.779-26.779c5.849-5.849 5.849-15.365 0-21.213l-115.277-115.277c-2.833-2.833-6.6-4.393-10.606-4.393s-7.773 1.56-10.606 4.393l-26.778 26.778c-5.849 5.849-5.849 15.365 0 21.213l9.797 9.797-12.728 12.728c-5.849 5.849-5.849 15.365 0 21.213l16.508 16.508-26.328 26.328c-3.782-2.016-8.597-1.435-11.781 1.748l-19.36 19.359c-3.183 3.184-3.764 7.998-1.747 11.78l-26.328 26.328-16.509-16.509c-2.833-2.833-6.6-4.394-10.605-4.394-4.007 0-7.773 1.561-10.606 4.394l-12.729 12.728-9.797-9.797c-2.833-2.833-6.6-4.393-10.606-4.393s-7.773 1.56-10.606 4.393l-26.78 26.78c-5.849 5.849-5.849 15.365 0 21.213l77.726 77.727c-15.174 5.247-28.778 14.757-38.922 27.381-12.161 15.135-18.858 34.185-18.858 53.638 0 47.253 38.443 85.696 85.696 85.696 18.606 0 36.304-5.863 51.179-16.955 2.213-1.651 2.67-4.784 1.019-6.997-1.65-2.214-4.783-2.67-6.997-1.02-13.135 9.794-28.765 14.971-45.2 14.971-41.739 0-75.696-33.957-75.696-75.696 0-17.433 5.759-33.815 16.654-47.375 10.583-13.171 25.416-22.526 41.767-26.342.001 0 .001 0 .002-.001 5.628-1.313 11.44-1.978 17.274-1.978 27.029 0 50.789 14.244 64.182 35.616-11.951 10.608-19.502 26.07-19.502 43.269 0 31.908 25.959 57.867 57.866 57.867 31.908 0 57.867-25.959 57.867-57.867s-25.959-57.866-57.868-57.866zm-20.915-298.414 26.778-26.778c.976-.975 2.256-1.462 3.536-1.462s2.561.487 3.536 1.462l115.278 115.278c1.949 1.949 1.949 5.122 0 7.071l-26.779 26.779c-1.949 1.95-5.122 1.948-7.071 0l-115.278-115.279c-1.949-1.949-1.949-5.121 0-7.071zm-4.394 47.273c0-1.335.52-2.591 1.464-3.535l12.728-12.728 81.542 81.542-12.728 12.728c-.944.944-2.2 1.465-3.536 1.465s-2.592-.521-3.536-1.465l-74.471-74.472c-.944-.943-1.463-2.199-1.463-3.535zm-20.136 62.263 8.921 8.92-19.36 19.359-8.921-8.92zm-21.414 31.446 3.905 3.905c1.949 1.949 4.51 2.923 7.07 2.923s5.122-.975 7.071-2.924l19.359-19.359c3.898-3.898 3.899-10.242.001-14.142h-.001l-3.904-3.904 26.021-26.021 27.312 27.312-85.544 85.543-27.312-27.312zm-63.743 9.513c.944-.944 2.2-1.465 3.536-1.465 1.335 0 2.591.521 3.535 1.465l74.472 74.471c.944.944 1.464 2.2 1.464 3.536 0 1.335-.52 2.591-1.464 3.535l-12.728 12.728-81.543-81.542zm11.256 118.553-81.772-81.773c-1.949-1.949-1.949-5.122 0-7.071l26.778-26.778c.976-.975 2.256-1.462 3.536-1.462s2.561.487 3.536 1.462l115.277 115.277c1.949 1.95 1.949 5.122 0 7.072h.001l-4.865 4.865c-13.231-8.382-28.901-13.244-45.691-13.244-5.655 0-11.293.558-16.8 1.652zm119.346 135.1c-26.394 0-47.866-21.473-47.866-47.867s21.473-47.867 47.866-47.867c26.395 0 47.867 21.473 47.867 47.867s-21.472 47.867-47.867 47.867z"/><path d="m227.438 406.887c-10.063 0-18.804 6.822-21.254 16.589-.672 2.679.954 5.395 3.633 6.066 2.681.671 5.395-.954 6.066-3.633 1.333-5.313 6.084-9.023 11.555-9.023s10.222 3.71 11.555 9.023c.569 2.27 2.607 3.784 4.846 3.784.403 0 .813-.049 1.221-.151 2.679-.672 4.305-3.388 3.633-6.066-2.451-9.768-11.191-16.589-21.255-16.589z"/><path d="m245.351 388.723c-2.762 0-5 2.239-5 5v.115c0 2.761 2.238 5 5 5s5-2.239 5-5v-.115c0-2.761-2.239-5-5-5z"/><path d="m214.526 393.839v-.115c0-2.761-2.238-5-5-5s-5 2.239-5 5v.115c0 2.761 2.238 5 5 5s5-2.239 5-5z"/></g><path d="m301.951 446.273c-1.279 0-2.56-.488-3.535-1.464-1.953-1.953-1.953-5.119 0-7.071l10-10c1.951-1.952 5.119-1.952 7.07 0 1.953 1.953 1.953 5.119 0 7.071l-10 10c-.975.976-2.256 1.464-3.535 1.464z" fill="#ff9d33"/><path d="m375.987 74.562c-1.279 0-2.56-.488-3.535-1.464-1.953-1.953-1.953-5.119 0-7.071l10-10c1.951-1.952 5.119-1.952 7.07 0 1.953 1.953 1.953 5.119 0 7.071l-10 10c-.975.976-2.255 1.464-3.535 1.464z" fill="#6c6cff"/><path d="m357.192 386.334c-1.279 0-2.56-.488-3.535-1.464l-6.465-6.464-6.465 6.464c-1.951 1.952-5.119 1.952-7.07 0-1.953-1.953-1.953-5.119 0-7.071l10-10c1.951-1.952 5.119-1.952 7.07 0l10 10c1.953 1.953 1.953 5.119 0 7.071-.975.976-2.255 1.464-3.535 1.464z" fill="#6c6cff"/><path d="m115.943 143.946c-1.279 0-2.56-.488-3.535-1.464l-6.465-6.464-6.465 6.464c-1.951 1.952-5.119 1.952-7.07 0-1.953-1.953-1.953-5.119 0-7.071l10-10c1.951-1.952 5.119-1.952 7.07 0l10 10c1.953 1.953 1.953 5.119 0 7.071-.975.976-2.255 1.464-3.535 1.464z" fill="#ff6c6c"/><path d="m418.544 163.218c-1.279 0-2.56-.488-3.535-1.464l-6.465-6.464-6.465 6.464c-1.951 1.952-5.119 1.952-7.07 0-1.953-1.953-1.953-5.119 0-7.071l10-10c1.951-1.952 5.119-1.952 7.07 0l10 10c1.953 1.953 1.953 5.119 0 7.071-.975.976-2.256 1.464-3.535 1.464z" fill="#ff6c6c"/></svg>