<svg id="Capa_1" enable-background="new 0 0 512 512" height="512" viewBox="0 0 512 512" width="512" xmlns="http://www.w3.org/2000/svg" xmlns:xlink="http://www.w3.org/1999/xlink"><linearGradient id="SVGID_1_" gradientUnits="userSpaceOnUse" x1="425.698" x2="149.467" y1="-63.306" y2="457.131"><stop offset=".007" stop-color="#9494ff"/><stop offset=".992" stop-color="#ffe8dc" stop-opacity="0"/></linearGradient><path d="m511.881 269.499c1.412-27.618-9.762-54.149-30.455-77.557-14.398-16.288-26.139-34.704-34.799-54.644-27.696-63.767-78.241-107.418-137.995-110.474-42.463-2.171-82.389 16.529-114.162 49.284-21.031 21.681-47.011 37.807-75.579 47.617-69.2 23.761-116.105 67.462-118.772 119.605-2.666 52.142 39.537 100.4 105.952 131.097 27.419 12.673 51.618 31.365 70.328 55.078 28.266 35.824 66.076 58.5 108.539 60.671 59.754 3.056 114.489-35.212 148.544-95.822 10.649-18.953 24.207-36.075 40.192-50.809 22.972-21.176 36.794-46.428 38.207-74.046z" fill="url(#SVGID_1_)"/><path d="m378.098 397.142 8.362-36.137h7.298c5.523 0 10-4.477 10-10v-43.331c0-5.523-4.477-10-10-10h-42.628v-129.067c.415.022.832.034 1.252.034 12.907 0 23.371-10.464 23.371-23.371v-16.602h-233.71v16.602c0 12.907 10.464 23.371 23.371 23.371.422 0 .84-.012 1.256-.034v129.067h-48.429c-5.523 0-10 4.477-10 10v43.331c0 5.523 4.477 10 10 10h7.298l8.362 36.137-24.754 24.754c-6.087 6.087-6.087 15.956 0 22.042 6.087 6.087 15.956 6.087 22.042 0l10.995-10.995 11.604 50.148c1.05 4.53 5.09 7.74 9.75 7.74h184.92c4.66 0 8.7-3.21 9.75-7.74l11.604-50.148 10.995 10.995c6.087 6.087 15.956 6.087 22.042 0 6.087-6.087 6.087-15.956 0-22.042z" fill="#00c" opacity=".1"/><path d="m388.28 332.141-30.07 129.95c-1.05 4.53-5.09 7.74-9.75 7.74h-184.92c-4.66 0-8.7-3.21-9.75-7.74l-30.07-129.95z" fill="#ff4d4d"/><path d="m388.28 332.141h-264.56l5.06 21.86h49.31l-40.05 40.05 7.87 33.97 74.02-74.02h72.14l74.02 74.02 7.87-33.97-40.05-40.05h49.31z" fill="#ff2c2c"/><path d="m351.13 284.311v-240.863c0-9.543-7.736-17.279-17.279-17.279h-149.906c-9.543 0-17.279 7.736-17.279 17.279v240.864h184.464z" fill="#ff9d33"/><path d="m166.67 66.911h184.46v217.4h-184.46z" fill="#fff"/><path d="m351.13 66.911v94.7c-8.36-.27-16.01-3.3-22.12-8.21-6.4 5.15-14.53 8.24-23.37 8.24s-16.97-3.09-23.37-8.24c-6.41 5.15-14.53 8.24-23.37 8.24s-16.97-3.09-23.37-8.24c-6.41 5.15-14.54 8.24-23.37 8.24-8.84 0-16.97-3.09-23.38-8.24-6.09 4.9-13.76 7.94-22.11 8.21v-94.7z" fill="#ebebff"/><path d="" style="fill:none;stroke:#00c;stroke-width:10;stroke-linecap:round;stroke-linejoin:round;stroke-miterlimit:10"/><path d="m188.785 105.717h-46.742l24.622-38.802h36.893z" fill="#ffc599"/><path d="m235.527 105.717h-46.742l14.773-38.802h36.893z" fill="#ff4d4d"/><path d="m282.269 105.717h-46.742l4.924-38.802h36.893z" fill="#ffc599"/><path d="m329.011 105.717h-46.742l-4.925-38.802h36.893z" fill="#ff4d4d"/><path d="m375.753 105.717h-46.742l-14.774-38.802h36.893z" fill="#ffc599"/><path d="m165.414 147.641c-12.907 0-23.371-10.464-23.371-23.371v-18.553h46.742v18.553c0 12.908-10.464 23.371-23.371 23.371z" fill="#ffd6bb"/><path d="m212.156 147.641c-12.907 0-23.371-10.464-23.371-23.371v-18.553h46.742v18.553c0 12.908-10.464 23.371-23.371 23.371z" fill="#ff6c6c"/><path d="m258.898 147.641c-12.907 0-23.371-10.464-23.371-23.371v-18.553h46.742v18.553c0 12.908-10.464 23.371-23.371 23.371z" fill="#ffd6bb"/><path d="m305.64 147.641c-12.908 0-23.371-10.464-23.371-23.371v-18.553h46.742v18.553c0 12.908-10.464 23.371-23.371 23.371z" fill="#ff6c6c"/><path d="m352.382 147.641c-12.907 0-23.371-10.464-23.371-23.371v-18.553h46.742v18.553c0 12.908-10.464 23.371-23.371 23.371z" fill="#ffd6bb"/><path d="m393.759 340.005h-275.518c-5.523 0-10-4.477-10-10v-43.331c0-5.523 4.477-10 10-10h275.518c5.523 0 10 4.477 10 10v43.331c0 5.523-4.477 10-10 10z" fill="#ff6c6c"/><path d="m187.16 375.492v51c0 2.76-2.24 5-5 5s-5-2.24-5-5v-51c0-2.76 2.24-5 5-5s5 2.24 5 5z" fill="#fff"/><path d="m187.16 375.492v11.28l-10 10v-21.28c0-2.76 2.24-5 5-5s5 2.24 5 5z" fill="#ffd9d9"/><g fill="#fff"><path d="m219.082 370.489c2.761 0 5 2.238 5 5v51c0 2.762-2.239 5-5 5s-5-2.238-5-5v-51c0-2.762 2.238-5 5-5"/><path d="m256 370.489c2.761 0 5 2.238 5 5v51c0 2.762-2.239 5-5 5s-5-2.238-5-5v-51c0-2.762 2.239-5 5-5"/><path d="m292.918 370.489c2.761 0 5 2.238 5 5v51c0 2.762-2.239 5-5 5s-5-2.238-5-5v-51c0-2.762 2.239-5 5-5"/><path d="m334.84 375.492v51c0 2.76-2.24 5-5 5s-5-2.24-5-5v-51c0-2.76 2.24-5 5-5s5 2.24 5 5z"/></g><path d="m334.84 375.492v21.28l-10-10v-11.28c0-2.76 2.24-5 5-5s5 2.24 5 5z" fill="#ffd9d9"/><path d="m402.852 422.938c-6.087 6.087-15.956 6.087-22.042 0l-101.02-101.019c-6.087-6.087-6.087-15.956 0-22.042 6.087-6.087 15.956-6.087 22.042 0l101.019 101.019c6.088 6.087 6.088 15.955.001 22.042z" fill="#ffab66"/><path d="m232.21 299.876c-6.087-6.087-15.956-6.087-22.042 0l-101.02 101.02c-6.087 6.087-6.087 15.956 0 22.042 6.087 6.087 15.956 6.087 22.042 0l101.02-101.019c6.087-6.087 6.087-15.956 0-22.043z" fill="#ffab66"/><path d="m406.388 397.36-22.795-22.795 6.841-29.56h3.326c8.271 0 15-6.729 15-15v-43.331c0-8.271-6.729-15-15-15h-37.63v-119.288c13.877-1.841 24.623-13.744 24.623-28.116v-18.553c0-.917-.288-1.905-.778-2.679l-23.845-37.575v-22.015c0-12.285-9.995-22.279-22.279-22.279h-149.907c-12.285 0-22.279 9.994-22.279 22.279v22.015l-23.845 37.576c-.496.781-.778 1.754-.778 2.679v18.553c0 15.644 12.727 28.371 28.371 28.371 9.686 0 18.25-4.882 23.371-12.312 5.121 7.429 13.685 12.312 23.371 12.312s18.25-4.882 23.371-12.312c5.121 7.429 13.685 12.312 23.371 12.312s18.25-4.882 23.371-12.312c5.121 7.429 13.685 12.312 23.371 12.312s18.25-4.882 23.371-12.312c3.985 5.781 10.057 10.014 17.119 11.609v124.735c0 2.762 2.239 5 5 5h42.629c2.757 0 5 2.243 5 5v43.331c0 2.757-2.243 5-5 5h-49.727l-38.663-38.663c-8.028-8.028-21.087-8.028-29.113-.001-3.888 3.889-6.03 9.058-6.03 14.557s2.141 10.669 6.029 14.557l9.551 9.551h-59.61l9.551-9.551c3.888-3.888 6.029-9.058 6.029-14.557s-2.142-10.668-6.029-14.556c-8.026-8.027-21.086-8.026-29.114 0l-38.663 38.663h-49.727c-2.757 0-5-2.243-5-5v-43.331c0-2.757 2.243-5 5-5h198.888c2.761 0 5-2.238 5-5s-2.239-5-5-5h-145.464v-90.032c0-2.762-2.239-5-5-5s-5 2.238-5 5v90.032h-43.424c-8.271 0-15 6.729-15 15v43.331c0 8.271 6.729 15 15 15h3.326l6.841 29.56-22.795 22.795c-8.027 8.026-8.027 21.087 0 29.113 4.013 4.014 9.285 6.021 14.557 6.021s10.544-2.007 14.557-6.021l4.624-4.624 9.573 41.367c1.583 6.841 7.592 11.618 14.613 11.618h184.927c7.021 0 13.03-4.777 14.613-11.618l9.573-41.367 4.624 4.624c4.013 4.014 9.285 6.021 14.557 6.021 5.271 0 10.543-2.007 14.557-6.021 8.026-8.026 8.026-21.086-.001-29.113zm-171.611-325.445-3.656 28.803h-35.082l10.966-28.803zm10.08 0h28.081l3.655 28.803h-35.393zm41.817 28.803-3.655-28.803h27.771l10.966 28.803zm45.783 0-10.966-28.803h26.89l18.277 28.803zm-148.513-69.549h149.906c6.771 0 12.279 5.509 12.279 12.279v18.467h-174.463v-18.467c0-6.77 5.508-12.279 12.278-12.279zm-14.529 40.746h26.89l-10.966 28.803h-34.201zm-4.001 70.726c-10.13 0-18.371-8.241-18.371-18.371v-13.553h36.742v13.553c0 10.13-8.242 18.371-18.371 18.371zm46.742 0c-10.13 0-18.371-8.241-18.371-18.371v-13.553h36.742v13.553c-.001 10.13-8.242 18.371-18.371 18.371zm46.741 0c-10.13 0-18.371-8.241-18.371-18.371v-13.553h36.742v13.553c.001 10.13-8.241 18.371-18.371 18.371zm46.743 0c-10.13 0-18.371-8.241-18.371-18.371v-13.553h36.742v13.553c0 10.13-8.241 18.371-18.371 18.371zm28.371-18.371v-13.553h36.742v13.553c0 10.13-8.241 18.371-18.371 18.371-10.13 0-18.371-8.241-18.371-18.371zm46.158 220.735-4.912 21.225-21.226-21.225zm-248.338 0h26.138l-21.226 21.225zm-4.176 74.398c-4.127 4.128-10.844 4.127-14.971 0-4.128-4.128-4.128-10.845 0-14.973l101.02-101.019c2.063-2.063 4.774-3.096 7.486-3.096 2.711 0 5.422 1.032 7.485 3.096v.001c1.999 1.999 3.1 4.657 3.1 7.484 0 2.828-1.101 5.486-3.101 7.486zm225.679 41.56c-.528 2.279-2.531 3.872-4.871 3.872h-184.926c-2.34 0-4.343-1.593-4.871-3.872l-10.98-47.448 68.51-68.51h79.61l68.51 68.51zm45.982-41.56c-4.126 4.127-10.843 4.128-14.971 0l-101.02-101.02c-2-2-3.101-4.658-3.101-7.486 0-2.827 1.101-5.485 3.101-7.485 2.063-2.063 4.774-3.096 7.485-3.096s5.422 1.032 7.486 3.096l101.02 101.019c4.128 4.127 4.128 10.844 0 14.972z" fill="#00c"/><path d="m292.561 307.618c-2.761 0-5 2.238-5 5v.115c0 2.762 2.239 5 5 5s5-2.238 5-5v-.115c0-2.762-2.239-5-5-5z" fill="#00c"/><path d="m219.439 307.618c-2.761 0-5 2.238-5 5v.115c0 2.762 2.239 5 5 5s5-2.238 5-5v-.115c0-2.762-2.238-5-5-5z" fill="#00c"/><path d="m245.25 226.491c-2.111 0-4.072-1.347-4.757-3.463l-14.253-44.092h-10.686c-2.761 0-5-2.238-5-5s2.239-5 5-5h14.324c2.169 0 4.09 1.398 4.758 3.462l15.373 47.554c.849 2.628-.592 5.446-3.22 6.296-.511.165-1.03.243-1.539.243z" fill="#ff8b00"/><path d="m290.354 226.49h-52.834c-2.761 0-5-2.238-5-5s2.239-5 5-5h48.647l4.307-24.124h-52.954c-2.761 0-5-2.238-5-5s2.239-5 5-5h58.926c1.48 0 2.884.655 3.833 1.79.95 1.135 1.349 2.632 1.089 4.089l-6.092 34.124c-.426 2.385-2.5 4.121-4.922 4.121z" fill="#ff8b00"/><path d="m248.227 257.197c-7.175 0-13.012-5.837-13.012-13.012s5.837-13.012 13.012-13.012 13.012 5.837 13.012 13.012-5.837 13.012-13.012 13.012zm0-16.023c-1.661 0-3.012 1.351-3.012 3.012s1.351 3.012 3.012 3.012 3.012-1.351 3.012-3.012-1.351-3.012-3.012-3.012z" fill="#ff8b00"/><path d="m285.563 257.197c-7.175 0-13.012-5.837-13.012-13.012s5.837-13.012 13.012-13.012 13.012 5.837 13.012 13.012-5.837 13.012-13.012 13.012zm0-16.023c-1.661 0-3.012 1.351-3.012 3.012s1.351 3.012 3.012 3.012 3.012-1.351 3.012-3.012-1.351-3.012-3.012-3.012z" fill="#ff8b00"/><path d="m120.886 216.43c-1.28 0-2.559-.488-3.536-1.465-1.953-1.952-1.953-5.118 0-7.07l10-10c1.953-1.953 5.118-1.953 7.071 0 1.953 1.952 1.953 5.118 0 7.07l-10 10c-.976.976-2.255 1.465-3.535 1.465z" fill="#ff6c6c"/><path d="m410.398 180.177c-1.28 0-2.559-.488-3.536-1.465l-6.464-6.464-6.464 6.464c-1.953 1.953-5.118 1.953-7.071 0-1.953-1.952-1.953-5.118 0-7.07l10-10c1.953-1.953 5.118-1.953 7.071 0l10 10c1.953 1.952 1.953 5.118 0 7.07-.977.976-2.256 1.465-3.536 1.465z" fill="#6c6cff"/><path d="m129.169 68.708c-1.28 0-2.559-.488-3.536-1.465l-6.464-6.464-6.464 6.464c-1.953 1.953-5.118 1.953-7.071 0-1.953-1.952-1.953-5.118 0-7.07l10-10c1.953-1.953 5.118-1.953 7.071 0l10 10c1.953 1.952 1.953 5.118 0 7.07-.976.977-2.256 1.465-3.536 1.465z" fill="#6c6cff"/><path d="m434.981 363.189c-1.28 0-2.559-.488-3.536-1.465-1.953-1.952-1.953-5.118 0-7.07l10-10c1.953-1.953 5.118-1.953 7.071 0 1.953 1.952 1.953 5.118 0 7.07l-10 10c-.975.977-2.255 1.465-3.535 1.465z" fill="#ff6c6c"/><path d="m87.019 385.071c-1.28 0-2.559-.488-3.536-1.465l-6.464-6.464-6.464 6.464c-1.953 1.953-5.118 1.953-7.071 0-1.953-1.952-1.953-5.118 0-7.07l10-10c1.953-1.953 5.118-1.953 7.071 0l10 10c1.953 1.952 1.953 5.118 0 7.07-.977.977-2.257 1.465-3.536 1.465z" fill="#ff9d33"/></svg>