<svg id="Capa_1" enable-background="new 0 0 512 512" height="512" viewBox="0 0 512 512" width="512" xmlns="http://www.w3.org/2000/svg" xmlns:xlink="http://www.w3.org/1999/xlink"><linearGradient id="SVGID_1_" gradientUnits="userSpaceOnUse" x1="431.232" x2="3.232" y1="590.085" y2="-225.916"><stop offset=".007" stop-color="#9494ff"/><stop offset=".992" stop-color="#ffe8dc" stop-opacity="0"/></linearGradient><g><path d="m512 256c0-27.631-12.504-53.535-34.347-75.837-15.199-15.518-27.854-33.295-37.513-52.751-30.889-62.217-83.554-103.196-143.336-103.196-42.483 0-81.369 20.698-111.403 55.003-19.88 22.707-44.981 40.125-72.987 51.371-67.839 27.242-112.414 73.243-112.414 125.41s44.575 98.168 112.414 125.41c28.006 11.246 53.107 28.664 72.988 51.371 30.034 34.305 68.92 55.003 111.403 55.003 59.782 0 112.447-40.979 143.336-103.196 9.659-19.456 22.314-37.233 37.513-52.751 21.842-22.302 34.346-48.206 34.346-75.837z" fill="url(#SVGID_1_)"/><g><path d="m447.162 116.15h-159.63c-8.91 0-16.14 7.22-16.14 16.13v39.3h-30.79v-41.69c0-8.91-7.22-16.13-16.13-16.13h-159.63c-8.91 0-16.14 7.22-16.14 16.13v303.83c0 8.91 7.23 16.13 16.14 16.13h159.63c8.91 0 16.13-7.22 16.13-16.13v-178.59h30.79v180.98c0 8.91 7.23 16.13 16.14 16.13h159.63c8.91 0 16.13-7.22 16.13-16.13v-303.83c0-8.91-7.22-16.13-16.13-16.13z" fill="#00c" opacity=".1"/><g><g><g><g><g><path d="m463.292 105.28v303.83c0 8.91-7.22 16.13-16.13 16.13h-159.63c-8.91 0-16.14-7.22-16.14-16.13v-303.83c0-8.91 7.23-16.13 16.14-16.13h159.63c8.91 0 16.13 7.22 16.13 16.13z" fill="#fff"/><path d="m308.442 168.21v72.23c0 3.13-2.54 5.66-5.66 5.66h-31.39v-83.55h31.39c3.12 0 5.66 2.54 5.66 5.66z" fill="#fff3ee"/><g><path d="m463.292 180.503-93.84 93.85 93.84 93.84v29.71l-120.005-120.015c-1.952-1.953-1.952-5.118 0-7.071l120.005-120.015z" fill="#ff9d33"/></g><path d="m419.658 110.832 6.546-21.689h-117.71l6.546 21.689c.987 3.269 3.999 5.506 7.414 5.506h89.791c3.415 0 6.426-2.237 7.413-5.506z" fill="#ffab66"/></g></g><g><path d="m441.132 393.549h-144.791c-2.232 0-4.042-1.81-4.042-4.042v-29.119c0-2.232 1.81-4.042 4.042-4.042h144.791c2.232 0 4.042 1.81 4.042 4.042v29.119c0 2.232-1.81 4.042-4.042 4.042z" fill="#00c" opacity=".1"/><g><path d="m334.712 353.537v21.84c0 2.24-1.81 4.05-4.04 4.05h-21.84c-2.24 0-4.05-1.81-4.05-4.05v-21.84c0-2.23 1.81-4.04 4.05-4.04h21.84c2.23 0 4.04 1.81 4.04 4.04z" fill="#ff6c6c"/><path d="m379.659 379.422h-21.845c-2.232 0-4.042-1.81-4.042-4.042v-21.845c0-2.232 1.81-4.042 4.042-4.042h21.845c2.232 0 4.042 1.81 4.042 4.042v21.845c0 2.233-1.81 4.042-4.042 4.042z" fill="#ffab66"/><path d="m428.644 379.422h-21.844c-2.232 0-4.042-1.81-4.042-4.042v-21.845c0-2.232 1.81-4.042 4.042-4.042h21.845c2.232 0 4.042 1.81 4.042 4.042v21.845c-.001 2.233-1.811 4.042-4.043 4.042z" fill="#6c6cff"/></g></g></g><g><g><g><path d="m240.602 102.89v303.83c0 8.91-7.22 16.13-16.13 16.13h-159.63c-8.91 0-16.14-7.22-16.14-16.13v-303.83c0-8.91 7.23-16.13 16.14-16.13h159.63c8.91 0 16.13 7.22 16.13 16.13z" fill="#fff"/><path d="m209.222 162.55h31.38v83.55h-31.38c-3.12 0-5.66-2.53-5.66-5.66v-72.23c0-3.12 2.54-5.66 5.66-5.66z" fill="#ebebff"/><path d="m240.605 254.204v152.52c0 8.91-7.22 16.13-16.13 16.13h-139.28c-.66-5.72-1-11.54-1-17.44 0-83.56 67.74-151.3 151.29-151.3 1.71 0 3.42.03 5.12.09z" fill="#ffab66"/><path d="m212.935 422.854h-148.09c-8.91 0-16.14-7.22-16.14-16.13v-68.76c8.79-1.59 17.84-2.42 27.09-2.42 60.69 0 113.03 35.74 137.14 87.31z" fill="#b3b3ff"/><path d="m93.201 422.854h-18.012v-249.91c0-2.761 2.239-5 5-5h8.012c2.761 0 5 2.239 5 5z" fill="#ff6c6c"/><path d="m196.969 108.447 6.546-21.689h-117.711l6.546 21.689c.987 3.269 3.999 5.506 7.414 5.506h89.791c3.415 0 6.427-2.237 7.414-5.506z" fill="#ffab66"/></g></g><g><path d="m218.443 391.164h-144.791c-2.232 0-4.042-1.81-4.042-4.042v-29.119c0-2.232 1.81-4.042 4.042-4.042h144.791c2.232 0 4.042 1.81 4.042 4.042v29.119c0 2.232-1.81 4.042-4.042 4.042z" fill="#00c" opacity=".1"/><g><path d="m107.984 377.037h-21.844c-2.232 0-4.042-1.81-4.042-4.042v-21.845c0-2.232 1.81-4.042 4.042-4.042h21.845c2.232 0 4.042 1.81 4.042 4.042v21.845c-.001 2.233-1.811 4.042-4.043 4.042z" fill="#d9d9ff"/><path d="m156.97 377.037h-21.845c-2.232 0-4.042-1.81-4.042-4.042v-21.845c0-2.232 1.81-4.042 4.042-4.042h21.845c2.232 0 4.042 1.81 4.042 4.042v21.845c-.001 2.233-1.81 4.042-4.042 4.042z" fill="#ffd9d9"/><path d="m205.955 377.037h-21.845c-2.232 0-4.042-1.81-4.042-4.042v-21.845c0-2.232 1.81-4.042 4.042-4.042h21.845c2.232 0 4.042 1.81 4.042 4.042v21.845c0 2.233-1.81 4.042-4.042 4.042z" fill="#ffe8dc"/></g></g></g></g><g><g><path d="m308.442 150.24v72.23c0 3.13-2.54 5.66-5.66 5.66h-93.56c-3.12 0-5.66-2.53-5.66-5.66v-72.23c0-3.12 2.54-5.66 5.66-5.66h93.56c3.12 0 5.66 2.54 5.66 5.66z" fill="#ff4d4d"/><g><g><path d="m275.962 168.67-34.71 21.2c-.8.48-1.7.73-2.61.73-.84 0-1.68-.21-2.44-.64-1.58-.89-2.56-2.55-2.56-4.36v-41.02h10v32.11l27.11-16.55c2.36-1.44 5.43-.7 6.87 1.66s.7 5.43-1.66 6.87z" fill="#ffd9d9"/></g><g><path d="m278.362 187.11v41.02h-10v-32.11l-27.11 16.55c-2.36 1.44-5.43.7-6.87-1.66s-.7-5.43 1.66-6.87l34.71-21.2c1.54-.94 3.48-.97 5.05-.09 1.58.88 2.56 2.55 2.56 4.36z" fill="#ffd9d9"/></g></g></g><g fill="#00c"><path d="m447.163 84.143h-159.628c-11.653 0-21.135 9.481-21.135 21.136v34.305h-20.792v-36.689c0-11.654-9.481-21.136-21.135-21.136h-159.627c-11.654 0-21.135 9.481-21.135 21.136v303.828c0 11.654 9.481 21.136 21.135 21.136h94.154c2.761 0 5-2.238 5-5s-2.239-5-5-5h-94.154c-6.14 0-11.135-4.995-11.135-11.136v-303.829c0-6.141 4.995-11.136 11.135-11.136h17.244l5.474 18.133c1.636 5.421 6.539 9.063 12.2 9.063h89.791c5.662 0 10.565-3.642 12.201-9.063l5.473-18.133h17.245c6.14 0 11.135 4.995 11.135 11.136v36.689h-26.387c-5.877 0-10.659 4.781-10.659 10.658v72.227c0 5.877 4.781 10.658 10.659 10.658h26.387v173.596c0 6.141-4.995 11.136-11.135 11.136h-31.474c-2.761 0-5 2.238-5 5s2.239 5 5 5h31.474c11.654 0 21.135-9.481 21.135-21.136v-173.596h57.172c5.878 0 10.659-4.781 10.659-10.658v-72.227c0-5.877-4.781-10.658-10.659-10.658h-26.381v-34.305c0-6.141 4.995-11.136 11.135-11.136h17.245l5.474 18.135c1.637 5.42 6.54 9.061 12.2 9.061h89.79c5.662 0 10.565-3.642 12.201-9.061l5.474-18.135h17.244c6.14 0 11.135 4.995 11.135 11.136v303.828c0 6.141-4.995 11.136-11.135 11.136h-159.628c-6.14 0-11.135-4.995-11.135-11.136v-146.979c0-2.762-2.238-5-5-5s-5 2.238-5 5v146.979c0 11.654 9.481 21.136 21.135 21.136h159.628c11.653 0 21.135-9.481 21.135-21.136v-303.828c0-11.654-9.482-21.135-21.135-21.135zm-254.98 22.859c-.353 1.167-1.408 1.951-2.627 1.951h-89.791c-1.219 0-2.274-.784-2.627-1.952l-4.601-15.243h104.247zm111.257 43.239v72.227c0 .369-.29.658-.659.658h-93.559c-.369 0-.659-.289-.659-.658v-72.227c0-.363.295-.658.659-.658h93.559c.364 0 .659.295.659.658zm111.431-40.853c-.352 1.166-1.407 1.95-2.627 1.95h-89.79c-1.219 0-2.275-.784-2.627-1.95l-4.601-15.245h104.246z"/><path d="m346.795 214.357c.811.491 1.705.726 2.588.726 1.69 0 3.34-.857 4.28-2.408 4.939-8.144 7.55-17.49 7.55-27.031s-2.611-18.889-7.55-27.031c-1.433-2.359-4.505-3.113-6.869-1.682-2.36 1.433-3.113 4.508-1.682 6.869 3.991 6.578 6.101 14.132 6.101 21.844s-2.109 15.266-6.101 21.846c-1.431 2.36-.678 5.435 1.683 6.867z"/><path d="m330.559 200.315c.811.491 1.705.726 2.588.726 1.69 0 3.34-.857 4.28-2.408 2.373-3.913 3.628-8.404 3.628-12.989s-1.255-9.076-3.628-12.989c-1.433-2.36-4.508-3.113-6.868-1.683-2.361 1.433-3.114 4.508-1.683 6.868 1.426 2.35 2.179 5.048 2.179 7.804s-.753 5.454-2.179 7.804c-1.432 2.36-.679 5.435 1.683 6.867z"/><path d="m363.878 227.347c.811.492 1.705.727 2.589.727 1.69 0 3.339-.857 4.279-2.407 7.313-12.055 11.18-25.895 11.18-40.022s-3.865-27.966-11.179-40.022c-1.433-2.359-4.506-3.115-6.869-1.681-2.36 1.432-3.113 4.507-1.681 6.868 6.364 10.491 9.729 22.537 9.729 34.835 0 12.299-3.364 24.345-9.729 34.835-1.432 2.36-.679 5.435 1.681 6.867z"/><path d="m165.209 156.932c-2.361-1.434-5.436-.679-6.868 1.681-4.94 8.143-7.551 17.489-7.551 27.031 0 9.541 2.611 18.889 7.551 27.031.94 1.551 2.589 2.408 4.28 2.408.883 0 1.778-.234 2.588-.726 2.361-1.433 3.114-4.508 1.682-6.868-3.991-6.58-6.101-14.134-6.101-21.846s2.109-15.266 6.101-21.844c1.432-2.361.679-5.436-1.682-6.867z"/><path d="m181.446 170.972c-2.363-1.432-5.437-.679-6.868 1.683-2.374 3.913-3.629 8.405-3.629 12.989s1.255 9.076 3.629 12.989c.94 1.551 2.589 2.408 4.28 2.408.883 0 1.778-.234 2.588-.726 2.361-1.433 3.114-4.508 1.682-6.868-1.425-2.351-2.179-5.049-2.179-7.804s.753-5.453 2.179-7.804c1.432-2.36.679-5.435-1.682-6.867z"/><path d="m148.125 143.939c-2.363-1.432-5.436-.679-6.868 1.683-7.313 12.056-11.179 25.896-11.179 40.021 0 14.128 3.866 27.967 11.179 40.022.94 1.55 2.589 2.407 4.28 2.407.883 0 1.778-.234 2.588-.727 2.361-1.432 3.114-4.507 1.682-6.868-6.364-10.491-9.729-22.537-9.729-34.835 0-12.297 3.364-24.344 9.729-34.836 1.432-2.359.679-5.434-1.682-6.867z"/></g></g></g><path d="" fill="#8383ff"/><g><path d="m172.892 473.515c-7.175 0-13.012-5.837-13.012-13.012s5.837-13.012 13.012-13.012 13.012 5.837 13.012 13.012-5.838 13.012-13.012 13.012zm0-16.024c-1.661 0-3.012 1.351-3.012 3.012s1.351 3.012 3.012 3.012 3.012-1.351 3.012-3.012-1.352-3.012-3.012-3.012z" fill="#ff6c6c"/></g><g><path d="m421.352 66.385c-7.175 0-13.012-5.837-13.012-13.012s5.837-13.012 13.012-13.012 13.013 5.837 13.013 13.012-5.839 13.012-13.013 13.012zm0-16.024c-1.661 0-3.012 1.351-3.012 3.012s1.351 3.012 3.012 3.012 3.013-1.351 3.013-3.012-1.352-3.012-3.013-3.012z" fill="#ff9d33"/></g><g><path d="m195.033 71.799c-7.175 0-13.012-5.837-13.012-13.012s5.837-13.012 13.012-13.012 13.012 5.837 13.012 13.012-5.837 13.012-13.012 13.012zm0-16.024c-1.661 0-3.012 1.351-3.012 3.012s1.351 3.012 3.012 3.012 3.012-1.351 3.012-3.012-1.352-3.012-3.012-3.012z" fill="#ff6c6c"/></g><g><path d="m252.424 464.292c-1.28 0-2.559-.488-3.536-1.465l-11.292-11.292c-.938-.938-1.464-2.209-1.464-3.535s.527-2.598 1.464-3.535l11.292-11.292c1.954-1.952 5.119-1.952 7.071 0l11.292 11.292c1.953 1.952 1.953 5.118 0 7.07l-11.292 11.292c-.976.977-2.255 1.465-3.535 1.465zm-4.221-16.292 4.221 4.221 4.221-4.221-4.221-4.221z" fill="#6c6cff"/></g><g><path d="m149.118 57.69c-1.326 0-2.598-.526-3.536-1.465l-11.292-11.292c-.938-.938-1.464-2.209-1.464-3.535s.527-2.598 1.464-3.535l11.292-11.292c1.953-1.953 5.118-1.953 7.071 0l11.292 11.292c.938.938 1.464 2.209 1.464 3.535s-.527 2.598-1.464 3.535l-11.292 11.293c-.937.938-2.209 1.464-3.535 1.464zm-4.221-16.293 4.221 4.222 4.221-4.222-4.221-4.221z" fill="#6c6cff"/></g></g></g></svg>