<svg id="Capa_1" enable-background="new 0 0 512 512" height="512" viewBox="0 0 512 512" width="512" xmlns="http://www.w3.org/2000/svg" xmlns:xlink="http://www.w3.org/1999/xlink"><linearGradient id="SVGID_1_" gradientUnits="userSpaceOnUse" x1="431.232" x2="3.232" y1="590.085" y2="-225.916"><stop offset=".007" stop-color="#9494ff"/><stop offset=".992" stop-color="#ffe8dc" stop-opacity="0"/></linearGradient><path d="m512 256c0-27.631-12.504-53.535-34.347-75.837-15.199-15.518-27.854-33.295-37.513-52.751-30.889-62.217-83.554-103.196-143.336-103.196-42.483 0-81.369 20.698-111.403 55.003-19.88 22.707-44.981 40.125-72.987 51.371-67.839 27.242-112.414 73.243-112.414 125.41s44.575 98.168 112.414 125.41c28.006 11.246 53.107 28.664 72.988 51.371 30.034 34.305 68.92 55.003 111.403 55.003 59.782 0 112.447-40.979 143.336-103.196 9.659-19.456 22.314-37.233 37.513-52.751 21.842-22.302 34.346-48.206 34.346-75.837z" fill="url(#SVGID_1_)"/><path d="m359.983 476.5h-191.775c-12.208 0-22.105-9.897-22.105-22.105v-375.79c0-12.208 9.897-22.105 22.105-22.105h191.775c12.208 0 22.105 9.897 22.105 22.105v375.789c0 12.209-9.897 22.106-22.105 22.106z" fill="#00c" opacity=".1"/><path d="m394.538 145.09h-21.522v-66.913h21.522c3.803 0 6.885 3.083 6.885 6.885v53.143c0 3.803-3.082 6.885-6.885 6.885z" fill="#6c6cff"/><path d="m130.502 213.943h24.672v-135.766h-24.672c-3.803 0-3.735 3.083-3.735 6.885v121.995c0 3.803-.067 6.886 3.735 6.886z" fill="#6c6cff"/><path d="m359.983 455.5h-191.775c-12.208 0-22.105-9.897-22.105-22.105v-375.79c0-12.208 9.897-22.105 22.105-22.105h191.775c12.208 0 22.105 9.897 22.105 22.105v375.789c0 12.209-9.897 22.106-22.105 22.106z" fill="#ff9d33"/><path d="m146.107 87.622h235.977v315.756h-235.977z" fill="#fff"/><path d="m382.084 87.622v120.046c-10.752-.357-20.58-4.378-28.298-10.826-8.106 6.773-18.532 10.857-29.893 10.857s-21.788-4.085-29.904-10.857c-8.106 6.773-18.532 10.857-29.893 10.857s-21.788-4.085-29.893-10.857c-8.117 6.773-18.543 10.857-29.904 10.857s-21.787-4.085-29.893-10.857c-7.718 6.447-17.546 10.469-28.298 10.826v-120.046z" fill="#ebebff"/><path d="m351.092 250.108c-1.024 0-2.059-.313-2.948-.965l-84.048-61.5-84.048 61.5c-2.229 1.63-5.357 1.146-6.988-1.083s-1.146-5.356 1.083-6.987l87.001-63.66c1.758-1.287 4.146-1.287 5.904 0l87 63.66c2.229 1.631 2.714 4.759 1.083 6.987-.98 1.339-2.499 2.048-4.039 2.048z" fill="#4d4dff"/><path d="" style="fill:none;stroke:#00c;stroke-width:10;stroke-linecap:round;stroke-linejoin:round;stroke-miterlimit:10"/><path d="m174.4 137.267h-59.797l31.5-49.64h47.197z" fill="#ffc599"/><path d="m234.197 137.267h-59.797l18.9-49.64h47.197z" fill="#ff4d4d"/><path d="m293.994 137.267h-59.797l6.3-49.64h47.197z" fill="#ffc599"/><path d="m353.791 137.267h-59.797l-6.3-49.64h47.197z" fill="#ff4d4d"/><path d="m413.588 137.267h-59.797l-18.9-49.64h47.197z" fill="#ffc599"/><path d="m144.501 190.9c-16.513 0-29.899-13.386-29.899-29.899v-23.735h59.798v23.735c0 16.513-13.386 29.899-29.899 29.899z" fill="#ffd6bb"/><path d="m204.298 190.9c-16.513 0-29.899-13.386-29.899-29.899v-23.735h59.797v23.735c.001 16.513-13.385 29.899-29.898 29.899z" fill="#ff6c6c"/><path d="m264.095 190.9c-16.513 0-29.899-13.386-29.899-29.899v-23.735h59.797v23.735c.001 16.513-13.385 29.899-29.898 29.899z" fill="#ffd6bb"/><path d="m323.892 190.9c-16.513 0-29.899-13.386-29.899-29.899v-23.735h59.797v23.735c.001 16.513-13.385 29.899-29.898 29.899z" fill="#ff6c6c"/><path d="m383.689 190.9c-16.513 0-29.899-13.386-29.899-29.899v-23.735h59.797v23.735c.001 16.513-13.385 29.899-29.898 29.899z" fill="#ffd6bb"/><path d="m284.355 66.5h-40.52c-2.762 0-5-2.239-5-5s2.238-5 5-5h40.52c2.762 0 5 2.239 5 5s-2.238 5-5 5z" fill="#ff4d4d"/><path d="m243.762 422.5v12.667c0 2.761 2.239 5 5 5h30.667c2.761 0 5-2.239 5-5v-12.667c0-2.761-2.239-5-5-5h-30.667c-2.762 0-5 2.238-5 5z" fill="#ff4d4d"/><path d="m343.105 433.833h-16.52c-2.762 0-5-2.239-5-5s2.238-5 5-5h16.52c2.762 0 5 2.239 5 5s-2.238 5-5 5z" fill="#ff4d4d"/><path d="m201.605 433.833h-16.52c-2.762 0-5-2.239-5-5s2.238-5 5-5h16.52c2.762 0 5 2.239 5 5s-2.238 5-5 5z" fill="#ff4d4d"/><path d="m198.424 378.307h-21c-2.762 0-5-2.239-5-5s2.238-5 5-5h21c2.762 0 5 2.239 5 5s-2.238 5-5 5z" fill="#ebebff"/><path d="m350.766 378.307h-21c-2.762 0-5-2.239-5-5s2.238-5 5-5h21c2.762 0 5 2.239 5 5s-2.238 5-5 5z" fill="#ebebff"/><path d="m389.014 349.971h-249.838c-5.523 0-10-4.477-10-10v-84.863c0-5.523 4.477-10 10-10h249.838c5.523 0 10 4.477 10 10v84.863c0 5.523-4.477 10-10 10z" fill="#8383ff"/><path d="m418.582 137.208c-.011-.903-.288-1.856-.772-2.621l-11.386-17.942v-31.583c0-6.554-5.332-11.885-11.886-11.885h-7.45v-15.572c0-14.946-12.159-27.105-27.105-27.105h-191.775c-14.946 0-27.105 12.159-27.105 27.105v15.571h-10.6c-3.777 0-6.669 1.878-7.934 5.151-.803 2.079-.802 4.347-.802 6.54v31.777l-11.386 17.943c-.496.781-.778 1.754-.778 2.679v23.735c0 10.564 4.725 20.04 12.165 26.445v19.804c0 2.193-.001 4.462.802 6.541 1.265 3.273 4.156 5.15 7.934 5.15h10.6v21.166h-1.926c-8.271 0-15 6.729-15 15v84.863c0 8.271 6.729 15 15 15h1.926v78.423c0 14.946 12.16 27.105 27.105 27.105h191.774c14.946 0 27.105-12.159 27.105-27.105v-78.423h1.927c8.271 0 15-6.729 15-15v-84.863c0-8.271-6.729-15-15-15h-1.927v-44.376c17.654-1.714 31.5-16.634 31.5-34.73v-23.735c0-.019-.006-.038-.006-.058zm-69.791 23.794c0 13.729-11.169 24.898-24.898 24.898s-24.898-11.169-24.898-24.898v-18.735h49.797v18.735zm-119.594 0c0 13.729-11.169 24.898-24.898 24.898s-24.899-11.169-24.899-24.898v-18.735h49.797zm-80.345-68.375h37.194l-15.093 39.64h-47.256zm182.592 0 15.093 39.64h-48.137l-5.031-39.64zm-48.156 0 5.031 39.64h-48.448l1.732-13.65c.348-2.74-1.591-5.242-4.331-5.59-2.733-.354-5.242 1.591-5.59 4.33l-1.892 14.91h-48.137l15.093-39.64zm-44.091 49.64h49.797v18.735c0 13.729-11.169 24.898-24.898 24.898s-24.899-11.169-24.899-24.898zm118.041-10-15.093-39.64h37.194l25.154 39.64zm37.3-49.09c1.04 0 1.886.846 1.886 1.885v15.825l-9.336-14.712v-2.998zm-226.33-42.677h191.774c9.432 0 17.105 7.674 17.105 17.105v25.021h-225.984v-25.021c0-9.431 7.673-17.105 17.105-17.105zm-36.441 44.365c0-.5 0-1.129.017-1.688h9.318v2.998l-9.335 14.711zm-12.164 76.137v-18.735h49.797v18.735c0 13.729-11.169 24.898-24.898 24.898s-24.899-11.169-24.899-24.898zm12.181 47.94c-.018-.56-.017-1.188-.017-1.688v-13.77c2.94 1.157 6.071 1.931 9.335 2.248v13.21zm245.304 224.453c0 9.432-7.674 17.105-17.105 17.105h-191.775c-9.432 0-17.105-7.674-17.105-17.105v-25.017h197.413c2.762 0 5-2.238 5-5s-2.238-5-5-5h-197.413v-43.406h225.985zm16.927-178.287v84.863c0 2.757-2.243 5-5 5h-249.839c-2.757 0-5-2.243-5-5v-84.863c0-2.757 2.243-5 5-5h249.838c2.757 0 5.001 2.244 5.001 5zm-242.912-15v-44.843c9.868-1.898 18.272-7.959 23.297-16.285 6.115 10.13 17.228 16.919 29.899 16.919s23.784-6.789 29.898-16.919c6.115 10.13 17.228 16.919 29.899 16.919s23.784-6.789 29.898-16.919c6.115 10.13 17.228 16.919 29.898 16.919 12.671 0 23.784-6.789 29.898-16.919 5.025 8.326 13.429 14.387 23.297 16.285v44.843zm257.485-79.106c0 13.729-11.169 24.898-24.898 24.898s-24.898-11.169-24.898-24.898v-18.735h49.797v18.735z" fill="#00c"/><g fill="#fff"><path d="m203.271 319.891h-12.454c-6.065 0-11-4.935-11-11v-25.651c0-6.065 4.935-11 11-11h12.454c6.065 0 11 4.935 11 11v25.651c0 6.065-4.934 11-11 11zm-12.454-37.652c-.551 0-1 .448-1 1v25.651c0 .552.449 1 1 1h12.454c.551 0 1-.448 1-1v-25.651c0-.552-.449-1-1-1z"/><path d="m229.518 319.891c-2.761 0-5-2.238-5-5v-37.651c0-2.762 2.239-5 5-5h18.454c6.065 0 11 4.935 11 11v5.337c0 6.065-4.934 11-11 11h-13.454v15.314c0 2.761-2.239 5-5 5zm5-30.315h13.454c.551 0 1-.448 1-1v-5.337c0-.552-.449-1-1-1h-13.454z"/><path d="m298.673 319.891h-18.454c-6.065 0-11-4.935-11-11v-25.651c0-6.065 4.935-11 11-11h18.454c2.762 0 5 2.238 5 5s-2.238 5-5 5h-18.454c-.552 0-1 .448-1 1v25.651c0 .552.448 1 1 1h18.454c2.762 0 5 2.238 5 5s-2.238 5-5 5z"/><path d="m343.373 319.891c-1.661 0-3.254-.83-4.193-2.276l-15.261-23.497v20.773c0 2.762-2.238 5-5 5s-5-2.238-5-5v-37.651c0-2.215 1.457-4.165 3.58-4.794 2.121-.63 4.406.212 5.613 2.07l15.261 23.497v-20.773c0-2.762 2.238-5 5-5s5 2.238 5 5v37.651c0 2.215-1.457 4.165-3.58 4.794-.47.139-.947.206-1.42.206z"/><path d="m294.846 301.064h-20.627c-2.762 0-5-2.238-5-5s2.238-5 5-5h20.627c2.762 0 5 2.238 5 5s-2.239 5-5 5z"/></g><path d="m426.694 360.689c-1.279 0-2.56-.488-3.535-1.465-1.953-1.952-1.953-5.118 0-7.07l10-10c1.951-1.953 5.119-1.953 7.07 0 1.953 1.952 1.953 5.118 0 7.07l-10 10c-.975.977-2.255 1.465-3.535 1.465z" fill="#ff6c6c"/><path d="m70.305 287.239c-1.28 0-2.559-.488-3.536-1.465-1.953-1.952-1.953-5.118 0-7.07l10-10c1.953-1.953 5.118-1.953 7.071 0 1.953 1.952 1.953 5.118 0 7.07l-10 10c-.976.977-2.255 1.465-3.535 1.465z" fill="#ff6c6c"/><path d="m108.603 417.6c-1.28 0-2.559-.488-3.536-1.465-1.953-1.952-1.953-5.118 0-7.07l10-10c1.953-1.953 5.118-1.953 7.071 0 1.953 1.952 1.953 5.118 0 7.07l-10 10c-.976.976-2.256 1.465-3.535 1.465z" fill="#6c6cff"/><path d="m90.305 106.109c-1.28 0-2.559-.488-3.536-1.465l-6.464-6.464-6.464 6.464c-1.953 1.953-5.118 1.953-7.071 0-1.953-1.952-1.953-5.118 0-7.07l10-10c1.953-1.953 5.118-1.953 7.071 0l10 10c1.953 1.952 1.953 5.118 0 7.07-.977.977-2.256 1.465-3.536 1.465z" fill="#ff9d33"/><path d="m441.694 213.572c-1.279 0-2.56-.488-3.535-1.465l-6.465-6.464-6.465 6.464c-1.951 1.953-5.119 1.953-7.07 0-1.953-1.952-1.953-5.118 0-7.07l10-10c1.951-1.953 5.119-1.953 7.07 0l10 10c1.953 1.952 1.953 5.118 0 7.07-.975.977-2.255 1.465-3.535 1.465z" fill="#6c6cff"/></svg>