<svg id="Capa_1" enable-background="new 0 0 512 512" height="512" viewBox="0 0 512 512" width="512" xmlns="http://www.w3.org/2000/svg" xmlns:xlink="http://www.w3.org/1999/xlink"><linearGradient id="SVGID_1_" gradientUnits="userSpaceOnUse" x1="432.823" x2="96.823" y1="520.816" y2="20.816"><stop offset=".0023" stop-color="#ff9494"/><stop offset=".992" stop-color="#ffe8dc" stop-opacity="0"/></linearGradient><g><path d="m512 192.132c0-77.209-114.615-139.799-256-139.799s-256 62.59-256 139.799c0 12.48 2.999 24.577 8.62 36.089 10.007 20.491 12.502 43.828 7.537 66.086-2.036 9.127-3.179 18.59-3.333 28.294-1.235 77.812 61.961 142.061 139.782 142.06 58.443 0 108.503-35.865 129.385-86.785 11.468-27.964 35.565-48.919 65.155-55.077 96.38-20.057 164.854-70.992 164.854-130.667z" fill="url(#SVGID_1_)"/><g><g fill="#00c" opacity=".1"><path d="m370.65 418.327c7.666-1.877 14.673-5.824 20.265-11.416 5.591-5.591 9.538-12.599 11.415-20.265.657-2.682-.985-5.389-3.667-6.045-2.685-.662-5.389.985-6.045 3.667-1.442 5.889-4.476 11.274-8.773 15.572-4.298 4.298-9.683 7.332-15.572 8.773-2.682.657-4.324 3.363-3.667 6.045.559 2.283 2.603 3.812 4.853 3.812.392.002.792-.045 1.191-.143z"/><path d="m368.199 401.118c.394 0 .794-.047 1.193-.145 3.771-.923 7.219-2.866 9.969-5.616s4.692-6.198 5.616-9.969c.657-2.682-.985-5.389-3.667-6.046s-5.389.985-6.046 3.667c-.489 1.995-1.517 3.82-2.974 5.277s-3.282 2.485-5.277 2.974c-2.682.657-4.324 3.364-3.667 6.046.559 2.284 2.603 3.812 4.853 3.812z"/><path d="m415.901 382.948c-2.685-.659-5.389.985-6.046 3.667-2.325 9.493-7.214 18.171-14.14 25.097-6.925 6.926-15.604 11.815-25.097 14.14-2.682.657-4.324 3.364-3.667 6.046.559 2.283 2.603 3.812 4.853 3.812.394 0 .794-.047 1.193-.145 11.27-2.76 21.57-8.563 29.789-16.782s14.022-18.52 16.782-29.789c.657-2.682-.985-5.389-3.667-6.046z"/></g><path d="m451.406 121.393-44.802-44.802c-3.165-3.165-8.297-3.165-11.463 0l-108.137 108.136c-3.165 3.166-3.165 8.298 0 11.463l19.1 19.101c-.531.241-1.035.565-1.472 1.002l-13.18 13.18c-.95.95-1.429 2.188-1.455 3.433l-26.58-26.58c-9.534-9.534-22.955-12.813-35.163-9.837l-19.635-19.635c-3.165-3.166-8.297-3.166-11.463 0l-18.15 18.15-8.979-8.979c-3.165-3.165-8.297-3.165-11.463 0l-9.743 9.743c-3.165 3.165-3.165 8.297 0 11.463l32.932 32.932c-4.89 13.211-2.038 28.638 8.576 39.251l26.58 26.58c-1.245.025-2.483.504-3.434 1.454l-13.18 13.18c-.437.437-.761.94-1.002 1.472l-19.1-19.1c-3.165-3.165-8.297-3.165-11.463 0l-108.136 108.137c-3.165 3.165-3.165 8.297 0 11.463l44.802 44.802c3.165 3.165 8.297 3.165 11.463 0l108.137-108.137c3.165-3.166 3.165-8.298 0-11.463l-19.1-19.1c.531-.241 1.035-.565 1.472-1.002l13.18-13.18c.95-.95 1.429-2.188 1.455-3.433l44.691 44.691c4.53 4.53 11.874 4.53 16.403 0l12.201-12.201c-9.302 20.439-7.479 44.688 5.455 63.635l-.862.862c-4.009 4.01-4.009 10.51 0 14.52 4.01 4.01 10.51 4.01 14.52 0l92.188-92.188c4.01-4.009 4.01-10.51 0-14.52-4.009-4.01-10.51-4.01-14.52 0l-.862.862c-18.947-12.934-43.196-14.756-63.635-5.455l12.201-12.201c4.53-4.53 4.53-11.874 0-16.403l-44.691-44.691c1.245-.025 2.483-.505 3.433-1.455l13.18-13.18c.437-.437.761-.94 1.003-1.472l19.1 19.1c3.165 3.165 8.297 3.165 11.463 0l108.137-108.137c3.163-3.163 3.163-8.295-.002-11.461z" fill="#00c" opacity=".1"/><g><g><path d="m243.009 184.243-34.484 34.484-40.12-40.12 28.753-28.753c3.165-3.165 8.297-3.165 11.463 0z" fill="#ff4d4d"/><path d="m213.014 202.011-21.206 21.206-42.986-42.986c-3.165-3.165-3.165-8.297 0-11.463l9.743-9.743c3.165-3.165 8.297-3.165 11.463 0z" fill="#ff9d33"/><path d="m308.522 389.604c-25.429-25.429-25.429-66.657 0-92.085 25.429-25.429 66.657-25.429 92.085 0z" fill="#ff9d33"/><path d="m357.423 278.532c-17.604-.773-35.459 5.545-48.901 18.987s-19.76 31.297-18.987 48.901z" fill="#ff8b00"/><path d="m339.781 272.093-56.685 56.685c-4.53 4.53-11.874 4.53-16.403 0l-76.363-76.363c-14.532-14.532-14.532-38.093 0-52.625l20.463-20.463c14.532-14.532 38.093-14.532 52.625 0l76.363 76.363c4.53 4.529 4.53 11.873 0 16.403z" fill="#9494ff"/><path d="m240.455 302.54 26.238 26.238c4.53 4.53 11.874 4.53 16.403 0l56.685-56.685c4.53-4.53 4.53-11.874 0-16.403l-26.238-26.238z" fill="#fff"/><g><g><path d="m451.406 105.856-108.137 108.137c-3.165 3.165-8.297 3.165-11.463 0l-44.802-44.802c-3.165-3.165-3.165-8.297 0-11.463l108.137-108.137c3.165-3.165 8.297-3.165 11.463 0l44.802 44.802c3.165 3.166 3.165 8.298 0 11.463z" fill="#8383ff"/><g fill="#b3b3ff"><g><path d="m328.989 166.085-8.788 8.788c-1.583 1.583-4.149 1.583-5.731 0l-8.788-8.788c-1.583-1.583-1.583-4.149 0-5.731l8.788-8.788c1.583-1.583 4.149-1.583 5.731 0l8.788 8.788c1.583 1.582 1.583 4.148 0 5.731z"/><path d="m349.431 186.527-8.788 8.788c-1.583 1.583-4.149 1.583-5.731 0l-8.788-8.788c-1.583-1.583-1.583-4.149 0-5.731l8.788-8.788c1.583-1.583 4.149-1.583 5.731 0l8.788 8.788c1.583 1.582 1.583 4.148 0 5.731z"/></g><g><path d="m349.814 145.261-8.788 8.788c-1.583 1.583-4.149 1.583-5.731 0l-8.788-8.788c-1.583-1.583-1.583-4.149 0-5.731l8.788-8.788c1.583-1.583 4.149-1.583 5.731 0l8.788 8.788c1.582 1.582 1.582 4.148 0 5.731z"/><path d="m370.256 165.703-8.788 8.788c-1.583 1.583-4.149 1.583-5.731 0l-8.788-8.788c-1.583-1.583-1.583-4.149 0-5.731l8.788-8.788c1.583-1.583 4.149-1.583 5.731 0l8.788 8.788c1.582 1.582 1.582 4.148 0 5.731z"/></g><g><path d="m370.638 124.436-8.788 8.788c-1.583 1.583-4.149 1.583-5.731 0l-8.788-8.788c-1.583-1.583-1.583-4.149 0-5.731l8.788-8.788c1.583-1.583 4.149-1.583 5.731 0l8.788 8.788c1.582 1.583 1.582 4.149 0 5.731z"/><path d="m391.08 144.879-8.788 8.788c-1.583 1.583-4.149 1.583-5.731 0l-8.788-8.788c-1.583-1.583-1.583-4.149 0-5.731l8.788-8.788c1.583-1.583 4.149-1.583 5.731 0l8.788 8.788c1.583 1.582 1.583 4.148 0 5.731z"/></g><g><path d="m391.462 103.612-8.788 8.788c-1.583 1.583-4.149 1.583-5.731 0l-8.788-8.788c-1.583-1.583-1.583-4.149 0-5.731l8.788-8.788c1.583-1.583 4.149-1.583 5.731 0l8.788 8.788c1.583 1.583 1.583 4.149 0 5.731z"/><path d="m411.904 124.054-8.788 8.788c-1.583 1.583-4.149 1.583-5.731 0l-8.788-8.788c-1.583-1.583-1.583-4.149 0-5.731l8.788-8.788c1.583-1.583 4.149-1.583 5.731 0l8.788 8.788c1.583 1.583 1.583 4.149 0 5.731z"/></g><g><path d="m412.286 82.788-8.788 8.788c-1.583 1.583-4.149 1.583-5.731 0l-8.788-8.788c-1.583-1.583-1.583-4.149 0-5.731l8.788-8.788c1.583-1.583 4.149-1.583 5.731 0l8.788 8.788c1.583 1.582 1.583 4.148 0 5.731z"/><path d="m432.728 103.23-8.788 8.788c-1.583 1.583-4.149 1.583-5.731 0l-8.788-8.788c-1.583-1.583-1.583-4.149 0-5.731l8.788-8.788c1.583-1.583 4.149-1.583 5.731 0l8.788 8.788c1.583 1.582 1.583 4.148 0 5.731z"/></g></g></g><g><path d="m224.996 332.266-108.137 108.137c-3.165 3.165-8.297 3.165-11.463 0l-44.802-44.803c-3.165-3.165-3.165-8.297 0-11.463l108.137-108.137c3.165-3.165 8.298-3.165 11.463 0l44.802 44.802c3.165 3.166 3.165 8.299 0 11.464z" fill="#8383ff"/><g fill="#b3b3ff"><g><path d="m102.579 392.495-8.788 8.788c-1.583 1.583-4.149 1.583-5.731 0l-8.788-8.788c-1.583-1.583-1.583-4.149 0-5.731l8.788-8.788c1.583-1.583 4.149-1.583 5.731 0l8.788 8.788c1.583 1.582 1.583 4.148 0 5.731z"/><path d="m123.022 412.937-8.788 8.788c-1.583 1.583-4.149 1.583-5.731 0l-8.788-8.788c-1.583-1.583-1.583-4.149 0-5.731l8.788-8.788c1.583-1.583 4.149-1.583 5.731 0l8.788 8.788c1.582 1.582 1.582 4.148 0 5.731z"/></g><g><path d="m123.404 371.671-8.788 8.788c-1.583 1.583-4.149 1.583-5.731 0l-8.788-8.788c-1.583-1.583-1.583-4.149 0-5.731l8.788-8.788c1.583-1.583 4.149-1.583 5.731 0l8.788 8.788c1.582 1.582 1.582 4.148 0 5.731z"/><path d="m143.846 392.113-8.788 8.788c-1.583 1.583-4.149 1.583-5.731 0l-8.788-8.788c-1.583-1.583-1.583-4.149 0-5.731l8.788-8.788c1.583-1.583 4.149-1.583 5.731 0l8.788 8.788c1.583 1.582 1.583 4.148 0 5.731z"/></g><g><path d="m144.228 350.846-8.788 8.788c-1.583 1.583-4.149 1.583-5.731 0l-8.788-8.788c-1.583-1.583-1.583-4.149 0-5.731l8.788-8.788c1.583-1.583 4.149-1.583 5.731 0l8.788 8.788c1.583 1.583 1.583 4.149 0 5.731z"/><path d="m164.67 371.288-8.788 8.788c-1.583 1.583-4.149 1.583-5.731 0l-8.788-8.788c-1.583-1.583-1.583-4.149 0-5.731l8.788-8.788c1.583-1.583 4.149-1.583 5.731 0l8.788 8.788c1.583 1.583 1.583 4.149 0 5.731z"/></g><g><path d="m165.052 330.022-8.788 8.788c-1.583 1.583-4.149 1.583-5.731 0l-8.788-8.788c-1.583-1.583-1.583-4.149 0-5.731l8.788-8.788c1.583-1.583 4.149-1.583 5.731 0l8.788 8.788c1.583 1.582 1.583 4.148 0 5.731z"/><path d="m185.494 350.464-8.788 8.788c-1.583 1.583-4.149 1.583-5.731 0l-8.788-8.788c-1.583-1.583-1.583-4.149 0-5.731l8.788-8.788c1.583-1.583 4.149-1.583 5.731 0l8.788 8.788c1.583 1.582 1.583 4.149 0 5.731z"/></g><g><path d="m185.876 309.198-8.788 8.788c-1.583 1.583-4.149 1.583-5.731 0l-8.788-8.788c-1.583-1.583-1.583-4.149 0-5.731l8.788-8.788c1.583-1.583 4.149-1.583 5.731 0l8.788 8.788c1.583 1.582 1.583 4.148 0 5.731z"/><path d="m206.319 329.64-8.788 8.788c-1.583 1.583-4.149 1.583-5.731 0l-8.788-8.788c-1.583-1.583-1.583-4.149 0-5.731l8.788-8.788c1.583-1.583 4.149-1.583 5.731 0l8.788 8.788c1.582 1.582 1.582 4.148 0 5.731z"/></g></g></g></g><path d="m406.597 303.406-92.188 92.188c-4.009 4.009-10.51 4.009-14.52 0-4.009-4.009-4.009-10.51 0-14.52l92.188-92.188c4.009-4.009 10.51-4.009 14.52 0 4.01 4.01 4.01 10.511 0 14.52z" fill="#fff"/></g><g><g><path d="m231.008 270.107-3.77-3.77c-4.602-4.602-4.602-12.09 0-16.692l11.637-11.637c4.602-4.602 12.09-4.602 16.692 0l3.77 3.77c4.602 4.602 4.602 12.09 0 16.692l-11.637 11.637c-4.602 4.601-12.09 4.601-16.692 0zm17.487-25.027c-.703-.703-1.846-.703-2.549 0l-11.637 11.637c-.703.703-.703 1.846 0 2.549l3.77 3.77c.703.703 1.846.703 2.549 0l11.637-11.637c.703-.703.703-1.846 0-2.549z" fill="#4d4dff"/></g><g><path d="m251.385 290.483c-1.952-1.952-1.952-5.119 0-7.071l17.722-17.722-.314-.314c-1.952-1.952-1.952-5.119 0-7.071s5.119-1.952 7.071 0l3.85 3.85c1.952 1.952 1.952 5.119 0 7.071l-21.257 21.257c-1.954 1.953-5.12 1.953-7.072 0z" fill="#4d4dff"/></g></g><g><path d="m215.251 237.533-13.701-13.701c-1.953-1.953-1.952-5.119 0-7.071s5.118-1.953 7.071 0l13.701 13.701c1.953 1.953 1.952 5.119 0 7.071s-5.118 1.952-7.071 0z" fill="#fff"/></g><g fill="#00c"><path d="m370.65 391.327c7.666-1.877 14.673-5.824 20.265-11.416 5.591-5.591 9.538-12.599 11.415-20.265.657-2.682-.985-5.389-3.667-6.045-2.685-.662-5.389.985-6.045 3.667-1.442 5.889-4.476 11.274-8.773 15.572-4.298 4.298-9.683 7.332-15.572 8.773-2.682.657-4.324 3.363-3.667 6.045.559 2.283 2.603 3.812 4.853 3.812.392.002.792-.045 1.191-.143z"/><path d="m368.199 374.118c.394 0 .794-.047 1.193-.145 3.771-.923 7.219-2.866 9.969-5.616s4.692-6.198 5.616-9.969c.657-2.682-.985-5.389-3.667-6.046-2.682-.656-5.389.985-6.046 3.667-.489 1.995-1.517 3.82-2.974 5.277s-3.282 2.485-5.277 2.974c-2.682.657-4.324 3.364-3.667 6.046.559 2.284 2.603 3.812 4.853 3.812z"/><path d="m415.901 355.948c-2.685-.66-5.389.986-6.046 3.667-2.325 9.493-7.214 18.171-14.14 25.097-6.925 6.926-15.604 11.815-25.097 14.14-2.682.657-4.324 3.364-3.667 6.046.559 2.283 2.603 3.812 4.853 3.812.394 0 .794-.047 1.193-.145 11.27-2.76 21.57-8.563 29.789-16.782s14.022-18.52 16.782-29.789c.657-2.682-.985-5.389-3.667-6.046z"/><path d="m454.941 90.858-44.802-44.802c-5.11-5.109-13.424-5.109-18.534 0l-108.136 108.136c-2.476 2.475-3.839 5.766-3.839 9.267 0 3.5 1.363 6.792 3.838 9.267l18.865 18.865-9.789 9.789-25.59-25.59c-10.064-10.063-23.984-13.961-37.046-11.718l-17.753-17.753c-5.109-5.109-13.423-5.109-18.534 0l-14.614 14.614-5.444-5.444c-5.11-5.109-13.424-5.109-18.534 0l-9.743 9.744c-2.476 2.475-3.839 5.766-3.839 9.267 0 3.5 1.363 6.792 3.838 9.267l30.775 30.775c-4.033 14.248-.461 30.215 10.732 41.409l25.59 25.59-9.789 9.789-18.865-18.866c-2.476-2.475-5.767-3.838-9.267-3.838-3.501 0-6.792 1.363-9.267 3.838l-108.135 108.138c-2.476 2.475-3.839 5.766-3.839 9.267 0 3.5 1.363 6.792 3.838 9.267l44.803 44.803c2.555 2.555 5.911 3.832 9.267 3.832s6.712-1.277 9.267-3.832l62.169-62.169c1.953-1.953 1.953-5.119 0-7.071s-5.118-1.952-7.071 0l-62.168 62.169c-1.211 1.211-3.182 1.211-4.392 0l-44.803-44.803c-.587-.586-.91-1.366-.91-2.196s.323-1.609.91-2.196l108.137-108.137c1.173-1.173 3.219-1.173 4.392 0l44.803 44.803c.586.586.909 1.366.909 2.195 0 .83-.323 1.61-.91 2.196l-21.926 21.926c-1.953 1.953-1.953 5.119 0 7.071s5.118 1.952 7.071 0l21.926-21.926c2.476-2.476 3.838-5.767 3.838-9.267s-1.363-6.792-3.838-9.267l-18.866-18.866 9.79-9.79 43.702 43.701c3.135 3.135 7.304 4.862 11.737 4.862 3.772 0 7.346-1.26 10.261-3.564-.463 3.268-.704 6.591-.704 9.95 0 12.968 3.516 25.387 10.066 36.201-1.71 2.509-2.635 5.468-2.635 8.571 0 4.078 1.588 7.912 4.472 10.795 2.976 2.976 6.886 4.464 10.795 4.464 3.91 0 7.819-1.488 10.795-4.464l92.188-92.188c5.952-5.952 5.952-15.638 0-21.59-2.883-2.884-6.717-4.472-10.795-4.472-3.104 0-6.063.925-8.573 2.636-10.815-6.549-23.233-10.067-36.2-10.067-3.36 0-6.682.239-9.95.704 2.304-2.915 3.564-6.489 3.564-10.261 0-4.434-1.727-8.602-4.862-11.737l-43.701-43.702 9.789-9.789 18.865 18.865c2.476 2.475 5.767 3.838 9.267 3.838 3.501 0 6.792-1.363 9.267-3.838l108.137-108.137c5.11-5.107 5.11-13.422 0-18.531zm-254.249 62.532c1.211-1.211 3.182-1.211 4.392 0l14.054 14.054c-4.302 2.018-8.332 4.798-11.881 8.346l-6.696 6.696-14.482-14.482zm-48.334 23.306c-.587-.586-.91-1.366-.91-2.196s.323-1.609.91-2.196l9.743-9.744c.605-.605 1.4-.908 2.196-.908s1.59.303 2.196.908l26.997 26.997-6.696 6.696c-2.567 2.568-4.734 5.386-6.5 8.378zm230.839 114-8.478 8.478c-1.953 1.953-1.953 5.119 0 7.071s5.118 1.952 7.071 0l13.823-13.824c.995-.995 2.317-1.542 3.724-1.542s2.729.548 3.724 1.542c2.053 2.054 2.054 5.396 0 7.449l-92.188 92.188c-2.053 2.054-5.395 2.054-7.448 0-2.054-2.053-2.054-5.395 0-7.448l54.323-54.323c1.953-1.953 1.953-5.119 0-7.071s-5.118-1.952-7.071 0l-48.977 48.976c-4.725-8.689-7.249-18.463-7.249-28.631 0-8.431 1.74-16.59 5.021-24.088l31.005-31.005c7.498-3.281 15.657-5.021 24.088-5.021 10.168.001 19.942 2.525 28.632 7.249zm-46.951-22.139-56.685 56.685c-2.572 2.573-6.76 2.573-9.332 0l-76.363-76.363c-12.559-12.559-12.559-32.995 0-45.554l20.463-20.463c6.28-6.28 14.527-9.419 22.777-9.419 8.248 0 16.498 3.141 22.777 9.419l76.363 76.363c2.573 2.573 2.573 6.76 0 9.332zm111.624-166.237-108.137 108.138c-1.173 1.173-3.219 1.173-4.392 0l-44.802-44.802c-.587-.586-.91-1.366-.91-2.196s.323-1.609.91-2.196l108.137-108.137c.605-.605 1.4-.908 2.196-.908s1.59.303 2.196.908l44.802 44.802c1.211 1.211 1.211 3.181 0 4.391z"/></g><g><path d="m309.032 267.741c-2.005-2.005-2.004-5.255 0-7.259l2.541-2.541c2.004-2.004 5.254-2.005 7.259 0s2.004 5.255 0 7.259l-2.541 2.541c-2.004 2.004-5.254 2.005-7.259 0z" fill="#ff6c6c"/></g></g><g><path d="m71 250.558c-1.28 0-2.559-.488-3.536-1.464l-11-11c-1.953-1.953-1.953-5.119 0-7.071l11-11c1.953-1.952 5.118-1.952 7.071 0l11 11c1.953 1.953 1.953 5.119 0 7.071l-11 11c-.976.975-2.255 1.464-3.535 1.464zm-3.929-16 3.929 3.928 3.929-3.929-3.929-3.928z" fill="#ff6c6c"/></g><g><path d="m253.014 129.294c-1.28 0-2.559-.488-3.536-1.464l-11-11c-1.953-1.953-1.953-5.119 0-7.071l11-11c1.953-1.952 5.118-1.952 7.071 0l11 11c1.953 1.953 1.953 5.119 0 7.071l-11 11c-.976.976-2.255 1.464-3.535 1.464zm-3.929-16 3.929 3.929 3.929-3.929-3.929-3.929z" fill="#ff6c6c"/></g><g><path d="m320.335 449.337c-1.28 0-2.559-.488-3.536-1.464l-11-11c-1.953-1.953-1.953-5.119 0-7.071l11-11c1.953-1.952 5.118-1.952 7.071 0l11 11c1.953 1.953 1.953 5.119 0 7.071l-11 11c-.975.975-2.255 1.464-3.535 1.464zm-3.928-16 3.929 3.929 3.929-3.929-3.929-3.929z" fill="#ff9d33"/></g><g><path d="m194.665 113.376c-7.175 0-13.012-5.837-13.012-13.012s5.837-13.012 13.012-13.012 13.012 5.837 13.012 13.012-5.838 13.012-13.012 13.012zm0-16.023c-1.661 0-3.012 1.351-3.012 3.012s1.351 3.012 3.012 3.012 3.012-1.351 3.012-3.012-1.352-3.012-3.012-3.012z" fill="#6c6cff"/></g><g><path d="m408.095 251.675c-7.175 0-13.012-5.837-13.012-13.012s5.837-13.012 13.012-13.012 13.012 5.837 13.012 13.012-5.837 13.012-13.012 13.012zm0-16.023c-1.661 0-3.012 1.351-3.012 3.012s1.351 3.012 3.012 3.012 3.012-1.351 3.012-3.012c-.001-1.661-1.352-3.012-3.012-3.012z" fill="#6c6cff"/></g></g></g></svg>