<svg id="Capa_1" enable-background="new 0 0 512 512" height="512" viewBox="0 0 512 512" width="512" xmlns="http://www.w3.org/2000/svg" xmlns:xlink="http://www.w3.org/1999/xlink"><linearGradient id="SVGID_1_" gradientUnits="userSpaceOnUse" x1="375.359" x2="123.359" y1="660.499" y2="32.499"><stop offset=".0023" stop-color="#ff9494"/><stop offset=".992" stop-color="#ffe8dc" stop-opacity="0"/></linearGradient><path d="m419.843 204.806c1.055-7.758 1.571-15.687 1.509-23.748-.692-90.025-74.256-163.486-164.281-164.057-91.815-.581-166.428 73.673-166.428 165.354 0 7.615.516 15.109 1.513 22.45 4.043 29.747-9.887 59.143-35.212 75.263-35.611 22.668-56.944 51.54-56.944 82.98 0 72.876 114.615 131.954 256 131.954s256-59.078 256-131.954c0-31.44-21.334-60.312-56.946-82.98-25.325-16.12-39.254-45.516-35.211-75.262z" fill="url(#SVGID_1_)"/><path d="m351.887 476.5h-191.774c-12.208 0-22.105-9.897-22.105-22.105v-375.79c0-12.208 9.897-22.105 22.105-22.105h191.775c12.208 0 22.105 9.897 22.105 22.105v375.789c0 12.209-9.897 22.106-22.106 22.106z" fill="#00c" opacity=".1"/><path d="m386.443 145.09h-21.522v-66.913h21.522c3.803 0 6.885 3.083 6.885 6.885v53.143c0 3.803-3.082 6.885-6.885 6.885z" fill="#6c6cff"/><path d="m122.407 213.943h24.672v-135.766h-24.672c-3.803 0-3.735 3.083-3.735 6.885v121.995c0 3.803-.067 6.886 3.735 6.886z" fill="#6c6cff"/><path d="m351.887 455.5h-191.774c-12.208 0-22.105-9.897-22.105-22.105v-375.79c0-12.208 9.897-22.105 22.105-22.105h191.775c12.208 0 22.105 9.897 22.105 22.105v375.789c0 12.209-9.897 22.106-22.106 22.106z" fill="#ff9d33"/><path d="m138.011 87.622h235.977v315.756h-235.977z" fill="#6c6cff"/><path d="m373.988 87.622v120.046c-10.752-.357-20.58-4.378-28.298-10.826-8.106 6.773-18.532 10.857-29.893 10.857s-21.788-4.085-29.904-10.857c-8.106 6.773-18.532 10.858-29.893 10.858s-21.787-4.085-29.893-10.857c-8.117 6.773-18.543 10.857-29.904 10.857s-21.788-4.085-29.893-10.857c-7.718 6.447-17.546 10.469-28.298 10.826v-120.047z" fill="#4d4dff"/><path d="m342.996 250.108c-1.024 0-2.059-.313-2.948-.965l-84.048-61.499-84.048 61.5c-2.228 1.63-5.356 1.146-6.987-1.083s-1.146-5.356 1.083-6.987l87-63.66c1.758-1.287 4.146-1.287 5.904 0l87 63.66c2.229 1.631 2.714 4.759 1.083 6.987-.979 1.338-2.499 2.047-4.039 2.047z" fill="#ff4d4d"/><path d="" style="fill:none;stroke:#00c;stroke-width:10;stroke-linecap:round;stroke-linejoin:round;stroke-miterlimit:10"/><path d="m166.304 137.267h-59.797l31.5-49.64h47.197z" fill="#ffc599"/><path d="m226.101 137.267h-59.797l18.9-49.64h47.197z" fill="#ff4d4d"/><path d="m285.899 137.267h-59.798l6.3-49.64h47.198z" fill="#ffc599"/><path d="m345.696 137.267h-59.797l-6.3-49.64h47.197z" fill="#ff4d4d"/><path d="m405.493 137.267h-59.797l-18.9-49.64h47.197z" fill="#ffc599"/><path d="m136.406 190.9c-16.513 0-29.899-13.386-29.899-29.899v-23.735h59.797v23.735c0 16.513-13.386 29.899-29.898 29.899z" fill="#ffd6bb"/><path d="m196.203 190.9c-16.513 0-29.899-13.386-29.899-29.899v-23.735h59.797v23.735c0 16.513-13.386 29.899-29.898 29.899z" fill="#ff6c6c"/><path d="m256 190.9c-16.513 0-29.899-13.386-29.899-29.899v-23.735h59.797v23.735c.001 16.513-13.385 29.899-29.898 29.899z" fill="#ffd6bb"/><path d="m315.797 190.9c-16.513 0-29.899-13.386-29.899-29.899v-23.735h59.797v23.735c.001 16.513-13.385 29.899-29.898 29.899z" fill="#ff6c6c"/><path d="m375.594 190.9c-16.513 0-29.899-13.386-29.899-29.899v-23.735h59.797v23.735c.001 16.513-13.385 29.899-29.898 29.899z" fill="#ffd6bb"/><path d="m276.26 66.5h-40.52c-2.762 0-5-2.239-5-5s2.238-5 5-5h40.52c2.762 0 5 2.239 5 5s-2.239 5-5 5z" fill="#ff4d4d"/><path d="m235.667 422.5v12.667c0 2.761 2.239 5 5 5h30.667c2.761 0 5-2.239 5-5v-12.667c0-2.761-2.239-5-5-5h-30.667c-2.762 0-5 2.238-5 5z" fill="#ff4d4d"/><path d="m335.01 433.833h-16.52c-2.762 0-5-2.239-5-5s2.238-5 5-5h16.52c2.762 0 5 2.239 5 5s-2.239 5-5 5z" fill="#ff4d4d"/><path d="m193.51 433.833h-16.52c-2.762 0-5-2.239-5-5s2.238-5 5-5h16.52c2.762 0 5 2.239 5 5s-2.239 5-5 5z" fill="#ff4d4d"/><path d="m190.329 378.307h-21c-2.762 0-5-2.239-5-5s2.238-5 5-5h21c2.762 0 5 2.239 5 5s-2.238 5-5 5z" fill="#4d4dff"/><path d="m342.671 378.307h-21c-2.762 0-5-2.239-5-5s2.238-5 5-5h21c2.762 0 5 2.239 5 5s-2.238 5-5 5z" fill="#4d4dff"/><path d="m380.919 349.971h-249.838c-5.523 0-10-4.477-10-10v-84.863c0-5.523 4.477-10 10-10h249.838c5.523 0 10 4.477 10 10v84.863c0 5.523-4.477 10-10 10z" fill="#ff4d4d"/><path d="m410.487 137.208c-.011-.903-.288-1.856-.772-2.621l-11.387-17.944v-31.581c0-6.554-5.331-11.885-11.885-11.885h-7.451v-15.572c0-14.946-12.159-27.105-27.104-27.105h-191.776c-14.945 0-27.104 12.159-27.104 27.105v15.571h-10.601c-3.777 0-6.669 1.878-7.934 5.151-.803 2.079-.803 4.347-.802 6.54v31.776l-11.387 17.944c-.496.781-.778 1.754-.778 2.679v23.735c0 10.564 4.725 20.04 12.165 26.445v19.805c-.001 2.193-.001 4.462.802 6.541 1.265 3.273 4.156 5.15 7.934 5.15h10.601v21.165h-1.927c-8.271 0-15 6.729-15 15v84.864c0 8.271 6.729 15 15 15h1.927v78.423c0 14.946 12.159 27.105 27.104 27.105h191.775c14.945 0 27.104-12.159 27.104-27.105v-78.423h1.927c8.271 0 15-6.729 15-15v-84.864c0-8.271-6.729-15-15-15h-237.91v-44.842c9.868-1.898 18.272-7.959 23.297-16.285 6.115 10.13 17.228 16.919 29.898 16.919s23.784-6.789 29.898-16.919c6.115 10.13 17.228 16.919 29.898 16.919s23.784-6.789 29.898-16.919c6.115 10.13 17.228 16.919 29.898 16.919s23.784-6.789 29.898-16.919c5.025 8.326 13.429 14.387 23.297 16.285v15.842c0 2.762 2.238 5 5 5s5-2.238 5-5v-15.375c17.654-1.714 31.501-16.634 31.501-34.73v-23.735c.002-.02-.003-.039-.004-.059zm-58.599 313.292h-191.776c-9.432 0-17.104-7.674-17.104-17.105v-25.021h225.984v25.021c0 9.431-7.673 17.105-17.104 17.105zm34.031-195.393v84.864c0 2.757-2.243 5-5 5h-208.907c-2.762 0-5 2.238-5 5s2.238 5 5 5h196.98v43.401h-225.984v-48.362c0-.013.004-.025.004-.039 0-2.762-2.238-5-5-5h-6.931c-2.757 0-5-2.243-5-5v-84.864c0-2.757 2.243-5 5-5h249.838c2.757 0 5 2.244 5 5zm-245.163-162.48h37.194l-15.092 39.64h-47.256zm47.895 0h38.076l-5.031 39.64h-48.138zm48.156 0h38.387l5.031 39.64h-48.448zm53.497 39.64-5.031-39.64h38.076l15.092 39.64zm58.838 0-15.092-39.64h37.194l25.154 39.64zm37.301-49.09c1.039 0 1.885.846 1.885 1.885v15.824l-9.336-14.712v-2.996h7.451zm-226.331-42.677h191.775c9.432 0 17.104 7.674 17.104 17.105v25.021h-225.983v-25.021c0-9.431 7.673-17.105 17.104-17.105zm-36.44 44.365c0-.5 0-1.129.018-1.688h9.318v2.996l-9.336 14.712zm.017 124.077c-.018-.56-.018-1.188-.018-1.688v-13.77c2.941 1.157 6.071 1.931 9.336 2.248v13.21zm12.717-23.042c-13.729 0-24.899-11.169-24.899-24.898v-18.735h49.798v18.735c0 13.729-11.169 24.898-24.899 24.898zm59.797 0c-13.729 0-24.898-11.169-24.898-24.898v-18.735h49.797v18.735c0 13.729-11.169 24.898-24.899 24.898zm59.797 0c-13.729 0-24.898-11.169-24.898-24.898v-18.735h49.797v18.735c-.001 13.729-11.17 24.898-24.899 24.898zm59.797 0c-13.729 0-24.898-11.169-24.898-24.898v-18.735h49.797v18.735c-.001 13.729-11.17 24.898-24.899 24.898zm84.696-24.898c0 13.729-11.17 24.898-24.899 24.898s-24.898-11.169-24.898-24.898v-18.735h49.798v18.735z" fill="#00c"/><g fill="#fff"><path d="m172.826 319.891h-12.454c-6.065 0-11-4.935-11-11v-25.651c0-6.065 4.935-11 11-11h12.454c6.065 0 11 4.935 11 11 0 2.762-2.238 5-5 5s-5-2.238-5-5c0-.552-.448-1-1-1h-12.454c-.552 0-1 .448-1 1v25.651c0 .552.448 1 1 1h12.454c.552 0 1-.448 1-1 0-2.762 2.238-5 5-5s5 2.238 5 5c0 6.065-4.934 11-11 11z"/><path d="m223.526 319.891h-18.454c-6.065 0-11-4.935-11-11v-31.651c0-2.762 2.238-5 5-5s5 2.238 5 5v31.651c0 .552.448 1 1 1h18.454c2.762 0 5 2.238 5 5s-2.238 5-5 5z"/><path d="m262.227 319.891h-12.453c-6.065 0-11-4.935-11-11v-25.651c0-6.065 4.935-11 11-11h12.453c6.065 0 11 4.935 11 11v25.651c0 6.065-4.935 11-11 11zm-12.454-37.652c-.552 0-1 .448-1 1v25.651c0 .552.448 1 1 1h12.453c.552 0 1-.448 1-1v-25.651c0-.552-.448-1-1-1z"/><path d="m306.928 319.891h-12.454c-6.065 0-11-4.935-11-11 0-2.762 2.238-5 5-5s5 2.238 5 5c0 .552.448 1 1 1h12.454c.552 0 1-.448 1-1v-7.038c0-.345-.161-.577-.297-.711-.134-.133-.364-.289-.703-.289-.004 0-.008 0-.013 0l-12.314.143c-2.939-.008-5.755-1.095-7.86-3.178-2.106-2.082-3.267-4.86-3.267-7.822v-6.756c0-6.065 4.935-11 11-11h12.454c6.065 0 11 4.935 11 11 0 2.762-2.238 5-5 5s-5-2.238-5-5c0-.552-.448-1-1-1h-12.454c-.552 0-1 .448-1 1v6.756c0 .345.161.577.297.711.134.133.364.289.703.289h.013l12.314-.143c2.944-.017 5.755 1.095 7.86 3.178 2.106 2.082 3.267 4.86 3.267 7.822v7.038c0 6.065-4.935 11-11 11z"/><path d="m357.628 319.891h-18.454c-6.065 0-11-4.935-11-11v-25.651c0-6.065 4.935-11 11-11h18.454c2.762 0 5 2.238 5 5s-2.238 5-5 5h-18.454c-.552 0-1 .448-1 1v25.651c0 .552.448 1 1 1h18.454c2.762 0 5 2.238 5 5s-2.238 5-5 5z"/><path d="m353.801 301.064h-20.627c-2.762 0-5-2.238-5-5s2.238-5 5-5h20.627c2.762 0 5 2.238 5 5s-2.238 5-5 5z"/></g><path d="m439.388 223.278c-1.279 0-2.56-.488-3.535-1.465-1.953-1.952-1.953-5.118 0-7.07l10-10c1.951-1.953 5.119-1.953 7.07 0 1.953 1.952 1.953 5.118 0 7.07l-10 10c-.976.977-2.256 1.465-3.535 1.465z" fill="#ff6c6c"/><path d="m82.612 300.073c-1.279 0-2.56-.488-3.535-1.465-1.953-1.952-1.953-5.118 0-7.07l10-10c1.951-1.953 5.119-1.953 7.07 0 1.953 1.952 1.953 5.118 0 7.07l-10 10c-.975.977-2.255 1.465-3.535 1.465z" fill="#ff6c6c"/><path d="m82.612 210.063c-1.279 0-2.56-.488-3.535-1.465l-6.465-6.464-6.465 6.464c-1.951 1.953-5.119 1.953-7.07 0-1.953-1.952-1.953-5.118 0-7.07l10-10c1.951-1.953 5.119-1.953 7.07 0l10 10c1.953 1.952 1.953 5.118 0 7.07-.975.977-2.255 1.465-3.535 1.465z" fill="#ff9d33"/><path d="m422.846 50.5c-1.279 0-2.56-.488-3.535-1.465l-6.465-6.464-6.465 6.464c-1.951 1.953-5.119 1.953-7.07 0-1.953-1.952-1.953-5.118 0-7.07l10-10c1.951-1.953 5.119-1.953 7.07 0l10 10c1.953 1.952 1.953 5.118 0 7.07-.976.977-2.256 1.465-3.535 1.465z" fill="#ff9d33"/><path d="m432.846 421.569c-1.279 0-2.56-.488-3.535-1.465l-6.465-6.464-6.465 6.464c-1.951 1.953-5.119 1.953-7.07 0-1.953-1.952-1.953-5.118 0-7.07l10-10c1.951-1.953 5.119-1.953 7.07 0l10 10c1.953 1.952 1.953 5.118 0 7.07-.976.977-2.256 1.465-3.535 1.465z" fill="#6c6cff"/></svg>