<svg id="Capa_1" enable-background="new 0 0 512 512" height="512" viewBox="0 0 512 512" width="512" xmlns="http://www.w3.org/2000/svg" xmlns:xlink="http://www.w3.org/1999/xlink"><linearGradient id="SVGID_1_" gradientUnits="userSpaceOnUse" x1="505.989" x2="-131.206" y1="-43.218" y2="593.978"><stop offset=".0023" stop-color="#ffc599"/><stop offset=".992" stop-color="#ffe8dc" stop-opacity="0"/></linearGradient><g><path d="m419.617 171.888c-8.356-8.356-18.026-14.923-28.717-19.765-28.021-12.69-50.051-35.407-62.434-63.565-22.917-52.113-74.975-88.512-135.546-88.558-79.311-.06-145.162 63.163-148.147 142.418-1.277 33.922 8.857 65.421 26.87 90.969 22.877 32.448 28.821 73.782 17.021 111.69-16.764 53.857-10.919 104.899 20.973 136.791 55.888 55.888 170.586 31.804 256.185-53.795 85.598-85.599 109.683-200.296 53.795-256.185z" fill="url(#SVGID_1_)"/><g><g><path d="m431.267 183.701v274.79c0 2.23-1.814 4.044-4.044 4.044h-360.032c-2.23 0-4.044-1.814-4.044-4.044v-274.79c0-2.23 1.814-4.044 4.044-4.044h360.031c2.23 0 4.045 1.814 4.045 4.044z" fill="#00c" opacity=".1"/><path d="m431.267 156.701v274.79c0 2.23-1.814 4.044-4.044 4.044h-360.032c-2.23 0-4.044-1.814-4.044-4.044v-274.79c0-2.23 1.814-4.044 4.044-4.044h360.031c2.23 0 4.045 1.814 4.045 4.044z" fill="#b3b3ff"/><path d="m337.585 152.657v53.701c0 2.491-2.022 4.513-4.513 4.513h-139.043l-14.479 18.37c-1.814 2.293-5.29 2.293-7.095 0l-14.479-18.37h-27.28c-2.491 0-4.513-2.022-4.513-4.513v-53.701z" fill="#9494ff"/><path d="m123.538 152.657v97.807h-60.39v-93.763c0-2.233 1.811-4.044 4.044-4.044z" fill="#8383ff"/><path d="m331.158 336.196h100.112v95.294c0 2.233-1.811 4.044-4.044 4.044h-195.341z" fill="#8383ff"/><g><path d="m130.308 152.657v104.577h-67.161v-13.541h53.62v-29.915h-53.62v-13.54h53.62v-47.581z" fill="#fff"/><path d="m130.308 152.657v58.188c-2.311-.19-4.125-2.13-4.125-4.486v-53.701h4.125z" fill="#ebebff"/><path d="m431.267 244.813-85.819 85.819h85.819v13.54h-33.246l-20.14 20.14h53.386v13.54h-66.926l-20.139 20.148h87.065v13.541h-100.245v-.37l-24.364 24.363h-19.146l91.362-91.362h-46.967l-91.362 91.362h-19.146l209.868-209.867z" fill="#fff"/><path d="m320.686 152.657-58.214 58.214-199.325 199.325v-19.156l46.868-46.868h-46.868v-13.54h60.409l177.975-177.975z" fill="#fff"/><path d="m320.686 152.657-58.214 58.214h-19.156l58.215-58.214z" fill="#ebebff"/></g><g><path d="m431.267 156.701v29.401l-249.433 249.432h-68.298l282.878-282.878h30.809c2.233.001 4.044 1.811 4.044 4.045z" fill="#ffab66"/><path d="m431.267 156.701-278.834 278.833h-14.154l282.887-282.878h6.057c2.233.001 4.044 1.811 4.044 4.045z" fill="#ff8b00"/></g><g><path d="m215.915 265.078c0 16.919-24.61 54.825-34.289 69.08-1.845 2.717-5.843 2.717-7.688 0-9.679-14.255-34.289-52.161-34.289-69.08 0-21.06 17.073-38.133 38.133-38.133s38.133 17.073 38.133 38.133z" fill="#ff6c6c"/><circle cx="177.782" cy="263.813" fill="#fff" r="21.399"/></g><g><g><path d="m333.071 76.465h-202.372c-2.493 0-4.513 2.021-4.513 4.513v107.12c0 2.493 2.021 4.513 4.513 4.513h27.279l14.479 18.371c1.807 2.293 5.283 2.293 7.09 0l14.479-18.371h139.045c2.493 0 4.513-2.021 4.513-4.513v-107.119c.001-2.493-2.02-4.514-4.513-4.514z" fill="#ff9494"/><path d="m427.227 147.653h-55.641c-2.762 0-5 2.238-5 5s2.238 5 5 5h54.684v272.881h-358.125v-272.881h53.041v30.445c0 5.246 4.268 9.514 9.513 9.514h24.854l12.979 16.468c1.815 2.303 4.539 3.623 7.473 3.622 2.932 0 5.654-1.321 7.47-3.624l12.979-16.466h65.755c2.762 0 5-2.238 5-5s-2.238-5-5-5h-68.181c-1.531 0-2.979.702-3.927 1.905l-14.098 17.886-14.097-17.886c-.948-1.203-2.396-1.905-3.927-1.905h-26.793v-106.146h201.399v106.146h-36.378c-2.762 0-5 2.238-5 5s2.238 5 5 5h36.864c5.246 0 9.514-4.268 9.514-9.514v-107.119c0-5.245-4.268-9.513-9.514-9.513h-202.373c-5.245 0-9.513 4.268-9.513 9.513v66.675h-53.997c-4.986 0-9.043 4.057-9.043 9.044v274.792c0 4.987 4.057 9.044 9.043 9.044h360.039c4.986 0 9.043-4.057 9.043-9.044v-274.793c0-4.987-4.057-9.044-9.043-9.044z" fill="#00c"/></g><g><path d="m250.491 99.698h52.539c2.323 0 4.205 1.883 4.205 4.205s-1.883 4.205-4.205 4.205h-52.539c-2.323 0-4.205-1.883-4.205-4.205s1.882-4.205 4.205-4.205z" fill="#fff"/></g><g><path d="m165.546 124.76h137.484c2.323 0 4.205 1.883 4.205 4.205s-1.883 4.205-4.205 4.205h-137.484c-2.323 0-4.205-1.883-4.205-4.205s1.882-4.205 4.205-4.205z" fill="#fff"/></g><g><path d="m192.627 141.697h110.403c2.323 0 4.205 1.883 4.205 4.205s-1.883 4.205-4.205 4.205h-110.403c-2.323 0-4.205-1.883-4.205-4.205s1.882-4.205 4.205-4.205z" fill="#fff"/></g><g><path d="m165.546 158.634h137.484c2.323 0 4.205 1.883 4.205 4.205s-1.883 4.205-4.205 4.205h-137.484c-2.323 0-4.205-1.883-4.205-4.205s1.882-4.205 4.205-4.205z" fill="#fff"/></g></g></g><g><path d="m458.738 349.503c-1.279 0-2.56-.488-3.535-1.465l-11-11c-1.953-1.952-1.953-5.118 0-7.07l11-11c1.951-1.953 5.119-1.953 7.07 0l11 11c1.953 1.952 1.953 5.118 0 7.07l-11 11c-.975.977-2.255 1.465-3.535 1.465zm-3.928-16 3.929 3.929 3.929-3.929-3.929-3.929z" fill="#6c6cff"/></g><g><path d="m374.238 132.121c-7.175 0-13.013-5.837-13.013-13.012s5.838-13.012 13.013-13.012 13.012 5.837 13.012 13.012-5.837 13.012-13.012 13.012zm0-16.023c-1.661 0-3.013 1.351-3.013 3.012s1.352 3.012 3.013 3.012 3.012-1.351 3.012-3.012-1.351-3.012-3.012-3.012z" fill="#ff9d33"/></g><g><path d="m68.745 488.002c-7.175 0-13.012-5.837-13.012-13.012s5.837-13.012 13.012-13.012 13.012 5.837 13.012 13.012-5.837 13.012-13.012 13.012zm0-16.023c-1.661 0-3.012 1.351-3.012 3.012s1.351 3.012 3.012 3.012 3.012-1.351 3.012-3.012-1.351-3.012-3.012-3.012z" fill="#ff9d33"/></g><g><path d="m50.273 73.628c-7.175 0-13.012-5.837-13.012-13.012s5.837-13.012 13.012-13.012 13.012 5.837 13.012 13.012-5.837 13.012-13.012 13.012zm0-16.024c-1.661 0-3.012 1.351-3.012 3.012s1.351 3.012 3.012 3.012 3.012-1.351 3.012-3.012-1.35-3.012-3.012-3.012z" fill="#6c6cff"/></g><g><path d="m79.745 124.109c-1.279 0-2.56-.488-3.535-1.465l-11-11c-1.953-1.952-1.953-5.118 0-7.07l11-11c1.951-1.953 5.119-1.953 7.07 0l11 11c1.953 1.952 1.953 5.118 0 7.07l-11 11c-.975.977-2.256 1.465-3.535 1.465zm-3.929-16 3.929 3.929 3.929-3.929-3.929-3.929z" fill="#ff6c6c"/></g></g></g></svg>