<svg id="Capa_1" enable-background="new 0 0 512 512" height="512" viewBox="0 0 512 512" width="512" xmlns="http://www.w3.org/2000/svg" xmlns:xlink="http://www.w3.org/1999/xlink"><linearGradient id="SVGID_1_" gradientUnits="userSpaceOnUse" x1="10.367" x2="536.841" y1="52.077" y2="544.052"><stop offset=".0023" stop-color="#ffc599"/><stop offset=".992" stop-color="#ffe8dc" stop-opacity="0"/></linearGradient><g><path d="m465.257 164.584c-14.861-17.312-24.645-38.356-29.218-60.708-3.878-18.954-12.095-35.401-24.961-48.267-58.773-58.773-192.264-20.572-298.161 85.325s-144.098 239.387-85.325 298.161c27.937 27.937 72.757 33.955 123.469 21.212 29.453-7.401 60.532-4.287 88.29 8.03 23.202 10.295 48.799 16.173 75.724 16.566 105.676 1.543 193.748-82.552 196.839-188.195 1.479-50.506-16.354-96.823-46.657-132.124z" fill="url(#SVGID_1_)"/><g><g><g><path d="m57.46 374.47v67.442c0 2.761 2.239 5 5 5h387.08c2.761 0 5-2.239 5-5v-67.442z" fill="#00c" opacity=".1"/><path d="m454.54 254.71v160.2c0 2.76-2.24 5-5 5h-387.08c-2.76 0-5-2.24-5-5v-160.2z" fill="#ffc599"/><path d="m57.46 254.71h397.08v14.26h-397.08z" fill="#ffab66"/><path d="m406.31 281.42c0 22.03-17.85 39.89-39.88 39.89s-39.88-17.86-39.88-39.89c0-10.28 3.89-19.64 10.29-26.71h59.18c6.4 7.07 10.29 16.43 10.29 26.71z" fill="#ffab66"/><path d="m428.03 254.71-66.32 66.32-98.89 98.88h-21.93l165.2-165.2z" fill="#ffe8dc"/><path d="m406.09 254.71h21.94l-14.27 14.26h-21.93l8.52-8.52z" fill="#ffc599"/><path d="m406.03 276.7-44.32 44.33c-5.91-.69-11.43-2.68-16.26-5.68l54.9-54.9c2.99 4.83 4.99 10.34 5.68 16.25z" fill="#ffc599"/><path d="m454.54 254.71v49.43l-115.77 115.77h-50.99l165.2-165.2z" fill="#ffe8dc"/><path d="m454.54 254.71v14.26h-15.82l14.26-14.26z" fill="#ffc599"/><path d="m454.54 377.742v37.17c0 2.761-2.239 5-5 5h-37.17z" fill="#ffe8dc"/><path d="m454.54 254.712h-306.95v-106.45h216.82z" fill="#ffd6bb"/><g><g><path d="m289.22 254.712h-13.11l-90.13-106.45h13.1z" fill="#ff9d33"/></g><g><path d="m331.07 254.712h-13.11l-90.13-106.45h13.1z" fill="#ff9d33"/></g><g><path d="m372.92 254.712h-13.11l-90.14-106.45h13.11z" fill="#ff9d33"/></g><g><path d="m414.76 254.712h-13.11l-90.13-106.45h13.1z" fill="#ff9d33"/></g></g><g><path d="m398.52 188.552h-250.93v-10h242.46z" fill="#ff9d33"/></g><g><path d="m428.41 223.852h-280.82v-10h272.35z" fill="#ff9d33"/></g><path d="m237.72 254.71v165.2h-175.26c-2.76 0-5-2.23-5-5v-160.2z" fill="#ff9d33"/><path d="m57.46 254.71h180.26v14.26h-180.26z" fill="#ff8b00"/><path d="m194.857 419.914h-94.535v-89.535c0-2.761 2.239-5 5-5h84.535c2.761 0 5 2.239 5 5z" fill="#ffc599"/><path d="m173.63 325.382-73.31 73.31v-19.32l53.99-53.99z" fill="#ffe8dc"/><path d="m194.86 330.382v19.16l-70.36 70.37h-24.18v-4.2l90.27-90.27c2.42.35 4.27 2.43 4.27 4.94z" fill="#ffe8dc"/><path d="m237.716 254.707-90.127-106.441-90.126 106.441z" fill="#ff9d33"/></g><g><path d="m389.572 231.525v-127.385c0-12.781-10.361-23.142-23.142-23.142-12.781 0-23.142 10.361-23.142 23.142v127.385c-10.129 7.232-16.74 19.076-16.74 32.471 0 22.026 17.856 39.882 39.882 39.882s39.882-17.856 39.882-39.882c0-13.395-6.61-25.239-16.74-32.471z" fill="#b3b3ff"/><path d="m366.43 288.878c-13.72 0-24.882-11.162-24.882-24.882 0-8.014 3.909-15.589 10.456-20.264l6.284-4.487v-135.105c0-4.49 3.652-8.143 8.142-8.143s8.143 3.652 8.143 8.143v135.105l6.284 4.487c6.547 4.675 10.456 12.25 10.456 20.264-.001 13.72-11.163 24.882-24.883 24.882z" fill="#fff"/><path d="m380.856 243.733-6.284-4.487v-79.195h-16.285v79.195l-6.284 4.487c-6.547 4.675-10.456 12.25-10.456 20.264 0 13.72 11.162 24.882 24.882 24.882s24.882-11.162 24.882-24.882c.001-8.014-3.908-15.59-10.455-20.264z" fill="#ff6c6c"/></g><path d="m189.857 311.042h-82.049c-2.761 0-5-2.239-5-5v-13.506c0-2.761 2.239-5 5-5h82.049c2.761 0 5 2.239 5 5v13.506c0 2.762-2.239 5-5 5z" fill="#8383ff"/><g><g fill="#00c"><path d="m459.533 254.651c-.013-1.145-.438-2.3-1.178-3.175l-63.782-75.329v-72.007c0-15.518-12.625-28.143-28.143-28.143s-28.142 12.625-28.142 28.143v39.126h-190.699c-1.445 0-2.88.665-3.816 1.769l-90.126 106.441c-.749.885-1.184 2.071-1.184 3.231v160.206c0 5.514 4.486 10 10 10h387.076c5.514 0 10-4.486 10-10v-160.205c0-.02-.006-.038-.006-.057zm-15.78-4.943h-34.803c-2.711-8.034-7.661-15.242-14.379-20.661v-37.423zm-95.465-18.183v-127.385c0-10.004 8.139-18.143 18.143-18.143 10.003 0 18.142 8.139 18.142 18.143v127.385c0 1.615.78 3.131 2.095 4.069 9.17 6.548 14.645 17.165 14.645 28.401 0 19.234-15.648 34.883-34.882 34.883s-34.882-15.648-34.882-34.883c0-11.236 5.475-21.854 14.645-28.401 1.313-.938 2.094-2.454 2.094-4.069zm-200.699-75.522 79.341 93.704h-158.682zm95.127 258.911v-124.377c0-2.762-2.239-5-5-5s-5 2.238-5 5v124.377h-170.253v-155.206h232.057c2.761 0 5-2.238 5-5s-2.239-5-5-5h-54.485l-81.659-96.441h179.913v75.78c-10.527 8.491-16.74 21.368-16.74 34.949 0 24.748 20.134 44.883 44.882 44.883s44.882-20.135 44.882-44.883c0-1.44-.085-2.869-.222-4.288h38.449v155.206z"/><path d="m285.373 107.565c1.69 0 3.339-.857 4.28-2.407 1.432-2.361.679-5.437-1.682-6.869-8.143-4.938-17.49-7.55-27.031-7.55s-18.889 2.611-27.031 7.55c-2.361 1.433-3.114 4.508-1.682 6.869 1.432 2.36 4.507 3.114 6.868 1.682 6.579-3.991 14.132-6.101 21.845-6.101s15.266 2.109 21.845 6.101c.81.491 1.705.725 2.588.725z"/><path d="m260.94 110.897c-4.585 0-9.078 1.255-12.991 3.63-2.36 1.433-3.113 4.508-1.68 6.868 1.433 2.361 4.509 3.115 6.869 1.681 4.697-2.852 10.907-2.852 15.604 0 .811.492 1.706.727 2.589.727 1.69 0 3.339-.857 4.279-2.407 1.433-2.36.68-5.436-1.68-6.868-3.912-2.376-8.405-3.631-12.99-3.631z"/><path d="m223.517 90.481c.883 0 1.778-.234 2.588-.726 10.492-6.364 22.537-9.729 34.835-9.729 12.297 0 24.344 3.364 34.835 9.729 2.362 1.431 5.437.678 6.868-1.683 1.432-2.36.679-5.436-1.682-6.868-12.056-7.313-25.896-11.178-40.022-11.178-14.127 0-27.966 3.865-40.021 11.178-2.361 1.433-3.114 4.508-1.682 6.868.941 1.552 2.59 2.409 4.281 2.409z"/></g><g opacity=".1"><g><path d="m285.373 134.565c-.883 0-1.778-.234-2.588-.726-6.579-3.991-14.132-6.1-21.845-6.1s-15.266 2.109-21.845 6.1c-2.361 1.433-5.436.68-6.868-1.682-1.432-2.361-.679-5.436 1.682-6.868 8.143-4.939 17.49-7.55 27.031-7.55s18.889 2.611 27.031 7.55c2.361 1.432 3.114 4.507 1.682 6.868-.941 1.55-2.59 2.408-4.28 2.408z" fill="#00c"/></g><g><path d="m271.332 150.802c-.883 0-1.778-.234-2.588-.726-4.698-2.85-10.908-2.85-15.606 0-2.361 1.433-5.436.68-6.868-1.682s-.679-5.436 1.682-6.868c3.914-2.374 8.405-3.628 12.99-3.628s9.076 1.255 12.99 3.628c2.361 1.432 3.114 4.507 1.682 6.868-.943 1.55-2.592 2.408-4.282 2.408z" fill="#00c"/></g><g><path d="m298.363 117.48c-.883 0-1.778-.234-2.588-.726-10.491-6.364-22.537-9.729-34.835-9.729s-24.344 3.364-34.835 9.729c-2.362 1.433-5.437.68-6.868-1.682-1.432-2.361-.679-5.436 1.682-6.868 12.055-7.313 25.895-11.179 40.021-11.179s27.966 3.866 40.021 11.179c2.361 1.432 3.114 4.507 1.682 6.868-.94 1.552-2.59 2.408-4.28 2.408z" fill="#00c"/></g></g></g><circle cx="147.589" cy="213.394" fill="#ffc599" r="21.547"/></g><g><path d="m446.818 196.655c-1.326 0-2.598-.526-3.536-1.465l-11.292-11.293c-.938-.938-1.464-2.209-1.464-3.535s.527-2.598 1.464-3.535l11.292-11.292c1.954-1.953 5.119-1.953 7.071 0l11.292 11.292c1.953 1.952 1.953 5.118 0 7.07l-11.292 11.293c-.937.938-2.209 1.465-3.535 1.465zm-4.221-16.293 4.221 4.222 4.221-4.222-4.221-4.221z" fill="#ff9d33"/></g><g><path d="m321.295 52.368c-1.28 0-2.559-.488-3.536-1.465l-11.292-11.292c-.938-.938-1.464-2.209-1.464-3.535s.527-2.598 1.464-3.535l11.292-11.292c1.953-1.953 5.118-1.953 7.071 0l11.292 11.292c.938.938 1.464 2.209 1.464 3.535s-.527 2.598-1.464 3.535l-11.292 11.292c-.976.976-2.255 1.465-3.535 1.465zm-4.221-16.292 4.221 4.221 4.221-4.221-4.221-4.221z" fill="#6c6cff"/></g><g><path d="m214.465 492.216c-1.326 0-2.598-.527-3.536-1.465l-11.292-11.293c-1.953-1.952-1.953-5.118 0-7.07l11.292-11.292c1.953-1.953 5.118-1.953 7.071 0l11.292 11.292c.938.938 1.464 2.209 1.464 3.535s-.527 2.598-1.464 3.535l-11.292 11.293c-.937.938-2.209 1.465-3.535 1.465zm-4.221-16.293 4.221 4.222 4.221-4.222-4.221-4.221z" fill="#6c6cff"/></g><g><path d="m75.153 147.297c-7.175 0-13.012-5.837-13.012-13.012s5.837-13.012 13.012-13.012 13.012 5.837 13.012 13.012-5.837 13.012-13.012 13.012zm0-16.023c-1.661 0-3.012 1.351-3.012 3.012s1.351 3.012 3.012 3.012 3.012-1.351 3.012-3.012-1.352-3.012-3.012-3.012z" fill="#ff9d33"/></g><g><path d="m136.975 133.499c-7.175 0-13.012-5.837-13.012-13.012s5.837-13.012 13.012-13.012 13.012 5.837 13.012 13.012-5.837 13.012-13.012 13.012zm0-16.024c-1.661 0-3.012 1.351-3.012 3.012s1.351 3.012 3.012 3.012 3.012-1.351 3.012-3.012-1.351-3.012-3.012-3.012z" fill="#ff6c6c"/></g></g></g></svg>