<svg id="Capa_1" enable-background="new 0 0 512 512" height="512" viewBox="0 0 512 512" width="512" xmlns="http://www.w3.org/2000/svg" xmlns:xlink="http://www.w3.org/1999/xlink"><linearGradient id="SVGID_1_" gradientUnits="userSpaceOnUse" x1="514.782" x2="-122.413" y1="-43.218" y2="593.978"><stop offset=".0023" stop-color="#ffc599"/><stop offset=".992" stop-color="#ffe8dc" stop-opacity="0"/></linearGradient><path d="m428.41 171.888c-8.356-8.356-18.026-14.923-28.717-19.765-28.021-12.69-50.051-35.407-62.434-63.565-22.917-52.113-74.975-88.512-135.546-88.558-79.311-.06-145.162 63.163-148.147 142.418-1.277 33.922 8.857 65.421 26.87 90.969 22.877 32.448 28.821 73.782 17.021 111.69-16.764 53.857-10.919 104.898 20.973 136.791 55.888 55.888 170.586 31.804 256.185-53.795 85.598-85.599 109.683-200.296 53.795-256.185z" fill="url(#SVGID_1_)"/><path d="m369.225 133.622c-4.548 0-8.999.408-13.335 1.15v-56.167c0-12.208-9.897-22.105-22.105-22.105h-191.775c-12.208 0-22.105 9.897-22.105 22.105v375.789c0 12.208 9.897 22.105 22.105 22.105h191.775c12.208 0 22.105-9.897 22.105-22.105v-164.757c4.337.742 8.787 1.15 13.335 1.15 43.4 0 78.583-35.183 78.583-78.583 0-43.399-35.183-78.582-78.583-78.582z" fill="#00c" opacity=".1"/><path d="m368.34 145.09h-21.522v-66.913h21.522c3.803 0 6.885 3.083 6.885 6.885v53.143c0 3.803-3.082 6.885-6.885 6.885z" fill="#6c6cff"/><path d="m104.304 213.943h24.672v-135.766h-24.672c-3.803 0-3.735 3.083-3.735 6.885v121.995c0 3.803-.067 6.886 3.735 6.886z" fill="#6c6cff"/><path d="m333.785 455.5h-191.775c-12.208 0-22.105-9.897-22.105-22.105v-375.79c0-12.208 9.897-22.105 22.105-22.105h191.775c12.208 0 22.105 9.897 22.105 22.105v375.789c0 12.209-9.897 22.106-22.105 22.106z" fill="#ff9d33"/><path d="m119.907 87.63h235.98v315.74h-235.98z" fill="#fff"/><path d="m355.887 130.9v154.9c-37.05-6.32-65.24-38.6-65.24-77.45s28.19-71.12 65.24-77.45z" fill="#fee"/><g fill="#ff4d4d"><path d="m258.157 66.5h-40.52c-2.762 0-5-2.239-5-5s2.238-5 5-5h40.52c2.762 0 5 2.239 5 5s-2.238 5-5 5z"/><path d="m217.564 422.5v12.667c0 2.761 2.239 5 5 5h30.667c2.761 0 5-2.239 5-5v-12.667c0-2.761-2.239-5-5-5h-30.667c-2.762 0-5 2.238-5 5z"/><path d="m316.907 433.833h-16.52c-2.762 0-5-2.239-5-5s2.238-5 5-5h16.52c2.762 0 5 2.239 5 5s-2.238 5-5 5z"/><path d="m175.407 433.833h-16.52c-2.762 0-5-2.239-5-5s2.238-5 5-5h16.52c2.762 0 5 2.239 5 5s-2.238 5-5 5z"/><path d="m216.639 195.518h-63.746c-2.762 0-5-2.238-5-5v-63.746c0-2.762 2.238-5 5-5h63.746c2.762 0 5 2.238 5 5v63.746c0 2.761-2.239 5-5 5zm-58.746-10h53.746v-53.746h-53.746z"/><path d="m197.068 175.947h-24.605c-2.762 0-5-2.238-5-5v-24.605c0-2.762 2.238-5 5-5h24.605c2.762 0 5 2.238 5 5v24.605c0 2.762-2.238 5-5 5zm-19.605-10h14.605v-14.605h-14.605z"/><path d="m322.901 195.518h-63.746c-2.762 0-5-2.238-5-5v-63.746c0-2.762 2.238-5 5-5h63.746c2.762 0 5 2.238 5 5v63.746c0 2.761-2.238 5-5 5zm-58.746-10h53.746v-53.746h-53.746z"/><path d="m303.331 175.947h-24.605c-2.762 0-5-2.238-5-5v-24.605c0-2.762 2.238-5 5-5h24.605c2.762 0 5 2.238 5 5v24.605c0 2.762-2.238 5-5 5zm-19.605-10h14.605v-14.605h-14.605z"/><path d="m216.639 301.771h-63.746c-2.762 0-5-2.238-5-5v-63.747c0-2.762 2.238-5 5-5h63.746c2.762 0 5 2.238 5 5v63.747c0 2.762-2.239 5-5 5zm-58.746-10h53.746v-53.747h-53.746z"/><path d="m197.068 282.201h-24.605c-2.762 0-5-2.238-5-5v-24.606c0-2.762 2.238-5 5-5h24.605c2.762 0 5 2.238 5 5v24.606c0 2.762-2.238 5-5 5zm-19.605-10h14.605v-14.606h-14.605z"/><path d="m259.155 301.771c-2.762 0-5-2.238-5-5v-63.747c0-2.762 2.238-5 5-5s5 2.238 5 5v63.747c0 2.762-2.238 5-5 5z"/><path d="m322.901 301.771c-2.762 0-5-2.238-5-5v-63.747c0-2.762 2.238-5 5-5s5 2.238 5 5v63.747c0 2.762-2.238 5-5 5z"/><path d="m303.331 282.201h-24.605c-2.762 0-5-2.238-5-5v-24.606c0-2.762 2.238-5 5-5s5 2.238 5 5v19.606h14.605v-34.177h-19.605c-2.762 0-5-2.238-5-5s2.238-5 5-5h24.605c2.762 0 5 2.238 5 5v44.177c0 2.762-2.238 5-5 5z"/><path d="m322.901 216.771h-170.008c-2.762 0-5-2.238-5-5s2.238-5 5-5h170.009c2.762 0 5 2.238 5 5s-2.239 5-5.001 5z"/><path d="m237.897 301.775c-2.762 0-5-2.238-5-5v-170.008c0-2.762 2.238-5 5-5s5 2.238 5 5v170.009c0 2.761-2.238 4.999-5 4.999z"/><path d="m303.331 300.771h-24.605c-2.762 0-5-2.238-5-5s2.238-5 5-5h24.605c2.762 0 5 2.238 5 5s-2.238 5-5 5z"/></g><path d="m253.287 378.184h-99.5c-2.762 0-5-2.239-5-5s2.238-5 5-5h99.5c2.762 0 5 2.239 5 5s-2.238 5-5 5z" fill="#d9d9ff"/><path d="m166.287 357.957h-12.5c-2.762 0-5-2.239-5-5s2.238-5 5-5h12.5c2.762 0 5 2.239 5 5s-2.238 5-5 5z" fill="#d9d9ff"/><path d="m217.008 357.957h-33.5c-2.762 0-5-2.239-5-5s2.238-5 5-5h33.5c2.762 0 5 2.239 5 5s-2.239 5-5 5z" fill="#d9d9ff"/><path d="m166.287 329.377h-12.5c-2.762 0-5-2.239-5-5s2.238-5 5-5h12.5c2.762 0 5 2.239 5 5s-2.238 5-5 5z" fill="#ff4d4d"/><circle cx="369.225" cy="191.204" fill="#ff4d4d" r="78.583"/><circle cx="369.225" cy="191.204" fill="#fff" r="58.433"/><path d="m348.658 186.645c-1.326 0-2.598-.527-3.536-1.465l-11.006-11.007c-1.952-1.952-1.952-5.118 0-7.07l11.006-11.007c.938-.938 2.21-1.465 3.536-1.465s2.598.526 3.535 1.465l11.007 11.007c1.953 1.952 1.953 5.118 0 7.07l-11.007 11.007c-.937.938-2.209 1.465-3.535 1.465zm-3.935-16.007 3.936 3.936 3.936-3.936-3.936-3.936z" fill="#ff2c2c"/><path d="m389.792 227.777c-1.279 0-2.56-.488-3.535-1.464l-11.007-11.006c-.938-.938-1.465-2.21-1.465-3.536s.526-2.598 1.465-3.535l11.007-11.007c1.951-1.953 5.119-1.953 7.07 0l11.007 11.007c.938.938 1.465 2.209 1.465 3.535s-.527 2.598-1.465 3.536l-11.007 11.006c-.975.976-2.256 1.464-3.535 1.464zm-3.936-16.006 3.936 3.936 3.936-3.936-3.936-3.936z" fill="#ff2c2c"/><path d="m345.434 219.996c-1.279 0-2.56-.488-3.535-1.465-1.953-1.952-1.953-5.118 0-7.07l47.583-47.583c1.951-1.953 5.119-1.953 7.07 0 1.953 1.952 1.953 5.118 0 7.07l-47.583 47.583c-.976.977-2.256 1.465-3.535 1.465z" fill="#ff2c2c"/><path d="m380.226 108.369v-23.307c0-6.554-5.332-11.885-11.886-11.885h-7.45v-15.572c0-14.946-12.159-27.105-27.104-27.105h-191.776c-14.946 0-27.105 12.159-27.105 27.105v15.571h-10.6c-3.777 0-6.669 1.878-7.934 5.151-.803 2.079-.803 4.347-.802 6.54v122.383c-.001 2.193-.001 4.462.802 6.541 1.265 3.273 4.156 5.15 7.934 5.15h10.6v214.452c0 14.946 12.159 27.105 27.105 27.105h191.775c14.945 0 27.104-12.159 27.104-27.105v-130.593c0-2.762-2.238-5-5-5s-5 2.238-5 5v95.573h-225.985v-340.768c0-9.432 7.674-17.105 17.105-17.105h191.775c9.432 0 17.104 7.674 17.104 17.105v25.021h-196.981c-2.762 0-5 2.238-5 5s2.238 5 5 5h196.983v17.046c-37.293 8.383-65.247 41.744-65.247 81.531 0 46.088 37.495 83.583 83.583 83.583 46.087 0 83.582-37.495 83.582-83.583 0-42.355-31.679-77.429-72.582-82.834zm-274.639 100.573c-.018-.56-.018-1.188-.018-1.688v-122.389c0-.5 0-1.129.018-1.688h9.317v58.215c-1.894.711-3.249 2.525-3.249 4.668s1.355 3.956 3.249 4.668v58.215h-9.317zm245.303 199.431v25.021c0 9.432-7.673 17.105-17.104 17.105h-191.776c-9.432 0-17.105-7.674-17.105-17.105v-25.021zm10-325.196h7.45c1.04 0 1.886.846 1.886 1.885v22.586c-.334-.004-.665-.025-1-.025-2.813 0-5.593.144-8.336.417zm8.336 181.61c-40.574 0-73.583-33.009-73.583-73.583 0-40.573 33.009-73.582 73.583-73.582 40.573 0 73.582 33.009 73.582 73.582 0 40.574-33.009 73.583-73.582 73.583z" fill="#00c"/><path d="m320.671 378.184h-31.108c-2.761 0-5-2.239-5-5v-31.108c0-2.761 2.239-5 5-5h31.108c2.761 0 5 2.239 5 5v31.108c0 2.761-2.238 5-5 5z" fill="#ff4d4d"/><path d="m407.523 334.377c-1.279 0-2.56-.488-3.535-1.465-1.953-1.952-1.953-5.118 0-7.07l10-10c1.951-1.953 5.119-1.953 7.07 0 1.953 1.952 1.953 5.118 0 7.07l-10 10c-.975.977-2.255 1.465-3.535 1.465z" fill="#ff6c6c"/><path d="m84.99 334.377c-1.279 0-2.56-.488-3.535-1.465-1.953-1.952-1.953-5.118 0-7.07l10-10c1.951-1.953 5.119-1.953 7.07 0 1.953 1.952 1.953 5.118 0 7.07l-10 10c-.975.977-2.255 1.465-3.535 1.465z" fill="#ff6c6c"/><path d="m84.192 271.727c-1.279 0-2.56-.488-3.535-1.465l-6.465-6.464-6.465 6.464c-1.951 1.953-5.119 1.953-7.07 0-1.953-1.952-1.953-5.118 0-7.07l10-10c1.951-1.953 5.119-1.953 7.07 0l10 10c1.953 1.952 1.953 5.118 0 7.07-.975.976-2.255 1.465-3.535 1.465z" fill="#ff9d33"/><path d="m429.536 88.177c-1.279 0-2.56-.488-3.535-1.465l-6.465-6.464-6.465 6.464c-1.951 1.953-5.119 1.953-7.07 0-1.953-1.952-1.953-5.118 0-7.07l10-10c1.951-1.953 5.119-1.953 7.07 0l10 10c1.953 1.952 1.953 5.118 0 7.07-.975.976-2.256 1.465-3.535 1.465z" fill="#ff9d33"/><path d="m399.792 383.307c-1.279 0-2.56-.488-3.535-1.465l-6.465-6.464-6.465 6.464c-1.951 1.953-5.119 1.953-7.07 0-1.953-1.952-1.953-5.118 0-7.07l10-10c1.951-1.953 5.119-1.953 7.07 0l10 10c1.953 1.952 1.953 5.118 0 7.07-.975.976-2.256 1.465-3.535 1.465z" fill="#6c6cff"/></svg>