<svg id="Capa_1" enable-background="new 0 0 512 512" height="512" viewBox="0 0 512 512" width="512" xmlns="http://www.w3.org/2000/svg" xmlns:xlink="http://www.w3.org/1999/xlink"><linearGradient id="SVGID_1_" gradientUnits="userSpaceOnUse" x1="484.555" x2="-53.445" y1="672.3" y2="-139.701"><stop offset=".0023" stop-color="#ffc599"/><stop offset=".992" stop-color="#ffe8dc" stop-opacity="0"/></linearGradient><g><path d="m419.843 204.806c1.055-7.758 1.571-15.687 1.509-23.748-.692-90.025-74.256-163.486-164.281-164.057-91.815-.581-166.428 73.673-166.428 165.354 0 7.615.516 15.109 1.513 22.45 4.043 29.747-9.887 59.143-35.212 75.263-35.611 22.668-56.944 51.54-56.944 82.98 0 72.876 114.615 131.954 256 131.954s256-59.078 256-131.954c0-31.44-21.334-60.312-56.946-82.98-25.325-16.12-39.254-45.516-35.211-75.262z" fill="url(#SVGID_1_)"/><g><path d="m451.235 321.784h-99.18c29.149-26.271 47.477-64.317 47.477-106.647 0-23.292-5.554-45.286-15.401-64.737l17.592-17.592v3.714c0 2.612 1.91 4.943 4.509 5.191 2.982.284 5.491-2.053 5.491-4.977v-15.999c0-2.761-2.239-5-5-5h-15.785c-2.612 0-4.943 1.91-5.191 4.509-.284 2.982 2.053 5.491 4.977 5.491h3.929l-15.556 15.555c-5.201-8.651-11.29-16.706-18.138-24.045l33.573-33.573v2.803c0 2.612 1.91 4.943 4.509 5.191 2.982.284 5.491-2.053 5.491-4.977v-15.085c0-2.761-2.239-5-5-5h-14.873c-2.612 0-4.943 1.91-5.191 4.509-.284 2.982 2.053 5.491 4.977 5.491h3.018l-33.573 33.573c-25.643-23.926-60.053-38.573-97.89-38.573s-72.247 14.648-97.889 38.573l-39.323-39.323c-1.951-1.953-5.119-1.953-7.07 0-1.953 1.952-1.953 5.118 0 7.07l39.323 39.323c-7.335 7.861-13.8 16.544-19.235 25.901l-22.993-22.993c-1.951-1.953-5.119-1.953-7.07 0-1.953 1.952-1.953 5.118 0 7.07l25.147 25.147c-9.235 18.961-14.421 40.256-14.421 62.764 0 42.33 18.328 80.376 47.477 106.647h-99.18v46.785c0 2.761 2.239 5 5 5h48.947v28.747c0 4.729 3.834 8.563 8.563 8.563h105.752v51.515c0 2.761 2.239 5 5 5h43.947c2.761 0 5-2.239 5-5v-51.515h105.752c4.729 0 8.563-3.834 8.563-8.563v-28.747h48.947c2.761 0 5-2.239 5-5v-46.786z" fill="#00c" opacity=".1"/><circle cx="256" cy="188.137" fill="#ff9d33" r="143.532"/><path d="m393.992 227.742c-17.186 60.009-72.46 103.929-137.992 103.929s-120.806-43.919-137.992-103.928c17.186-60.009 72.46-103.92 137.992-103.92s120.806 43.91 137.992 103.919z" fill="#ffc599"/><path d="m229.027 379.598h53.947v60.797h-53.947z" fill="#b3b3ff"/><path d="m229.027 379.598h53.947v21.981h-53.947z" fill="#9494ff"/><path d="m397.289 338.495v36.821c0 4.727-3.836 8.563-8.563 8.563h-265.452c-4.727 0-8.563-3.836-8.563-8.563v-36.821z" fill="#ffab66"/><path d="m114.711 338.495h282.577v25.774h-282.577z" fill="#ff9d33"/><g><path d="m60.76 294.78h390.48v51.79h-390.48z" fill="#8383ff"/><g><path d="m355.76 294.78h10v51.79h-10z" fill="#4d4dff"/></g><g><path d="m146.24 294.78h10v51.79h-10z" fill="#4d4dff"/></g><g><path d="m251 294.78h10v51.79h-10z" fill="#4d4dff"/></g><path d="m451.24 294.78h-390.48l92.92-106.64h204.64z" fill="#b3b3ff"/><g><path d="m206.62 188.14-49.85 106.64h-11.04l49.85-106.64z" fill="#8383ff"/></g><g><path d="m366.28 294.78h-11.04l-49.86-106.64h11.04z" fill="#8383ff"/></g><g><path d="m251 188.14h10v106.64h-10z" fill="#8383ff"/></g><g><path d="m383.14 216.62h-254.28l8.72-10h236.84z" fill="#8383ff"/></g><g><path d="m413.04 250.94h-314.08l8.71-10h296.66z" fill="#8383ff"/></g></g><path d="m456.235 294.777c0-.298-.036-.593-.089-.886-.016-.089-.036-.174-.057-.261-.051-.215-.117-.426-.196-.633-.028-.072-.05-.146-.081-.217-.113-.258-.248-.508-.405-.747-.039-.059-.085-.111-.126-.168-.089-.123-.173-.249-.274-.365l-92.92-106.646c-.95-1.09-2.325-1.716-3.77-1.716h-33.922l55.974-55.975c9.063 18.41 14.164 39.106 14.164 60.975 0 1.887-.038 3.79-.113 5.656-.111 2.76 2.036 5.086 4.795 5.197 2.776.129 5.086-2.036 5.197-4.795.08-2 .121-4.038.121-6.059 0-24.657-6.047-47.927-16.724-68.414l13.915-13.915v3.929c0 2.762 2.239 5 5 5s5-2.238 5-5v-15.999c0-2.762-2.239-5-5-5h-15.999c-2.761 0-5 2.238-5 5s2.239 5 5 5h3.928l-11.955 11.955c-5.272-8.593-11.395-16.607-18.248-23.933l30.084-30.084v3.017c0 2.762 2.239 5 5 5s5-2.238 5-5v-15.088c0-2.762-2.239-5-5-5h-15.087c-2.761 0-5 2.238-5 5s2.239 5 5 5h3.017l-30.084 30.084c-26.566-24.846-62.224-40.084-101.38-40.084s-74.814 15.237-101.377 40.084l-35.834-35.834c-1.953-1.953-5.118-1.953-7.071 0-1.953 1.952-1.953 5.118 0 7.07l35.835 35.835c-7.34 7.847-13.839 16.487-19.356 25.779l-19.383-19.383c-1.953-1.953-5.118-1.953-7.071 0-1.953 1.952-1.953 5.118 0 7.07l21.452 21.452c-10.053 20.009-15.725 42.583-15.725 66.459 0 13.291 1.757 26.471 5.222 39.174.018.065.048.123.068.187l-55.765 64.002c-.101.116-.185.241-.274.365-.041.057-.087.109-.126.168-.158.239-.292.489-.405.747-.031.071-.053.145-.081.217-.08.207-.145.418-.196.633-.021.087-.041.173-.057.261-.053.293-.089.588-.089.886 0 .003-.001.005-.001.007v51.785c0 2.762 2.239 5 5 5h48.947v23.747c0 7.479 6.084 13.563 13.563 13.563h100.761l.137 51.529c.007 2.757 2.244 4.986 5 4.986h.014c2.762-.008 4.994-2.252 4.987-5.014l-.137-51.502h43.946l.137 51.529c.007 2.757 2.244 4.986 5 4.986h.014c2.762-.008 4.994-2.252 4.987-5.014l-.137-51.502h100.744c7.479 0 13.563-6.084 13.563-13.563v-23.747h48.947c2.761 0 5-2.238 5-5v-51.785c-.004 0-.004-.003-.004-.005zm-80.827-176.796-65.156 65.156h-42.181l89.305-89.305c6.845 7.353 12.9 15.447 18.032 24.149zm-75.156 75.157-45.729 45.729-45.729-45.729zm-44.252-143.533c36.399 0 69.557 14.118 94.305 37.156l-94.305 94.305-94.305-94.305c24.748-23.038 57.906-37.156 94.305-37.156zm-101.376 44.227 89.305 89.305h-45.134l-63.289-63.289c5.356-9.413 11.786-18.139 19.118-26.016zm-37.156 94.306c0-21.083 4.742-41.076 13.203-58.982l53.982 53.982h-30.968c-1.445 0-2.82.626-3.77 1.716l-29.136 33.44c-2.187-9.855-3.311-19.967-3.311-30.156zm38.492 5h38.693l56.335 56.335c.938.938 2.209 1.465 3.536 1.465s2.598-.526 3.536-1.465l56.335-56.335h41.646l84.207 96.646h-368.495zm290.275 148.431h-297.523c-2.761 0-5 2.238-5 5s2.239 5 5 5h243.577v23.747c0 1.965-1.598 3.563-3.563 3.563h-265.452c-1.965 0-3.563-1.598-3.563-3.563v-28.747c0-2.762-2.239-5-5-5h-48.946v-41.785h380.471v41.785z" fill="#00c"/><g><path d="m70.801 101.691c-1.28 0-2.559-.488-3.536-1.465l-11.292-11.291c-.938-.938-1.464-2.209-1.464-3.535s.527-2.598 1.464-3.535l11.292-11.292c1.953-1.953 5.118-1.953 7.071 0l11.292 11.292c.938.938 1.464 2.209 1.464 3.535s-.527 2.598-1.464 3.535l-11.292 11.292c-.976.976-2.255 1.464-3.535 1.464zm-4.221-16.292 4.221 4.221 4.221-4.221-4.221-4.221z" fill="#6c6cff"/></g><g><path d="m462.527 215.722c-1.28 0-2.559-.488-3.536-1.465l-11.291-11.292c-1.953-1.952-1.953-5.118 0-7.07l11.292-11.292c1.953-1.953 5.118-1.953 7.071 0l11.292 11.292c.938.938 1.464 2.209 1.464 3.535s-.527 2.598-1.464 3.535l-11.292 11.292c-.977.976-2.256 1.465-3.536 1.465zm-4.22-16.292 4.221 4.221 4.221-4.221-4.221-4.221z" fill="#ff6c6c"/></g><g><path d="m70.801 411.464c-1.326 0-2.598-.526-3.536-1.465l-11.292-11.293c-.938-.938-1.464-2.209-1.464-3.535s.527-2.598 1.464-3.535l11.292-11.292c1.953-1.953 5.118-1.953 7.071 0l11.292 11.292c.938.938 1.464 2.209 1.464 3.535s-.527 2.598-1.464 3.535l-11.292 11.293c-.937.939-2.209 1.465-3.535 1.465zm-4.221-16.293 4.221 4.222 4.221-4.222-4.221-4.221z" fill="#6c6cff"/></g><g><path d="m324.988 438.617c-7.175 0-13.012-5.837-13.012-13.012s5.837-13.012 13.012-13.012 13.012 5.838 13.012 13.012-5.837 13.012-13.012 13.012zm0-16.023c-1.661 0-3.012 1.351-3.012 3.012s1.351 3.012 3.012 3.012 3.012-1.351 3.012-3.012-1.351-3.012-3.012-3.012z" fill="#ff6c6c"/></g><g><path d="m59.509 155.827c-7.175 0-13.012-5.837-13.012-13.012s5.837-13.012 13.012-13.012 13.012 5.837 13.012 13.012-5.837 13.012-13.012 13.012zm0-16.023c-1.661 0-3.012 1.351-3.012 3.012s1.351 3.012 3.012 3.012 3.012-1.351 3.012-3.012-1.352-3.012-3.012-3.012z" fill="#ff9d33"/></g></g></g></svg>