<svg id="Capa_1" enable-background="new 0 0 512 512" height="512" viewBox="0 0 512 512" width="512" xmlns="http://www.w3.org/2000/svg" xmlns:xlink="http://www.w3.org/1999/xlink"><linearGradient id="SVGID_1_" gradientUnits="userSpaceOnUse" x1="440.448" x2="68.448" y1="758.998" y2="-281.002"><stop offset=".0023" stop-color="#ffc599"/><stop offset=".992" stop-color="#ffe8dc" stop-opacity="0"/></linearGradient><g><path d="m512 189.635c0-77.209-114.615-139.799-256-139.799s-256 62.59-256 139.799c0 12.48 2.999 24.577 8.62 36.089 10.007 20.491 12.502 43.828 7.537 66.086-2.036 9.127-3.179 18.59-3.333 28.294-1.235 77.812 61.961 142.061 139.782 142.06 58.443 0 108.503-35.865 129.385-86.785 11.468-27.964 35.565-48.919 65.155-55.077 96.38-20.057 164.854-70.992 164.854-130.667z" fill="url(#SVGID_1_)"/><g><g><g fill="#00c" opacity=".1"><path d="m484.337 210.29h-205.085v-10.145c0-2.761-2.239-5-5-5h-149.867c-2.761 0-5 2.239-5 5v23.732h-96.722v37.798c0 2.761 2.239 5 5 5h91.722v23.732c0 2.761 2.239 5 5 5h149.867c2.761 0 5-2.239 5-5v-10.145h48.723v24.05c0 2.761 2.239 5 5 5h133.815c2.761 0 5-2.239 5-5v-24.05h12.547c2.761 0 5-2.239 5-5v-59.972c0-2.761-2.238-5-5-5z"/><path d="m450.006 331.739c-4.401 6.562-14.438 22.308-14.438 29.409 0 9.094 7.372 16.465 16.465 16.465s16.465-7.372 16.465-16.465c0-7.1-10.038-22.846-14.438-29.409-.968-1.443-3.086-1.443-4.054 0z"/><path d="m416.348 361.148c0-7.1-10.038-22.846-14.438-29.409-.967-1.443-3.086-1.443-4.054 0-4.401 6.562-14.438 22.308-14.438 29.409 0 9.094 7.372 16.465 16.465 16.465s16.465-7.372 16.465-16.465z"/><path d="m423.932 393.315c-4.401 6.563-14.438 22.309-14.438 29.409 0 9.094 7.372 16.465 16.465 16.465s16.465-7.372 16.465-16.465c0-7.1-10.038-22.846-14.438-29.409-.968-1.443-3.087-1.443-4.054 0z"/><path d="m371.781 393.315c-4.401 6.563-14.438 22.309-14.438 29.409 0 9.094 7.372 16.465 16.465 16.465s16.465-7.372 16.465-16.465c0-7.1-10.038-22.846-14.438-29.409-.968-1.443-3.086-1.443-4.054 0z"/><path d="m364.197 361.148c0-7.1-10.038-22.846-14.438-29.409-.967-1.443-3.086-1.443-4.054 0-4.401 6.562-14.438 22.308-14.438 29.409 0 9.094 7.372 16.465 16.465 16.465s16.465-7.372 16.465-16.465z"/></g><g><path d="m466.79 282.312h-133.815c-2.761 0-5-2.239-5-5v-29.902h143.815v29.901c0 2.762-2.239 5.001-5 5.001z" fill="#8383ff"/><path d="m327.975 247.41h143.815v21.866h-143.815z" fill="#6c6cff"/><g opacity=".1"><g><path d="m191.842 132.35c-.883 0-1.778-.234-2.588-.726-6.579-3.991-14.132-6.1-21.845-6.1s-15.266 2.109-21.845 6.1c-2.361 1.433-5.436.68-6.868-1.682-1.432-2.361-.679-5.436 1.682-6.868 8.143-4.939 17.49-7.55 27.031-7.55s18.889 2.611 27.031 7.55c2.361 1.432 3.114 4.507 1.682 6.868-.941 1.55-2.59 2.408-4.28 2.408z" fill="#00c"/></g><g><path d="m177.8 148.587c-.883 0-1.778-.234-2.588-.726-4.698-2.85-10.908-2.85-15.606 0-2.361 1.433-5.436.68-6.868-1.682s-.679-5.436 1.682-6.868c3.914-2.374 8.405-3.628 12.99-3.628s9.076 1.255 12.99 3.628c2.361 1.432 3.114 4.507 1.682 6.868-.943 1.55-2.591 2.408-4.282 2.408z" fill="#00c"/></g><g><path d="m204.832 115.265c-.883 0-1.778-.234-2.588-.726-10.491-6.364-22.537-9.729-34.835-9.729s-24.344 3.364-34.835 9.729c-2.362 1.433-5.437.68-6.868-1.682-1.432-2.361-.679-5.436 1.682-6.868 12.055-7.313 25.895-11.179 40.021-11.179s27.966 3.866 40.021 11.179c2.361 1.432 3.114 4.507 1.682 6.868-.941 1.551-2.59 2.408-4.28 2.408z" fill="#00c"/></g></g><path d="m22.663 196.877h139.667v42.798h-139.667z" fill="#d9d9ff"/><path d="m484.337 253.262h-213.098v-69.972h213.098c2.761 0 5 2.239 5 5v59.971c0 2.762-2.238 5.001-5 5.001z" fill="#ebebff"/><path d="m274.252 268.407h-149.867c-2.761 0-5-2.239-5-5v-90.262c0-2.761 2.239-5 5-5h149.867c2.761 0 5 2.239 5 5v90.262c0 2.761-2.239 5-5 5z" fill="#ffab66"/><path d="m185.449 168.146v42.55c0 2.76-2.24 5-5 5h-21.67c-2.76 0-5-2.24-5-5v-42.55z" fill="#8383ff"/><path d="m181.038 168.146-27.26 27.26v-11.88c4.88-4.96 10.39-10.55 15.21-15.38z" fill="#b3b3ff"/><path d="m157.068 215.376c9.469-9.438 18.926-18.889 28.381-28.341v-15.889l-31.67 31.67v7.88c-.001 2.156 1.374 3.979 3.289 4.68z" fill="#b3b3ff"/><g fill="#ff4d4d"><circle cx="223.249" cy="241.847" r="9.046"/><circle cx="249.909" cy="241.847" r="9.046"/></g><g><g><path d="m468.498 334.148c0 9.093-7.372 16.465-16.465 16.465s-16.465-7.372-16.465-16.465c0-7.1 10.038-22.846 14.438-29.409.967-1.443 3.086-1.443 4.054 0 4.401 6.562 14.438 22.308 14.438 29.409z" fill="#b3b3ff"/><path d="m467.397 340.077c-2.38 6.165-8.361 10.536-15.365 10.536-7 0-12.985-4.371-15.36-10.536 2.375-6.166 8.356-10.541 15.36-10.541 7.009 0 12.989 4.375 15.365 10.541z" fill="#d9d9ff"/></g><g><path d="m416.348 334.148c0 9.093-7.372 16.465-16.465 16.465s-16.465-7.372-16.465-16.465c0-7.1 10.038-22.846 14.438-29.409.967-1.443 3.086-1.443 4.054 0 4.4 6.562 14.438 22.308 14.438 29.409z" fill="#b3b3ff"/><path d="m415.246 340.077c-2.38 6.165-8.361 10.536-15.365 10.536-7 0-12.985-4.371-15.36-10.536 2.375-6.166 8.356-10.541 15.36-10.541 7.009 0 12.989 4.375 15.365 10.541z" fill="#d9d9ff"/></g><g><path d="m442.424 395.723c0 9.094-7.372 16.465-16.465 16.465s-16.465-7.372-16.465-16.465c0-7.1 10.038-22.846 14.438-29.409.967-1.443 3.086-1.443 4.054 0 4.4 6.563 14.438 22.309 14.438 29.409z" fill="#b3b3ff"/><path d="m441.322 401.653c-2.38 6.165-8.361 10.536-15.365 10.536-7 0-12.985-4.371-15.36-10.536 2.375-6.166 8.356-10.541 15.36-10.541 7.01 0 12.99 4.375 15.365 10.541z" fill="#d9d9ff"/></g><g><path d="m390.273 395.723c0 9.094-7.372 16.465-16.465 16.465s-16.465-7.372-16.465-16.465c0-7.1 10.038-22.846 14.438-29.409.967-1.443 3.086-1.443 4.054 0 4.401 6.563 14.438 22.309 14.438 29.409z" fill="#b3b3ff"/><path d="m389.171 401.653c-2.38 6.165-8.361 10.536-15.365 10.536-7 0-12.985-4.371-15.36-10.536 2.375-6.166 8.356-10.541 15.36-10.541 7.01 0 12.99 4.375 15.365 10.541z" fill="#d9d9ff"/></g><g><path d="m364.197 334.148c0 9.093-7.372 16.465-16.465 16.465-9.094 0-16.465-7.372-16.465-16.465 0-7.1 10.038-22.846 14.438-29.409.967-1.443 3.086-1.443 4.054 0 4.4 6.562 14.438 22.308 14.438 29.409z" fill="#b3b3ff"/><path d="m363.095 340.077c-2.38 6.165-8.361 10.536-15.365 10.536-7 0-12.985-4.371-15.36-10.536 2.375-6.166 8.356-10.541 15.36-10.541 7.01 0 12.99 4.375 15.365 10.541z" fill="#d9d9ff"/><g fill="#00c"><path d="m196.122 102.941c1.432-2.36.679-5.436-1.682-6.868-8.143-4.939-17.49-7.55-27.031-7.55-9.542 0-18.889 2.611-27.031 7.55-2.361 1.433-3.114 4.508-1.682 6.869.94 1.55 2.589 2.407 4.28 2.407.883 0 1.778-.234 2.588-.726 6.579-3.991 14.132-6.101 21.845-6.101 7.712 0 15.266 2.109 21.845 6.101 2.36 1.431 5.435.68 6.868-1.682z"/><path d="m167.409 108.683c-4.584 0-9.076 1.255-12.99 3.628-2.361 1.433-3.114 4.507-1.683 6.868.941 1.551 2.59 2.408 4.28 2.408.883 0 1.777-.234 2.588-.726 4.7-2.852 10.909-2.852 15.607 0 2.362 1.431 5.437.678 6.868-1.683 1.432-2.36.679-5.436-1.682-6.868-3.912-2.372-8.404-3.627-12.988-3.627z"/><path d="m132.573 87.54c10.492-6.364 22.538-9.729 34.835-9.729 12.298 0 24.343 3.364 34.835 9.729.811.491 1.705.726 2.588.726 1.69 0 3.339-.857 4.28-2.408 1.432-2.36.679-5.436-1.682-6.868-12.056-7.313-25.895-11.178-40.021-11.178s-27.966 3.865-40.022 11.178c-2.361 1.433-3.114 4.508-1.682 6.868 1.433 2.361 4.508 3.114 6.869 1.682z"/><path d="m85.384 234.675h-62.721c-2.761 0-5 2.238-5 5s2.239 5 5 5h62.722c2.761 0 5-2.238 5-5s-2.239-5-5.001-5z"/><path d="m484.337 178.29h-200.085v-5.146c0-5.514-4.486-10-10-10h-149.867c-5.514 0-10 4.486-10 10v18.732h-91.722c-2.761 0-5 2.238-5 5s2.239 5 5 5h91.722v61.53c0 5.514 4.486 10 10 10h149.867c5.514 0 10-4.486 10-10v-5.146h38.723v19.05c0 5.514 4.486 10 10 10h133.815c5.514 0 10-4.486 10-10v-19.05h7.547c5.514 0 10-4.486 10-10v-59.97c0-5.514-4.486-10-10-10zm-17.54 99.022h-133.822v-19.05h133.818zm17.54-29.05h-200.085v-30.971c0-2.762-2.238-5-5-5s-5 2.238-5 5v46.116h-149.867v-90.263h149.867v10.146c0 2.762 2.238 5 5 5h205.085z"/><path d="m452.035 298.657c-.001 0-.002 0-.002 0-2.484 0-4.795 1.232-6.18 3.298-10.143 15.125-15.285 25.956-15.285 32.192 0 11.836 9.629 21.465 21.465 21.465s21.465-9.629 21.465-21.465c0-6.238-5.143-17.07-15.285-32.192-1.384-2.064-3.693-3.297-6.178-3.298zm-.002 46.955c-6.321 0-11.465-5.144-11.465-11.465 0-2.914 3.565-11.169 11.465-23.396 7.899 12.224 11.465 20.48 11.465 23.396 0 6.322-5.144 11.465-11.465 11.465z"/><path d="m421.348 334.147c0-6.235-5.143-17.066-15.286-32.194-1.385-2.063-3.695-3.296-6.18-3.296-2.483 0-4.794 1.232-6.179 3.298-10.144 15.126-15.286 25.957-15.286 32.192 0 11.836 9.63 21.465 21.466 21.465s21.465-9.629 21.465-21.465zm-21.465 11.465c-6.322 0-11.466-5.144-11.466-11.465 0-2.913 3.565-11.168 11.465-23.396 7.9 12.227 11.466 20.482 11.466 23.396 0 6.322-5.144 11.465-11.465 11.465z"/><path d="m425.961 360.232c-.001 0-.002 0-.002 0-2.484 0-4.795 1.232-6.18 3.298-10.144 15.126-15.286 25.958-15.286 32.193 0 11.836 9.63 21.465 21.466 21.465s21.465-9.629 21.465-21.465c0-6.239-5.143-17.071-15.285-32.193-1.384-2.064-3.694-3.297-6.178-3.298zm-.002 46.956c-6.322 0-11.466-5.144-11.466-11.465 0-2.914 3.565-11.17 11.466-23.396 7.899 12.224 11.465 20.48 11.465 23.396 0 6.322-5.144 11.465-11.465 11.465z"/><path d="m373.808 360.232s-.001 0-.002 0c-2.484.001-4.794 1.233-6.177 3.297-10.144 15.123-15.286 25.955-15.286 32.194 0 11.836 9.629 21.465 21.465 21.465s21.466-9.629 21.466-21.465c0-6.235-5.143-17.067-15.286-32.195-1.385-2.063-3.696-3.296-6.18-3.296zm0 46.956c-6.321 0-11.465-5.144-11.465-11.465 0-2.916 3.565-11.172 11.465-23.396 7.899 12.227 11.466 20.482 11.466 23.396-.001 6.322-5.144 11.465-11.466 11.465z"/><path d="m369.197 334.147c0-6.235-5.143-17.066-15.286-32.194-1.385-2.063-3.695-3.296-6.18-3.296 0 0-.001 0-.002 0-2.484.001-4.794 1.233-6.177 3.297-10.144 15.123-15.286 25.955-15.286 32.193 0 11.836 9.629 21.465 21.465 21.465s21.466-9.629 21.466-21.465zm-21.466 11.465c-6.321 0-11.465-5.144-11.465-11.465 0-2.915 3.565-11.171 11.465-23.396 7.899 12.227 11.466 20.482 11.466 23.396 0 6.322-5.143 11.465-11.466 11.465z"/></g></g></g></g></g><path d="" fill="#8383ff"/><g><path d="m349.934 126.029c-1.279 0-2.559-.488-3.535-1.464l-11.293-11.292c-.938-.938-1.465-2.21-1.465-3.536s.526-2.598 1.465-3.536l11.293-11.292c1.951-1.951 5.119-1.952 7.07.001l11.292 11.292c1.953 1.952 1.953 5.118 0 7.07l-11.292 11.292c-.976.977-2.256 1.465-3.535 1.465zm-4.222-16.292 4.222 4.221 4.221-4.221-4.221-4.221z" fill="#ff9d33"/></g><g><path d="m251.841 359.864c-1.28 0-2.559-.488-3.536-1.465l-11.292-11.292c-1.953-1.952-1.953-5.118 0-7.07l11.292-11.293c.938-.938 2.209-1.465 3.536-1.465s2.598.526 3.536 1.465l11.292 11.293c.938.938 1.465 2.209 1.465 3.535s-.526 2.598-1.465 3.535l-11.292 11.292c-.977.977-2.256 1.465-3.536 1.465zm-4.221-16.292 4.221 4.221 4.221-4.221-4.221-4.222z" fill="#6c6cff"/></g><g><path d="m304.782 140.093c-7.175 0-13.012-5.837-13.012-13.012s5.837-13.012 13.012-13.012 13.012 5.837 13.012 13.012-5.837 13.012-13.012 13.012zm0-16.024c-1.661 0-3.012 1.351-3.012 3.012s1.351 3.012 3.012 3.012 3.012-1.351 3.012-3.012-1.351-3.012-3.012-3.012z" fill="#ff6c6c"/></g><g><path d="m304.782 414.591c-7.175 0-13.012-5.837-13.012-13.012s5.837-13.013 13.012-13.013 13.012 5.838 13.012 13.013-5.837 13.012-13.012 13.012zm0-16.025c-1.661 0-3.012 1.352-3.012 3.013s1.351 3.012 3.012 3.012 3.012-1.351 3.012-3.012-1.351-3.013-3.012-3.013z" fill="#ff6c6c"/></g><g><path d="m99.589 330.002c-7.175 0-13.012-5.837-13.012-13.012s5.837-13.013 13.012-13.013 13.012 5.838 13.012 13.013-5.837 13.012-13.012 13.012zm0-16.024c-1.661 0-3.012 1.352-3.012 3.013s1.351 3.012 3.012 3.012 3.012-1.351 3.012-3.012-1.351-3.013-3.012-3.013z" fill="#ff6c6c"/></g></g></g></svg>