<svg id="Capa_1" enable-background="new 0 0 512 512" height="512" viewBox="0 0 512 512" width="512" xmlns="http://www.w3.org/2000/svg" xmlns:xlink="http://www.w3.org/1999/xlink"><linearGradient id="SVGID_1_" gradientUnits="userSpaceOnUse" x1="421.33" x2="33.33" y1="132.212" y2="528.212"><stop offset=".0023" stop-color="#ff9494"/><stop offset=".992" stop-color="#ffe8dc" stop-opacity="0"/></linearGradient><path d="m419.843 204.806c1.055-7.758 1.571-15.687 1.509-23.748-.692-90.025-74.256-163.486-164.281-164.057-91.815-.581-166.428 73.673-166.428 165.354 0 7.615.516 15.109 1.513 22.45 4.043 29.747-9.887 59.143-35.212 75.263-35.611 22.668-56.944 51.54-56.944 82.98 0 72.876 114.615 131.954 256 131.954s256-59.078 256-131.954c0-31.44-21.334-60.312-56.946-82.98-25.325-16.12-39.254-45.516-35.211-75.262z" fill="url(#SVGID_1_)"/><path d="m388.362 319.082c-6.333 0-12.433.989-18.163 2.809v-100.735h53.893c2.761 0 5-2.239 5-5v-22.45c0-16.394-13.152-29.708-29.479-29.987.195-.004.389-.015.585-.015h-122.296v-37.634c0-5.523-4.477-10-10-10h-199.204c-5.523 0-10 4.477-10 10v144.986c0 5.523 4.477 10 10 10h117.641v102.175h-55.073c-2.761 0-5 2.239-5 5v44.524c0 16.569 13.431 30 30 30h183.86c-.019 0-.039-.001-.058-.001h.131c15.433 0 28.151-11.666 29.811-26.666 5.785 1.859 11.949 2.873 18.352 2.873 33.104 0 59.94-26.836 59.94-59.94 0-33.103-26.836-59.939-59.94-59.939z" fill="#00c" opacity=".1"/><path d="m429.093 195.156v-22.45c0-16.569-13.431-30-30-30h-51.461v57.45h76.461c2.761 0 5-2.239 5-5z" fill="#ff9d33"/><path d="m429.095 172.71v14.85c0-16.56-13.43-30-30-30h-51.46v-14.85h51.46c16.57 0 30 13.43 30 30z" fill="#ff8b00"/><path d="m400.199 142.704c-16.57 0-30 13.43-30 30v239.05c0 16.57-13.44 30-30 30h-153.86v-269.05c0-16.57 13.43-30 30-30z" fill="#fff"/><path d="m320.043 217.167h-42.191c-2.761 0-5-2.239-5-5v-42.191c0-2.761 2.239-5 5-5h42.191c2.761 0 5 2.239 5 5v42.191c0 2.761-2.239 5-5 5z" fill="#ebebff"/><circle cx="306.114" cy="367.032" fill="#ebebff" r="36.513"/><path d="m277.899 142.704v124.36c0 5.53-4.47 10-10 10h-81.56v-104.36c0-16.57 13.43-30 30-30z" fill="#ebebff"/><path d="m310.126 411.756v-44.525c0-2.761-2.239-5-5-5h-173.86c-2.761 0-5 2.239-5 5v44.525c0 16.569 13.431 30 30 30h183.86c-16.57 0-30-13.43-30-30z" fill="#ff9d33"/><path d="m267.902 260.056h-199.204c-5.523 0-10-4.477-10-10v-144.986c0-5.523 4.477-10 10-10h199.204c5.523 0 10 4.477 10 10v144.986c0 5.523-4.477 10-10 10z" fill="#9494ff"/><path d="m105.336 233.209h-15.036c-2.761 0-5-2.239-5-5v-37.131c0-2.761 2.239-5 5-5h15.036c2.761 0 5 2.239 5 5v37.131c0 2.761-2.238 5-5 5z" fill="#ff2c2c"/><path d="m152.324 233.209h-15.036c-2.761 0-5-2.239-5-5v-67.27c0-2.761 2.239-5 5-5h15.036c2.761 0 5 2.239 5 5v67.27c0 2.761-2.238 5-5 5z" fill="#ff2c2c"/><path d="m199.312 233.209h-15.036c-2.761 0-5-2.239-5-5v-139.687c0-2.761 2.239-5 5-5h15.036c2.761 0 5 2.239 5 5v139.686c0 2.762-2.238 5.001-5 5.001z" fill="#ff2c2c"/><path d="m246.3 233.209h-15.036c-2.761 0-5-2.239-5-5v-168.965c0-2.761 2.239-5 5-5h15.036c2.761 0 5 2.239 5 5v168.964c0 2.762-2.239 5.001-5 5.001z" fill="#ff2c2c"/><path d="m301.114 320.198h-84.5c-2.762 0-5-2.239-5-5s2.238-5 5-5h84.5c2.762 0 5 2.239 5 5s-2.238 5-5 5z" fill="#b3b3ff"/><path d="m235.114 293.127h-18.5c-2.762 0-5-2.239-5-5s2.238-5 5-5h18.5c2.762 0 5 2.239 5 5s-2.238 5-5 5z" fill="#ff9d33"/><path d="m337.114 340.323h-120.5c-2.762 0-5-2.239-5-5s2.238-5 5-5h120.5c2.762 0 5 2.239 5 5s-2.238 5-5 5z" fill="#b3b3ff"/><path d="m323.872 219.878c-9.161 0-16.613-7.453-16.613-16.613s7.453-16.613 16.613-16.613 16.613 7.453 16.613 16.613-7.453 16.613-16.613 16.613zm0-23.227c-3.646 0-6.613 2.967-6.613 6.613s2.967 6.613 6.613 6.613 6.613-2.967 6.613-6.613-2.967-6.613-6.613-6.613z" fill="#ff2c2c"/><path d="m335.485 231.491c-2.761 0-5-2.238-5-5 0-3.646-2.967-6.613-6.613-6.613s-6.613 2.967-6.613 6.613c0 2.762-2.239 5-5 5s-5-2.238-5-5c0-9.16 7.453-16.613 16.613-16.613s16.613 7.453 16.613 16.613c0 2.762-2.239 5-5 5z" fill="#ff2c2c"/><circle cx="335.485" cy="248.434" fill="#ff9d33" r="5.59"/><circle cx="85.3" cy="120.668" fill="#fff" r="5.59"/><circle cx="335.485" cy="265.345" fill="#ff9d33" r="5.59"/><path d="m341.075 282.255c0 3.087-2.503 5.59-5.59 5.59s-5.59-2.503-5.59-5.59 2.503-5.59 5.59-5.59 5.59 2.502 5.59 5.59" fill="#ff9d33"/><circle cx="388.362" cy="358.021" fill="#ff9d33" r="59.94"/><g fill="#00c"><path d="m105.336 181.078h-15.036c-5.514 0-10 4.486-10 10v37.131c0 5.514 4.486 10 10 10h15.037c5.514 0 10-4.486 10-10v-37.131c-.001-5.514-4.486-10-10.001-10zm-15.036 47.131v-37.131h15.037l.006 37.131z"/><path d="m152.324 150.938h-15.037c-5.514 0-10 4.486-10 10v67.271c0 5.514 4.486 10 10 10h15.037c5.514 0 10-4.486 10-10v-67.271c0-5.513-4.486-10-10-10zm-15.036 77.271v-67.271h15.037l.006 67.271z"/><path d="m208.447 384.83-10 10c-1.953 1.952-1.953 5.118 0 7.07 1.953 1.953 5.118 1.953 7.071 0l6.464-6.464 6.464 6.464c.977.977 2.256 1.465 3.536 1.465s2.559-.488 3.536-1.465c1.953-1.952 1.953-5.118 0-7.07l-10-10c-1.953-1.953-5.118-1.953-7.071 0z"/><path d="m388.362 293.081c-4.51 0-8.914.464-13.167 1.344v-89.269h48.897c5.514 0 10-4.486 10-10v-22.45c0-18.804-14.909-34.186-33.526-34.963-.125-.009-.244-.037-.371-.037h-117.293v-32.636c0-8.271-6.729-15-15-15h-11.602v-30.826c0-5.514-4.486-10-10-10h-15.036c-5.514 0-10 4.486-10 10v30.826h-11.952v-1.548c0-5.514-4.486-10-10-10h-15.036c-5.514 0-10 4.486-10 10v1.548h-105.578c-8.271 0-15 6.729-15 15v144.986c0 8.271 6.729 15 15 15h112.638v92.175h-50.07c-5.514 0-10 4.486-10 10v44.524c0 19.299 15.701 35 35 35h183.86.069c15.987 0 29.499-10.778 33.666-25.448 4.666 1.069 9.515 1.653 14.501 1.653 35.808 0 64.94-29.132 64.94-64.939 0-35.808-29.132-64.94-64.94-64.94zm11.282-145.361c13.531.295 24.449 11.386 24.449 24.986v22.45h-48.897v-22.45c-.001-13.6 10.917-24.691 24.448-24.986zm-168.38-88.476h15.036l.006 168.965h-15.042zm-46.988 29.278h15.036l.006 139.687h-15.042zm155.919 348.234h-.069c-13.785 0-25-11.215-25-25v-44.524c0-5.514-4.486-10-10-10h-84.79c-2.761 0-5 2.238-5 5s2.239 5 5 5h84.79v44.524c0 9.784 4.035 18.643 10.528 25h-159.388c-13.785 0-25-11.215-25-25v-44.524h55.07c2.761 0 5-2.238 5-5v-97.175h76.566c8.271 0 15-6.729 15-15v-73.347c0-2.762-2.239-5-5-5s-5 2.238-5 5v73.347c0 2.757-2.243 5-5 5h-199.204c-2.757 0-5-2.243-5-5v-144.987c0-2.757 2.243-5 5-5h105.578v128.139c0 5.514 4.486 10 10 10h15.036c5.514 0 10-4.486 10-10v-128.139h11.952v128.139c0 5.514 4.486 10 10 10h15.036c5.514 0 10-4.486 10-10v-128.139h11.602c2.757 0 5 2.243 5 5v37.64c0 2.762 2.239 5 5 5 .013 0 .026-.004.039-.004h97.783c-6.494 6.357-10.528 15.216-10.528 25v124.662c-24.398 9.351-41.773 33.005-41.773 60.653 0 27.311 16.955 50.721 40.885 60.301-2.892 10.609-12.601 18.434-24.113 18.434zm48.167-23.795c-30.294 0-54.94-24.646-54.94-54.939s24.646-54.94 54.94-54.94 54.94 24.646 54.94 54.94-24.646 54.939-54.94 54.939z"/></g><circle cx="388.362" cy="358.021" fill="#fff" r="42.384"/><path d="m394.163 380.987h-15.998c-2.761 0-5-2.238-5-5s2.239-5 5-5h15.998c2.196 0 3.983-1.787 3.983-3.983s-1.787-3.982-3.983-3.982h-11.602c-7.71 0-13.983-6.272-13.983-13.982 0-7.711 6.273-13.983 13.983-13.983h15.998c2.761 0 5 2.238 5 5s-2.239 5-5 5h-15.998c-2.196 0-3.983 1.787-3.983 3.983s1.787 3.982 3.983 3.982h11.602c7.71 0 13.983 6.272 13.983 13.982 0 7.711-6.273 13.983-13.983 13.983z" fill="#ff7300"/><path d="m388.362 387.676c-2.761 0-5-2.238-5-5v-49.31c0-2.762 2.239-5 5-5s5 2.238 5 5v49.31c0 2.762-2.238 5-5 5z" fill="#ff7300"/><path d="m85.3 380.033c-1.28 0-2.559-.488-3.536-1.465-1.953-1.952-1.953-5.118 0-7.07l10-10c1.953-1.953 5.118-1.953 7.071 0 1.953 1.952 1.953 5.118 0 7.07l-10 10c-.976.977-2.255 1.465-3.535 1.465z" fill="#6c6cff"/><path d="m443.302 244.906c-1.28 0-2.559-.488-3.536-1.465-1.953-1.952-1.953-5.118 0-7.07l10-10c1.953-1.953 5.118-1.953 7.071 0 1.953 1.952 1.953 5.118 0 7.07l-10 10c-.976.977-2.255 1.465-3.535 1.465z" fill="#ff9d33"/><path d="m105.336 64.244c-1.28 0-2.559-.488-3.536-1.465-1.953-1.952-1.953-5.118 0-7.07l10-10c1.953-1.953 5.118-1.953 7.071 0 1.953 1.952 1.953 5.118 0 7.07l-10 10c-.975.977-2.255 1.465-3.535 1.465z" fill="#ff9d33"/><path d="m139.205 324.061c-1.28 0-2.559-.488-3.536-1.465l-6.464-6.464-6.464 6.464c-1.953 1.953-5.118 1.953-7.071 0-1.953-1.952-1.953-5.118 0-7.07l10-10c1.953-1.953 5.118-1.953 7.071 0l10 10c1.953 1.952 1.953 5.118 0 7.07-.977.976-2.257 1.465-3.536 1.465z" fill="#ff6c6c"/><path d="m357.635 100.258c-1.28 0-2.559-.488-3.536-1.465l-6.464-6.464-6.464 6.464c-1.953 1.953-5.118 1.953-7.071 0-1.953-1.952-1.953-5.118 0-7.07l10-10c1.953-1.953 5.118-1.953 7.071 0l10 10c1.953 1.952 1.953 5.118 0 7.07-.977.977-2.256 1.465-3.536 1.465z" fill="#6c6cff"/></svg>