<svg id="Capa_1" enable-background="new 0 0 512 512" height="512" viewBox="0 0 512 512" width="512" xmlns="http://www.w3.org/2000/svg" xmlns:xlink="http://www.w3.org/1999/xlink"><linearGradient id="SVGID_1_" gradientUnits="userSpaceOnUse" x1="519.864" x2="36.888" y1="338.264" y2="213.77"><stop offset=".0023" stop-color="#ff9494"/><stop offset=".992" stop-color="#ffe8dc" stop-opacity="0"/></linearGradient><g><path d="m428.41 171.888c-8.356-8.356-18.026-14.923-28.717-19.765-28.021-12.69-50.051-35.407-62.434-63.565-22.917-52.113-74.975-88.512-135.546-88.558-79.311-.06-145.162 63.163-148.147 142.418-1.277 33.922 8.857 65.421 26.87 90.969 22.877 32.448 28.821 73.782 17.021 111.69-16.764 53.857-10.919 104.898 20.973 136.791 55.888 55.888 170.586 31.804 256.185-53.795 85.598-85.599 109.683-200.296 53.795-256.185z" fill="url(#SVGID_1_)"/><g><g><g><path d="m466.642 100.663h-60.881l-1.911-16.208c-.5-4.243-4.097-7.44-8.369-7.44-4.654 0-8.427 3.773-8.427 8.427v15.221h-51.668c-2.762 0-5 2.238-5 5s2.238 5 5 5h51.668v48.24c-37.392-9.173-82.494-14.534-131.054-14.534s-93.662 5.361-131.054 14.534v-48.24h51.668c2.762 0 5-2.238 5-5s-2.238-5-5-5h-51.668v-15.221c0-4.654-3.773-8.427-8.427-8.427-4.272 0-7.869 3.197-8.369 7.44l-1.911 16.208h-60.881c-2.762 0-5 2.238-5 5s2.238 5 5 5h59.702l-6.577 55.786c-20.056 6.616-36.927 14.477-49.674 23.246-2.918 2.007-2.918 6.28 0 8.288 18.708 12.87 46.295 23.782 79.806 31.675-21.553 18.053-45.315 48.763-46.9 97.05-.092 2.814 2.187 5.141 5.002 5.141h9.123c2.284 0 4.27-1.543 4.842-3.755 3.57-13.813 20.625-61.446 87.377-70.136v15.27c0 5.52 4.48 10 10 10h20.234v14.854c0 7.696 6.262 13.958 13.958 13.958h8.706v19.81h-28.245c-1.865 0-3.576 1.039-4.436 2.694l-12.802 24.627c-1.73 3.329.685 7.306 4.436 7.306h112.177c3.751 0 6.167-3.978 4.436-7.306l-12.802-24.627c-.86-1.655-2.571-2.694-4.436-2.694h-5.929c.217-.56.348-1.164.348-1.801v-14.051c0-7.696-6.262-13.958-13.958-13.958h-8.706v-18.812h42.898c5.52 0 10-4.48 10-10v-15.27c66.753 8.69 83.808 56.324 87.377 70.136.572 2.212 2.557 3.755 4.842 3.755h9.123c2.815 0 5.095-2.328 5.002-5.141-1.584-48.287-25.346-78.997-46.9-97.05 33.51-7.892 61.098-18.805 79.806-31.675 2.918-2.007 2.918-6.28 0-8.288-12.747-8.769-29.618-16.63-49.674-23.246l-6.577-55.786h59.702c2.762 0 5-2.238 5-5s-2.236-5-4.997-5zm-234.39 201.376c-2.183 0-3.958-1.775-3.958-3.958v-14.854h12.664v18.812zm18.706 10h10.084v16.069h-10.084zm28.79 0c2.183 0 3.958 1.775 3.958 3.958v14.051c0 .637.131 1.241.348 1.801h-13.012v-19.81zm-18.706-10h-10.084v-18.812h10.084z" fill="#00c" opacity=".1"/><path d="m414.973 151.793h-27.919v-93.351c0-4.654 3.773-8.427 8.427-8.427 4.272 0 7.869 3.197 8.369 7.44z" fill="#ff9d33"/><path d="m97.027 151.793h27.919v-93.351c0-4.654-3.773-8.427-8.427-8.427-4.272 0-7.869 3.197-8.369 7.44z" fill="#ff9d33"/><g><path d="m163.811 181.054s-79.158 29.138-82.095 118.653c-.092 2.814 2.187 5.141 5.003 5.141h9.123c2.284 0 4.27-1.543 4.842-3.755 3.934-15.22 24.235-71.506 109.361-71.506v-48.487z" fill="#4d4dff"/><path d="m163.81 181.057 46.23.04v48.49c-.44 0-.88 0-1.31.01-33.61-2.46-65.23-7.51-92.96-14.73 22.58-24.44 48.04-33.81 48.04-33.81z" fill="#2c27ff"/><path d="m348.189 181.054s79.158 29.138 82.095 118.653c.092 2.814-2.187 5.141-5.003 5.141h-9.123c-2.284 0-4.27-1.543-4.842-3.755-3.934-15.22-24.235-71.506-109.361-71.506v-48.487z" fill="#4d4dff"/><path d="m396.23 214.868c-27.73 7.22-59.35 12.27-92.96 14.73-.43-.01-.87-.01-1.31-.01v-48.49l46.23-.04c0-.001 25.46 9.369 48.04 33.81z" fill="#2c27ff"/></g><path d="m323.94 171.307v74.92c0 5.52-4.48 10-10 10h-115.88c-5.52 0-10-4.48-10-10v-74.92z" fill="#ff9d33"/><path d="m323.94 171.307v56.41c-21.77 2.35-44.61 3.59-67.94 3.59s-46.17-1.24-67.94-3.59v-56.41z" fill="#ff8b00"/><path d="m463.191 162.695c2.918 2.007 2.918 6.28 0 8.287-39.172 26.948-117.259 45.327-207.191 45.327s-168.019-18.379-207.191-45.326c-2.918-2.007-2.918-6.28 0-8.287 39.172-26.949 117.259-45.327 207.191-45.327s168.019 18.378 207.191 45.326z" fill="#fff"/><g><g><g><path d="m137.91 128.938c-7.05 1.5-13.86 3.12-20.41 4.86 2.52 10.43 3.85 21.62 3.85 33.04s-1.33 22.61-3.85 33.04c6.55 1.74 13.36 3.37 20.41 4.86 2.92-12.04 4.44-24.87 4.44-37.9 0-13.02-1.52-25.85-4.44-37.9z" fill="#ff6c6c"/></g><g><path d="m99.27 139.188c-7.04 2.3-13.69 4.76-19.91 7.35 1.3 6.43 1.99 13.32 1.99 20.3 0 7.26-.73 14.09-1.99 20.3 6.22 2.6 12.87 5.05 19.91 7.35 2.02-8.69 3.08-18.04 3.08-27.65s-1.06-18.961-3.08-27.65z" fill="#ff6c6c"/></g></g><g><g><path d="m394.5 133.798c-6.55-1.74-13.36-3.36-20.41-4.86-2.92 12.05-4.44 24.88-4.44 37.9 0 13.03 1.52 25.86 4.44 37.9 7.05-1.49 13.86-3.12 20.41-4.86-2.52-10.43-3.85-21.62-3.85-33.04s1.33-22.61 3.85-33.04z" fill="#ff6c6c"/></g><g><path d="m432.64 146.538c-6.22-2.59-12.87-5.05-19.91-7.35-2.02 8.69-3.08 18.04-3.08 27.65s1.06 18.96 3.08 27.65c7.04-2.3 13.69-4.75 19.91-7.35-1.26-6.21-1.99-13.04-1.99-20.3 0-6.98.69-13.87 1.99-20.3z" fill="#ff6c6c"/></g></g></g><g><g fill="#00c" opacity=".1"><path d="m294.535 389.514c-3.383 5.045-11.1 17.151-11.1 22.609 0 6.991 5.667 12.658 12.659 12.658s12.658-5.667 12.658-12.658c0-5.459-7.717-17.564-11.1-22.609-.744-1.109-2.373-1.109-3.117 0z"/><path d="m268.658 412.123c0-5.459-7.717-17.564-11.1-22.609-.744-1.109-2.373-1.109-3.116 0-3.383 5.045-11.1 17.151-11.1 22.609 0 6.991 5.667 12.658 12.658 12.658s12.658-5.667 12.658-12.658z"/><path d="m274.489 436.853c-3.383 5.045-11.1 17.151-11.1 22.609 0 6.991 5.667 12.658 12.658 12.658s12.658-5.667 12.658-12.658c0-5.459-7.717-17.564-11.1-22.609-.743-1.109-2.372-1.109-3.116 0z"/><path d="m234.396 436.853c-3.383 5.045-11.1 17.151-11.1 22.609 0 6.991 5.667 12.658 12.658 12.658s12.658-5.667 12.658-12.658c0-5.459-7.717-17.564-11.1-22.609-.743-1.109-2.372-1.109-3.116 0z"/><path d="m228.565 412.123c0-5.459-7.717-17.564-11.1-22.609-.744-1.109-2.373-1.109-3.116 0-3.383 5.045-11.1 17.151-11.1 22.609 0 6.991 5.667 12.658 12.658 12.658s12.658-5.667 12.658-12.658z"/></g><g><g><g><path d="m308.752 385.123c0 6.991-5.667 12.658-12.658 12.658s-12.658-5.667-12.658-12.658c0-5.459 7.717-17.564 11.1-22.609.744-1.109 2.373-1.109 3.116 0 3.383 5.045 11.1 17.15 11.1 22.609z" fill="#b3b3ff"/><path d="m307.905 389.681c-1.83 4.74-6.428 8.1-11.813 8.1-5.381 0-9.983-3.36-11.809-8.1 1.826-4.74 6.424-8.104 11.809-8.104 5.389 0 9.986 3.364 11.813 8.104z" fill="#d9d9ff"/></g><g><path d="m268.658 385.123c0 6.991-5.667 12.658-12.658 12.658s-12.658-5.667-12.658-12.658c0-5.459 7.717-17.564 11.1-22.609.744-1.109 2.373-1.109 3.116 0 3.384 5.045 11.1 17.15 11.1 22.609z" fill="#b3b3ff"/><path d="m267.811 389.681c-1.83 4.74-6.428 8.1-11.813 8.1-5.381 0-9.983-3.36-11.809-8.1 1.826-4.74 6.424-8.104 11.809-8.104 5.39 0 9.987 3.364 11.813 8.104z" fill="#d9d9ff"/></g><g><path d="m288.706 432.462c0 6.991-5.667 12.658-12.658 12.658s-12.658-5.667-12.658-12.658c0-5.458 7.717-17.564 11.1-22.609.744-1.109 2.373-1.109 3.116 0 3.383 5.045 11.1 17.151 11.1 22.609z" fill="#b3b3ff"/><path d="m287.859 437.021c-1.83 4.74-6.428 8.1-11.813 8.1-5.381 0-9.983-3.36-11.809-8.1 1.826-4.74 6.424-8.104 11.809-8.104 5.389 0 9.987 3.364 11.813 8.104z" fill="#d9d9ff"/></g><g><path d="m248.612 432.462c0 6.991-5.667 12.658-12.658 12.658s-12.658-5.667-12.658-12.658c0-5.458 7.717-17.564 11.1-22.609.744-1.109 2.373-1.109 3.116 0 3.384 5.045 11.1 17.151 11.1 22.609z" fill="#b3b3ff"/><path d="m247.765 437.021c-1.83 4.74-6.428 8.1-11.813 8.1-5.381 0-9.983-3.36-11.809-8.1 1.826-4.74 6.424-8.104 11.809-8.104 5.39 0 9.987 3.364 11.813 8.104z" fill="#d9d9ff"/></g><g><path d="m228.565 385.123c0 6.991-5.667 12.658-12.658 12.658s-12.658-5.667-12.658-12.658c0-5.459 7.717-17.564 11.1-22.609.744-1.109 2.373-1.109 3.116 0 3.383 5.045 11.1 17.15 11.1 22.609z" fill="#b3b3ff"/><path d="m227.718 389.681c-1.83 4.74-6.428 8.1-11.813 8.1-5.381 0-9.983-3.36-11.809-8.1 1.826-4.74 6.424-8.104 11.809-8.104 5.389 0 9.987 3.364 11.813 8.104z" fill="#d9d9ff"/></g></g></g></g><path d="m312.089 339.476h-112.178c-3.751 0-6.167-3.978-4.436-7.306l12.802-24.627c.86-1.655 2.571-2.694 4.436-2.694h86.574c1.866 0 3.576 1.039 4.436 2.694l12.802 24.627c1.73 3.329-.685 7.306-4.436 7.306z" fill="#8383ff"/><path d="m270.296 304.849h17.767v34.627h-17.767z" fill="#b3b3ff"/></g><g fill="#ff4d4d"><circle cx="285.824" cy="236.001" r="5.642"/><circle cx="302.453" cy="236.001" r="5.642"/></g></g><path d="" fill="#8383ff"/><g><path d="m369.253 352.924c-1.326 0-2.598-.527-3.536-1.465l-11.292-11.293c-1.952-1.952-1.952-5.118.001-7.07l11.292-11.292c1.951-1.953 5.117-1.952 7.07-.001l11.293 11.292c.938.938 1.465 2.21 1.465 3.536s-.526 2.598-1.465 3.535l-11.293 11.293c-.937.938-2.209 1.465-3.535 1.465zm-4.221-16.293 4.221 4.222 4.222-4.222-4.222-4.221z" fill="#6c6cff"/></g><g><path d="m42.255 248.207c-1.279 0-2.56-.488-3.535-1.465l-11.292-11.292c-1.953-1.952-1.953-5.118 0-7.07l11.292-11.292c1.951-1.953 5.119-1.953 7.07 0l11.292 11.292c1.953 1.952 1.953 5.118 0 7.07l-11.292 11.292c-.976.977-2.256 1.465-3.535 1.465zm-4.221-16.292 4.221 4.221 4.221-4.221-4.221-4.221z" fill="#ff9d33"/></g><g><path d="m169.135 430.902c-1.326 0-2.598-.526-3.535-1.465l-11.293-11.293c-.938-.938-1.465-2.209-1.465-3.535s.527-2.598 1.465-3.536l11.293-11.292c1.951-1.951 5.119-1.952 7.07.001l11.292 11.292c1.953 1.952 1.953 5.118.001 7.07l-11.292 11.293c-.939.938-2.21 1.465-3.536 1.465zm-4.222-16.293 4.222 4.222 4.221-4.222-4.221-4.221z" fill="#6c6cff"/></g><g><path d="m53.547 284.059c-7.175 0-13.012-5.837-13.012-13.012s5.837-13.012 13.012-13.012 13.012 5.837 13.012 13.012-5.837 13.012-13.012 13.012zm0-16.024c-1.661 0-3.012 1.351-3.012 3.012s1.351 3.012 3.012 3.012 3.012-1.351 3.012-3.012-1.351-3.012-3.012-3.012z" fill="#ff6c6c"/></g><g><path d="m454.412 250.881c-7.175 0-13.012-5.837-13.012-13.012s5.837-13.012 13.012-13.012 13.012 5.837 13.012 13.012-5.837 13.012-13.012 13.012zm0-16.024c-1.661 0-3.012 1.351-3.012 3.012s1.351 3.012 3.012 3.012 3.012-1.351 3.012-3.012-1.351-3.012-3.012-3.012z" fill="#6c6cff"/></g><g><g fill="#00c"><path d="m466.024 158.576c-12.635-8.692-28.906-16.378-47.913-22.866l-6.137-52.047h54.667c2.762 0 5-2.238 5-5s-2.238-5-5-5h-55.846l-1.98-16.793c-.797-6.759-6.529-11.855-13.335-11.855-7.403 0-13.427 6.023-13.427 13.428v15.221h-46.668c-2.762 0-5 2.238-5 5s2.238 5 5 5h46.668v41.915c-37.099-8.488-80.557-13.208-126.054-13.208-56.432 0-109.729 7.261-151.644 19.969l8.76-74.298c.203-1.725 1.666-3.025 3.403-3.025 1.89 0 3.427 1.537 3.427 3.427v39.934c0 2.762 2.238 5 5 5s5-2.238 5-5v-14.715h46.668c2.762 0 5-2.238 5-5s-2.238-5-5-5h-46.668v-15.222c0-7.403-6.023-13.427-13.427-13.427-6.806 0-12.538 5.097-13.335 11.854l-1.98 16.794h-55.845c-2.762 0-5 2.238-5 5s2.238 5 5 5h54.667l-6.137 52.047c-19.007 6.488-35.278 14.173-47.912 22.865-2.728 1.876-4.355 4.965-4.355 8.264s1.628 6.388 4.354 8.263c17.746 12.209 42.662 22.434 72.269 30.138-19.182 18.382-40.03 48.693-41.527 94.305-.089 2.718.906 5.293 2.803 7.252 1.877 1.939 4.5 3.052 7.197 3.052h9.123c4.56 0 8.542-3.086 9.683-7.504 2.352-9.098 12.784-40.071 48.287-56.652 2.502-1.169 3.583-4.144 2.414-6.646-1.168-2.502-4.144-3.58-6.646-2.414-38.388 17.929-50.367 50.178-53.737 63.217l-9.129.023c1.514-46.119 24.328-75.357 43.222-91.775 16.568 3.791 34.407 6.829 53.127 9.032v29.098c0 8.271 6.729 15 15 15h20.232v9.854c0 7.696 6.262 13.958 13.958 13.958h8.706v14.81h-28.245c-3.745 0-7.146 2.064-8.873 5.388l-12.802 24.628c-1.625 3.127-1.503 6.791.326 9.803s5.024 4.81 8.547 4.81h112.178c3.522 0 6.718-1.798 8.547-4.81s1.951-6.676.326-9.804l-12.802-24.626c-1.728-3.324-5.128-5.389-8.873-5.389h-5.581v-10.852c0-7.696-6.262-13.958-13.958-13.958h-8.706v-13.812h42.896c8.271 0 15-6.729 15-15v-9.457c58.731 10.089 74.167 52.53 77.538 65.573 1.141 4.419 5.123 7.505 9.683 7.505h9.123c2.697 0 5.32-1.112 7.197-3.052 1.896-1.959 2.892-4.534 2.803-7.253-1.488-45.37-22.064-75.656-41.528-94.304 29.608-7.704 54.523-17.929 72.269-30.137 2.728-1.876 4.355-4.965 4.355-8.264s-1.626-6.387-4.353-8.262zm-73.97-100.134c0-1.89 1.537-3.428 3.427-3.428 1.737 0 3.2 1.301 3.403 3.026l8.76 74.297c-5.037-1.527-10.239-2.975-15.59-4.342zm-159.802 216.597c-2.183 0-3.958-1.775-3.958-3.958v-9.854h12.664v13.812zm18.706 10h10.084v14.81h-10.084zm61.154 49.437s-.008.001-.023.001h-112.178l12.802-24.628 86.574.001zm-32.364-49.437c2.183 0 3.958 1.775 3.958 3.958v10.852h-12.664v-14.81zm-18.706-10h-10.084v-13.812h10.084zm52.896-23.811h-115.876c-2.757 0-5-2.243-5-5v-28.009c20.213 2.025 41.345 3.09 62.938 3.09s42.725-1.066 62.938-3.09v28.009c0 2.756-2.243 5-5 5zm111.344 48.621-9.124-.006c-3.79-14.665-21.191-62.685-87.22-73.216v-9.497c18.719-2.203 36.557-5.241 53.125-9.032 19.27 16.756 41.722 45.971 43.219 91.751zm35.074-132.986c-39.85 27.415-118.154 44.445-204.356 44.445s-164.507-17.03-204.356-44.494c39.85-27.415 118.154-44.445 204.356-44.445s164.507 17.03 204.356 44.445z"/><path d="m296.094 356.682c-2.298 0-4.434 1.14-5.711 3.047-7.929 11.82-11.948 20.364-11.948 25.395 0 9.736 7.922 17.658 17.659 17.658 9.736 0 17.658-7.922 17.658-17.658 0-5.03-4.02-13.574-11.946-25.393-1.28-1.91-3.415-3.049-5.712-3.049zm0 36.099c-4.224 0-7.659-3.436-7.659-7.658 0-1.896 2.416-7.521 7.659-15.839 5.242 8.318 7.658 13.942 7.658 15.839 0 4.223-3.436 7.658-7.658 7.658z"/><path d="m273.658 385.123c0-5.028-4.02-13.571-11.947-25.395-1.279-1.908-3.415-3.047-5.711-3.047s-4.432 1.139-5.711 3.048c-7.928 11.822-11.947 20.365-11.947 25.394 0 9.736 7.922 17.658 17.658 17.658s17.658-7.922 17.658-17.658zm-17.658 7.658c-4.223 0-7.658-3.436-7.658-7.658 0-1.896 2.416-7.52 7.658-15.839 5.242 8.319 7.658 13.943 7.658 15.839 0 4.223-3.435 7.658-7.658 7.658z"/><path d="m276.047 404.021c-2.297 0-4.433 1.14-5.71 3.047-7.929 11.82-11.948 20.364-11.948 25.394 0 9.737 7.922 17.659 17.658 17.659 9.737 0 17.659-7.922 17.659-17.659 0-5.029-4.02-13.573-11.946-25.392-1.28-1.909-3.415-3.049-5.713-3.049zm0 36.1c-4.223 0-7.658-3.436-7.658-7.659 0-1.896 2.416-7.52 7.659-15.838 5.242 8.317 7.658 13.941 7.658 15.838 0 4.224-3.435 7.659-7.659 7.659z"/><path d="m235.954 404.021c-2.296 0-4.432 1.139-5.711 3.048-7.928 11.822-11.947 20.365-11.947 25.393 0 9.737 7.922 17.659 17.658 17.659s17.658-7.922 17.658-17.659c0-5.027-4.02-13.57-11.947-25.394-1.279-1.908-3.415-3.047-5.711-3.047zm0 36.1c-4.223 0-7.658-3.436-7.658-7.659 0-1.895 2.416-7.519 7.658-15.838 5.242 8.319 7.658 13.943 7.658 15.838 0 4.224-3.435 7.659-7.658 7.659z"/><path d="m233.565 385.123c0-5.03-4.02-13.574-11.946-25.393-1.279-1.909-3.415-3.049-5.713-3.049-2.297 0-4.433 1.14-5.71 3.047-7.929 11.82-11.948 20.364-11.948 25.395 0 9.736 7.922 17.658 17.658 17.658 9.738 0 17.659-7.922 17.659-17.658zm-17.659 7.658c-4.223 0-7.658-3.436-7.658-7.658 0-1.896 2.416-7.521 7.659-15.839 5.242 8.318 7.658 13.942 7.658 15.839 0 4.223-3.435 7.658-7.659 7.658z"/><path d="m485.078 92.497h-30.666c-2.762 0-5 2.238-5 5s2.238 5 5 5h30.666c2.762 0 5-2.238 5-5s-2.238-5-5-5z"/><path d="m323.464 63.341h30.667c2.762 0 5-2.238 5-5s-2.238-5-5-5h-30.667c-2.762 0-5 2.238-5 5s2.238 5 5 5z"/><path d="m62.588 97.497c0-2.762-2.238-5-5-5h-30.666c-2.762 0-5 2.238-5 5s2.238 5 5 5h30.666c2.762 0 5-2.238 5-5z"/><path d="m157.869 63.341h30.667c2.762 0 5-2.238 5-5s-2.238-5-5-5h-30.667c-2.762 0-5 2.238-5 5s2.238 5 5 5z"/><path d="m280.433 72.418c1.69 0 3.339-.857 4.28-2.407 1.432-2.361.679-5.437-1.682-6.869-8.144-4.939-17.491-7.551-27.031-7.551s-18.888 2.611-27.031 7.551c-2.36 1.433-3.113 4.508-1.682 6.869 1.434 2.359 4.507 3.114 6.869 1.682 6.579-3.992 14.133-6.102 21.844-6.102s15.265 2.109 21.844 6.102c.811.491 1.705.725 2.589.725z"/><path d="m256 75.75c-4.585 0-9.076 1.255-12.989 3.628-2.361 1.433-3.114 4.508-1.683 6.868 1.434 2.36 4.51 3.115 6.868 1.683 4.699-2.852 10.908-2.852 15.607 0 .811.491 1.705.726 2.588.726 1.69 0 3.34-.857 4.28-2.408 1.432-2.36.679-5.436-1.683-6.868-3.912-2.374-8.403-3.629-12.988-3.629z"/><path d="m221.165 54.607c10.491-6.364 22.537-9.729 34.835-9.729s24.344 3.364 34.835 9.729c.811.492 1.705.727 2.589.727 1.69 0 3.339-.857 4.279-2.407 1.433-2.361.68-5.437-1.681-6.869-12.056-7.314-25.895-11.179-40.022-11.179s-27.966 3.865-40.022 11.179c-2.36 1.433-3.113 4.508-1.681 6.869 1.432 2.36 4.506 3.116 6.868 1.68z"/></g><g opacity=".1"><g><path d="m280.433 99.418c-.883 0-1.778-.234-2.588-.726-6.579-3.991-14.132-6.1-21.845-6.1s-15.266 2.109-21.845 6.1c-2.361 1.433-5.436.68-6.868-1.682-1.432-2.361-.679-5.436 1.682-6.868 8.143-4.939 17.49-7.55 27.031-7.55s18.889 2.611 27.031 7.55c2.361 1.432 3.114 4.507 1.682 6.868-.941 1.55-2.59 2.408-4.28 2.408z" fill="#00c"/></g><g><path d="m266.392 115.655c-.883 0-1.778-.234-2.588-.726-4.698-2.85-10.908-2.85-15.606 0-2.361 1.433-5.436.68-6.868-1.682s-.679-5.436 1.682-6.868c3.914-2.374 8.405-3.628 12.99-3.628s9.076 1.255 12.99 3.628c2.361 1.432 3.114 4.507 1.682 6.868-.943 1.55-2.592 2.408-4.282 2.408z" fill="#00c"/></g><g><path d="m293.423 82.333c-.883 0-1.778-.234-2.588-.726-10.491-6.364-22.537-9.729-34.835-9.729s-24.344 3.364-34.835 9.729c-2.362 1.433-5.437.68-6.868-1.682-1.432-2.361-.679-5.436 1.682-6.868 12.055-7.313 25.895-11.179 40.021-11.179s27.966 3.866 40.021 11.179c2.361 1.432 3.114 4.507 1.682 6.868-.94 1.551-2.59 2.408-4.28 2.408z" fill="#00c"/></g></g></g></g></g></svg>