<svg id="Capa_1" enable-background="new 0 0 512 512" height="512" viewBox="0 0 512 512" width="512" xmlns="http://www.w3.org/2000/svg" xmlns:xlink="http://www.w3.org/1999/xlink"><linearGradient id="SVGID_1_" gradientUnits="userSpaceOnUse" x1="457.223" x2="-66.251" y1="398.78" y2="83.796"><stop offset=".0023" stop-color="#ffc599"/><stop offset=".992" stop-color="#ffe8dc" stop-opacity="0"/></linearGradient><g><path d="m419.843 204.806c1.055-7.758 1.571-15.687 1.509-23.748-.692-90.025-74.256-163.486-164.281-164.057-91.815-.581-166.428 73.673-166.428 165.354 0 7.615.516 15.109 1.513 22.45 4.043 29.747-9.887 59.143-35.212 75.263-35.611 22.668-56.944 51.54-56.944 82.98 0 72.876 114.615 131.954 256 131.954s256-59.078 256-131.954c0-31.44-21.334-60.312-56.946-82.98-25.325-16.12-39.254-45.516-35.211-75.262z" fill="url(#SVGID_1_)"/><g><g><circle cx="256" cy="269.5" fill="#00c" opacity=".1" r="195.409"/><circle cx="256" cy="242.5" fill="#ffab66" r="195.409"/><circle cx="256" cy="242.5" fill="#ff9d33" r="117.733"/><g><path d="m256 413.54c-94.312 0-171.04-76.729-171.04-171.04s76.728-171.04 171.04-171.04 171.04 76.729 171.04 171.04-76.728 171.04-171.04 171.04zm0-332.08c-88.798 0-161.04 72.242-161.04 161.04s72.242 161.04 161.04 161.04 161.04-72.242 161.04-161.04-72.242-161.04-161.04-161.04z" fill="#ff6c6c"/></g><g><g fill="#9494ff"><path d="m429.983 331.553c-5.105 9.942-11.026 19.384-17.688 28.242l-68.103-39.315-36.396-21.015 16.651-28.844 38.11 22.006z"/><path d="m204.205 299.466-36.396 21.015-68.103 39.315c-6.662-8.858-12.583-18.3-17.688-28.242l67.427-38.925 38.11-22.006z"/><path d="m272.651 47.799v133.112h-33.301v-133.112c5.485-.463 11.045-.704 16.65-.704 5.606 0 11.165.241 16.651.704z"/></g><path d="m187.554 270.621 16.65 28.844-36.396 21.015c-7.366-8.321-13.574-17.688-18.365-27.853z" fill="#8383ff"/><path d="m256 124.77c5.652 0 11.212.398 16.651 1.167v54.974h-33.301v-54.974c5.438-.769 10.998-1.167 16.65-1.167z" fill="#8383ff"/><path d="m362.556 292.628c-4.79 10.165-10.999 19.532-18.365 27.853l-36.396-21.015 16.651-28.844z" fill="#8383ff"/></g><circle cx="256" cy="242.5" fill="#ffd6bb" r="107.437"/><path d="m148.563 242.5c0-59.336 48.101-107.437 107.437-107.437s107.437 48.101 107.437 107.437z" fill="#fff"/><g><path d="m105.803 372.492c-1.434 0-2.855-.612-3.845-1.8-29.899-35.89-46.366-81.417-46.366-128.192 0-110.506 89.902-200.408 200.408-200.408 46.775 0 92.302 16.467 128.192 46.366 2.122 1.768 2.409 4.921.642 7.042-1.768 2.122-4.921 2.408-7.042.642-34.098-28.407-77.351-44.05-121.792-44.05-104.991 0-190.408 85.417-190.408 190.408 0 44.441 15.644 87.694 44.05 121.792 1.768 2.121 1.48 5.274-.642 7.042-.935.778-2.069 1.158-3.197 1.158z" fill="#00c"/></g><g><path d="m256 442.908c-47.387 0-93.373-16.856-129.488-47.463-2.106-1.785-2.367-4.94-.582-7.047s4.94-2.37 7.047-.582c34.312 29.078 78.002 45.092 123.023 45.092 104.991 0 190.408-85.417 190.408-190.408 0-45.021-16.014-88.712-45.092-123.023-1.785-2.106-1.524-5.262.582-7.047s5.262-1.523 7.047.582c30.606 36.115 47.463 82.102 47.463 129.488 0 110.506-89.902 200.408-200.408 200.408z" fill="#00c"/></g><path d="m264.923 135.434v107.066h-17.846v-107.066c2.937-.25 5.921-.371 8.923-.371 3.002.001 5.986.121 8.923.371z" fill="#ffab66"/><circle cx="256" cy="242.5" fill="#9494ff" r="31.739"/><g><path d="m292.84 313.707h-73.68c-2.559 0-4.633-2.074-4.633-4.633s2.074-4.633 4.633-4.633h73.681c2.559 0 4.633 2.074 4.633 4.633s-2.075 4.633-4.634 4.633z" fill="#ff4d4d"/></g><g><path d="m277.552 298.389h-43.104c-2.559 0-4.633-2.074-4.633-4.633s2.074-4.633 4.633-4.633h43.104c2.559 0 4.633 2.074 4.633 4.633 0 2.558-2.074 4.633-4.633 4.633z" fill="#ff4d4d"/></g><g><g><path d="m172.16 228.583c-2.559 0-4.633-2.074-4.633-4.633v-.107c0-2.559 2.074-4.633 4.633-4.633s4.633 2.074 4.633 4.633v.107c0 2.559-2.074 4.633-4.633 4.633z" fill="#d9d9ff"/></g><g><path d="m191.14 228.583c-2.559 0-4.633-2.074-4.633-4.633v-.107c0-2.559 2.074-4.633 4.633-4.633s4.633 2.074 4.633 4.633v.107c0 2.559-2.074 4.633-4.633 4.633z" fill="#d9d9ff"/></g><g><path d="m210.12 228.583c-2.559 0-4.633-2.074-4.633-4.633v-.107c0-2.559 2.074-4.633 4.633-4.633s4.633 2.074 4.633 4.633v.107c0 2.559-2.074 4.633-4.633 4.633z" fill="#d9d9ff"/></g></g><g><g><path d="m315.54 228.583c-2.559 0-4.633-2.074-4.633-4.633v-.107c0-2.559 2.074-4.633 4.633-4.633s4.633 2.074 4.633 4.633v.107c0 2.559-2.074 4.633-4.633 4.633z" fill="#d9d9ff"/></g><g><path d="m334.52 228.583c-2.559 0-4.633-2.074-4.633-4.633v-.107c0-2.559 2.074-4.633 4.633-4.633s4.633 2.074 4.633 4.633v.107c0 2.559-2.074 4.633-4.633 4.633z" fill="#d9d9ff"/></g></g></g><g><path d="m386.516 443.471c-1.326 0-2.598-.527-3.536-1.465l-11.292-11.293c-1.952-1.952-1.952-5.118.001-7.07l11.292-11.292c1.951-1.953 5.117-1.952 7.07-.001l11.293 11.292c.938.938 1.465 2.21 1.465 3.536s-.526 2.598-1.465 3.535l-11.293 11.293c-.938.938-2.209 1.465-3.535 1.465zm-4.221-16.293 4.221 4.222 4.222-4.222-4.222-4.221z" fill="#6c6cff"/></g><g><path d="m92.931 447.931c-1.279 0-2.56-.488-3.535-1.465l-11.292-11.292c-1.953-1.952-1.953-5.118-.001-7.07l11.292-11.293c.938-.938 2.21-1.465 3.536-1.465s2.598.526 3.535 1.465l11.293 11.293c.938.938 1.465 2.209 1.465 3.535s-.527 2.598-1.465 3.536l-11.293 11.292c-.976.975-2.256 1.464-3.535 1.464zm-4.221-16.292 4.221 4.221 4.222-4.221-4.222-4.222z" fill="#ff6c6c"/></g><g><path d="m436.033 114.995c-7.175 0-13.012-5.837-13.012-13.012s5.837-13.012 13.012-13.012 13.013 5.837 13.013 13.012-5.838 13.012-13.013 13.012zm0-16.023c-1.661 0-3.012 1.351-3.012 3.012s1.351 3.012 3.012 3.012 3.013-1.351 3.013-3.012-1.352-3.012-3.013-3.012z" fill="#ff9d33"/></g><g><path d="m79.018 100.416c-7.175 0-13.012-5.837-13.012-13.012s5.837-13.012 13.012-13.012 13.012 5.837 13.012 13.012-5.838 13.012-13.012 13.012zm0-16.023c-1.661 0-3.012 1.351-3.012 3.012s1.351 3.012 3.012 3.012 3.012-1.351 3.012-3.012-1.351-3.012-3.012-3.012z" fill="#ff6c6c"/></g><g><path d="m441.046 72.676c-7.175 0-13.013-5.837-13.013-13.012s5.838-13.012 13.013-13.012 13.012 5.837 13.012 13.012-5.837 13.012-13.012 13.012zm0-16.024c-1.661 0-3.013 1.351-3.013 3.012s1.352 3.012 3.013 3.012 3.012-1.351 3.012-3.012-1.351-3.012-3.012-3.012z" fill="#6c6cff"/></g></g></g></svg>