<svg id="Capa_1" enable-background="new 0 0 512 512" height="512" viewBox="0 0 512 512" width="512" xmlns="http://www.w3.org/2000/svg" xmlns:xlink="http://www.w3.org/1999/xlink"><linearGradient id="SVGID_1_" gradientUnits="userSpaceOnUse" x1="484.555" x2="-53.445" y1="672.3" y2="-139.701"><stop offset=".008" stop-color="#ffe8dc" stop-opacity="0"/><stop offset=".993" stop-color="#9494ff"/></linearGradient><g><path d="m419.843 204.806c1.055-7.758 1.571-15.687 1.509-23.748-.692-90.025-74.256-163.486-164.281-164.057-91.815-.581-166.428 73.673-166.428 165.354 0 7.615.516 15.109 1.513 22.45 4.043 29.747-9.887 59.143-35.212 75.263-35.611 22.668-56.944 51.54-56.944 82.98 0 72.876 114.615 131.954 256 131.954s256-59.078 256-131.954c0-31.44-21.334-60.312-56.946-82.98-25.325-16.12-39.254-45.516-35.211-75.262z" fill="url(#SVGID_1_)"/><g><g><path d="m468.629 236.362h-12.806l-77.389-131.524c-3.471-5.9-9.806-9.522-16.651-9.522h-21.293c-5.476 0-9.915 4.439-9.915 9.915s4.439 9.915 9.915 9.915h12.546c4.14 0 7.852 2.551 9.336 6.416l44.071 114.8h-300.886l44.071-114.8c1.484-3.865 5.196-6.416 9.336-6.416h12.546c5.476 0 9.915-4.439 9.915-9.915s-4.439-9.915-9.915-9.915h-21.292c-6.845 0-13.179 3.622-16.651 9.522l-77.39 131.524h-12.806c-2.761 0-5 2.239-5 5v32.688c0 2.761 2.239 5 5 5h6.519v39.25c0 26.63 15.89 50.69 40.38 61.14l56.93 24.3c36.91 15.75 79.7 7.37 107.94-21.16l.86-.86.86.86c10.085 10.189 22.032 17.792 34.898 22.66-3.449 6.298-5.413 13.526-5.413 21.213 0 24.428 19.803 44.231 44.231 44.231 23.143 0 42.122-17.777 44.056-40.419h67.513c2.76 0 5-2.23 5-5v-63.82c0-.345-.035-.681-.102-1.006 9.544-11.649 15.067-26.446 15.067-42.139v-39.25h6.519c2.761 0 5-2.239 5-5v-32.688c0-2.762-2.239-5-5-5z" fill="#00c" opacity=".1"/><g><g><g fill="#6c6cff"><path d="m133.567 77.838-80.571 136.931h50.486l46.147-120.207c1.484-3.865 5.196-6.416 9.336-6.416h12.546c5.476 0 9.915-4.439 9.915-9.915 0-5.476-4.439-9.915-9.915-9.915h-21.292c-6.847 0-13.181 3.622-16.652 9.522z"/><path d="m378.433 77.838 80.571 136.931h-50.486l-46.146-120.208c-1.484-3.865-5.196-6.416-9.336-6.416h-12.546c-5.476 0-9.915-4.439-9.915-9.915 0-5.476 4.439-9.915 9.915-9.915h21.292c6.846.001 13.18 3.623 16.651 9.523z"/></g><path d="m462.11 236.84v54.46c0 26.63-15.89 50.69-40.38 61.14l-56.93 24.3c-36.91 15.75-79.7 7.37-107.94-21.16l-.86-.86-.86.86c-28.24 28.53-71.03 36.91-107.94 21.16l-56.93-24.3c-24.49-10.45-40.38-34.51-40.38-61.14v-54.46z" fill="#d9d9ff"/><path d="m49.89 236.84h412.22v28.77h-412.22z" fill="#b3b3ff"/><path d="m193.499 283.414h-109c-2.761 0-5-2.239-5-5v-24.094c0-2.761 2.239-5 5-5h109c2.761 0 5 2.239 5 5v24.094c0 2.761-2.239 5-5 5z" fill="#b3b3ff"/><path d="m455.79 236.84-28.77 28.77-117.51 117.51c-14.63-2.56-28.66-8.45-40.91-17.43l100.08-100.08 28.77-28.77z" fill="#fff"/><path d="m455.79 236.84-28.77 28.77h-58.34l28.77-28.77z" fill="#d9d9ff"/><path d="m462.11 250.01v35.33l-86.98 86.98-10.33 4.41c-12.03 5.14-24.68 7.71-37.25 7.85l118.96-118.97z" fill="#fff"/><path d="m462.11 250.01v15.6h-15.6z" fill="#d9d9ff"/><path d="m468.629 252.05h-425.258c-2.761 0-5-2.239-5-5v-32.688c0-2.761 2.239-5 5-5h425.258c2.761 0 5 2.239 5 5v32.688c0 2.761-2.239 5-5 5z" fill="#9494ff"/><path d="m170.333 209.362h-126.962c-2.761 0-5 2.239-5 5v32.688c0 2.761 2.239 5 5 5h126.962z" fill="#ff4d4d"/><path d="m193.499 269.097h-109c-2.761 0-5-2.239-5-5v-24.094c0-2.761 2.239-5 5-5h109c2.761 0 5 2.239 5 5v24.094c0 2.762-2.239 5-5 5z" fill="#ff9d33"/></g><g><path d="m447.145 334.445v63.82c0 2.77-2.24 5-5 5h-82.67c-2.76 0-5-2.23-5-5v-63.82c0-2.76 2.24-5 5-5h82.67c2.76 0 5 2.24 5 5z" fill="#8383ff"/><circle cx="412.142" cy="368.738" fill="#ffe8dc" r="17.167"/><path d="m447.145 384.375v13.89c0 2.77-2.24 5-5 5h-82.67c-2.76 0-5-2.23-5-5v-11.07c12.9-7.94 30.04-12.79 48.85-12.79 16.46 0 31.64 3.71 43.82 9.97z" fill="#ffab66"/></g><g><g><path d="m102.537 327.72h-5.332c-6.508 0-11.803-5.294-11.803-11.802v-16.457c0-6.508 5.295-11.803 11.803-11.803h5.332c6.508 0 11.803 5.295 11.803 11.803v16.457c0 6.508-5.295 11.802-11.803 11.802zm-5.331-30.062c-.994 0-1.803.809-1.803 1.803v16.457c0 .993.809 1.802 1.803 1.802h5.332c.994 0 1.803-.809 1.803-1.802v-16.457c0-.994-.809-1.803-1.803-1.803z" fill="#9494ff"/></g><g><path d="m144.018 327.279h-18.108c-2.122 0-4.012-1.34-4.716-3.341-.705-2.002-.068-4.229 1.586-5.559 5.042-4.05 12.845-11.451 14.406-15.228.6-1.451.505-3.051-.247-4.176-.585-.875-1.455-1.318-2.586-1.318-1.898 0-3.442 1.544-3.442 3.442 0 2.762-2.239 5-5 5s-5-2.238-5-5c0-7.412 6.03-13.442 13.442-13.442 4.479 0 8.452 2.1 10.899 5.76 2.623 3.923 3.063 8.99 1.176 13.555-1.353 3.274-4.397 6.996-7.593 10.307h5.184c2.761 0 5 2.238 5 5s-2.24 5-5.001 5z" fill="#9494ff"/></g></g><path d="m163.809 298.683v-2c0-2.761 2.239-5 5-5h41.716c2.761 0 5 2.239 5 5v2c0 2.761-2.239 5-5 5h-41.716c-2.762 0-5-2.238-5-5z" fill="#ffab66"/><path d="m163.809 317.718v-2c0-2.761 2.239-5 5-5h71.716c2.761 0 5 2.239 5 5v2c0 2.761-2.239 5-5 5h-71.716c-2.762 0-5-2.239-5-5z" fill="#ffab66"/><g><path d="m434.977 279.262c-2.761 0-5-2.238-5-5v-.115c0-2.762 2.239-5 5-5s5 2.238 5 5v.115c0 2.762-2.239 5-5 5z" fill="#ff6c6c"/></g><g><path d="m415.393 279.262c-2.761 0-5-2.238-5-5v-.115c0-2.762 2.239-5 5-5s5 2.238 5 5v.115c0 2.762-2.238 5-5 5z" fill="#ff6c6c"/></g><g><path d="m395.81 279.262c-2.761 0-5-2.238-5-5v-.115c0-2.762 2.239-5 5-5s5 2.238 5 5v.115c0 2.762-2.239 5-5 5z" fill="#ff6c6c"/></g><g><path d="m376.226 279.262c-2.761 0-5-2.238-5-5v-.115c0-2.762 2.239-5 5-5s5 2.238 5 5v.115c0 2.762-2.239 5-5 5z" fill="#ff6c6c"/></g><circle cx="330.575" cy="399.454" fill="#ff6c6c" r="44.231"/><g opacity=".1"><g><path d="m280.433 143.065c-.883 0-1.778-.234-2.588-.726-6.579-3.991-14.132-6.1-21.845-6.1s-15.266 2.109-21.845 6.1c-2.361 1.433-5.436.68-6.868-1.682-1.432-2.361-.679-5.436 1.682-6.868 8.143-4.939 17.49-7.55 27.031-7.55s18.889 2.611 27.031 7.55c2.361 1.432 3.114 4.507 1.682 6.868-.941 1.551-2.59 2.408-4.28 2.408z" fill="#00c"/></g><g><path d="m266.392 159.302c-.883 0-1.778-.234-2.588-.726-4.698-2.85-10.908-2.85-15.606 0-2.361 1.433-5.436.68-6.868-1.682s-.679-5.436 1.682-6.868c3.914-2.374 8.405-3.628 12.99-3.628s9.076 1.255 12.99 3.628c2.361 1.432 3.114 4.507 1.682 6.868-.943 1.551-2.592 2.408-4.282 2.408z" fill="#00c"/></g><g><path d="m293.423 125.981c-.883 0-1.778-.234-2.588-.726-10.491-6.364-22.537-9.729-34.835-9.729s-24.344 3.364-34.835 9.729c-2.362 1.433-5.437.68-6.868-1.682-1.432-2.361-.679-5.436 1.682-6.868 12.055-7.313 25.895-11.179 40.021-11.179s27.966 3.866 40.021 11.179c2.361 1.432 3.114 4.507 1.682 6.868-.94 1.551-2.59 2.408-4.28 2.408z" fill="#00c"/></g></g><g><g><g><path d="m330.575 410.26c-9.161 0-16.613-7.453-16.613-16.613s7.453-16.613 16.613-16.613 16.613 7.453 16.613 16.613-7.452 16.613-16.613 16.613zm0-23.227c-3.646 0-6.613 2.967-6.613 6.613s2.967 6.613 6.613 6.613 6.613-2.967 6.613-6.613-2.966-6.613-6.613-6.613z" fill="#fee"/></g></g><g><g><path d="m342.188 421.873c-2.761 0-5-2.238-5-5 0-3.646-2.967-6.613-6.613-6.613s-6.613 2.967-6.613 6.613c0 2.762-2.239 5-5 5s-5-2.238-5-5c0-9.16 7.453-16.613 16.613-16.613s16.613 7.453 16.613 16.613c0 2.762-2.238 5-5 5z" fill="#fee"/></g></g></g><g fill="#00c"><path d="m468.629 204.361h-9.946l-75.94-129.059c-4.351-7.395-12.382-11.987-20.96-11.987h-21.293c-8.224 0-14.915 6.69-14.915 14.915s6.691 14.915 14.915 14.915h12.546c2.056 0 3.931 1.289 4.667 3.208l33.549 87.392c.99 2.578 3.884 3.868 6.46 2.876 2.578-.99 3.866-3.882 2.876-6.46l-33.548-87.391c-2.209-5.756-7.837-9.624-14.003-9.624h-12.547c-2.71 0-4.915-2.205-4.915-4.915s2.205-4.915 4.915-4.915h21.292c5.051 0 9.779 2.704 12.341 7.059l72.955 123.987h-334.245l41.463-108.009c.736-1.918 2.612-3.207 4.667-3.207h12.546c8.224 0 14.915-6.69 14.915-14.915s-6.691-14.915-14.915-14.915h-21.292c-8.578 0-16.609 4.593-20.96 11.987l-75.938 129.058h-9.947c-5.514 0-10 4.486-10 10v32.688c0 5.514 4.486 10 10 10h1.52v34.251c0 28.677 17.043 54.48 43.418 65.738l56.926 24.296c12.861 5.489 26.522 8.27 40.297 8.27 6.617-.001 13.262-.643 19.853-1.934 19.078-3.739 36.5-12.682 50.614-25.941 8.541 8.028 18.277 14.438 28.997 19.143-2.348 5.738-3.652 12.008-3.652 18.581 0 27.146 22.084 49.231 49.23 49.231 24.136 0 44.256-17.463 48.425-40.415h63.14c5.514 0 10-4.486 10-10v-63.223c9.653-12.478 14.969-27.961 14.969-43.745v-34.251h1.52c5.514 0 10-4.486 10-10v-32.688c0-5.514-4.486-10.001-10-10.001zm-330.753-123.988c2.562-4.354 7.29-7.058 12.341-7.058h21.292c2.71 0 4.915 2.205 4.915 4.915s-2.205 4.915-4.915 4.915h-12.546c-6.167 0-11.794 3.868-14.003 9.624l-42.839 111.592h-37.2zm192.699 358.312c-21.632 0-39.23-17.6-39.23-39.231s17.599-39.23 39.23-39.23 39.231 17.599 39.231 39.23-17.599 39.231-39.231 39.231zm111.565-40.415h-62.364c-.378-15.87-8.293-29.899-20.306-38.639v-25.18h82.67zm26.489-151.22h-236.104c-2.761 0-5 2.238-5 5s2.239 5 5 5h224.584v34.251c0 12.183-3.675 24.164-10.43 34.25-1.364-.699-2.904-1.101-4.539-1.101h-82.67c-5.514 0-10 4.486-10 10v19.549c-5.822-2.429-12.203-3.776-18.895-3.776-16.994 0-32.003 8.656-40.853 21.79-10.991-4.718-20.853-11.403-29.312-19.947l-.856-.865c-.939-.948-2.219-1.482-3.554-1.482s-2.614.534-3.554 1.482l-.856.865c-13.147 13.279-29.79 22.197-48.127 25.791-18.339 3.592-37.116 1.615-54.302-5.72l-56.926-24.296c-22.686-9.683-37.344-31.876-37.344-56.541v-34.25h19.608v7.047c0 5.514 4.486 10 10 10h109c5.514 0 10-4.486 10-10v-24.094c0-5.514-4.486-10-10-10h-109c-5.514 0-10 4.486-10 10v7.047h-31.128v-32.688h425.258zm-384.13-7.047h109l.006 24.094h-109.006z"/><path d="m280.433 116.065c1.69 0 3.339-.857 4.28-2.407 1.432-2.361.679-5.437-1.682-6.869-8.143-4.938-17.49-7.55-27.031-7.55s-18.889 2.611-27.031 7.55c-2.361 1.433-3.114 4.508-1.682 6.869 1.433 2.36 4.508 3.113 6.868 1.682 6.579-3.991 14.132-6.101 21.845-6.101s15.266 2.109 21.845 6.101c.81.491 1.705.725 2.588.725z"/><path d="m256 119.397c-4.584 0-9.076 1.255-12.99 3.628-2.361 1.433-3.114 4.508-1.682 6.868 1.432 2.361 4.507 3.114 6.868 1.683 4.698-2.852 10.908-2.852 15.606 0 .811.491 1.705.726 2.588.726 1.69 0 3.339-.857 4.28-2.408 1.432-2.36.679-5.436-1.682-6.868-3.912-2.374-8.404-3.629-12.988-3.629z"/><path d="m221.165 98.256c10.492-6.364 22.537-9.729 34.835-9.729s24.343 3.364 34.835 9.729c.811.491 1.705.726 2.588.726 1.69 0 3.339-.857 4.28-2.408 1.432-2.36.679-5.436-1.682-6.868-12.055-7.313-25.894-11.179-40.021-11.179s-27.966 3.865-40.021 11.178c-2.361 1.433-3.114 4.508-1.682 6.868 1.432 2.362 4.507 3.115 6.868 1.683z"/><path d="m468.265 399.873c-2.761 0-5 2.238-5 5v7.351h-7.351c-2.761 0-5 2.238-5 5s2.239 5 5 5h12.351c2.761 0 5-2.238 5-5v-12.351c0-2.762-2.239-5-5-5z"/><path d="m266.085 412.224h-7.351v-7.351c0-2.762-2.239-5-5-5s-5 2.238-5 5v12.351c0 2.762 2.239 5 5 5h12.351c2.761 0 5-2.238 5-5s-2.238-5-5-5z"/></g></g><g opacity=".1"><g><g><path d="m468.265 449.224h-12.351c-2.761 0-5-2.238-5-5s2.239-5 5-5h7.351v-7.351c0-2.762 2.239-5 5-5s5 2.238 5 5v12.351c0 2.761-2.239 5-5 5z" fill="#00c"/></g></g><g><g><path d="m266.085 449.224h-12.351c-2.761 0-5-2.238-5-5v-12.351c0-2.762 2.239-5 5-5s5 2.238 5 5v7.351h7.351c2.761 0 5 2.238 5 5s-2.238 5-5 5z" fill="#00c"/></g></g></g></g><g><path d="m65.069 417.814c-7.175 0-13.012-5.837-13.012-13.012s5.837-13.012 13.012-13.012 13.012 5.837 13.012 13.012-5.837 13.012-13.012 13.012zm0-16.023c-1.661 0-3.012 1.351-3.012 3.012s1.351 3.012 3.012 3.012 3.012-1.351 3.012-3.012-1.351-3.012-3.012-3.012z" fill="#ff6c6c"/></g><g><path d="m403.792 479.256c-7.175 0-13.012-5.837-13.012-13.012s5.837-13.012 13.012-13.012 13.012 5.837 13.012 13.012-5.838 13.012-13.012 13.012zm0-16.024c-1.661 0-3.012 1.351-3.012 3.012s1.351 3.012 3.012 3.012 3.012-1.351 3.012-3.012-1.352-3.012-3.012-3.012z" fill="#ff9d33"/></g><g><path d="m327.039 162.69c-1.326 0-2.598-.526-3.536-1.465l-11.292-11.293c-.938-.938-1.464-2.209-1.464-3.535s.527-2.598 1.464-3.535l11.292-11.292c1.953-1.953 5.118-1.953 7.071 0l11.292 11.292c.938.938 1.464 2.209 1.464 3.535s-.527 2.598-1.464 3.535l-11.292 11.293c-.937.939-2.209 1.465-3.535 1.465zm-4.221-16.293 4.221 4.222 4.221-4.222-4.221-4.221z" fill="#6c6cff"/></g><g><path d="m99.871 446.186c-1.28 0-2.559-.488-3.536-1.465l-11.292-11.292c-1.953-1.952-1.953-5.118 0-7.07l11.292-11.293c.938-.938 2.209-1.465 3.536-1.465s2.598.526 3.536 1.465l11.292 11.293c.938.938 1.464 2.209 1.464 3.535s-.527 2.598-1.464 3.535l-11.292 11.292c-.977.976-2.257 1.465-3.536 1.465zm-4.221-16.292 4.221 4.221 4.221-4.221-4.221-4.222z" fill="#6c6cff"/></g><g><path d="m92.203 94.472c-1.326 0-2.598-.526-3.536-1.465l-11.292-11.293c-.938-.938-1.464-2.209-1.464-3.535s.527-2.598 1.464-3.535l11.292-11.292c1.954-1.953 5.119-1.952 7.071 0l11.292 11.292c1.953 1.952 1.953 5.118 0 7.07l-11.292 11.293c-.937.938-2.209 1.465-3.535 1.465zm-4.222-16.293 4.221 4.222 4.221-4.222-4.221-4.221z" fill="#ff9d33"/></g></g></g></svg>