<svg id="Capa_1" enable-background="new 0 0 512 512" height="512" viewBox="0 0 512 512" width="512" xmlns="http://www.w3.org/2000/svg" xmlns:xlink="http://www.w3.org/1999/xlink"><linearGradient id="SVGID_1_" gradientUnits="userSpaceOnUse" x1="256" x2="256" y1="-149.956" y2="597.587"><stop offset=".007" stop-color="#9494ff"/><stop offset=".992" stop-color="#ffe8dc" stop-opacity="0"/></linearGradient><path d="m419.843 204.806c1.055-7.758 1.571-15.687 1.509-23.748-.692-90.025-74.256-163.486-164.281-164.057-91.815-.581-166.428 73.673-166.428 165.354 0 7.615.516 15.109 1.513 22.45 4.043 29.747-9.887 59.143-35.212 75.263-35.611 22.668-56.944 51.54-56.944 82.98 0 72.876 114.615 131.954 256 131.954s256-59.078 256-131.954c0-31.44-21.334-60.312-56.946-82.98-25.325-16.12-39.254-45.516-35.211-75.262z" fill="url(#SVGID_1_)"/><path d="m355.572 46.914c-39.698 0-72.676 28.673-79.414 66.434h-180.426c-11.04 0-20 8.95-20 20v332.74c0 11.05 8.96 20 20 20h227.99c11.04 0 20-8.95 20-20v-258.655c3.869.569 7.823.874 11.85.874 44.567 0 80.696-36.129 80.696-80.696s-36.129-80.697-80.696-80.697z" fill="#00c" opacity=".1"/><path d="m343.722 112.346v332.74c0 11.05-8.96 20-20 20h-227.99c-11.04 0-20-8.95-20-20v-332.74c0-11.05 8.96-20 20-20h227.99c11.04 0 20 8.95 20 20z" fill="#ff4d4d"/><path d="m343.722 112.346v88.71c-38.95-5.73-68.85-39.29-68.85-79.82 0-10.18 1.88-19.92 5.33-28.89h43.52c11.04 0 20 8.95 20 20z" fill="#ff2c2c"/><path d="m108.665 167.776v29.109c0 2.761 2.239 5 5 5h192.125c2.761 0 5-2.239 5-5v-29.109z" fill="#ff2c2c"/><path d="m305.893 422.822h-22.463c-4.103 0-7.441-3.338-7.441-7.441v-77.943c0-4.103 3.338-7.441 7.441-7.441h22.463c4.103 0 7.441 3.338 7.441 7.441v77.943c0 4.103-3.339 7.441-7.441 7.441z" fill="#ff9d33"/><path d="m305.79 190.46h-192.125c-2.761 0-5-2.239-5-5v-38.63c0-2.761 2.239-5 5-5h192.125c2.761 0 5 2.239 5 5v38.629c0 2.762-2.239 5.001-5 5.001z" fill="#9494ff"/><path d="m310.792 146.826v38.63c0 .9-.24 1.74-.65 2.47-15.82-10.79-27.61-27.07-32.61-46.1h28.26c2.76 0 5 2.24 5 5z" fill="#8383ff"/><path d="m296.912 141.836-48.63 48.63h-34.14l48.63-48.63z" fill="#b3b3ff"/><path d="m310.782 146.836v6.08l-37.55 37.55h-13.42l26.99-26.99 21.15-21.14c1.68.8 2.83 2.52 2.83 4.5z" fill="#b3b3ff"/><path d="m296.912 141.836-14.17 14.17c-2.16-4.51-3.91-9.25-5.21-14.17z" fill="#9494ff"/><path d="m310.782 146.836v6.08l-18.45 18.45c-1.99-2.51-3.84-5.15-5.53-7.89l21.15-21.14c1.68.8 2.83 2.52 2.83 4.5z" fill="#9494ff"/><path d="m159.771 182.569h-4.947c-5.47 0-9.92-4.449-9.92-9.919v-11.902c0-5.47 4.45-9.92 9.92-9.92h4.947c5.47 0 9.92 4.45 9.92 9.92v11.902c0 5.47-4.45 9.919-9.92 9.919zm0-10v5zm-4.867 0h4.787v-11.741h-4.787z" fill="#4d4dff"/><path d="m183.611 182.569c-2.761 0-5-2.238-5-5v-16.854c-2.251-.487-3.937-2.49-3.937-4.887 0-2.762 2.239-5 5-5h3.937c2.761 0 5 2.238 5 5v21.741c0 2.762-2.238 5-5 5z" fill="#4d4dff"/><circle cx="355.572" cy="106.608" fill="#ff9d33" r="80.696"/><path d="m343.718 213.885c-2.761 0-5 2.238-5 5v226.203c0 8.271-6.729 15-15 15h-227.981c-8.271 0-15-6.729-15-15v-332.742c0-8.271 6.729-15 15-15h147.075c2.761 0 5-2.238 5-5s-2.239-5-5-5h-147.075c-13.785 0-25 11.215-25 25v332.742c0 13.785 11.215 25 25 25h227.981c13.785 0 25-11.215 25-25v-226.203c0-2.762-2.239-5-5-5z" fill="#00c"/><path d="m355.572 20.912c-47.253 0-85.696 38.443-85.696 85.696s38.443 85.696 85.696 85.696 85.696-38.443 85.696-85.696-38.443-85.696-85.696-85.696zm0 161.393c-41.739 0-75.696-33.957-75.696-75.696s33.957-75.696 75.696-75.696 75.696 33.957 75.696 75.696-33.957 75.696-75.696 75.696z" fill="#00c"/><circle cx="355.572" cy="106.608" fill="#fff" r="59.539"/><path d="m362.466 132.96h-19.012c-2.761 0-5-2.238-5-5s2.239-5 5-5h19.012c3.129 0 5.676-2.546 5.676-5.676s-2.546-5.676-5.676-5.676h-13.788c-8.644 0-15.676-7.032-15.676-15.676s7.032-15.676 15.676-15.676h19.013c2.761 0 5 2.238 5 5s-2.239 5-5 5h-19.013c-3.129 0-5.676 2.546-5.676 5.676s2.546 5.676 5.676 5.676h13.788c8.644 0 15.676 7.032 15.676 15.676s-7.033 15.676-15.676 15.676z" fill="#ff7300"/><path d="m355.572 140.909c-2.761 0-5-2.238-5-5v-58.602c0-2.762 2.239-5 5-5s5 2.238 5 5v58.603c0 2.761-2.239 4.999-5 4.999z" fill="#ff7300"/><path d="m141.274 311.862h-22.463c-4.103 0-7.441-3.338-7.441-7.441v-22.463c0-4.103 3.338-7.441 7.441-7.441h22.463c4.103 0 7.441 3.338 7.441 7.441v22.463c0 4.103-3.338 7.441-7.441 7.441z" fill="#fee"/><path d="m141.274 367.342h-22.463c-4.103 0-7.441-3.338-7.441-7.441v-22.463c0-4.103 3.338-7.441 7.441-7.441h22.463c4.103 0 7.441 3.338 7.441 7.441v22.463c0 4.103-3.338 7.441-7.441 7.441z" fill="#fee"/><path d="m141.274 422.822h-22.463c-4.103 0-7.441-3.338-7.441-7.441v-22.463c0-4.103 3.338-7.441 7.441-7.441h22.463c4.103 0 7.441 3.338 7.441 7.441v22.463c0 4.103-3.338 7.441-7.441 7.441z" fill="#fee"/><path d="m141.274 256.074h-22.463c-4.103 0-7.441-3.338-7.441-7.441v-22.463c0-4.103 3.338-7.441 7.441-7.441h22.463c4.103 0 7.441 3.338 7.441 7.441v22.463c0 4.103-3.338 7.441-7.441 7.441z" fill="#fee"/><g fill="#ff9d33"><circle cx="137.415" cy="230.59" r="5.59"/><circle cx="137.415" cy="286.714" r="5.59"/><circle cx="137.415" cy="342.838" r="5.59"/><circle cx="137.415" cy="398.961" r="5.59"/></g><path d="m196.147 311.862h-22.463c-4.103 0-7.441-3.338-7.441-7.441v-22.463c0-4.103 3.338-7.441 7.441-7.441h22.463c4.103 0 7.441 3.338 7.441 7.441v22.463c0 4.103-3.338 7.441-7.441 7.441z" fill="#fee"/><path d="m196.147 367.342h-22.463c-4.103 0-7.441-3.338-7.441-7.441v-22.463c0-4.103 3.338-7.441 7.441-7.441h22.463c4.103 0 7.441 3.338 7.441 7.441v22.463c0 4.103-3.338 7.441-7.441 7.441z" fill="#fee"/><path d="m196.147 422.822h-22.463c-4.103 0-7.441-3.338-7.441-7.441v-22.463c0-4.103 3.338-7.441 7.441-7.441h22.463c4.103 0 7.441 3.338 7.441 7.441v22.463c0 4.103-3.338 7.441-7.441 7.441z" fill="#fee"/><path d="m196.147 256.074h-22.463c-4.103 0-7.441-3.338-7.441-7.441v-22.463c0-4.103 3.338-7.441 7.441-7.441h22.463c4.103 0 7.441 3.338 7.441 7.441v22.463c0 4.103-3.338 7.441-7.441 7.441z" fill="#fee"/><circle cx="192.288" cy="230.59" fill="#ff9d33" r="5.59"/><circle cx="192.288" cy="286.714" fill="#ff9d33" r="5.59"/><circle cx="192.288" cy="342.838" fill="#ff9d33" r="5.59"/><circle cx="192.288" cy="398.961" fill="#ff9d33" r="5.59"/><path d="m251.02 311.862h-22.463c-4.103 0-7.441-3.338-7.441-7.441v-22.463c0-4.103 3.338-7.441 7.441-7.441h22.463c4.103 0 7.441 3.338 7.441 7.441v22.463c0 4.103-3.338 7.441-7.441 7.441z" fill="#fee"/><path d="m251.02 367.342h-22.463c-4.103 0-7.441-3.338-7.441-7.441v-22.463c0-4.103 3.338-7.441 7.441-7.441h22.463c4.103 0 7.441 3.338 7.441 7.441v22.463c0 4.103-3.338 7.441-7.441 7.441z" fill="#fee"/><path d="m251.02 422.822h-22.463c-4.103 0-7.441-3.338-7.441-7.441v-22.463c0-4.103 3.338-7.441 7.441-7.441h22.463c4.103 0 7.441 3.338 7.441 7.441v22.463c0 4.103-3.338 7.441-7.441 7.441z" fill="#fee"/><path d="m251.02 256.074h-22.463c-4.103 0-7.441-3.338-7.441-7.441v-22.463c0-4.103 3.338-7.441 7.441-7.441h22.463c4.103 0 7.441 3.338 7.441 7.441v22.463c0 4.103-3.338 7.441-7.441 7.441z" fill="#fee"/><circle cx="247.161" cy="230.59" fill="#ff9d33" r="5.59"/><circle cx="247.161" cy="286.714" fill="#ff9d33" r="5.59"/><circle cx="247.161" cy="342.838" fill="#ff9d33" r="5.59"/><circle cx="247.161" cy="398.961" fill="#ff9d33" r="5.59"/><path d="m305.893 311.862h-22.463c-4.103 0-7.441-3.338-7.441-7.441v-22.463c0-4.103 3.338-7.441 7.441-7.441h22.463c4.103 0 7.441 3.338 7.441 7.441v22.463c0 4.103-3.339 7.441-7.441 7.441z" fill="#fee"/><path d="m305.893 256.074h-22.463c-4.103 0-7.441-3.338-7.441-7.441v-22.463c0-4.103 3.338-7.441 7.441-7.441h22.463c4.103 0 7.441 3.338 7.441 7.441v22.463c0 4.103-3.339 7.441-7.441 7.441z" fill="#fee"/><circle cx="302.034" cy="230.59" fill="#ff9d33" r="5.59"/><circle cx="302.034" cy="286.714" fill="#ff9d33" r="5.59"/><path d="m130.898 130.677h-16.52c-2.762 0-5-2.239-5-5s2.238-5 5-5h16.52c2.762 0 5 2.239 5 5s-2.238 5-5 5z" fill="#ff9d33"/><path d="m384 263.23c-1.28 0-2.559-.488-3.536-1.465-1.953-1.952-1.953-5.118 0-7.07l10-10c1.953-1.953 5.118-1.953 7.071 0 1.953 1.952 1.953 5.118 0 7.07l-10 10c-.976.977-2.255 1.465-3.535 1.465z" fill="#6c6cff"/><path d="m37 268.23c-1.28 0-2.559-.488-3.536-1.465-1.953-1.952-1.953-5.118 0-7.07l10-10c1.953-1.953 5.118-1.953 7.071 0 1.953 1.952 1.953 5.118 0 7.07l-10 10c-.976.977-2.255 1.465-3.535 1.465z" fill="#6c6cff"/><path d="m410.111 432.822c-1.28 0-2.559-.488-3.536-1.465-1.953-1.952-1.953-5.118 0-7.07l10-10c1.953-1.953 5.118-1.953 7.071 0 1.953 1.952 1.953 5.118 0 7.07l-10 10c-.976.977-2.255 1.465-3.535 1.465z" fill="#ff6c6c"/><path d="m260.571 62c-1.28 0-2.559-.488-3.536-1.465l-6.464-6.464-6.464 6.464c-1.953 1.953-5.118 1.953-7.071 0-1.953-1.952-1.953-5.118 0-7.07l10-10c1.953-1.953 5.118-1.953 7.071 0l10 10c1.953 1.952 1.953 5.118 0 7.07-.977.977-2.256 1.465-3.536 1.465z" fill="#ff6c6c"/><path d="m399 324.234c-1.28 0-2.559-.488-3.536-1.465l-6.464-6.463-6.464 6.464c-1.953 1.953-5.118 1.953-7.071 0-1.953-1.952-1.953-5.118 0-7.07l10-10c1.953-1.953 5.118-1.953 7.071 0l10 10c1.953 1.952 1.953 5.118 0 7.07-.977.976-2.256 1.464-3.536 1.464z" fill="#ff9d33"/></svg>