<svg id="Capa_1" enable-background="new 0 0 512 512" height="512" viewBox="0 0 512 512" width="512" xmlns="http://www.w3.org/2000/svg" xmlns:xlink="http://www.w3.org/1999/xlink"><linearGradient id="SVGID_1_" gradientUnits="userSpaceOnUse" x1="440.448" x2="68.448" y1="752.505" y2="-287.495"><stop offset=".008" stop-color="#ffe8dc" stop-opacity="0"/><stop offset=".9977" stop-color="#ffc599"/></linearGradient><g><path d="m512 183.142c0-77.209-114.615-139.799-256-139.799s-256 62.59-256 139.799c0 12.48 2.999 24.577 8.62 36.089 10.007 20.491 12.502 43.828 7.537 66.086-2.036 9.127-3.179 18.59-3.333 28.294-1.235 77.812 61.961 142.061 139.782 142.06 58.443 0 108.503-35.865 129.385-86.785 11.468-27.964 35.565-48.919 65.155-55.077 96.38-20.057 164.854-70.992 164.854-130.667z" fill="url(#SVGID_1_)"/><g><path d="m426.041 315.609h-36.665c13.082-19.182 15.259-43.99 15.448-56.38.069-4.533-2.918-8.539-7.281-9.771-1.516-.428-3.012-.906-4.498-1.407.406-77.883-48.927-131.99-110.636-143.333l1.081-3.482c1.878-6.046-2.261-12.349-8.565-12.922-28.19-2.563-49.512 7.913-65.105 22.663-12.964 4.611-25.865 11.144-38.415 19.783 0 0-10.577 7.379-23.946 22.631h-.449c-22.873 0-42.923 15.28-48.992 37.333-7.089 25.763-15.874 58.395-20.592 75.972-1.705 6.352 3.082 12.589 9.659 12.589h7.38c-.667 6.913-1.072 14.078-1.171 21.501-.034 2.601 2.056 4.737 4.657 4.737h29.459s-6.555 87.148 8.623 95.12c6.778 3.56 24.631 5.251 42.911 3.942v60.551c0 2.761 2.239 5 5 5h117.863c2.761 0 5-2.239 5-5v-48.379h119.233c2.493 0 4.514-2.021 4.514-4.514v-92.12c0-2.493-2.021-4.514-4.513-4.514z" fill="#00c" opacity=".1"/><g><g><g><path d="m306.808 443.135v-79.769c0-6.303 3.204-12.154 8.479-15.604 38.788-25.366 73.492-65.415 77.2-112.983 10.236-131.298-117.399-202.397-221.082-131.021 0 0-76.566 53.374-78.11 170.03-.034 2.599 2.058 4.733 4.657 4.733h29.459s-6.555 87.148 8.623 95.12c6.778 3.56 24.631 5.251 42.911 3.942v65.551h127.863z" fill="#ffab66"/><path d="m391.852 240.771c-3.26 24.39-14.6 46.67-30.22 65.83l-26.05-21.83c-3.68-3.08-4.65-8.33-2.32-12.52l12.65-22.78-79.7-108.98-13.31 24.08c5.81 5.71 10.52 12.54 13.77 20.13 3.26 7.6 5.06 15.97 5.06 24.75 0 34.77-28.18 62.95-62.95 62.95h-115.46c1.01-54.63 18.46-95.27 36.62-122.94 5.36-1.92 11.12-2.95 17.07-2.95h34.4c12.09-29.11 40.81-69.87 93.5-65.08 6.31.57 10.46 6.87 8.58 12.92l-2.42 7.78c-2.4 7.73-.94 16.15 3.92 22.63l62.77 83.67c11.2 14.93 26.56 26.17 44.09 32.34z" fill="#ff9d33"/><path d="m397.543 222.458c4.363 1.233 7.35 5.238 7.281 9.772-.205 13.487-2.756 41.692-19.174 61.333-3.541 4.236-9.858 4.782-14.09 1.236l-35.982-30.147c-3.674-3.078-4.647-8.33-2.32-12.52l12.651-22.782-79.7-108.975-17.479 31.642h-74.324c0-14.963 26.796-97.4 100.51-90.704 6.308.573 10.453 6.874 8.574 12.923l-2.415 7.777c-2.403 7.736-.946 16.155 3.915 22.634l62.769 83.662c12.403 16.531 29.895 28.53 49.784 34.149z" fill="#fff"/><g><path d="m98.019 163.723c-7.089 25.763-15.874 58.395-20.592 75.972-1.705 6.352 3.082 12.589 9.659 12.589h121.7c34.765 0 62.947-28.182 62.947-62.947 0-34.765-28.182-62.947-62.947-62.947h-61.776c-22.873-.001-42.923 15.279-48.991 37.333z" fill="#fff"/><path d="m251.729 189.339c0 23.68-19.26 42.94-42.94 42.94h-129.36c4.93-18.38 12.41-46.08 18.59-68.56 1.76-6.42 4.72-12.27 8.58-17.33h102.19c23.68 0 42.94 19.27 42.94 42.95z" fill="#8383ff"/></g></g><g><path d="m426.041 389.756h-163.373c-2.493 0-4.513-2.021-4.513-4.513v-92.12c0-2.493 2.021-4.513 4.513-4.513h27.279l14.479-18.371c1.807-2.293 5.283-2.293 7.09 0l14.479 18.371h100.045c2.493 0 4.513 2.021 4.513 4.513v92.12c.001 2.493-2.02 4.513-4.512 4.513z" fill="#ff6c6c"/><g><g><path d="m343.46 314.177h52.539c2.323 0 4.205 1.883 4.205 4.205s-1.883 4.205-4.205 4.205h-52.539c-2.323 0-4.205-1.883-4.205-4.205s1.883-4.205 4.205-4.205z" fill="#fff"/></g><g><path d="m297.515 339.238h98.484c2.323 0 4.205 1.883 4.205 4.205s-1.883 4.205-4.205 4.205h-98.484c-2.323 0-4.205-1.883-4.205-4.205s1.883-4.205 4.205-4.205z" fill="#fff"/></g><g><path d="m324.596 356.176h71.403c2.323 0 4.205 1.883 4.205 4.205s-1.883 4.205-4.205 4.205h-71.403c-2.323 0-4.205-1.883-4.205-4.205s1.882-4.205 4.205-4.205z" fill="#fff"/></g></g></g><circle cx="239.868" cy="113.005" fill="#ff6c6c" r="6.841"/><g fill="#8383ff"><circle cx="357.259" cy="254.871" r="6.841"/><circle cx="374.952" cy="268.519" r="6.841"/></g></g><g opacity=".1"><g><g><path d="m413.302 173.706c-2.25 0-4.294-1.529-4.853-3.812-1.83-7.474-5.68-14.307-11.133-19.761-5.453-5.453-12.286-9.303-19.761-11.133-2.682-.657-4.324-3.363-3.667-6.046.656-2.682 3.361-4.326 6.046-3.667 9.25 2.266 17.706 7.028 24.452 13.775 6.747 6.746 11.511 15.202 13.775 24.452.657 2.683-.985 5.39-3.667 6.046-.398.099-.799.146-1.192.146z" fill="#00c"/></g><g><path d="m391.892 175.259c-2.25 0-4.294-1.529-4.853-3.812-.653-2.67-2.029-5.11-3.978-7.06-1.948-1.948-4.389-3.323-7.059-3.977-2.682-.656-4.324-3.363-3.667-6.046.656-2.682 3.362-4.325 6.046-3.667 4.445 1.088 8.509 3.377 11.75 6.619 3.242 3.242 5.532 7.306 6.62 11.751.657 2.683-.985 5.39-3.667 6.046-.399.099-.799.146-1.192.146z" fill="#00c"/></g><g><path d="m434.567 170.812c-2.25 0-4.294-1.529-4.853-3.812-2.919-11.92-9.058-22.815-17.753-31.512-8.695-8.695-19.592-14.835-31.512-17.753-2.682-.656-4.324-3.363-3.667-6.046.656-2.682 3.362-4.323 6.046-3.667 13.696 3.354 26.215 10.405 36.204 20.396 9.988 9.988 17.041 22.508 20.395 36.203.657 2.683-.985 5.389-3.667 6.046-.399.098-.799.145-1.193.145z" fill="#00c"/></g></g></g><g fill="#00c"><path d="m426.041 283.61h-27.876c9.632-18.556 11.479-39.6 11.658-51.305.103-6.785-4.389-12.813-10.921-14.658-.292-.083-.579-.18-.869-.265-.859-57.797-29.171-106.784-76.033-131.292-10.675-5.583-21.848-9.623-33.297-12.205.68-3.805-.118-7.722-2.302-10.987-2.519-3.765-6.539-6.157-11.032-6.565-30.253-2.751-52.471 8.679-68.23 23.34-13.233 4.796-26.2 11.457-38.588 19.985-.436.304-10.464 7.366-23.373 21.771-24.28.801-45.497 17.415-51.979 40.968-7.163 26.031-15.981 58.792-20.6 76.003-1.219 4.54-.277 9.283 2.584 13.014 2.862 3.731 7.201 5.871 11.901 5.871l1.939.001c-.405 5.4-.647 10.905-.722 16.426-.04 2.609.945 5.07 2.775 6.929 1.828 1.855 4.269 2.878 6.875 2.878h24.125c-.469 7.944-1.226 23.615-1.044 39.63.488 43.032 7.028 51.957 12.673 54.927 8.025 4.214 25.131 5.415 40.245 4.801v60.263c0 2.762 2.239 5 5 5s5-2.238 5-5v-65.55c0-1.388-.577-2.714-1.593-3.66s-2.379-1.432-3.764-1.327c-19.319 1.386-35.151-.708-40.235-3.378-.279-.147-6.842-4.08-7.326-46.131-.257-22.313 1.348-43.983 1.364-44.199.104-1.388-.374-2.756-1.32-3.775s-2.274-1.6-3.666-1.6h-29.106c.104-7.021.488-13.999 1.143-20.747.136-1.402-.326-2.798-1.273-3.842s-2.291-1.64-3.701-1.641l-7.387-.004c-1.568 0-3.015-.714-3.969-1.957-.953-1.243-1.267-2.823-.861-4.336 4.616-17.199 13.428-49.937 20.583-75.942 5.454-19.817 23.617-33.659 44.171-33.659h61.775c31.952 0 57.947 25.995 57.947 57.947s-25.995 57.947-57.947 57.947h-79.951c-2.761 0-5 2.238-5 5s2.239 5 5 5h79.951c37.466 0 67.947-30.481 67.947-67.947 0-17.565-6.7-33.595-17.679-45.669l7.744-14.019 73.186 100.069-11.099 19.986c-3.482 6.273-2.019 14.172 3.481 18.78l18.052 15.125h-21.997l-12.979-16.467c-1.816-2.304-4.54-3.624-7.474-3.624-2.933 0-5.655 1.321-7.47 3.625l-12.979 16.466h-24.854c-5.246 0-9.514 4.268-9.514 9.513v92.12c0 5.246 4.268 9.514 9.514 9.514h39.142v48.381c0 2.762 2.238 5 5 5s5-2.238 5-5v-53.381c0-2.762-2.238-5-5-5h-43.655v-91.148h26.793c1.531 0 2.979-.702 3.927-1.905l14.098-17.886 14.098 17.886c.948 1.203 2.396 1.905 3.927 1.905h99.558v91.146h-84.743c-2.762 0-5 2.238-5 5s2.238 5 5 5h85.23c5.245 0 9.513-4.268 9.513-9.514v-92.12c.002-5.245-4.266-9.512-9.511-9.512zm-38.093-69.869c-14.252-6.146-26.845-15.979-36.19-28.434l-62.77-83.662c-3.886-5.179-5.059-11.963-3.141-18.146 10.848 2.384 21.427 6.175 31.517 11.453 42.531 22.242 68.634 66.377 70.584 118.789zm-213.703-105.866c5.72-3.938 11.573-7.438 17.519-10.523-6.296 8.862-10.687 17.409-13.458 23.606-.063.141-.094.287-.143.431h-19.217c8.906-8.99 15.243-13.474 15.299-13.514zm164.543 152.944c-1.833-1.535-2.321-4.169-1.16-6.26l12.651-22.782c.947-1.705.816-3.806-.335-5.379l-79.699-108.975c-1.008-1.378-2.659-2.14-4.353-2.039-1.704.108-3.234 1.078-4.061 2.572l-10.288 18.624c-11.686-9.49-26.567-15.192-42.759-15.192h-19.644c5.569-11.525 14.74-26.356 28.75-37.886 16.229-13.357 35.268-19.15 56.574-17.212 2.016.184 3.136 1.436 3.624 2.166.852 1.272 1.08 2.838.628 4.295l-2.417 7.776c-2.87 9.241-1.116 19.379 4.691 27.118l62.769 83.662c12.985 17.308 31.604 30.079 52.425 35.961 2.178.615 3.675 2.624 3.642 4.884-.181 11.779-2.155 33.813-13.15 51.456h-20.686z"/><path d="m377.556 82.001c7.475 1.83 14.308 5.68 19.761 11.133 5.453 5.454 9.303 12.287 11.133 19.761.559 2.282 2.603 3.812 4.853 3.812.394 0 .794-.047 1.193-.145 2.682-.656 4.324-3.363 3.667-6.046-2.265-9.25-7.028-17.706-13.775-24.452-6.746-6.747-15.202-11.51-24.452-13.775-2.684-.659-5.39.985-6.046 3.667-.659 2.682.984 5.388 3.666 6.045z"/><path d="m376.003 103.411c2.67.653 5.11 2.028 7.059 3.977 1.948 1.949 3.324 4.39 3.978 7.06.559 2.282 2.603 3.812 4.853 3.812.394 0 .794-.047 1.193-.145 2.682-.656 4.324-3.363 3.667-6.046-1.088-4.445-3.378-8.509-6.62-11.751-3.241-3.242-7.305-5.531-11.75-6.619-2.686-.658-5.39.985-6.046 3.667-.658 2.682.984 5.389 3.666 6.045z"/><path d="m439.428 107.621c-3.354-13.695-10.406-26.215-20.395-36.203-9.989-9.99-22.508-17.042-36.204-20.396-2.686-.657-5.39.985-6.046 3.667-.657 2.683.985 5.39 3.667 6.046 11.92 2.918 22.816 9.058 31.512 17.753 8.695 8.696 14.834 19.592 17.753 31.512.559 2.282 2.603 3.812 4.853 3.812.394 0 .794-.047 1.193-.145 2.681-.657 4.324-3.363 3.667-6.046z"/></g></g><path d="m219.005 147.617-84.66 84.66h-19.07l85.89-85.89h7.62c3.52 0 6.94.43 10.22 1.23z" fill="#b3b3ff"/><path d="m248.665 173.427-58.85 58.85h-43.46l81.44-81.44c9.45 4.68 16.93 12.74 20.87 22.59z" fill="#b3b3ff"/><g><path d="m344.354 464.159c-7.175 0-13.012-5.837-13.012-13.012s5.837-13.012 13.012-13.012 13.012 5.837 13.012 13.012-5.837 13.012-13.012 13.012zm0-16.024c-1.661 0-3.012 1.351-3.012 3.012s1.351 3.012 3.012 3.012 3.012-1.351 3.012-3.012-1.35-3.012-3.012-3.012z" fill="#ff6c6c"/></g><g><path d="m96.615 116.653c-7.175 0-13.012-5.837-13.012-13.012s5.837-13.012 13.012-13.012 13.012 5.837 13.012 13.012-5.837 13.012-13.012 13.012zm0-16.024c-1.661 0-3.012 1.351-3.012 3.012s1.351 3.012 3.012 3.012 3.012-1.351 3.012-3.012-1.351-3.012-3.012-3.012z" fill="#ff6c6c"/></g><g><path d="m68.137 366.764c-1.28 0-2.559-.488-3.536-1.465l-11.292-11.292c-.938-.938-1.464-2.209-1.464-3.535s.527-2.598 1.464-3.535l11.292-11.293c.938-.938 2.209-1.465 3.536-1.465 1.326 0 2.598.527 3.536 1.465l11.292 11.293c1.953 1.952 1.953 5.118 0 7.07l-11.292 11.292c-.977.977-2.256 1.465-3.536 1.465zm-4.221-16.292 4.221 4.221 4.221-4.221-4.221-4.222z" fill="#ff9d33"/></g><g><path d="m115.275 74.45c-1.326 0-2.598-.526-3.536-1.465l-11.292-11.293c-.938-.938-1.464-2.209-1.464-3.535s.527-2.598 1.464-3.535l11.292-11.292c1.954-1.953 5.119-1.952 7.071 0l11.292 11.292c1.953 1.952 1.953 5.118 0 7.07l-11.292 11.293c-.936.938-2.208 1.465-3.535 1.465zm-4.221-16.293 4.221 4.222 4.221-4.222-4.221-4.221z" fill="#6c6cff"/></g><g><path d="m443.863 261.431c-1.279 0-2.559-.488-3.535-1.464l-11.293-11.292c-.938-.938-1.465-2.21-1.465-3.536s.526-2.598 1.465-3.535l11.293-11.293c.938-.938 2.209-1.465 3.535-1.465 1.326 0 2.598.527 3.536 1.465l11.292 11.293c1.952 1.952 1.952 5.118-.001 7.07l-11.292 11.292c-.975.977-2.255 1.465-3.535 1.465zm-4.221-16.292 4.222 4.221 4.221-4.221-4.221-4.222z" fill="#6c6cff"/></g></g></g></svg>