<svg id="Capa_1" enable-background="new 0 0 512 512" height="512" viewBox="0 0 512 512" width="512" xmlns="http://www.w3.org/2000/svg" xmlns:xlink="http://www.w3.org/1999/xlink"><linearGradient id="SVGID_1_" gradientUnits="userSpaceOnUse" x1="256" x2="256" y1="-3.777" y2="630.805"><stop offset=".0023" stop-color="#ffc599"/><stop offset=".992" stop-color="#ffe8dc" stop-opacity="0"/></linearGradient><path d="m512 192.135c0-77.209-114.615-139.799-256-139.799s-256 62.59-256 139.799c0 12.48 2.999 24.577 8.62 36.089 10.007 20.491 12.502 43.828 7.537 66.086-2.036 9.127-3.179 18.59-3.333 28.294-1.235 77.812 61.961 142.061 139.782 142.06 58.443 0 108.503-35.865 129.385-86.785 11.468-27.964 35.565-48.919 65.155-55.077 96.38-20.057 164.854-70.992 164.854-130.667z" fill="url(#SVGID_1_)"/><path d="m418.267 336.848h-324.534c-8.969 0-16.248 7.279-16.248 16.248v125.864c0 8.977 7.279 16.248 16.248 16.248h324.534c8.969 0 16.248-7.271 16.248-16.248v-125.865c0-8.968-7.279-16.247-16.248-16.247z" fill="#00c" opacity=".1"/><path d="m422.1 47.797h-26.59c-2.77 0-5 2.23-5 5v8.017l-100.317 32.459v-2.796c0-5.523-4.477-10-10-10h-48.386c-5.523 0-10 4.477-10 10v2.796l-100.317-32.459v-8.017c0-2.77-2.23-5-5-5h-26.59c-2.76 0-5 2.23-5 5v161.61c0 2.76 2.24 5 5 5h26.59c2.77 0 5-2.24 5-5v-8.024l100.317-32.459v2.796c0 5.523 4.477 10 10 10h6.187v20.153c0 2.761 2.239 5 5 5h4.006v18.214c0 2.426 1.719 4.438 4 4.899v8.012c0 11.299 9.191 20.49 20.49 20.49h61.52c5.784 0 10.49 4.706 10.49 10.49s-4.706 10.49-10.49 10.49h-154.019c-11.299 0-20.491 9.192-20.491 20.491v5.43c0 2.762 2.239 5 5 5s5-2.238 5-5v-5.43c0-5.785 4.706-10.491 10.491-10.491h154.019c11.299 0 20.49-9.192 20.49-20.491 0-11.298-9.191-20.489-20.49-20.489h-61.52c-5.784 0-10.49-4.706-10.49-10.49v-8.012c2.281-.462 4-2.473 4-4.899v-18.214h4.006c2.761 0 5-2.239 5-5v-20.153h6.187c5.523 0 10-4.477 10-10v-2.796l100.317 32.459v8.024c0 2.76 2.23 5 5 5h26.59c2.76 0 5-2.24 5-5v-161.61c0-2.77-2.24-5-5-5z" fill="#00c" opacity=".1"/><path d="m234.327 148.873-129.804 42v-156.549l129.804 42z" fill="#ff4d4d"/><path d="m277.673 148.873 129.804 42v-156.549l-129.804 42z" fill="#ff4d4d"/><path d="m121.49 31.797v161.61c0 2.76-2.23 5-5 5h-26.59c-2.76 0-5-2.24-5-5v-161.61c0-2.77 2.24-5 5-5h26.59c2.77 0 5 2.23 5 5z" fill="#ffab66"/><path d="m84.9 137.817h36.59v23.39h-36.59z" fill="#ffd6bb"/><path d="m427.1 31.797v161.61c0 2.76-2.24 5-5 5h-26.59c-2.77 0-5-2.24-5-5v-161.61c0-2.77 2.23-5 5-5h26.59c2.76 0 5 2.23 5 5z" fill="#ffab66"/><path d="m390.51 137.817h36.59v23.39h-36.59z" fill="#ffd6bb"/><path d="m324 131.704h-136c-5.523 0-10-4.477-10-10v-20.474c0-5.523 4.477-10 10-10h136c5.523 0 10 4.477 10 10v20.475c0 5.522-4.477 9.999-10 9.999z" fill="#ffab66"/><path d="m280.193 165.72h-48.386c-5.523 0-10-4.477-10-10v-86.243c0-5.523 4.477-10 10-10h48.386c5.523 0 10 4.477 10 10v86.242c0 5.524-4.477 10.001-10 10.001z" fill="#6c6cff"/><path d="m159.5 292.391h8c2.761 0 5 2.239 5 5v24.745h-18v-24.745c0-2.762 2.239-5 5-5z" fill="#ffab66"/><path d="m434.515 332.095v125.864c0 8.977-7.279 16.248-16.248 16.248h-324.534c-8.969 0-16.248-7.271-16.248-16.248v-125.864c0-8.969 7.279-16.248 16.248-16.248h324.534c8.969.001 16.248 7.28 16.248 16.248z" fill="#ff2c2c"/><path d="m396.458 454.523h-280.916c-2.243 0-4.062-1.819-4.062-4.062v-110.869c0-2.243 1.819-4.062 4.062-4.062h280.916c2.243 0 4.062 1.819 4.062 4.062v110.869c0 2.243-1.819 4.062-4.062 4.062z" fill="#ff6c6c"/><g fill="#fff"><path d="m119.437 370.789h-15.914c-2.008 0-3.636-1.628-3.636-3.637v-15.914c0-2.008 1.628-3.636 3.636-3.636h15.914c2.008 0 3.636 1.628 3.636 3.636v15.914c0 2.009-1.628 3.637-3.636 3.637z"/><path d="m155.567 370.789h-15.914c-2.008 0-3.636-1.628-3.636-3.637v-15.914c0-2.008 1.628-3.636 3.636-3.636h15.914c2.008 0 3.637 1.628 3.637 3.636v15.914c-.001 2.009-1.629 3.637-3.637 3.637z"/><path d="m191.697 370.789h-15.914c-2.008 0-3.636-1.628-3.636-3.637v-15.914c0-2.008 1.628-3.636 3.636-3.636h15.914c2.008 0 3.636 1.628 3.636 3.636v15.914c0 2.009-1.628 3.637-3.636 3.637z"/><path d="m227.827 370.789h-15.914c-2.008 0-3.636-1.628-3.636-3.637v-15.914c0-2.008 1.628-3.636 3.636-3.636h15.914c2.008 0 3.636 1.628 3.636 3.636v15.914c0 2.009-1.628 3.637-3.636 3.637z"/><path d="m263.957 370.789h-15.914c-2.008 0-3.636-1.628-3.636-3.637v-15.914c0-2.008 1.628-3.636 3.636-3.636h15.914c2.008 0 3.637 1.628 3.637 3.636v15.914c-.001 2.009-1.629 3.637-3.637 3.637z"/><path d="m300.087 370.789h-15.914c-2.008 0-3.637-1.628-3.637-3.637v-15.914c0-2.008 1.628-3.636 3.637-3.636h15.914c2.008 0 3.637 1.628 3.637 3.636v15.914c-.001 2.009-1.629 3.637-3.637 3.637z"/><path d="m336.217 370.789h-15.914c-2.008 0-3.637-1.628-3.637-3.637v-15.914c0-2.008 1.628-3.636 3.637-3.636h15.914c2.008 0 3.637 1.628 3.637 3.636v15.914c-.001 2.009-1.629 3.637-3.637 3.637z"/><path d="m372.347 370.789h-15.914c-2.008 0-3.637-1.628-3.637-3.637v-15.914c0-2.008 1.628-3.636 3.637-3.636h15.914c2.008 0 3.636 1.628 3.636 3.636v15.914c0 2.009-1.628 3.637-3.636 3.637z"/><path d="m408.477 370.789h-15.914c-2.008 0-3.637-1.628-3.637-3.637v-15.914c0-2.008 1.628-3.636 3.637-3.636h15.914c2.008 0 3.636 1.628 3.636 3.636v15.914c0 2.009-1.628 3.637-3.636 3.637z"/><path d="m119.437 406.62h-15.914c-2.008 0-3.636-1.628-3.636-3.636v-15.914c0-2.008 1.628-3.637 3.636-3.637h15.914c2.008 0 3.636 1.628 3.636 3.637v15.914c0 2.008-1.628 3.636-3.636 3.636z"/><path d="m155.567 406.62h-15.914c-2.008 0-3.636-1.628-3.636-3.636v-15.914c0-2.008 1.628-3.637 3.636-3.637h15.914c2.008 0 3.637 1.628 3.637 3.637v15.914c-.001 2.008-1.629 3.636-3.637 3.636z"/><path d="m191.697 406.62h-15.914c-2.008 0-3.636-1.628-3.636-3.636v-15.914c0-2.008 1.628-3.637 3.636-3.637h15.914c2.008 0 3.636 1.628 3.636 3.637v15.914c0 2.008-1.628 3.636-3.636 3.636z"/><path d="m227.827 406.62h-15.914c-2.008 0-3.636-1.628-3.636-3.636v-15.914c0-2.008 1.628-3.637 3.636-3.637h15.914c2.008 0 3.636 1.628 3.636 3.637v15.914c0 2.008-1.628 3.636-3.636 3.636z"/><path d="m263.957 406.62h-15.914c-2.008 0-3.636-1.628-3.636-3.636v-15.914c0-2.008 1.628-3.637 3.636-3.637h15.914c2.008 0 3.637 1.628 3.637 3.637v15.914c-.001 2.008-1.629 3.636-3.637 3.636z"/><path d="m300.087 406.62h-15.914c-2.008 0-3.637-1.628-3.637-3.636v-15.914c0-2.008 1.628-3.637 3.637-3.637h15.914c2.008 0 3.637 1.628 3.637 3.637v15.914c-.001 2.008-1.629 3.636-3.637 3.636z"/><path d="m336.217 406.62h-15.914c-2.008 0-3.637-1.628-3.637-3.636v-15.914c0-2.008 1.628-3.637 3.637-3.637h15.914c2.008 0 3.637 1.628 3.637 3.637v15.914c-.001 2.008-1.629 3.636-3.637 3.636z"/><path d="m372.347 406.62h-15.914c-2.008 0-3.637-1.628-3.637-3.636v-15.914c0-2.008 1.628-3.637 3.637-3.637h15.914c2.008 0 3.636 1.628 3.636 3.637v15.914c0 2.008-1.628 3.636-3.636 3.636z"/><path d="m119.437 442.451h-15.914c-2.008 0-3.636-1.628-3.636-3.637v-15.914c0-2.008 1.628-3.637 3.636-3.637h15.914c2.008 0 3.636 1.628 3.636 3.637v15.914c0 2.009-1.628 3.637-3.636 3.637z"/><path d="m155.567 442.451h-15.914c-2.008 0-3.636-1.628-3.636-3.637v-15.914c0-2.008 1.628-3.637 3.636-3.637h15.914c2.008 0 3.637 1.628 3.637 3.637v15.914c-.001 2.009-1.629 3.637-3.637 3.637z"/><path d="m191.697 442.451h-15.914c-2.008 0-3.636-1.628-3.636-3.637v-15.914c0-2.008 1.628-3.637 3.636-3.637h15.914c2.008 0 3.636 1.628 3.636 3.637v15.914c0 2.009-1.628 3.637-3.636 3.637z"/><path d="m300.087 419.264h-88.174c-2.008 0-3.636 1.628-3.636 3.636v15.914c0 2.008 1.628 3.637 3.636 3.637h88.174c2.008 0 3.637-1.628 3.637-3.637v-15.914c-.001-2.008-1.629-3.636-3.637-3.636z"/><path d="m336.217 442.451h-15.914c-2.008 0-3.637-1.628-3.637-3.637v-15.914c0-2.008 1.628-3.637 3.637-3.637h15.914c2.008 0 3.637 1.628 3.637 3.637v15.914c-.001 2.009-1.629 3.637-3.637 3.637z"/><path d="m372.347 442.451h-15.914c-2.008 0-3.637-1.628-3.637-3.637v-15.914c0-2.008 1.628-3.637 3.637-3.637h15.914c2.008 0 3.636 1.628 3.636 3.637v15.914c0 2.009-1.628 3.637-3.636 3.637z"/><path d="m408.477 383.433h-15.914c-2.008 0-3.636 1.628-3.636 3.637v51.745c0 2.008 1.628 3.637 3.636 3.637h15.914c2.008 0 3.636-1.628 3.636-3.637v-51.745c0-2.009-1.628-3.637-3.636-3.637z"/></g><path d="m156.644 315.848h198.711v19.684h-198.711z" fill="#ffc599"/><path d="m265 184.347v24.74c0 2.77-2.24 5-5 5h-8c-2.76 0-5-2.23-5-5v-24.74z" fill="#ffab66"/><path d="m247 184.347h18v16.03h-18z" fill="#ff8b00"/><path d="m269.006 190.873h-26.012c-2.761 0-5-2.239-5-5v-43.167c0-2.761 2.239-5 5-5h26.012c2.761 0 5 2.239 5 5v43.167c0 2.761-2.239 5-5 5z" fill="#ff4d4d"/><path d="m466.351 108.821h-8.646c-2.762 0-5 2.238-5 5s2.238 5 5 5h8.646c2.762 0 5-2.238 5-5s-2.239-5-5-5z" fill="#00c"/><path d="m452.875 99.58c1.016 0 2.04-.308 2.926-.948l8.646-6.252c2.237-1.618 2.74-4.744 1.122-6.981-1.618-2.239-4.743-2.74-6.981-1.122l-8.646 6.252c-2.237 1.618-2.74 4.744-1.122 6.981.977 1.352 2.505 2.07 4.055 2.07z" fill="#00c"/><path d="m464.447 135.263-8.646-6.252c-2.236-1.617-5.363-1.115-6.981 1.122s-1.115 5.363 1.122 6.981l8.646 6.252c.886.641 1.91.948 2.926.948 1.55 0 3.078-.719 4.056-2.07 1.618-2.237 1.115-5.363-1.123-6.981z" fill="#00c"/><path d="m54.295 118.821c2.761 0 5-2.238 5-5s-2.239-5-5-5h-8.646c-2.761 0-5 2.238-5 5s2.239 5 5 5z" fill="#00c"/><path d="m62.059 90.528-8.646-6.252c-2.239-1.619-5.364-1.114-6.981 1.122-1.618 2.237-1.116 5.363 1.122 6.981l8.646 6.252c.886.641 1.91.948 2.925.948 1.55 0 3.079-.719 4.056-2.07 1.618-2.237 1.115-5.363-1.122-6.981z" fill="#00c"/><path d="m56.199 129.011-8.646 6.252c-2.238 1.618-2.74 4.744-1.122 6.981.978 1.353 2.506 2.07 4.056 2.07 1.015 0 2.04-.308 2.925-.948l8.646-6.252c2.238-1.618 2.74-4.744 1.122-6.981-1.617-2.238-4.742-2.741-6.981-1.122z" fill="#00c"/><path d="m418.27 310.849h-211.6c-2.761 0-5 2.238-5 5s2.239 5 5 5h211.6c6.203 0 11.25 5.047 11.25 11.25v125.86c0 6.203-5.047 11.25-11.25 11.25h-324.54c-6.203 0-11.25-5.047-11.25-11.25v-125.86c0-6.203 5.047-11.25 11.25-11.25h78.77c2.761 0 5-2.238 5-5v-18.459c0-5.176-3.954-9.446-9-9.949v-.48c0-5.785 4.706-10.491 10.491-10.491h154.019c11.299 0 20.49-9.192 20.49-20.491 0-11.298-9.191-20.489-20.49-20.489h-61.52c-5.784 0-10.49-4.706-10.49-10.49v-5.959c5.046-.503 9-4.773 9-9.949v-13.268c5.049-.501 9.006-4.771 9.006-9.95v-15.154h1.188c6.919 0 12.742-4.715 14.467-11.095l90.846 29.395v4.385c0 5.514 4.486 10 10 10h26.591c5.514 0 10-4.486 10-10v-127.607c0-2.762-2.238-5-5-5s-5 2.238-5 5v127.606h-26.591v-161.611h26.591v.004c0 2.762 2.238 4.998 5 4.998s5-2.24 5-5.002c0-5.514-4.486-10-10-10h-26.591c-5.514 0-10 4.486-10 10v4.385l-90.847 29.395c-1.725-6.381-7.548-11.095-14.467-11.095h-9.845v-29.41c0-2.762-2.238-5-5-5s-5 2.238-5 5v29.41h-8.697v-15.899c0-2.762-2.239-5-5-5s-5 2.238-5 5v15.898h-9.844c-6.919 0-12.742 4.715-14.467 11.095l-90.847-29.395v-4.385c0-5.514-4.486-10-10-10h-26.59c-5.514 0-10 4.486-10 10v161.611c0 5.514 4.486 10 10 10h26.591c5.514 0 10-4.486 10-10v-4.385l90.847-29.395c1.725 6.381 7.548 11.095 14.467 11.095h1.187v15.153c0 5.178 3.957 9.449 9.006 9.95v13.268c0 5.176 3.954 9.446 9 9.949v5.959c0 11.299 9.191 20.49 20.49 20.49h61.52c5.784 0 10.49 4.706 10.49 10.49s-4.706 10.49-10.49 10.49h-154.02c-11.299 0-20.491 9.192-20.491 20.491v.48c-5.046.503-9 4.773-9 9.949v13.459h-55.77c-11.717 0-21.25 9.532-21.25 21.25v125.86c0 11.717 9.533 21.25 21.25 21.25h324.54c11.718 0 21.25-9.533 21.25-21.25v-125.86c0-11.714-9.533-21.247-21.25-21.247zm-328.367-117.445v-161.611h26.591l.006 161.611zm36.591-146.716 90.313 29.222v73.376l-90.313 29.222zm125.506 149.185h8.003l.004 13.218h-8.007zm-9.006-10v-43.167h26.012l.007 43.167zm142.512-7.364-90.313-29.222v-73.376l90.313-29.222zm-152.512-35.803v18.014h-1.187c-2.757 0-5-2.243-5-5v-86.243c0-2.757 2.243-5 5-5h48.386c2.757 0 5 2.243 5 5v86.242c0 2.757-2.243 5-5 5h-1.188v-18.014c0-5.514-4.486-10-10-10h-26.012c-5.513.001-9.999 4.487-9.999 10.001zm-73.5 154.685h8.006v13.459h-8.003z" fill="#00c"/><circle cx="271.006" cy="81.572" fill="#ff9d33" r="5.59"/><circle cx="271.006" cy="98.483" fill="#ff9d33" r="5.59"/><path d="m276.596 115.393c0 3.087-2.503 5.59-5.59 5.59s-5.59-2.503-5.59-5.59 2.503-5.59 5.59-5.59 5.59 2.503 5.59 5.59" fill="#ff9d33"/><path d="m396.674 265.972c-1.279 0-2.56-.488-3.535-1.465-1.953-1.952-1.953-5.118 0-7.07l10-10c1.951-1.953 5.119-1.953 7.07 0 1.953 1.952 1.953 5.118 0 7.07l-10 10c-.976.976-2.256 1.465-3.535 1.465z" fill="#6c6cff"/><path d="m196.91 36.793c-1.28 0-2.559-.488-3.536-1.465-1.953-1.952-1.953-5.118 0-7.07l10-10c1.953-1.953 5.118-1.953 7.071 0 1.953 1.952 1.953 5.118 0 7.07l-10 10c-.976.977-2.255 1.465-3.535 1.465z" fill="#ff6c6c"/><path d="m77.752 281.282c-1.28 0-2.559-.488-3.536-1.465l-6.464-6.464-6.464 6.464c-1.953 1.953-5.118 1.953-7.071 0-1.953-1.952-1.953-5.118 0-7.07l10-10c1.953-1.953 5.118-1.953 7.071 0l10 10c1.953 1.952 1.953 5.118 0 7.07-.977.977-2.256 1.465-3.536 1.465z" fill="#ff6c6c"/><path d="m185.147 224.641c-1.28 0-2.559-.488-3.536-1.465l-6.464-6.464-6.464 6.464c-1.953 1.953-5.118 1.953-7.071 0-1.953-1.952-1.953-5.118 0-7.07l10-10c1.953-1.953 5.118-1.953 7.071 0l10 10c1.953 1.952 1.953 5.118 0 7.07-.977.977-2.256 1.465-3.536 1.465z" fill="#ff9d33"/><path d="m461.735 298.139c-1.279 0-2.56-.488-3.535-1.465l-6.465-6.464-6.465 6.464c-1.951 1.953-5.119 1.953-7.07 0-1.953-1.952-1.953-5.118 0-7.07l10-10c1.951-1.953 5.119-1.953 7.07 0l10 10c1.953 1.952 1.953 5.118 0 7.07-.975.976-2.255 1.465-3.535 1.465z" fill="#ff9d33"/></svg>