<svg id="Capa_1" enable-background="new 0 0 512 512" height="512" viewBox="0 0 512 512" width="512" xmlns="http://www.w3.org/2000/svg" xmlns:xlink="http://www.w3.org/1999/xlink"><linearGradient id="SVGID_1_" gradientUnits="userSpaceOnUse" x1="518.347" x2="-75.623" y1="21.866" y2="591.838"><stop offset=".007" stop-color="#9494ff"/><stop offset=".992" stop-color="#ffe8dc" stop-opacity="0"/></linearGradient><path d="m512 256c0-27.631-12.504-53.535-34.347-75.837-15.199-15.518-27.854-33.295-37.513-52.751-30.889-62.217-83.554-103.196-143.336-103.196-42.483 0-81.369 20.698-111.403 55.003-19.88 22.707-44.981 40.125-72.987 51.371-67.839 27.242-112.414 73.243-112.414 125.41s44.575 98.168 112.414 125.41c28.006 11.246 53.107 28.664 72.988 51.371 30.034 34.305 68.92 55.003 111.403 55.003 59.782 0 112.447-40.979 143.336-103.196 9.659-19.456 22.314-37.233 37.513-52.751 21.842-22.302 34.346-48.206 34.346-75.837z" fill="url(#SVGID_1_)"/><path d="m448.76 56.961h-331.904c-10.52 0-19.048 8.528-19.048 19.048v152.647h-48.612c-2.761 0-5 2.239-5 5v236.048c0 2.761 2.239 5 5 5l362.579-.003c2.76 0 5-2.24 5-5v-24.74h31.985c10.52 0 19.048-8.528 19.048-19.048v-349.905c0-10.519-8.528-19.047-19.048-19.047z" fill="#00c" opacity=".1"/><path d="m448.76 444.961h-331.904c-10.52 0-19.048-8.528-19.048-19.048v-349.905c0-10.52 8.528-19.048 19.048-19.048h331.904c10.52 0 19.048 8.528 19.048 19.048v349.905c0 10.52-8.528 19.048-19.048 19.048z" fill="#00c" opacity=".1"/><path d="m448.76 423.961h-331.904c-10.52 0-19.048-8.528-19.048-19.048v-349.905c0-10.52 8.528-19.048 19.048-19.048h331.904c10.52 0 19.048 8.528 19.048 19.048v349.905c0 10.52-8.528 19.048-19.048 19.048z" fill="#fff"/><path d="m97.808 326.332v78.581c0 10.52 8.528 19.048 19.048 19.048h331.904c10.52 0 19.048-8.528 19.048-19.048v-78.581z" fill="#ffb3b3"/><path d="m467.808 92.151v-37.143c0-10.52-8.528-19.048-19.048-19.048h-331.904c-10.52 0-19.048 8.528-19.048 19.048v37.143z" fill="#b3b3ff"/><path d="m426.308 69.056h-16.52c-2.762 0-5-2.239-5-5s2.238-5 5-5h16.52c2.762 0 5 2.239 5 5s-2.238 5-5 5z" fill="#ff4d4d"/><path d="m387.808 69.056h-16.52c-2.762 0-5-2.239-5-5s2.238-5 5-5h16.52c2.762 0 5 2.239 5 5s-2.238 5-5 5z" fill="#ff9d33"/><path d="m332.308 69.056h-136.52c-2.762 0-5-2.239-5-5s2.238-5 5-5h136.52c2.762 0 5 2.239 5 5s-2.238 5-5 5z" fill="#ebebff"/><path d="m290.242 212.652v236.05c0 2.76-2.24 5-5 5h-236.05c-2.76 0-5-2.24-5-5v-236.05c0-2.76 2.24-5 5-5h236.05c2.76 0 5 2.24 5 5z" fill="#8383ff"/><path d="m272.562 207.652v9.7c0 17.83-17.82 30.17-34.51 23.9l-37.98-14.26c-2.68-1.01-5.11-2.45-7.24-4.21-1.96 6.59-8.05 11.4-15.27 11.4h-20.22c-6.73 0-12.48-4.18-14.81-10.09l-45.68 17.16c-16.69 6.27-34.51-6.07-34.51-23.9v-9.7z" fill="#6c6cff"/><path d="m209.192 202.572v251.13h-83.94v-251.13c0-2.76 2.24-5 5-5h73.94c2.76 0 5 2.24 5 5z" fill="#ff4d4d"/><path d="m209.192 202.572v27.84l-9.12-3.42c-2.68-1.01-5.11-2.45-7.24-4.21-1.96 6.59-8.05 11.4-15.27 11.4h-20.22c-6.73 0-12.48-4.18-14.81-10.09l-17.28 6.49v-28.01c0-2.76 2.24-5 5-5h73.94c2.76 0 5 2.24 5 5z" fill="#ff2c2c"/><path d="m411.774 453.703h-225.34c-2.761 0-5-2.239-5-5v-71.727c0-2.761 2.239-5 5-5h225.34c2.761 0 5 2.239 5 5v71.727c0 2.762-2.239 5-5 5z" fill="#ff9d33"/><path d="m416.775 376.981v71.72c0 2.76-2.24 5-5 5h-225.34c-.53 0-1.04-.08-1.52-.23-2.02-.65-3.48-2.54-3.48-4.77v-71.72c0-2.77 2.24-5 5-5h225.34c2.3 0 4.24 1.55 4.82 3.68.12.42.18.86.18 1.32z" fill="#ff9d33"/><g fill="#ff2c2c"><path d="m266.395 371.981-81.48 81.49c-2.02-.65-3.48-2.54-3.48-4.77v-35.87l40.84-40.85z"/><path d="m365.395 371.981-81.72 81.72h-44.11l81.71-81.72z"/><path d="m416.775 376.981v42.62l-34.1 34.1h-44.12l78.04-78.04c.12.42.18.86.18 1.32z"/><path d="m367.795 371.981h-122.559c-2.761 0-5-2.239-5-5v-59.5c0-2.761 2.239-5 5-5h122.559c2.761 0 5 2.239 5 5v59.5c0 2.761-2.239 5-5 5z"/></g><path d="m322.787 371.981h-32.543v-70.855c0-2.761 2.239-5 5-5h22.543c2.761 0 5 2.239 5 5z" fill="#fff"/><path d="m151.385 206.31-54.531 20.485c-16.696 6.272-34.516-6.069-34.516-23.905v-50.941c0-17.835 17.819-30.177 34.516-23.905l54.531 20.485z" fill="#ff2c2c"/><path d="m200.074 212.53 37.975 14.265c16.696 6.272 34.516-6.069 34.516-23.905v-50.941c0-17.835-17.819-30.177-34.516-23.905l-37.975 14.265c-9.96 3.741-16.556 13.266-16.556 23.905v22.41c0 10.64 6.596 20.164 16.556 23.906z" fill="#ff2c2c"/><path d="m177.561 219.728h-20.218c-8.797 0-15.929-7.132-15.929-15.929v-52.759c0-8.797 7.132-15.929 15.929-15.929h20.218c8.797 0 15.929 7.132 15.929 15.929v52.759c0 8.797-7.132 15.929-15.929 15.929z" fill="#ff4d4d"/><path d="m448.761 30.961h-331.906c-13.26 0-24.048 10.787-24.048 24.047v66.817c-7.735-1.266-15.751.474-22.319 5.021-8.233 5.703-13.149 15.088-13.149 25.104v50.706h-8.143c-5.514 0-10 4.486-10 10v236.048c0 5.514 4.486 10 10 10h362.578c3.791 0 7.097-2.121 8.792-5.239.771-1.417 1.209-3.04 1.209-4.763v-19.74h26.985c13.26 0 24.047-10.788 24.047-24.048v-349.906c.001-13.26-10.786-24.047-24.046-24.047zm-381.422 120.988c0-6.837 3.224-12.99 8.844-16.882 3.521-2.438 7.539-3.685 11.625-3.685 2.437 0 4.897.443 7.288 1.342l41.516 15.596c-.117.892-.198 1.796-.198 2.72v11.586l-21.704-4.558c-2.7-.565-5.354 1.163-5.921 3.866-.567 2.702 1.163 5.353 3.866 5.921l23.759 4.99v9.15l-23.759 4.99c-2.703.568-4.434 3.219-3.866 5.921.495 2.356 2.573 3.974 4.889 3.974.34 0 .687-.035 1.032-.107l21.704-4.558v11.586c0 .924.081 1.828.198 2.72l-41.516 15.595c-6.399 2.404-13.293 1.551-18.913-2.342s-8.844-10.045-8.844-16.882zm208.608 60.706h9.297l.002 84.825h-40.01c-5.514 0-10 4.486-10 10v59.496h-21.049v-143.804l22.103 8.303c3.48 1.308 7.116 1.95 10.735 1.95 6.131 0 12.211-1.846 17.389-5.432 5.467-3.785 9.459-9.199 11.533-15.338zm51.84 94.825h40.008l.007 59.496h-40.015zm-141.351 69.5 225.339-.004.001 71.725h-225.34zm98.808-10.003h-40.008v-59.497h40.008zm32.543 0h-22.543v-53.477-12.375h22.543zm-50.223-164.086c0 6.837-3.224 12.989-8.844 16.882-5.62 3.895-12.515 4.747-18.913 2.342l-37.975-14.266c-.001 0-.001 0-.001 0-1.228-.461-2.389-1.04-3.481-1.712.086-.768.139-1.546.139-2.337v-11.586l21.703 4.558c.346.072.691.107 1.032.107 2.315 0 4.394-1.617 4.889-3.974.567-2.702-1.163-5.353-3.866-5.921l-23.758-4.99v-9.15l23.758-4.99c2.703-.568 4.434-3.219 3.866-5.921s-3.221-4.429-5.921-3.866l-21.703 4.558v-11.585c0-.791-.053-1.569-.139-2.337 1.092-.673 2.254-1.252 3.482-1.713l37.974-14.266c2.393-.898 4.852-1.342 7.289-1.342 4.085 0 8.105 1.246 11.625 3.685 5.62 3.892 8.844 10.045 8.844 16.882zm-79.074.908c0 6.026-4.903 10.929-10.93 10.929h-20.218c-6.026 0-10.929-4.902-10.929-10.929v-52.759c0-6.026 4.902-10.929 10.929-10.929h20.218c6.026 0 10.93 4.902 10.93 10.929zm-58.238 244.904v-198.825c0-2.762-2.238-5-5-5s-5 2.238-5 5v198.825h-71.056v-236.048h9.76c2.074 6.139 6.066 11.553 11.533 15.339 5.179 3.586 11.258 5.432 17.389 5.432 3.618 0 7.256-.644 10.734-1.95l41.637-15.641c3.793 5.37 10.034 8.893 17.093 8.893h20.218c7.158 0 13.484-3.616 17.259-9.113 1.123.6 2.285 1.141 3.496 1.596l5.872 2.206v147.561h-17.753c-5.514 0-10 4.486-10 10v71.727h-46.182zm332.556-43.79c0 7.746-6.302 14.048-14.047 14.048h-26.985v-41.98c0-.016-.003-.031-.003-.048-.002-.394-.032-.781-.078-1.163-.016-.133-.038-.259-.059-.388-.048-.297-.109-.588-.182-.875-.014-.051-.018-.108-.033-.158-.012-.045-.029-.087-.042-.131-.046-.159-.096-.315-.15-.471-.046-.135-.096-.269-.147-.402-.056-.143-.113-.285-.175-.425-.065-.147-.136-.289-.208-.432-.061-.122-.12-.244-.186-.363-.1-.18-.209-.353-.319-.525-.05-.077-.094-.158-.146-.234-.161-.236-.332-.463-.511-.683-.081-.1-.169-.194-.255-.291-.108-.123-.216-.245-.329-.362-.104-.108-.213-.21-.322-.313-.101-.095-.203-.189-.308-.28-.124-.108-.249-.212-.378-.313-.093-.073-.188-.142-.283-.212-.146-.107-.292-.213-.443-.311-.064-.042-.132-.08-.197-.12-.577-.357-1.191-.656-1.838-.892-.075-.028-.15-.057-.226-.083-.184-.062-.37-.116-.558-.167-.102-.028-.205-.055-.308-.079-.179-.043-.359-.082-.541-.115-.121-.022-.244-.039-.367-.056-.174-.025-.347-.051-.524-.066-.146-.013-.294-.016-.441-.022-.148-.007-.293-.022-.442-.022h-33.979v-59.499c0-5.514-4.486-10-10-10h-40.705c-1.461-3.715-5.076-6.355-9.302-6.355h-22.543v-78.47c0-5.514-4.486-10-10-10h-7.68v-50.706c0-10.016-4.916-19.4-13.149-25.104-8.232-5.702-18.745-7.003-28.125-3.482l-37.974 14.266c-1.212.455-2.374.996-3.497 1.596-3.776-5.497-10.101-9.114-17.259-9.114h-20.218c-7.059 0-13.301 3.523-17.094 8.893l-37.442-14.065v-27.788h331c2.762 0 5-2.238 5-5s-2.238-5-5-5h-331v-32.143c0-7.745 6.302-14.047 14.048-14.047h331.905c7.745 0 14.047 6.302 14.047 14.047v349.905z" fill="#00c"/><path d="m343.811 266.832h-12.5c-2.762 0-5-2.239-5-5s2.238-5 5-5h12.5c2.762 0 5 2.239 5 5s-2.239 5-5 5z" fill="#d9d9ff"/><path d="m436.811 266.832h-72.5c-2.762 0-5-2.239-5-5s2.238-5 5-5h72.5c2.762 0 5 2.239 5 5s-2.239 5-5 5z" fill="#d9d9ff"/><path d="m373.811 249.605h-42.5c-2.762 0-5-2.239-5-5s2.238-5 5-5h42.5c2.762 0 5 2.239 5 5s-2.239 5-5 5z" fill="#d9d9ff"/><path d="m343.811 224.832h-12.5c-2.762 0-5-2.239-5-5s2.238-5 5-5h12.5c2.762 0 5 2.239 5 5s-2.239 5-5 5z" fill="#ff8b00"/><path d="m320.553 164.547c0 7.64 6.193 13.833 13.833 13.833h49.667c7.64 0 13.833-6.193 13.833-13.833 0-7.64-6.193-13.833-13.833-13.833h-49.667c-7.64-.001-13.833 6.193-13.833 13.833z" fill="#6c6cff"/><path d="m52.08 121.982c-1.279 0-2.56-.488-3.535-1.465l-6.465-6.464-6.465 6.464c-1.951 1.953-5.119 1.953-7.07 0-1.953-1.952-1.953-5.118 0-7.07l10-10c1.951-1.953 5.119-1.953 7.07 0l10 10c1.953 1.952 1.953 5.118 0 7.07-.975.977-2.256 1.465-3.535 1.465z" fill="#ff9d33"/><path d="m451.811 481.039c-1.279 0-2.56-.488-3.535-1.465l-6.465-6.464-6.465 6.464c-1.951 1.953-5.119 1.953-7.07 0-1.953-1.952-1.953-5.118 0-7.07l10-10c1.951-1.953 5.119-1.953 7.07 0l10 10c1.953 1.952 1.953 5.118 0 7.07-.976.977-2.256 1.465-3.535 1.465z" fill="#ff9d33"/><path d="m59.382 81.362c-1.279 0-2.56-.488-3.535-1.465-1.953-1.952-1.953-5.118 0-7.07l10-10c1.951-1.953 5.119-1.953 7.07 0 1.953 1.952 1.953 5.118 0 7.07l-10 10c-.976.977-2.256 1.465-3.535 1.465z" fill="#6c6cff"/><path d="m487.155 354.435c-1.279 0-2.56-.488-3.535-1.465-1.953-1.952-1.953-5.118 0-7.07l10-10c1.951-1.953 5.119-1.953 7.07 0 1.953 1.952 1.953 5.118 0 7.07l-10 10c-.975.976-2.255 1.465-3.535 1.465z" fill="#6c6cff"/><path d="m14.845 359.854c-1.279 0-2.56-.488-3.535-1.465-1.953-1.952-1.953-5.118 0-7.07l10-10c1.951-1.953 5.119-1.953 7.07 0 1.953 1.952 1.953 5.118 0 7.07l-10 10c-.976.977-2.256 1.465-3.535 1.465z" fill="#ff6c6c"/></svg>