<svg id="Capa_1" enable-background="new 0 0 512 512" height="512" viewBox="0 0 512 512" width="512" xmlns="http://www.w3.org/2000/svg" xmlns:xlink="http://www.w3.org/1999/xlink"><linearGradient id="SVGID_1_" gradientUnits="userSpaceOnUse" x1="433.516" x2="93.516" y1="-275.503" y2="742.497"><stop offset=".007" stop-color="#9494ff"/><stop offset=".992" stop-color="#ffe8dc" stop-opacity="0"/></linearGradient><path d="m512 256c0-27.631-12.504-53.535-34.347-75.837-15.199-15.518-27.854-33.295-37.513-52.751-30.889-62.217-83.554-103.196-143.336-103.196-42.483 0-81.369 20.698-111.403 55.003-19.88 22.707-44.981 40.125-72.987 51.371-67.839 27.242-112.414 73.243-112.414 125.41s44.575 98.168 112.414 125.41c28.006 11.246 53.107 28.664 72.988 51.371 30.034 34.305 68.92 55.003 111.403 55.003 59.782 0 112.447-40.979 143.336-103.196 9.659-19.456 22.314-37.233 37.513-52.751 21.842-22.302 34.346-48.206 34.346-75.837z" fill="url(#SVGID_1_)"/><path d="m351.887 476.5h-191.774c-12.208 0-22.105-9.897-22.105-22.105v-375.79c0-12.208 9.897-22.105 22.105-22.105h191.775c12.208 0 22.105 9.897 22.105 22.105v375.789c0 12.209-9.897 22.106-22.106 22.106z" fill="#00c" opacity=".1"/><path d="m386.443 145.09h-21.522v-66.913h21.522c3.803 0 6.885 3.083 6.885 6.885v53.143c0 3.803-3.082 6.885-6.885 6.885z" fill="#6c6cff"/><path d="m122.407 213.943h24.672v-135.766h-24.672c-3.803 0-3.735 3.083-3.735 6.885v121.995c0 3.803-.067 6.886 3.735 6.886z" fill="#6c6cff"/><path d="m351.887 455.5h-191.774c-12.208 0-22.105-9.897-22.105-22.105v-375.79c0-12.208 9.897-22.105 22.105-22.105h191.775c12.208 0 22.105 9.897 22.105 22.105v375.789c0 12.209-9.897 22.106-22.106 22.106z" fill="#ff9d33"/><path d="m138.011 87.622h235.977v315.756h-235.977z" fill="#fff"/><path d="m373.988 87.622v120.046c-10.752-.357-20.58-4.378-28.298-10.826-8.106 6.773-18.532 10.857-29.893 10.857s-21.788-4.085-29.904-10.857c-8.106 6.773-18.532 10.858-29.893 10.858s-21.787-4.085-29.893-10.857c-8.117 6.773-18.543 10.857-29.904 10.857s-21.788-4.085-29.893-10.857c-7.718 6.447-17.546 10.469-28.298 10.826v-120.047z" fill="#ebebff"/><path d="" style="fill:none;stroke:#00c;stroke-width:10;stroke-linecap:round;stroke-linejoin:round;stroke-miterlimit:10"/><path d="m166.304 137.267h-59.797l31.5-49.64h47.197z" fill="#ffc599"/><path d="m226.101 137.267h-59.797l18.9-49.64h47.197z" fill="#ff4d4d"/><path d="m285.899 137.267h-59.798l6.3-49.64h47.198z" fill="#ffc599"/><path d="m345.696 137.267h-59.797l-6.3-49.64h47.197z" fill="#ff4d4d"/><path d="m405.493 137.267h-59.797l-18.9-49.64h47.197z" fill="#ffc599"/><path d="m136.406 190.9c-16.513 0-29.899-13.386-29.899-29.899v-23.735h59.797v23.735c0 16.513-13.386 29.899-29.898 29.899z" fill="#ffd6bb"/><path d="m196.203 190.9c-16.513 0-29.899-13.386-29.899-29.899v-23.735h59.797v23.735c0 16.513-13.386 29.899-29.898 29.899z" fill="#ff6c6c"/><path d="m256 190.9c-16.513 0-29.899-13.386-29.899-29.899v-23.735h59.797v23.735c.001 16.513-13.385 29.899-29.898 29.899z" fill="#ffd6bb"/><path d="m315.797 190.9c-16.513 0-29.899-13.386-29.899-29.899v-23.735h59.797v23.735c.001 16.513-13.385 29.899-29.898 29.899z" fill="#ff6c6c"/><path d="m375.594 190.9c-16.513 0-29.899-13.386-29.899-29.899v-23.735h59.797v23.735c.001 16.513-13.385 29.899-29.898 29.899z" fill="#ffd6bb"/><path d="m209.564 257.379h-26.351c-4.813 0-8.729-3.916-8.729-8.729v-26.351c0-4.813 3.916-8.729 8.729-8.729h26.351c4.813 0 8.729 3.916 8.729 8.729v26.351c0 4.813-3.916 8.729-8.729 8.729z" fill="#4d4dff"/><path d="m269.175 257.379h-26.351c-4.813 0-8.729-3.916-8.729-8.729v-26.351c0-4.813 3.916-8.729 8.729-8.729h26.351c4.813 0 8.729 3.916 8.729 8.729v26.351c0 4.813-3.916 8.729-8.729 8.729z" fill="#ff2c2c"/><path d="m209.564 314.42h-26.351c-4.813 0-8.729-3.916-8.729-8.729v-26.351c0-4.813 3.916-8.729 8.729-8.729h26.351c4.813 0 8.729 3.916 8.729 8.729v26.351c0 4.813-3.916 8.729-8.729 8.729zm-25.08-10h23.809v-23.809h-23.809z" fill="#ff4d4d"/><path d="m328.787 257.379h-26.351c-4.813 0-8.729-3.916-8.729-8.729v-26.351c0-4.813 3.916-8.729 8.729-8.729h26.351c4.813 0 8.729 3.916 8.729 8.729v26.351c0 4.813-3.916 8.729-8.729 8.729zm-25.08-10h23.809v-23.809h-23.809z" fill="#ff9d33"/><path d="m269.175 314.42h-26.351c-4.813 0-8.729-3.916-8.729-8.729v-26.351c0-4.813 3.916-8.729 8.729-8.729h26.351c4.813 0 8.729 3.916 8.729 8.729v26.351c0 4.813-3.916 8.729-8.729 8.729zm-25.079-10h23.809v-23.809h-23.809z" fill="#6c6cff"/><path d="m328.787 314.42h-26.351c-4.813 0-8.729-3.916-8.729-8.729v-26.351c0-4.813 3.916-8.729 8.729-8.729h26.351c4.813 0 8.729 3.916 8.729 8.729v26.351c0 4.813-3.916 8.729-8.729 8.729zm-25.08-10h23.809v-23.809h-23.809z" fill="#ff6c6c"/><path d="m209.564 371.461h-26.351c-4.813 0-8.729-3.916-8.729-8.729v-26.351c0-4.813 3.916-8.729 8.729-8.729h26.351c4.813 0 8.729 3.916 8.729 8.729v26.351c0 4.813-3.916 8.729-8.729 8.729zm-25.08-10h23.809v-23.809h-23.809z" fill="#ff8b00"/><path d="m410.459 136.93c-.054-.812-.306-1.65-.744-2.342l-11.387-17.944v-31.582c0-6.554-5.331-11.885-11.885-11.885h-7.451v-15.572c0-14.946-12.159-27.105-27.104-27.105h-191.776c-14.945 0-27.104 12.16-27.104 27.105v15.571h-10.601c-3.777 0-6.669 1.877-7.934 5.151-.803 2.079-.803 4.347-.802 6.54v31.775l-11.387 17.944c-.489.772-.778 1.767-.778 2.679v23.735c0 10.564 4.725 20.04 12.165 26.445v19.805c-.001 2.193-.001 4.461.802 6.54 1.265 3.273 4.156 5.151 7.934 5.151h10.601v150.435c0 2.761 2.238 5 5 5s5-2.239 5-5v-174.111c9.868-1.898 18.272-7.959 23.297-16.285 6.115 10.13 17.228 16.919 29.898 16.919s23.784-6.789 29.898-16.919c6.115 10.13 17.228 16.919 29.898 16.919s23.784-6.789 29.898-16.919c6.115 10.13 17.228 16.919 29.898 16.919s23.784-6.789 29.898-16.919c5.025 8.326 13.429 14.387 23.297 16.285v203.108h-230.983c-2.762 0-5 2.239-5 5 0 .003.001.006.001.01v30.012c0 14.946 12.159 27.105 27.104 27.105h191.775c14.945 0 27.104-12.16 27.104-27.105l.001-237.663c17.654-1.715 31.5-16.634 31.5-34.73v-23.735c.001-.116-.025-.224-.033-.337zm-61.317-4.663-15.092-39.64h37.194l25.154 39.64zm37.301-49.09c1.039 0 1.885.846 1.885 1.885v15.823l-9.445-14.885h.11v-2.823zm-226.331-42.677h191.775c9.432 0 17.104 7.673 17.104 17.105v25.021h-225.983v-25.021c0-9.432 7.673-17.105 17.104-17.105zm-44.51 91.767 25.154-39.64h37.194l-15.092 39.64zm73.049-39.64h38.076l-5.031 39.64h-48.138zm48.156 0h38.387l5.031 39.64h-48.448zm-113.135-7.762c0-.5 0-1.128.018-1.688h9.318v2.996l-9.336 14.712zm.017 124.077c-.018-.56-.018-1.188-.018-1.688v-13.771c2.941 1.157 6.071 1.931 9.336 2.248v13.21h-9.318zm37.616-66.675v18.735c0 13.729-11.169 24.898-24.898 24.898s-24.899-11.169-24.899-24.898v-18.735zm34.898 43.633c-13.729 0-24.898-11.169-24.898-24.898v-18.735h49.797v18.735c0 13.728-11.169 24.898-24.899 24.898zm59.797 0c-13.729 0-24.898-11.169-24.898-24.898v-18.735h49.797v18.735c-.001 13.728-11.17 24.898-24.899 24.898zm59.797 0c-13.729 0-24.898-11.169-24.898-24.898v-18.735h20.797c2.762 0 5-2.239 5-5s-2.238-5-5-5h-21.392l-5.031-39.64h38.076l17.346 45.56v22.815c0 13.728-11.169 24.898-24.898 24.898zm36.091 264.6h-191.776c-9.432 0-17.104-7.673-17.104-17.105v-25.021h225.984v25.021c0 9.432-7.673 17.105-17.104 17.105zm48.605-289.499c0 13.729-11.17 24.898-24.899 24.898s-24.898-11.169-24.898-24.898v-18.735h49.798v18.735z" fill="#00c"/><path d="m269.175 371.461c4.813 0 8.729-3.916 8.729-8.729v-26.351c0-4.813-3.916-8.729-8.729-8.729h-26.351c-4.813 0-8.729 3.916-8.729 8.729v26.351c0 4.813 3.916 8.729 8.729 8.729zm-25.079-33.809h23.809v23.809h-23.809z" fill="#00c"/><path d="m328.787 371.461h-26.351c-4.813 0-8.729-3.916-8.729-8.729v-26.351c0-4.813 3.916-8.729 8.729-8.729h26.351c4.813 0 8.729 3.916 8.729 8.729v26.351c0 4.813-3.916 8.729-8.729 8.729z" fill="#4d4dff"/><g fill="#ff4d4d"><path d="m276.26 66.5h-40.52c-2.762 0-5-2.239-5-5s2.238-5 5-5h40.52c2.762 0 5 2.239 5 5s-2.239 5-5 5z"/><path d="m235.667 422.5v12.667c0 2.761 2.239 5 5 5h30.667c2.761 0 5-2.239 5-5v-12.667c0-2.761-2.239-5-5-5h-30.667c-2.762 0-5 2.238-5 5z"/><path d="m335.01 433.833h-16.52c-2.762 0-5-2.239-5-5s2.238-5 5-5h16.52c2.762 0 5 2.239 5 5s-2.239 5-5 5z"/><path d="m193.51 433.833h-16.52c-2.762 0-5-2.239-5-5s2.238-5 5-5h16.52c2.762 0 5 2.239 5 5s-2.239 5-5 5z"/></g><path d="m444.247 255.597c-1.279 0-2.56-.488-3.535-1.464l-6.465-6.464-6.465 6.464c-1.951 1.952-5.119 1.952-7.07 0-1.953-1.953-1.953-5.119 0-7.071l10-10c1.951-1.952 5.119-1.952 7.07 0l10 10c1.953 1.953 1.953 5.119 0 7.071-.975.975-2.256 1.464-3.535 1.464z" fill="#ff6c6c"/><path d="m87.753 124.263c-1.279 0-2.56-.488-3.535-1.464l-6.465-6.464-6.465 6.464c-1.951 1.952-5.119 1.952-7.07 0-1.953-1.953-1.953-5.119 0-7.071l10-10c1.951-1.952 5.119-1.952 7.07 0l10 10c1.953 1.953 1.953 5.119 0 7.071-.975.976-2.256 1.464-3.535 1.464z" fill="#6c6cff"/><path d="m91.524 275.797c-1.279 0-2.56-.488-3.535-1.464l-6.465-6.464-6.465 6.464c-1.951 1.952-5.119 1.952-7.07 0-1.953-1.953-1.953-5.119 0-7.071l10-10c1.951-1.952 5.119-1.952 7.07 0l10 10c1.953 1.953 1.953 5.119 0 7.071-.975.976-2.255 1.464-3.535 1.464z" fill="#ff9d33"/><path d="m405.247 332.737c-1.279 0-2.56-.488-3.535-1.464-1.953-1.953-1.953-5.119 0-7.071l10-10c1.951-1.952 5.119-1.952 7.07 0 1.953 1.953 1.953 5.119 0 7.071l-10 10c-.975.976-2.256 1.464-3.535 1.464z" fill="#6c6cff"/><path d="m99.524 327.833c-1.279 0-2.56-.488-3.535-1.464-1.953-1.953-1.953-5.119 0-7.071l10-10c1.951-1.952 5.119-1.952 7.07 0 1.953 1.953 1.953 5.119 0 7.071l-10 10c-.975.975-2.255 1.464-3.535 1.464z" fill="#ff6c6c"/></svg>