<svg id="Capa_1" enable-background="new 0 0 512 512" height="512" viewBox="0 0 512 512" width="512" xmlns="http://www.w3.org/2000/svg" xmlns:xlink="http://www.w3.org/1999/xlink"><linearGradient id="SVGID_1_" gradientUnits="userSpaceOnUse" x1="345.025" x2="175.534" y1="577.243" y2="-73.725"><stop offset=".007" stop-color="#9494ff"/><stop offset=".992" stop-color="#ffe8dc" stop-opacity="0"/></linearGradient><path d="m512 189.635c0-77.209-114.615-139.799-256-139.799s-256 62.59-256 139.799c0 12.48 2.999 24.577 8.62 36.089 10.007 20.491 12.502 43.828 7.537 66.086-2.036 9.127-3.179 18.59-3.333 28.294-1.235 77.812 61.961 142.061 139.782 142.06 58.443 0 108.503-35.865 129.385-86.785 11.468-27.964 35.565-48.919 65.155-55.077 96.38-20.057 164.854-70.992 164.854-130.667z" fill="url(#SVGID_1_)"/><path d="m446.896 204.333c-2.762 0-5 2.238-5 5v.667h-25.211c-2.762 0-5 2.238-5 5s2.238 5 5 5h25.211v5.667c0 2.762 2.238 5 5 5s5-2.238 5-5v-16.334c0-2.762-2.238-5-5-5z" fill="#00c" opacity=".1"/><path d="m440.896 280.078h-115.02v-87.578h112.391c2.761 0 5-2.239 5-5v-19c0-2.761-2.239-5-5-5h-112.391v-.651c0-11.046-8.954-20-20-20h-217.564c-11.046 0-20 8.954-20 20v170.538h-7.208c-2.761 0-5 2.239-5 5v19.113c0 2.761 2.239 5 5 5h38.802c4.861 16.002 19.726 27.651 37.317 27.651 21.539 0 39-17.461 39-39h173.172c0 21.539 17.461 39 39 39s39-17.461 39-39h13.5c5.523 0 10-4.477 10-10v-51.073c.001-5.523-4.476-10-9.999-10z" fill="#00c" opacity=".1"/><path d="m436.896 265.5h-124.26v-97.93h95.12l4.39 14.74z" fill="#9494ff"/><path d="m412.146 182.31h-99.51v-14.74h95.12z" fill="#8383ff"/><path d="m425.666 227.77-37.73 37.73h-14.6l48.98-48.98z" fill="#b3b3ff"/><path d="m420.246 209.55-55.96 55.95h-30.13l79.18-79.18z" fill="#b3b3ff"/><path d="m440.896 330.151h-123.26c-2.761 0-5-2.239-5-5v-66.073h128.26c5.523 0 10 4.477 10 10v51.073c0 5.523-4.477 10-10 10z" fill="#ff8b00"/><path d="m450.896 299.614h-14c-2.762 0-5-2.238-5-5s2.238-5 5-5h14c2.762 0 5 2.238 5 5s-2.238 5-5 5z" fill="#ff4d4d"/><path d="m450.896 284h-21.333c-2.762 0-5-2.238-5-5s2.238-5 5-5h21.333c2.762 0 5 2.238 5 5s-2.238 5-5 5z" fill="#ffd6bb"/><path d="m438.267 171.5h-125.631v-29h125.631c2.761 0 5 2.239 5 5v19c0 2.761-2.238 5-5 5z" fill="#ff2c2c"/><path d="m320.876 330.151h-247.564c-2.761 0-5-2.239-5-5v-183.302c0-11.046 8.954-20 20-20h217.564c11.046 0 20 8.954 20 20v183.302c0 2.761-2.238 5-5 5z" fill="#ffab66"/><path d="m80.396 184.743h-12.084c-2.762 0-5-2.238-5-5s2.238-5 5-5h12.084c2.762 0 5 2.238 5 5s-2.238 5-5 5z" fill="#ff4d4d"/><path d="m86.896 165h-18.584c-2.762 0-5-2.238-5-5s2.238-5 5-5h18.584c2.762 0 5 2.238 5 5s-2.238 5-5 5z" fill="#ffd6bb"/><path d="m116.604 341.5h-55.5c-2.761 0-5-2.239-5-5v-19.113c0-2.761 2.239-5 5-5h55.5z" fill="#9494ff"/><circle cx="137.224" cy="330.151" fill="#4d4dff" r="39"/><circle cx="137.224" cy="330.151" fill="#fff" r="17.764"/><circle cx="388.396" cy="330.151" fill="#4d4dff" r="39"/><circle cx="388.396" cy="330.151" fill="#fff" r="17.764"/><path d="m298.896 304.901h-17.5c-2.761 0-5-2.239-5-5v-17.5c0-2.761 2.239-5 5-5h17.5c2.761 0 5 2.239 5 5v17.5c0 2.761-2.239 5-5 5z" fill="#ff2c2c"/><circle cx="201.842" cy="216.398" fill="#ff4d4d" r="64.398"/><circle cx="201.842" cy="216.398" fill="#fff" r="48.59"/><path d="m440.896 254.078h-2.183l-16.389-55.078h19.573v5.667c0 2.762 2.238 5 5 5s5-2.238 5-5v-16.334c0-2.762-2.238-5-5-5s-5 2.238-5 5v.667h-22.549l-3.72-12.5h22.639c5.514 0 10-4.486 10-10v-19c0-5.514-4.486-10-10-10h-107.777c-2.065-11.718-12.312-20.65-24.613-20.65h-217.564c-13.785 0-25 11.215-25 25v137.275c0 2.762 2.238 5 5 5s5-2.238 5-5v-137.275c0-8.271 6.729-15 15-15h217.564c8.271 0 15 6.729 15 15v183.3h-139.946c-2.491-21.915-21.137-39-43.708-39-15.936 0-29.92 8.516-37.641 21.236h-38.478c-5.514 0-10 4.486-10 10v19.114c0 5.514 4.486 10 10 10h35.283c6.504 16.187 22.352 27.65 40.837 27.65 22.57 0 41.216-17.085 43.708-39h163.757c2.491 21.915 21.137 39 43.708 39s41.216-17.085 43.708-39h8.792c8.271 0 15-6.729 15-15v-51.072c-.001-8.271-6.729-15-15.001-15zm-379.792 82.422v-19.113h34.014c-1.228 4.042-1.894 8.326-1.894 12.764 0 2.156.163 4.275.464 6.35h-32.584zm76.12 27.65c-18.748 0-34-15.252-34-34s15.252-34 34-34 34 15.252 34 34-15.252 34-34 34zm301.049-197.65h-107.396v-19h107.391zm-49.877 197.65c-18.748 0-34-15.252-34-34s15.252-34 34-34 34 15.252 34 34-15.251 34-34 34zm57.5-44c0 2.757-2.243 5-5 5h-8.792c-2.491-21.915-21.137-39-43.708-39s-41.216 17.085-43.708 39h-13.812v-148.65h74.319l23.086 77.578h-68.404c-2.762 0-5 2.238-5 5s2.238 5 5 5h81.02c2.757 0 5 2.243 5 5v51.072z" fill="#00c"/><path d="m298.896 309.9c5.514 0 10-4.486 10-10v-17.5c0-5.514-4.486-10-10-10h-17.5c-5.514 0-10 4.486-10 10v17.5c0 5.514 4.486 10 10 10zm-17.5-27.5h17.5l.006 17.5h-17.506z" fill="#00c"/><path d="m201.843 285.796c38.266 0 69.397-31.132 69.397-69.398s-31.132-69.397-69.397-69.397c-38.267 0-69.398 31.132-69.398 69.397-.001 38.266 31.131 69.398 69.398 69.398zm0-128.796c32.752 0 59.397 26.646 59.397 59.397s-26.646 59.398-59.397 59.398-59.398-26.646-59.398-59.398 26.646-59.397 59.398-59.397z" fill="#00c"/><g fill="#ff2c2c"><path d="m188.268 235.491h-16.9c-2.122 0-4.012-1.34-4.716-3.341s-.068-4.229 1.586-5.559c4.678-3.758 11.911-10.61 13.345-14.079.519-1.254.441-2.627-.199-3.586-.48-.718-1.199-1.082-2.137-1.082-1.588 0-2.879 1.292-2.879 2.88 0 2.762-2.238 5-5 5s-5-2.238-5-5c0-7.102 5.777-12.88 12.879-12.88 4.294 0 8.103 2.014 10.449 5.523 2.511 3.754 2.933 8.601 1.129 12.964-1.203 2.91-3.812 6.188-6.618 9.159h4.062c2.762 0 5 2.238 5 5s-2.24 5.001-5.001 5.001z"/><path d="m215.252 220h-13.09c-2.762 0-5-2.238-5-5v-12.073c0-2.762 2.238-5 5-5s5 2.238 5 5v7.073h8.09c2.762 0 5 2.238 5 5s-2.238 5-5 5z"/><path d="m216.743 235.409c-2.762 0-5-2.238-5-5v-27.482c0-2.762 2.238-5 5-5s5 2.238 5 5v27.482c0 2.762-2.238 5-5 5z"/><path d="m232.317 207.927c-2.762 0-5-2.238-5-5v-6.222c0-2.762 2.238-5 5-5s5 2.238 5 5v6.222c0 2.761-2.238 5-5 5z"/></g><path d="m349.396 280.667h-6.167c-2.762 0-5-2.238-5-5s2.238-5 5-5h6.167c2.762 0 5 2.238 5 5s-2.238 5-5 5z" fill="#ffc599"/><path d="m148.252 74.056c-1.279 0-2.56-.488-3.535-1.465-1.953-1.952-1.953-5.118 0-7.07l10-10c1.951-1.953 5.119-1.953 7.07 0 1.953 1.952 1.953 5.118 0 7.07l-10 10c-.975.976-2.256 1.465-3.535 1.465z" fill="#ff6c6c"/><path d="m149.987 424.681c-1.279 0-2.56-.488-3.535-1.465-1.953-1.952-1.953-5.118 0-7.07l10-10c1.951-1.953 5.119-1.953 7.07 0 1.953 1.952 1.953 5.118 0 7.07l-10 10c-.975.976-2.255 1.465-3.535 1.465z" fill="#ff6c6c"/><path d="m312.636 413.517c-1.279 0-2.56-.488-3.535-1.465-1.953-1.952-1.953-5.118 0-7.07l10-10c1.951-1.953 5.119-1.953 7.07 0 1.953 1.952 1.953 5.118 0 7.07l-10 10c-.976.976-2.256 1.465-3.535 1.465z" fill="#6c6cff"/><path d="m226.743 91.362c-1.279 0-2.56-.488-3.535-1.465l-6.465-6.464-6.465 6.464c-1.951 1.953-5.119 1.953-7.07 0-1.953-1.952-1.953-5.118 0-7.07l10-10c1.951-1.953 5.119-1.953 7.07 0l10 10c1.953 1.952 1.953 5.118 0 7.07-.975.977-2.256 1.465-3.535 1.465z" fill="#ff9d33"/><path d="m225.252 391.898c-1.279 0-2.56-.488-3.535-1.465l-6.465-6.464-6.465 6.464c-1.951 1.953-5.119 1.953-7.07 0-1.953-1.952-1.953-5.118 0-7.07l10-10c1.951-1.953 5.119-1.953 7.07 0l10 10c1.953 1.952 1.953 5.118 0 7.07-.975.977-2.256 1.465-3.535 1.465z" fill="#ff9d33"/></svg>