<svg id="Capa_1" enable-background="new 0 0 512 512" height="512" viewBox="0 0 512 512" width="512" xmlns="http://www.w3.org/2000/svg" xmlns:xlink="http://www.w3.org/1999/xlink"><linearGradient id="SVGID_1_" gradientUnits="userSpaceOnUse" x1="332.582" x2="176.582" y1="-174.69" y2="693.31"><stop offset=".007" stop-color="#9494ff"/><stop offset=".992" stop-color="#ffe8dc" stop-opacity="0"/></linearGradient><g><path d="m512 251.417c0-27.631-12.504-53.535-34.347-75.837-15.199-15.518-27.854-33.295-37.513-52.751-30.889-62.217-83.554-103.196-143.336-103.196-42.483 0-81.369 20.698-111.403 55.003-19.88 22.707-44.981 40.125-72.987 51.371-67.839 27.243-112.414 73.243-112.414 125.41s44.575 98.168 112.414 125.41c28.006 11.246 53.107 28.664 72.988 51.371 30.034 34.305 68.92 55.003 111.403 55.003 59.782 0 112.447-40.979 143.336-103.196 9.659-19.456 22.314-37.233 37.513-52.751 21.842-22.302 34.346-48.205 34.346-75.837z" fill="url(#SVGID_1_)"/><g><path d="m472.755 463.683h-5.305c-6.305-42.699-43.098-75.469-87.55-75.47v-319.466c0-11.5-9.33-20.83-20.84-20.83h-206.12c-11.51 0-20.84 9.33-20.84 20.83v392.34c0 11.5 9.33 20.83 20.84 20.83h128.176v8.24c0 3.273 2.654 5.927 5.927 5.927h185.711c3.273 0 5.927-2.653 5.927-5.927v-20.547c0-3.273-2.653-5.927-5.926-5.927z" fill="#00c" opacity=".1"/><g><g><g><g><g><path d="m379.9 41.747v392.34c0 11.5-9.33 20.83-20.84 20.83h-206.12c-11.51 0-20.84-9.33-20.84-20.83v-392.34c0-11.5 9.33-20.83 20.84-20.83h206.12c11.51 0 20.84 9.33 20.84 20.83z" fill="#ffd6bb"/><path d="m379.9 216.417v-174.67c0-11.5-9.33-20.83-20.84-20.83h-206.12c-11.51 0-20.84 9.33-20.84 20.83v174.67z" fill="#ffc599"/><path d="m379.9 359.417v74.67c0 11.5-9.33 20.83-20.84 20.83h-206.12c-11.51 0-20.84-9.33-20.84-20.83v-74.67z" fill="#ffc599"/><g><g><g><g><g><path d="m159.014 180.003h64.202c2.573 0 4.659 2.086 4.659 4.659s-2.086 4.659-4.659 4.659h-64.202c-2.573 0-4.659-2.086-4.659-4.659.001-2.573 2.086-4.659 4.659-4.659z" fill="#9494ff"/></g><g><path d="m159.014 198.812h43.202c2.573 0 4.659 2.086 4.659 4.659s-2.086 4.659-4.659 4.659h-43.202c-2.573 0-4.659-2.086-4.659-4.659.001-2.573 2.086-4.659 4.659-4.659z" fill="#9494ff"/></g></g><path d="m246.609 168.963h-88.296c-2.761 0-5-2.239-5-5v-74.86c0-2.761 2.239-5 5-5h88.296c2.761 0 5 2.239 5 5v74.86c0 2.761-2.239 5-5 5z" fill="#fff3ee"/></g><g><g><g><path d="m266.092 180.003h64.202c2.573 0 4.659 2.086 4.659 4.659s-2.086 4.659-4.659 4.659h-64.202c-2.573 0-4.659-2.086-4.659-4.659s2.086-4.659 4.659-4.659z" fill="#9494ff"/></g><g><path d="m266.092 198.812h43.202c2.573 0 4.659 2.086 4.659 4.659s-2.086 4.659-4.659 4.659h-43.202c-2.573 0-4.659-2.086-4.659-4.659s2.086-4.659 4.659-4.659z" fill="#9494ff"/></g></g><path d="m353.687 168.963h-88.296c-2.761 0-5-2.239-5-5v-74.86c0-2.761 2.239-5 5-5h88.296c2.761 0 5 2.239 5 5v74.86c0 2.761-2.239 5-5 5z" fill="#ff6c6c"/></g></g><g><g><g><g><path d="m159.014 322.982h64.202c2.573 0 4.659 2.086 4.659 4.659s-2.086 4.659-4.659 4.659h-64.202c-2.573 0-4.659-2.086-4.659-4.659s2.086-4.659 4.659-4.659z" fill="#b3b3ff"/></g><g><path d="m159.014 341.791h43.202c2.573 0 4.659 2.086 4.659 4.659s-2.086 4.659-4.659 4.659h-43.202c-2.573 0-4.659-2.086-4.659-4.659.001-2.573 2.086-4.659 4.659-4.659z" fill="#b3b3ff"/></g></g><path d="m246.609 311.941h-88.296c-2.761 0-5-2.239-5-5v-74.86c0-2.761 2.239-5 5-5h88.296c2.761 0 5 2.239 5 5v74.86c0 2.762-2.239 5-5 5z" fill="#ff4d4d"/></g><g><g><g><path d="m266.092 322.982h64.202c2.573 0 4.659 2.086 4.659 4.659s-2.086 4.659-4.659 4.659h-64.202c-2.573 0-4.659-2.086-4.659-4.659s2.086-4.659 4.659-4.659z" fill="#b3b3ff"/></g><g><path d="m266.092 341.791h43.202c2.573 0 4.659 2.086 4.659 4.659s-2.086 4.659-4.659 4.659h-43.202c-2.573 0-4.659-2.086-4.659-4.659s2.086-4.659 4.659-4.659z" fill="#b3b3ff"/></g></g><path d="m353.687 311.941h-88.296c-2.761 0-5-2.239-5-5v-74.86c0-2.761 2.239-5 5-5h88.296c2.761 0 5 2.239 5 5v74.86c0 2.762-2.239 5-5 5z" fill="#6c6cff"/></g></g><g><g><path d="m251.609 454.92h-98.296v-79.86c0-2.761 2.239-5 5-5h88.296c2.761 0 5 2.239 5 5z" fill="#6c6cff"/></g><g><path d="m358.687 454.92h-98.296v-79.86c0-2.761 2.239-5 5-5h88.296c2.761 0 5 2.239 5 5z" fill="#ffab66"/></g></g></g><path d="m323.547 48.923 8.453-28.007h-152l8.453 28.007c1.274 4.222 5.164 7.11 9.573 7.11h115.946c4.411 0 8.3-2.888 9.575-7.11z" fill="#ffab66"/></g></g><g><circle cx="212.008" cy="38.475" fill="#6c6cff" r="4.854"/></g><g><circle cx="228.333" cy="38.475" fill="#6c6cff" r="4.854"/></g><g><path d="m296.601 43.328h-37.202c-2.573 0-4.659-2.086-4.659-4.659s2.086-4.659 4.659-4.659h37.202c2.573 0 4.659 2.086 4.659 4.659s-2.086 4.659-4.659 4.659z" fill="#ff8b00"/></g></g></g><g><path d="m428 251.19c-1.326 0-2.598-.526-3.536-1.465l-11.292-11.293c-.938-.938-1.464-2.209-1.464-3.535s.527-2.598 1.464-3.535l11.292-11.292c1.953-1.953 5.118-1.953 7.071 0l11.292 11.292c.938.938 1.464 2.209 1.464 3.535s-.527 2.598-1.464 3.535l-11.292 11.293c-.937.938-2.209 1.465-3.535 1.465zm-4.221-16.293 4.221 4.222 4.221-4.222-4.221-4.221z" fill="#ff6c6c"/></g><g><path d="m68.145 375.843c-1.28 0-2.559-.488-3.536-1.465l-11.292-11.292c-.938-.938-1.464-2.209-1.464-3.535s.527-2.598 1.464-3.535l11.292-11.293c.938-.938 2.209-1.465 3.536-1.465s2.598.526 3.536 1.465l11.292 11.293c.938.938 1.464 2.209 1.464 3.535s-.527 2.598-1.464 3.535l-11.293 11.292c-.976.977-2.256 1.465-3.535 1.465zm-4.222-16.292 4.221 4.221 4.221-4.221-4.221-4.222z" fill="#ff9d33"/></g><g><path d="m89.655 109.696c-7.175 0-13.012-5.837-13.012-13.012s5.837-13.013 13.012-13.013 13.012 5.838 13.012 13.013-5.837 13.012-13.012 13.012zm0-16.025c-1.661 0-3.012 1.352-3.012 3.013s1.351 3.012 3.012 3.012 3.012-1.351 3.012-3.012-1.352-3.013-3.012-3.013z" fill="#ff6c6c"/></g><g><path d="m97.667 412.656c-7.175 0-13.012-5.837-13.012-13.012s5.837-13.012 13.012-13.012 13.012 5.837 13.012 13.012-5.838 13.012-13.012 13.012zm0-16.024c-1.661 0-3.012 1.351-3.012 3.012s1.351 3.012 3.012 3.012 3.012-1.351 3.012-3.012-1.351-3.012-3.012-3.012z" fill="#6c6cff"/></g><g><path d="m417.05 190.567c-7.175 0-13.012-5.837-13.012-13.012s5.837-13.013 13.012-13.013 13.012 5.838 13.012 13.013-5.837 13.012-13.012 13.012zm0-16.025c-1.661 0-3.012 1.352-3.012 3.013s1.351 3.012 3.012 3.012 3.012-1.351 3.012-3.012-1.352-3.013-3.012-3.013z" fill="#ff9d33"/></g><g><path d="m291.389 449.723c0-48.882 39.627-88.509 88.509-88.509s88.509 39.627 88.509 88.509z" fill="#9494ff"/><path d="m406.647 365.337v26.33c0 14.77-11.97 26.75-26.75 26.75-14.77 0-26.75-11.98-26.75-26.75v-26.33c8.44-2.68 17.43-4.12 26.75-4.12s18.31 1.44 26.75 4.12z" fill="#6c6cff"/><path d="m472.754 469.084h-185.711c-3.273 0-5.927-2.654-5.927-5.927v-20.547c0-3.273 2.654-5.927 5.927-5.927h185.711c3.273 0 5.927 2.654 5.927 5.927v20.547c0 3.273-2.653 5.927-5.927 5.927z" fill="#ff9d33"/><path d="m420.333 436.683h15.333v32.401h-15.333z" fill="#ffc599"/><path d="m472.755 436.683h-24.421v32.401h24.421c3.273 0 5.927-2.653 5.927-5.927v-20.547c-.001-3.273-2.654-5.927-5.927-5.927z" fill="#ffc599"/><path d="m472.754 431.683h-174.383c3.831-17.369 13.173-33.175 26.731-44.976 15.181-13.213 34.643-20.49 54.798-20.49 30.356 0 58.363 16.509 73.09 43.084 1.338 2.415 4.381 3.287 6.797 1.949s3.289-4.381 1.95-6.797c-15.677-28.288-44.796-46.375-76.838-48.09v-314.612c0-14.245-11.59-25.835-25.836-25.835h-206.126c-14.246 0-25.836 11.59-25.836 25.835v392.334c0 14.245 11.59 25.835 25.836 25.835h94.179c2.761 0 5-2.238 5-5s-2.239-5-5-5h-94.179c-8.732 0-15.836-7.104-15.836-15.835v-392.334c0-8.731 7.104-15.835 15.836-15.835h23.35l7.38 24.451c1.925 6.38 7.696 10.666 14.36 10.666h115.946c6.664 0 12.435-4.286 14.36-10.666l7.38-24.451h23.35c8.732 0 15.836 7.104 15.836 15.835v314.614c-20.77 1.111-40.621 9.098-56.363 22.799-15.737 13.697-26.421 32.215-30.395 52.519h-1.098c-6.025 0-10.927 4.902-10.927 10.928v20.546c0 6.025 4.902 10.928 10.927 10.928h185.711c6.025 0 10.927-4.902 10.927-10.928v-20.546c.001-6.026-4.901-10.928-10.927-10.928zm-153.994-384.204c-.642 2.126-2.565 3.555-4.787 3.555h-115.946c-2.221 0-4.145-1.429-4.787-3.556l-6.508-21.562h138.536zm154.922 415.677c0 .512-.416.928-.927.928h-185.712c-.511 0-.927-.416-.927-.928v-20.546c0-.512.416-.928.927-.928h185.711c.511 0 .927.416.927.928v20.546z" fill="#00c"/><circle cx="379.897" cy="391.317" fill="#b3b3ff" r="14.119"/><circle cx="379.897" cy="391.317" fill="#d9d9ff" r="8.327"/><circle cx="384.48" cy="386.734" fill="#9494ff" r="3.743"/><circle cx="397.283" cy="378.734" fill="#fff" r="3.743"/></g><g><g><g><path d="m418.343 316.766c-1.69 0-3.339-.857-4.28-2.407-1.432-2.361-.679-5.437 1.682-6.869 8.143-4.938 17.49-7.55 27.031-7.55s18.888 2.61 27.031 7.55c2.361 1.433 3.114 4.508 1.682 6.868-1.433 2.361-4.507 3.112-6.868 1.683-6.579-3.991-14.133-6.101-21.845-6.101s-15.266 2.109-21.845 6.101c-.81.49-1.705.725-2.588.725z" fill="#00c"/></g><g><path d="m453.167 333.003c-.883 0-1.778-.234-2.588-.726-4.7-2.852-10.906-2.852-15.606 0-2.361 1.432-5.437.679-6.868-1.683-1.432-2.36-.679-5.436 1.682-6.868 3.915-2.374 8.406-3.629 12.99-3.629s9.075 1.255 12.99 3.629c2.361 1.433 3.114 4.508 1.682 6.868-.942 1.552-2.591 2.409-4.282 2.409z" fill="#00c"/></g><g><path d="m480.199 299.682c-.883 0-1.778-.234-2.588-.726-10.492-6.364-22.537-9.729-34.835-9.729-12.297 0-24.344 3.364-34.835 9.729-2.361 1.432-5.436.679-6.868-1.683-1.432-2.36-.679-5.436 1.682-6.868 12.056-7.313 25.896-11.178 40.022-11.178 14.127 0 27.966 3.865 40.021 11.178 2.361 1.433 3.114 4.508 1.682 6.868-.941 1.551-2.591 2.409-4.281 2.409z" fill="#00c"/></g></g><g opacity=".1"><g><path d="m467.209 343.766c-.883 0-1.778-.234-2.588-.726-6.579-3.991-14.132-6.1-21.845-6.1s-15.266 2.109-21.845 6.1c-2.361 1.433-5.436.68-6.868-1.682-1.432-2.361-.679-5.436 1.682-6.868 8.143-4.939 17.49-7.55 27.031-7.55s18.889 2.611 27.031 7.55c2.361 1.432 3.114 4.507 1.682 6.868-.941 1.551-2.59 2.408-4.28 2.408z" fill="#00c"/></g><g><path d="m453.167 360.003c-.883 0-1.778-.234-2.588-.726-4.698-2.85-10.908-2.85-15.606 0-2.361 1.433-5.436.68-6.868-1.682s-.679-5.436 1.682-6.868c3.914-2.374 8.405-3.628 12.99-3.628s9.076 1.255 12.99 3.628c2.361 1.432 3.114 4.507 1.682 6.868-.942 1.55-2.591 2.408-4.282 2.408z" fill="#00c"/></g><g><path d="m480.199 326.681c-.883 0-1.778-.234-2.588-.726-10.491-6.364-22.537-9.729-34.835-9.729s-24.344 3.364-34.835 9.729c-2.362 1.433-5.437.68-6.868-1.682-1.432-2.361-.679-5.436 1.682-6.868 12.055-7.313 25.895-11.179 40.021-11.179s27.966 3.866 40.021 11.179c2.361 1.432 3.114 4.507 1.682 6.868-.941 1.552-2.59 2.408-4.28 2.408z" fill="#00c"/></g></g></g></g></g></g></svg>