<svg id="Capa_1" enable-background="new 0 0 512 512" height="512" viewBox="0 0 512 512" width="512" xmlns="http://www.w3.org/2000/svg" xmlns:xlink="http://www.w3.org/1999/xlink"><linearGradient id="SVGID_1_" gradientUnits="userSpaceOnUse" x1="332.582" x2="176.582" y1="-170.108" y2="697.893"><stop offset=".007" stop-color="#9494ff"/><stop offset=".992" stop-color="#ffe8dc" stop-opacity="0"/></linearGradient><path d="m512 256c0-27.631-12.504-53.535-34.347-75.837-15.199-15.518-27.854-33.295-37.513-52.751-30.889-62.217-83.554-103.196-143.336-103.196-42.483 0-81.369 20.698-111.403 55.003-19.88 22.707-44.981 40.125-72.987 51.371-67.839 27.242-112.414 73.243-112.414 125.41s44.575 98.168 112.414 125.41c28.006 11.246 53.107 28.664 72.988 51.371 30.034 34.305 68.92 55.003 111.403 55.003 59.782 0 112.447-40.979 143.336-103.196 9.659-19.456 22.314-37.233 37.513-52.751 21.842-22.302 34.346-48.206 34.346-75.837z" fill="url(#SVGID_1_)"/><path d="m443.895 118.955h-375.79c-12.208 0-22.105 9.897-22.105 22.105v191.775c0 12.208 9.897 22.105 22.105 22.105h102.875v34.916h-55.07c-2.761 0-5 2.239-5 5v38.525c0 16.569 13.431 30 30 30h168.86c-.002 0-.003 0-.005 0h.074c16.569 0 30-13.431 30-30v-78.44h16.57v12.45c0 3.802 3.083 6.885 6.885 6.885h53.143c3.803 0 6.885-3.083 6.885-6.885v-12.45h20.571c12.208 0 22.105-9.897 22.105-22.105v-191.776c.002-12.208-9.895-22.105-22.103-22.105z" fill="#00c" opacity=".1"/><path d="m356.41 346.391v-21.522h66.913v21.522c0 3.803-3.083 6.885-6.885 6.885h-53.143c-3.803 0-6.885-3.083-6.885-6.885z" fill="#6c6cff"/><path d="m287.557 82.355v24.672h135.766v-24.672c0-3.803-3.083-3.735-6.885-3.735h-121.995c-3.803-.001-6.886-.068-6.886 3.735z" fill="#6c6cff"/><path d="m46 311.835v-191.775c0-12.208 9.897-22.105 22.105-22.105h375.789c12.208 0 22.105 9.897 22.105 22.105v191.775c0 12.208-9.897 22.105-22.105 22.105h-375.789c-12.208 0-22.105-9.897-22.105-22.105z" fill="#ff9d33"/><path d="m98.13 97.958h315.74v235.98h-315.74z" fill="#fff"/><path d="m435 236.207v-40.52c0-2.762 2.239-5 5-5s5 2.238 5 5v40.52c0 2.762-2.239 5-5 5s-5-2.238-5-5z" fill="#ff4d4d"/><path d="m79 195.614h-12.667c-2.761 0-5 2.239-5 5v30.667c0 2.761 2.239 5 5 5h12.667c2.761 0 5-2.239 5-5v-30.667c0-2.761-2.238-5-5-5z" fill="#ff4d4d"/><path d="m67.667 294.957v-16.52c0-2.762 2.239-5 5-5s5 2.238 5 5v16.52c0 2.762-2.239 5-5 5s-5-2.238-5-5z" fill="#ff4d4d"/><path d="m67.667 153.457v-16.52c0-2.762 2.239-5 5-5s5 2.238 5 5v16.52c0 2.762-2.239 5-5 5s-5-2.238-5-5z" fill="#ff4d4d"/><path d="m382.841 199.814h-253.682c-3.402 0-6.159-2.758-6.159-6.159v-47.587c0-3.402 2.758-6.159 6.159-6.159h253.681c3.402 0 6.159 2.758 6.159 6.159v47.587c.001 3.402-2.757 6.159-6.158 6.159z" fill="#9494ff"/><path d="m371.904 139.916-59.906 59.906h-42.057l59.907-59.906z" fill="#b3b3ff"/><path d="m388.99 146.075v7.49l-46.257 46.257h-16.532l33.248-33.248 26.054-26.042c2.071.985 3.487 3.104 3.487 5.543z" fill="#b3b3ff"/><circle cx="369.34" cy="227.946" fill="#ff9d33" r="5.59"/><circle cx="352.43" cy="227.946" fill="#ff9d33" r="5.59"/><path d="m335.519 233.536c-3.087 0-5.59-2.503-5.59-5.59s2.503-5.59 5.59-5.59 5.59 2.503 5.59 5.59-2.502 5.59-5.59 5.59" fill="#ff9d33"/><path d="m369.93 291.292h-229.039c-2.761 0-5-2.239-5-5v-40.5c0-2.761 2.239-5 5-5h229.039c2.761 0 5 2.239 5 5v40.5c0 2.762-2.239 5-5 5z" fill="#6c6cff"/><path d="m170.98 264.356v178.025h138.86c16.569 0 30-13.431 30-30v-148.025z" fill="#fff"/><path d="m170.98 264.356h168.86v15.437h-168.86z" fill="#ebebff"/><path d="m279.771 412.381v-38.525c0-2.761-2.239-5-5-5h-158.86c-2.761 0-5 2.239-5 5v38.525c0 16.569 13.431 30 30 30h168.86c-16.57 0-30-13.43-30-30z" fill="#ff9d33"/><g fill="#00c"><path d="m159.536 184.397 11-11c1.953-1.952 1.953-5.118 0-7.07l-11-11c-1.953-1.953-5.118-1.953-7.071 0l-11 11c-1.953 1.952-1.953 5.118 0 7.07l11 11c.977.977 2.256 1.465 3.536 1.465s2.558-.488 3.535-1.465zm-7.465-14.535 3.929-3.929 3.929 3.929-3.929 3.929z"/><path d="m194.5 185.862c1.28 0 2.559-.488 3.536-1.465l11-11c1.953-1.952 1.953-5.118 0-7.07l-11-11c-1.953-1.953-5.118-1.953-7.071 0l-11 11c-1.953 1.952-1.953 5.118 0 7.07l11 11c.976.977 2.255 1.465 3.535 1.465zm0-19.928 3.929 3.929-3.929 3.929-3.929-3.929z"/><path d="m233 185.862c1.28 0 2.559-.488 3.536-1.465l11-11c1.953-1.952 1.953-5.118 0-7.07l-11-11c-1.953-1.953-5.118-1.953-7.071 0l-11 11c-1.953 1.952-1.953 5.118 0 7.07l11 11c.976.977 2.255 1.465 3.535 1.465zm0-19.928 3.929 3.929-3.929 3.928-3.929-3.929z"/><path d="m271.5 185.862c1.28 0 2.559-.488 3.536-1.465l11-11c1.953-1.952 1.953-5.118 0-7.07l-11-11c-1.953-1.953-5.118-1.953-7.071 0l-11 11c-1.953 1.952-1.953 5.118 0 7.07l11 11c.976.977 2.255 1.465 3.535 1.465zm0-19.928 3.929 3.929-3.929 3.929-3.929-3.929z"/><path d="m443.895 92.955h-15.571v-10.601c0-3.777-1.877-6.669-5.151-7.934-2.079-.803-4.343-.794-6.54-.802h-122.384c-2.197.013-4.461-.001-6.54.802-3.273 1.265-5.151 4.156-5.151 7.934v10.601h-214.453c-14.945 0-27.105 12.159-27.105 27.106v191.774c0 14.946 12.16 27.105 27.105 27.105h68.874c2.761 0 5-2.238 5-5s-2.239-5-5-5h-33.853v-225.985h305.746v225.985h-64.032v-59.585h5.141c2.761 0 5-2.238 5-5s-2.239-5-5-5h-189.334c-2.761 0-5 2.238-5 5s2.239 5 5 5h5.333v94.501h-50.069c-5.514 0-10 4.486-10 10v38.524c0 19.299 15.701 35 35 35h168.86.069c19.299 0 35-15.701 35-35v-44.439c0-2.762-2.239-5-5-5s-5 2.238-5 5v44.439c0 13.785-11.215 25-25 25h-.069c-13.785 0-25-11.215-25-25v-38.524c0-5.514-4.486-10-10-10h-98.791v-94.501h158.86v64.585c0 2.762 2.239 5 5 5h11.57v7.45c0 6.554 5.332 11.885 11.885 11.885h53.143c6.554 0 11.885-5.331 11.885-11.885v-7.45h15.571c14.946 0 27.105-12.159 27.105-27.105v-191.774c.001-14.947-12.159-27.106-27.104-27.106zm-350.768 235.985h-25.022c-9.432 0-17.105-7.674-17.105-17.105v-191.774c0-9.432 7.673-17.105 17.105-17.105h25.021v225.984zm192.172 108.441h-144.388c-13.785 0-25-11.215-25-25v-38.524h158.86v38.524c0 9.784 4.035 18.642 10.528 25zm74.809-344.426c-.711-1.895-2.525-3.25-4.668-3.25s-3.957 1.355-4.668 3.25h-58.215v-9.318c.56-.019 1.189-.022 1.688-.018h122.389c.501-.007 1.128-.001 1.688.018v9.318zm58.215 253.436c0 1.039-.846 1.885-1.885 1.885h-53.143c-1.04 0-1.885-.846-1.885-1.885v-7.45h56.914v7.45zm42.677-34.556c0 9.432-7.673 17.105-17.105 17.105h-25.021v-225.985h25.021c9.432 0 17.105 7.674 17.105 17.105z"/></g><path d="m301.564 332.635h-99.5c-2.762 0-5-2.239-5-5s2.238-5 5-5h99.5c2.762 0 5 2.239 5 5s-2.238 5-5 5z" fill="#d9d9ff"/><path d="m214.564 312.409h-12.5c-2.762 0-5-2.239-5-5s2.238-5 5-5h12.5c2.762 0 5 2.239 5 5s-2.238 5-5 5z" fill="#d9d9ff"/><path d="m265.284 312.409h-33.5c-2.762 0-5-2.239-5-5s2.238-5 5-5h33.5c2.762 0 5 2.239 5 5s-2.238 5-5 5z" fill="#d9d9ff"/><path d="m155.647 78.412c-1.28 0-2.559-.488-3.536-1.465-1.953-1.952-1.953-5.118 0-7.07l10-10c1.953-1.953 5.118-1.953 7.071 0 1.953 1.952 1.953 5.118 0 7.07l-10 10c-.975.977-2.255 1.465-3.535 1.465z" fill="#ff6c6c"/><path d="m384 421.408c-1.28 0-2.559-.488-3.536-1.465-1.953-1.952-1.953-5.118 0-7.07l10-10c1.953-1.953 5.118-1.953 7.071 0 1.953 1.952 1.953 5.118 0 7.07l-10 10c-.976.977-2.255 1.465-3.535 1.465z" fill="#ff9d33"/><path d="m67.667 385.517c-1.28 0-2.559-.488-3.536-1.465-1.953-1.952-1.953-5.118 0-7.07l10-10c1.953-1.953 5.118-1.953 7.071 0 1.953 1.952 1.953 5.118 0 7.07l-10 10c-.976.976-2.255 1.465-3.535 1.465z" fill="#6c6cff"/><path d="m430 62.3c-1.28 0-2.559-.488-3.536-1.465l-6.464-6.464-6.464 6.464c-1.953 1.953-5.118 1.953-7.071 0-1.953-1.952-1.953-5.118 0-7.07l10-10c1.953-1.953 5.118-1.953 7.071 0l10 10c1.953 1.952 1.953 5.118 0 7.07-.977.977-2.256 1.465-3.536 1.465z" fill="#ff9d33"/><path d="m367.44 469.7c-1.28 0-2.559-.488-3.536-1.465l-6.464-6.464-6.464 6.464c-1.953 1.953-5.118 1.953-7.071 0-1.953-1.952-1.953-5.118 0-7.07l10-10c1.953-1.953 5.118-1.953 7.071 0l10 10c1.953 1.952 1.953 5.118 0 7.07-.976.977-2.256 1.465-3.536 1.465z" fill="#ff6c6c"/></svg>