<svg id="Capa_1" enable-background="new 0 0 512 512" height="512" viewBox="0 0 512 512" width="512" xmlns="http://www.w3.org/2000/svg" xmlns:xlink="http://www.w3.org/1999/xlink"><linearGradient id="SVGID_1_" gradientUnits="userSpaceOnUse" x1="599.886" x2="63.886" y1="17.763" y2="437.763"><stop offset=".007" stop-color="#9494ff"/><stop offset=".992" stop-color="#ffe8dc" stop-opacity="0"/></linearGradient><g><path d="m419.843 204.306c1.055-7.758 1.571-15.687 1.509-23.748-.692-90.025-74.256-163.487-164.281-164.057-91.815-.581-166.428 73.673-166.428 165.353 0 7.615.516 15.109 1.513 22.45 4.043 29.747-9.887 59.143-35.212 75.263-35.611 22.669-56.944 51.541-56.944 82.981 0 72.876 114.615 131.954 256 131.954s256-59.078 256-131.954c0-31.44-21.334-60.312-56.946-82.98-25.325-16.12-39.254-45.516-35.211-75.262z" fill="url(#SVGID_1_)"/><g><g><path d="m330.316 411.65c1.045-3.475 1.613-7.157 1.613-10.973v-253.28c0-21.02-17.04-38.06-38.06-38.06h-78.88c-21.02 0-38.06 17.04-38.06 38.06v253.28c0 4.068.645 7.985 1.827 11.66-23.191 5.647-37.756 13.802-37.756 22.869v33.245c0 17.049 51.487 30.87 115 30.87s115-13.821 115-30.87v-33.245c0-9.443-15.8-17.894-40.684-23.556zm-123.387-264.254c0-4.44 3.62-8.06 8.06-8.06h78.88c4.44 0 8.06 3.62 8.06 8.06v151.28c0 4.44-3.62 8.06-8.06 8.06h-78.88c-4.44 0-8.06-3.62-8.06-8.06z" fill="#00c" opacity=".1"/><g opacity=".1"><g><path d="m395.33 176.04c-11.135 0-16.983-2.938-22.145-5.531-4.772-2.397-8.896-4.469-17.666-4.469-8.781 0-12.908 2.075-17.686 4.478-1.226.616-2.492 1.253-3.859 1.865-4.059 1.811-9.396 3.657-18.274 3.657-5.908 0-10.834-.804-15.504-2.53-2.503-.925-4.604-1.981-6.638-3.003-4.77-2.396-8.89-4.467-17.658-4.467-8.771 0-12.894 2.071-17.666 4.469-5.161 2.593-11.01 5.531-22.145 5.531-11.139 0-16.989-2.938-22.151-5.528-2.629-1.32-5.113-2.567-8.274-3.395-2.671-.698-4.271-3.431-3.572-6.102.699-2.672 3.432-4.274 6.103-3.572 4.178 1.092 7.255 2.637 10.231 4.131 4.772 2.396 8.894 4.466 17.664 4.466 8.764 0 12.884-2.07 17.655-4.467 5.162-2.594 11.014-5.533 22.155-5.533 11.14 0 16.988 2.938 22.148 5.532 1.87.939 3.637 1.827 5.615 2.559 2.217.819 5.878 1.909 12.036 1.909 6.983 0 10.948-1.339 14.192-2.786 1.156-.518 2.27-1.078 3.449-1.671 5.167-2.598 11.023-5.543 22.178-5.543 11.142 0 16.993 2.939 22.155 5.533 4.771 2.396 8.892 4.467 17.655 4.467 2.762 0 5 2.238 5 5s-2.236 5-4.998 5z" fill="#00c"/></g><g><path d="m156.47 176.04c-11.136 0-16.985-2.939-22.146-5.532-4.771-2.397-8.891-4.468-17.655-4.468-2.761 0-5-2.238-5-5s2.239-5 5-5c11.136 0 16.984 2.939 22.145 5.532 4.771 2.397 8.891 4.468 17.655 4.468 8.762 0 12.884-2.07 17.656-4.468l.564-.283c2.469-1.235 5.473-.237 6.71 2.231 1.236 2.469.238 5.473-2.231 6.71l-.554.278c-5.161 2.593-11.011 5.532-22.144 5.532z" fill="#00c"/></g><g><path d="m395.33 211.26c-11.135 0-16.983-2.938-22.145-5.531-4.772-2.397-8.896-4.469-17.666-4.469-8.779 0-12.905 2.074-17.684 4.477-1.226.616-2.493 1.254-3.862 1.867-4.055 1.81-9.392 3.656-18.273 3.656-5.908 0-10.834-.804-15.504-2.53-2.503-.925-4.604-1.981-6.638-3.003-4.77-2.396-8.89-4.467-17.658-4.467-8.771 0-12.894 2.071-17.666 4.469-5.161 2.593-11.01 5.531-22.145 5.531-11.139 0-16.989-2.938-22.151-5.528-2.629-1.32-5.113-2.567-8.274-3.395-2.671-.698-4.271-3.431-3.572-6.102.699-2.672 3.432-4.275 6.103-3.572 4.178 1.092 7.255 2.637 10.231 4.131 4.772 2.396 8.894 4.466 17.664 4.466 8.764 0 12.884-2.07 17.655-4.467 5.162-2.594 11.014-5.533 22.155-5.533 11.14 0 16.988 2.938 22.148 5.532 1.87.939 3.637 1.827 5.615 2.559 2.217.819 5.878 1.909 12.036 1.909 6.986 0 10.95-1.339 14.191-2.786 1.158-.519 2.273-1.079 3.453-1.672 5.167-2.598 11.022-5.542 22.175-5.542 11.142 0 16.993 2.939 22.155 5.533 4.771 2.396 8.892 4.467 17.655 4.467 2.762 0 5 2.238 5 5s-2.236 5-4.998 5z" fill="#00c"/></g><g><path d="m156.47 211.26c-11.136 0-16.985-2.939-22.146-5.532-4.771-2.397-8.891-4.468-17.655-4.468-2.761 0-5-2.238-5-5s2.239-5 5-5c11.136 0 16.984 2.939 22.145 5.532 4.771 2.397 8.891 4.468 17.655 4.468s12.886-2.07 17.659-4.468l.562-.282c2.469-1.234 5.473-.236 6.71 2.231 1.236 2.469.238 5.473-2.231 6.71l-.552.276c-5.161 2.594-11.013 5.533-22.147 5.533z" fill="#00c"/></g><g><path d="m395.33 246.48c-11.135 0-16.983-2.938-22.145-5.531-4.772-2.397-8.896-4.469-17.666-4.469-8.78 0-12.907 2.074-17.685 4.477-1.226.616-2.493 1.253-3.861 1.866-4.056 1.81-9.394 3.657-18.273 3.657-5.906 0-10.833-.804-15.504-2.531-2.502-.925-4.604-1.98-6.637-3.002-4.771-2.396-8.89-4.467-17.659-4.467-8.771 0-12.894 2.071-17.666 4.469-5.161 2.593-11.01 5.531-22.145 5.531-11.139 0-16.989-2.938-22.15-5.529-2.629-1.32-5.113-2.567-8.274-3.395-2.671-.698-4.271-3.431-3.572-6.102.699-2.672 3.432-4.276 6.103-3.572 4.178 1.093 7.256 2.638 10.231 4.132 4.772 2.396 8.894 4.466 17.663 4.466 8.764 0 12.884-2.07 17.655-4.467 5.162-2.594 11.014-5.533 22.155-5.533s16.989 2.938 22.149 5.531c1.869.939 3.636 1.827 5.614 2.559 2.218.819 5.88 1.91 12.036 1.91 6.984 0 10.948-1.339 14.191-2.787 1.158-.519 2.272-1.078 3.452-1.671 5.167-2.598 11.023-5.542 22.176-5.542 11.142 0 16.993 2.939 22.155 5.533 4.771 2.396 8.892 4.467 17.655 4.467 2.762 0 5 2.238 5 5s-2.236 5-4.998 5z" fill="#00c"/></g><g><path d="m156.47 246.48c-11.136 0-16.985-2.939-22.146-5.532-4.771-2.397-8.891-4.468-17.655-4.468-2.761 0-5-2.238-5-5s2.239-5 5-5c11.136 0 16.984 2.939 22.145 5.532 4.771 2.397 8.891 4.468 17.655 4.468 8.762 0 12.884-2.07 17.656-4.468l.564-.283c2.469-1.234 5.473-.236 6.71 2.231 1.236 2.469.238 5.473-2.231 6.71l-.554.278c-5.161 2.594-11.011 5.532-22.144 5.532z" fill="#00c"/></g><g><path d="m395.33 281.7c-11.135 0-16.983-2.938-22.145-5.531-4.772-2.397-8.896-4.469-17.666-4.469-8.781 0-12.908 2.075-17.686 4.478-1.226.616-2.492 1.253-3.859 1.865-4.059 1.811-9.396 3.657-18.274 3.657-5.904 0-10.83-.804-15.503-2.529-2.504-.926-4.605-1.982-6.639-3.004-4.77-2.396-8.89-4.467-17.658-4.467-8.771 0-12.894 2.071-17.666 4.469-5.161 2.593-11.01 5.531-22.145 5.531-11.139 0-16.989-2.938-22.151-5.528-2.629-1.32-5.113-2.567-8.274-3.395-2.671-.698-4.271-3.431-3.572-6.102.699-2.673 3.432-4.271 6.103-3.572 4.178 1.092 7.255 2.637 10.231 4.131 4.772 2.396 8.894 4.466 17.664 4.466 8.764 0 12.884-2.07 17.655-4.467 5.162-2.594 11.014-5.533 22.155-5.533 11.14 0 16.988 2.938 22.148 5.532 1.87.939 3.637 1.827 5.615 2.559 2.218.819 5.882 1.909 12.036 1.909 6.983 0 10.948-1.339 14.192-2.786 1.156-.518 2.27-1.078 3.449-1.671 5.167-2.598 11.023-5.543 22.178-5.543 11.142 0 16.993 2.939 22.155 5.533 4.771 2.396 8.892 4.467 17.655 4.467 2.762 0 5 2.238 5 5s-2.236 5-4.998 5z" fill="#00c"/></g><g><path d="m156.47 281.7c-11.136 0-16.985-2.939-22.146-5.532-4.771-2.397-8.891-4.468-17.655-4.468-2.761 0-5-2.238-5-5s2.239-5 5-5c11.136 0 16.984 2.939 22.145 5.532 4.771 2.397 8.891 4.468 17.655 4.468 8.762 0 12.884-2.07 17.656-4.468l.564-.283c2.469-1.235 5.473-.236 6.71 2.231 1.236 2.469.238 5.473-2.231 6.71l-.554.278c-5.161 2.594-11.011 5.532-22.144 5.532z" fill="#00c"/></g></g><g><g><g><g><path d="m280.433 50.217c-.884 0-1.777-.234-2.589-.726-6.578-3.991-14.132-6.101-21.844-6.101s-15.266 2.109-21.845 6.101c-2.361 1.432-5.436.679-6.868-1.682s-.679-5.437 1.682-6.869c8.143-4.938 17.49-7.55 27.031-7.55s18.889 2.611 27.031 7.55c2.36 1.433 3.113 4.508 1.682 6.869-.942 1.55-2.59 2.408-4.28 2.408z" fill="#00c"/></g><g><path d="m266.392 66.454c-.884 0-1.778-.234-2.589-.727-4.697-2.852-10.908-2.852-15.605 0-2.359 1.434-5.436.682-6.869-1.681-1.433-2.36-.68-5.436 1.68-6.868 3.913-2.375 8.405-3.63 12.991-3.63s9.078 1.255 12.99 3.63c2.361 1.433 3.113 4.508 1.681 6.868-.941 1.551-2.59 2.408-4.279 2.408z" fill="#00c"/></g><g><path d="m218.577 33.133c-1.69 0-3.339-.857-4.28-2.408-1.432-2.36-.679-5.436 1.682-6.868 12.056-7.313 25.895-11.178 40.021-11.178s27.966 3.865 40.021 11.178c2.361 1.433 3.114 4.508 1.683 6.868s-4.505 3.114-6.868 1.683c-10.493-6.364-22.539-9.729-34.836-9.729-12.298 0-24.343 3.364-34.835 9.729-.811.49-1.705.725-2.588.725z" fill="#00c"/></g></g><g opacity=".1"><g><path d="m280.433 77.217c-.883 0-1.778-.234-2.588-.726-6.579-3.991-14.132-6.1-21.845-6.1s-15.266 2.109-21.845 6.1c-2.361 1.433-5.436.68-6.868-1.682-1.432-2.361-.679-5.436 1.682-6.868 8.143-4.939 17.49-7.55 27.031-7.55s18.889 2.611 27.031 7.55c2.361 1.432 3.114 4.507 1.682 6.868-.941 1.55-2.59 2.408-4.28 2.408z" fill="#00c"/></g><g><path d="m266.392 93.454c-.883 0-1.778-.234-2.588-.726-4.698-2.85-10.908-2.85-15.606 0-2.361 1.433-5.436.68-6.868-1.682s-.679-5.436 1.682-6.868c3.914-2.374 8.405-3.628 12.99-3.628s9.076 1.255 12.99 3.628c2.361 1.432 3.114 4.507 1.682 6.868-.943 1.55-2.592 2.408-4.282 2.408z" fill="#00c"/></g><g><path d="m293.423 60.132c-.883 0-1.778-.234-2.588-.726-10.491-6.364-22.537-9.729-34.835-9.729s-24.344 3.364-34.835 9.729c-2.362 1.433-5.437.68-6.868-1.682-1.432-2.361-.679-5.436 1.682-6.868 12.055-7.313 25.895-11.179 40.021-11.179s27.966 3.866 40.021 11.179c2.361 1.432 3.114 4.507 1.682 6.868-.94 1.551-2.59 2.408-4.28 2.408z" fill="#00c"/></g></g></g><g><g><path d="m371 444.451c0 17.049-51.487 30.87-115 30.87s-115-13.821-115-30.87v-33.245h230z" fill="#ff4d4d"/><ellipse cx="256" cy="411.206" fill="#ff6c6c" rx="115" ry="30.87"/></g><path d="m293.869 85.337h-78.88c-21.02 0-38.06 17.04-38.06 38.06v253.28c0 21.02 17.04 38.06 38.06 38.06h78.88c21.02 0 38.06-17.04 38.06-38.06v-253.28c0-21.021-17.04-38.06-38.06-38.06zm8.06 189.34c0 4.44-3.62 8.06-8.06 8.06h-78.88c-4.44 0-8.06-3.62-8.06-8.06v-151.28c0-4.44 3.62-8.06 8.06-8.06h78.88c4.44 0 8.06 3.62 8.06 8.06z" fill="#b3b3ff"/><path d="m271.67 304.16v110.58h-56.68c-2.77 0-5.46-.29-8.06-.85v-109.73c0-2.76 2.24-5 5-5h54.74c2.76 0 5 2.24 5 5z" fill="#8383ff"/><g fill="#ff6c6c"><circle cx="293.007" cy="311.158" r="7.992"/><circle cx="293.007" cy="334.537" r="7.992"/><circle cx="293.007" cy="357.915" r="7.992"/></g></g></g><path d="m337.836 184.736c4.778-2.402 8.904-4.477 17.684-4.477 8.771 0 12.894 2.071 17.666 4.469 5.161 2.593 11.01 5.531 22.145 5.531 2.762 0 5-2.238 5-5s-2.238-5-5-5c-8.764 0-12.884-2.07-17.655-4.467-5.162-2.594-11.014-5.533-22.155-5.533-8.686 0-14.154 1.787-18.591 3.804v-24.096c.301-.15.61-.302.905-.451 4.777-2.402 8.904-4.478 17.686-4.478 8.771 0 12.894 2.071 17.666 4.469 5.161 2.593 11.01 5.531 22.145 5.531 2.762 0 5-2.238 5-5s-2.238-5-5-5c-8.764 0-12.884-2.07-17.655-4.467-5.162-2.594-11.014-5.533-22.155-5.533-8.686 0-14.154 1.787-18.591 3.804v-15.445c0-23.745-19.317-43.063-43.063-43.063h-78.875c-23.745 0-43.063 19.317-43.063 43.063v18.258c-3.968 1.904-8.058 3.382-15.458 3.382-8.765 0-12.885-2.07-17.655-4.468-5.161-2.593-11.009-5.532-22.145-5.532-2.761 0-5 2.238-5 5s2.239 5 5 5c8.764 0 12.884 2.07 17.655 4.468 5.161 2.593 11.01 5.532 22.146 5.532 6.759 0 11.565-1.086 15.458-2.517v24.355c-3.968 1.903-8.058 3.381-15.458 3.381-8.765 0-12.885-2.07-17.655-4.468-5.161-2.593-11.009-5.532-22.145-5.532-2.761 0-5 2.238-5 5s2.239 5 5 5c8.764 0 12.884 2.07 17.655 4.468 5.161 2.593 11.01 5.532 22.146 5.532 6.759 0 11.565-1.085 15.458-2.517v24.355c-3.968 1.904-8.058 3.382-15.458 3.382-8.765 0-12.885-2.07-17.655-4.468-5.161-2.593-11.009-5.532-22.145-5.532-2.761 0-5 2.238-5 5s2.239 5 5 5c8.764 0 12.884 2.07 17.655 4.468 5.161 2.593 11.01 5.532 22.146 5.532 6.759 0 11.565-1.086 15.458-2.517v24.354c-3.968 1.904-8.058 3.382-15.458 3.382-8.765 0-12.885-2.07-17.655-4.468-5.161-2.593-11.009-5.532-22.145-5.532-2.761 0-5 2.238-5 5s2.239 5 5 5c8.764 0 12.884 2.07 17.655 4.468 5.161 2.593 11.01 5.532 22.146 5.532 6.759 0 11.565-1.086 15.458-2.517v118.491c0 2.757.271 5.451.769 8.065-24.023 6.555-36.696 15.671-36.697 26.466v33.245c0 23.549 60.368 35.87 120 35.87 31.143 0 60.482-3.271 82.613-9.213 24.802-6.653 37.381-15.622 37.381-26.651v-33.245s0 0 0-.001c-.002-14.023-20.957-22.489-39.698-27.258.404-2.366.627-4.794.627-7.274v-90.173c0-2.762-2.238-5-5-5s-5 2.238-5 5v90.174c0 18.23-14.832 33.063-33.063 33.063h-78.875c-18.231 0-33.063-14.832-33.063-33.063v-253.275c0-18.23 14.832-33.063 33.063-33.063h78.875c18.23 0 33.063 14.832 33.063 33.063v20.021c-2.754.926-6.209 1.619-11.229 1.619-3.788 0-6.628-.413-8.771-.921v-20.723c0-7.201-5.858-13.06-13.06-13.06h-78.88c-7.201 0-13.06 5.858-13.06 13.06v151.28c0 7.201 5.859 13.06 13.06 13.06h78.88c7.201 0 13.06-5.858 13.06-13.06v-14.698c2.718.482 5.601.722 8.771.722 8.69 0 13.985-1.77 18.012-3.542.138-.053.269-.115.401-.18 1.313-.593 2.538-1.206 3.721-1.8 4.777-2.402 8.904-4.478 17.686-4.478 8.771 0 12.894 2.071 17.666 4.469 5.161 2.593 11.01 5.531 22.145 5.531 2.762 0 5-2.238 5-5s-2.238-5-5-5c-8.764 0-12.884-2.07-17.655-4.467-5.162-2.594-11.014-5.533-22.155-5.533-8.686 0-14.154 1.787-18.591 3.804v-24.096c.302-.15.61-.302.906-.451 4.777-2.402 8.904-4.477 17.685-4.477 8.771 0 12.894 2.071 17.666 4.469 5.161 2.593 11.01 5.531 22.145 5.531 2.762 0 5-2.238 5-5s-2.238-5-5-5c-8.764 0-12.884-2.07-17.655-4.467-5.162-2.594-11.014-5.533-22.155-5.533-8.685 0-14.154 1.787-18.591 3.804v-24.096c.3-.15.609-.302.905-.451zm-122.844 235h78.875c17.759 0 33.039-10.807 39.616-26.189 25.593 6.442 32.518 14.08 32.518 17.66 0 10.548-42.852 25.869-110 25.869-12.884 0-25.532-.575-37.594-1.71-2.748-.276-5.188 1.76-5.446 4.509-.259 2.75 1.76 5.188 4.51 5.446 12.372 1.165 25.335 1.755 38.53 1.755 31.143 0 60.482-3.271 82.613-9.212 12.012-3.225 21.149-6.992 27.387-11.271v17.858c0 10.548-42.852 25.87-110 25.87s-110-15.322-110-25.87v-17.911c9.483 6.527 24.195 10.899 37.375 13.717.353.075.704.111 1.05.111 2.308 0 4.383-1.607 4.885-3.956.577-2.7-1.144-5.357-3.844-5.935-12.773-2.73-23.246-6.2-30.286-10.033-5.834-3.177-9.18-6.544-9.18-9.237 0-4.518 9.224-11.379 29.709-16.924 6.744 14.987 21.809 25.453 39.282 25.453zm81.937-145.059c0 1.688-1.372 3.06-3.06 3.06h-78.88c-1.688 0-3.06-1.372-3.06-3.06v-20.501c.67.323 1.335.657 2.01.996 5.162 2.591 11.012 5.528 22.151 5.528 11.134 0 16.983-2.938 22.145-5.531 4.772-2.397 8.896-4.469 17.666-4.469 8.769 0 12.889 2.07 17.658 4.467 1.085.545 2.195 1.099 3.37 1.639zm0-29.005c-4.905-2.438-10.685-4.972-21.028-4.972-11.142 0-16.993 2.939-22.155 5.533-4.771 2.396-8.892 4.467-17.655 4.467-8.77 0-12.891-2.069-17.664-4.466-2.013-1.011-4.082-2.042-6.498-2.943v-24.336c.67.323 1.336.657 2.011.996 5.161 2.592 11.011 5.529 22.15 5.529 11.134 0 16.983-2.938 22.145-5.531 4.772-2.397 8.896-4.469 17.666-4.469s12.889 2.07 17.659 4.467c1.085.545 2.195 1.098 3.369 1.638zm0-35.221c-4.904-2.438-10.685-4.971-21.028-4.971-11.142 0-16.993 2.939-22.155 5.533-4.771 2.396-8.892 4.467-17.655 4.467-8.77 0-12.891-2.069-17.663-4.466-2.013-1.011-4.082-2.042-6.498-2.943v-24.336c.67.323 1.335.657 2.01.996 5.162 2.591 11.012 5.528 22.151 5.528 11.134 0 16.983-2.938 22.145-5.531 4.772-2.397 8.896-4.469 17.666-4.469 8.769 0 12.889 2.07 17.658 4.467 1.085.545 2.195 1.099 3.37 1.639v24.086zm0-35.219c-4.905-2.438-10.685-4.972-21.028-4.972-11.142 0-16.993 2.939-22.155 5.533-4.771 2.396-8.892 4.467-17.655 4.467-8.77 0-12.891-2.069-17.664-4.466-2.013-1.011-4.082-2.042-6.498-2.943v-24.335c.67.323 1.335.657 2.01.996 5.162 2.591 11.012 5.528 22.151 5.528 11.134 0 16.983-2.938 22.145-5.531 4.772-2.397 8.896-4.469 17.666-4.469 8.769 0 12.889 2.07 17.658 4.467 1.085.545 2.195 1.099 3.37 1.639zm0-35.22c-4.905-2.438-10.685-4.972-21.028-4.972-11.142 0-16.993 2.939-22.155 5.533-4.771 2.396-8.892 4.467-17.655 4.467-8.77 0-12.891-2.069-17.664-4.466-2.013-1.011-4.082-2.042-6.498-2.943v-14.235c0-1.688 1.373-3.06 3.06-3.06h78.88c1.688 0 3.06 1.372 3.06 3.06zm30 109.069c-2.754.926-6.209 1.619-11.229 1.619-3.786 0-6.627-.413-8.771-.921v-25.021c2.718.482 5.601.722 8.771.722 4.585 0 8.221-.495 11.229-1.22zm0-35.22c-2.753.927-6.209 1.62-11.229 1.62-3.787 0-6.628-.413-8.771-.922v-25.021c2.718.482 5.6.722 8.771.722 4.586 0 8.221-.494 11.229-1.219zm0-35.22c-2.752.926-6.208 1.619-11.229 1.619-3.788 0-6.628-.413-8.771-.921v-25.021c2.718.482 5.6.722 8.771.722 4.585 0 8.22-.494 11.229-1.22z" fill="#00c"/></g><g><path d="m85.091 378.919c-7.175 0-13.012-5.837-13.012-13.012s5.837-13.012 13.012-13.012 13.012 5.837 13.012 13.012-5.837 13.012-13.012 13.012zm0-16.024c-1.661 0-3.012 1.351-3.012 3.012s1.351 3.012 3.012 3.012 3.012-1.351 3.012-3.012-1.351-3.012-3.012-3.012z" fill="#ff6c6c"/></g><g><path d="m124.692 332.156c-3.698 0-7.373-1.563-9.943-4.602-2.245-2.652-3.323-6.021-3.034-9.484s1.908-6.607 4.562-8.853c5.478-4.635 13.704-3.95 18.338 1.527s3.949 13.702-1.527 18.337c-2.441 2.065-5.426 3.075-8.396 3.075zm-.012-16.016c-.688 0-1.379.233-1.943.711-.614.521-.989 1.248-1.056 2.05s.183 1.581.702 2.194c1.073 1.268 2.978 1.426 4.245.354 1.268-1.073 1.426-2.978.354-4.245-.596-.703-1.446-1.064-2.302-1.064z" fill="#ff9d33"/></g><g><path d="m450.835 224.266c-3.697 0-7.372-1.563-9.942-4.6-4.636-5.478-3.95-13.705 1.527-18.339 2.652-2.246 6.021-3.317 9.484-3.035 3.464.289 6.607 1.909 8.853 4.563 4.636 5.477 3.95 13.704-1.527 18.338-2.439 2.064-5.424 3.073-8.395 3.073zm-.016-16.019c-.711 0-1.392.249-1.939.713-.615.521-.99 1.248-1.057 2.05s.183 1.582.702 2.196c1.074 1.267 2.979 1.425 4.245.354.614-.521.989-1.248 1.056-2.05s-.183-1.582-.702-2.196c-.521-.614-1.248-.989-2.05-1.056-.085-.007-.17-.011-.255-.011z" fill="#ff6c6c"/></g><g><path d="m393.065 396.629c-1.326 0-2.598-.527-3.536-1.465l-11.292-11.293c-1.952-1.952-1.952-5.118.001-7.07l11.292-11.292c1.951-1.953 5.117-1.952 7.07-.001l11.293 11.292c.938.938 1.465 2.21 1.465 3.536s-.526 2.598-1.465 3.535l-11.293 11.293c-.937.938-2.208 1.465-3.535 1.465zm-4.22-16.293 4.221 4.222 4.222-4.222-4.222-4.221z" fill="#6c6cff"/></g><g><path d="m152.292 74.842c-1.326 0-2.598-.526-3.536-1.465l-11.292-11.293c-.938-.938-1.464-2.209-1.464-3.535s.527-2.598 1.464-3.535l11.292-11.292c1.954-1.953 5.119-1.952 7.071 0l11.292 11.292c1.953 1.952 1.953 5.118 0 7.07l-11.292 11.293c-.936.937-2.208 1.465-3.535 1.465zm-4.221-16.293 4.221 4.222 4.221-4.222-4.221-4.221z" fill="#6c6cff"/></g></g></g></svg>