<svg id="Capa_1" enable-background="new 0 0 512 512" height="512" viewBox="0 0 512 512" width="512" xmlns="http://www.w3.org/2000/svg" xmlns:xlink="http://www.w3.org/1999/xlink"><linearGradient id="SVGID_1_" gradientUnits="userSpaceOnUse" x1="487.504" x2="27.504" y1="643.306" y2="-36.694"><stop offset=".0023" stop-color="#ffc599"/><stop offset=".992" stop-color="#ffe8dc" stop-opacity="0"/></linearGradient><g><path d="m465.257 164.114c-14.861-17.312-24.645-38.356-29.218-60.708-3.878-18.954-12.095-35.401-24.961-48.267-58.773-58.773-192.264-20.572-298.161 85.325s-144.098 239.387-85.325 298.16c27.937 27.937 72.757 33.955 123.469 21.212 29.453-7.401 60.532-4.287 88.29 8.03 23.202 10.295 48.799 16.173 75.724 16.566 105.676 1.543 193.748-82.552 196.839-188.195 1.479-50.505-16.354-96.822-46.657-132.123z" fill="url(#SVGID_1_)"/><g><g><path d="m449.934 141.502h-279.286l-54.165-54.165c-5.029-5.029-13.184-5.029-18.213 0s-5.029 13.184 0 18.213l35.952 35.952h-72.156c-11.046 0-20 8.954-20 20v247.333c0 11.046 8.954 20 20 20h387.867c11.046 0 20-8.954 20-20v-247.333c.001-11.045-8.954-20-19.999-20z" fill="#00c" opacity=".1"/><g><path d="m449.934 401.836h-387.868c-11.046 0-20-8.954-20-20v-247.334c0-11.046 8.954-20 20-20h387.867c11.046 0 20 8.954 20 20v247.333c.001 11.046-8.954 20.001-19.999 20.001z" fill="#6c6cff"/><path d="m403.5 372.404h-295c-5.523 0-10-4.477-10-10v-208.47c0-5.523 4.477-10 10-10h295c5.523 0 10 4.477 10 10v208.469c0 5.523-4.477 10.001-10 10.001z" fill="#ebebff"/><path d="m403.5 143.934h-101.5v228.469h101.5c5.523 0 10-4.477 10-10v-208.469c0-5.523-4.477-10-10-10z" fill="#d9d9ff"/><path d="m208.5 215.513h-27.024c-2.761 0-5-2.239-5-5v-27.024c0-2.761 2.239-5 5-5h27.024c2.761 0 5 2.239 5 5v27.024c0 2.762-2.239 5-5 5z" fill="#ff4d4d"/><g><g><g><path d="m80.716 372.404h-16.52c-2.762 0-5-2.239-5-5s2.238-5 5-5h16.52c2.762 0 5 2.239 5 5s-2.238 5-5 5z" fill="#ff9d33"/></g><g><path d="m80.716 341.263h-16.52c-2.762 0-5-2.239-5-5s2.238-5 5-5h16.52c2.762 0 5 2.239 5 5s-2.238 5-5 5z" fill="#ff9d33"/></g><g><path d="m80.716 310.123h-16.52c-2.762 0-5-2.239-5-5s2.238-5 5-5h16.52c2.762 0 5 2.239 5 5s-2.238 5-5 5z" fill="#ff9d33"/></g><g><path d="m80.716 278.983h-16.52c-2.762 0-5-2.239-5-5s2.238-5 5-5h16.52c2.762 0 5 2.239 5 5s-2.238 5-5 5z" fill="#ff9d33"/></g></g><g><g><path d="m447.804 372.404h-16.52c-2.762 0-5-2.239-5-5s2.238-5 5-5h16.52c2.762 0 5 2.239 5 5s-2.239 5-5 5z" fill="#ff9d33"/></g><g><path d="m447.804 341.263h-16.52c-2.762 0-5-2.239-5-5s2.238-5 5-5h16.52c2.762 0 5 2.239 5 5s-2.239 5-5 5z" fill="#ff9d33"/></g><g><path d="m447.804 310.123h-16.52c-2.762 0-5-2.239-5-5s2.238-5 5-5h16.52c2.762 0 5 2.239 5 5s-2.239 5-5 5z" fill="#ff9d33"/></g><g><path d="m447.804 278.983h-16.52c-2.762 0-5-2.239-5-5s2.238-5 5-5h16.52c2.762 0 5 2.239 5 5s-2.239 5-5 5z" fill="#ff9d33"/></g></g></g><circle cx="365.419" cy="186.399" fill="#ffab66" r="27.985"/><circle cx="365.419" cy="186.399" fill="#ff8b00" r="16.002"/><circle cx="365.419" cy="186.399" fill="#ff7300" r="5.768"/><g><path d="m375.187 250.231h-7.752c-1.927 0-3.488-1.562-3.488-3.488v-7.752c0-1.927 1.562-3.488 3.488-3.488h7.752c1.927 0 3.488 1.562 3.488 3.488v7.752c.001 1.926-1.561 3.488-3.488 3.488z" fill="#ff4d4d"/><path d="m389.916 250.231h-7.752c-1.927 0-3.488-1.562-3.488-3.488v-7.752c0-1.927 1.562-3.488 3.488-3.488h7.752c1.927 0 3.488 1.562 3.488 3.488v7.752c0 1.926-1.561 3.488-3.488 3.488z" fill="#ff2c2c"/><path d="m360.459 250.231h-7.752c-1.927 0-3.488-1.562-3.488-3.488v-7.752c0-1.927 1.562-3.488 3.488-3.488h7.752c1.927 0 3.488 1.562 3.488 3.488v7.752c0 1.926-1.562 3.488-3.488 3.488z" fill="#ff6c6c"/><path d="m345.73 250.231h-7.752c-1.927 0-3.488-1.562-3.488-3.488v-7.752c0-1.927 1.562-3.488 3.488-3.488h7.752c1.927 0 3.488 1.562 3.488 3.488v7.752c0 1.926-1.561 3.488-3.488 3.488z" fill="#ff9494"/><path d="m331.001 250.231h-7.752c-1.927 0-3.488-1.562-3.488-3.488v-7.752c0-1.927 1.562-3.488 3.488-3.488h7.752c1.927 0 3.488 1.562 3.488 3.488v7.752c.001 1.926-1.561 3.488-3.488 3.488z" fill="#ffb3b3"/></g><g><path d="m375.187 272.898h-7.752c-1.927 0-3.488-1.562-3.488-3.488v-7.752c0-1.927 1.562-3.488 3.488-3.488h7.752c1.927 0 3.488 1.562 3.488 3.488v7.752c.001 1.926-1.561 3.488-3.488 3.488z" fill="#6c6cff"/><path d="m389.916 272.898h-7.752c-1.927 0-3.488-1.562-3.488-3.488v-7.752c0-1.927 1.562-3.488 3.488-3.488h7.752c1.927 0 3.488 1.562 3.488 3.488v7.752c0 1.926-1.561 3.488-3.488 3.488z" fill="#4d4dff"/><path d="m360.459 272.898h-7.752c-1.927 0-3.488-1.562-3.488-3.488v-7.752c0-1.927 1.562-3.488 3.488-3.488h7.752c1.927 0 3.488 1.562 3.488 3.488v7.752c0 1.926-1.562 3.488-3.488 3.488z" fill="#8383ff"/><path d="m345.73 272.898h-7.752c-1.927 0-3.488-1.562-3.488-3.488v-7.752c0-1.927 1.562-3.488 3.488-3.488h7.752c1.927 0 3.488 1.562 3.488 3.488v7.752c0 1.926-1.561 3.488-3.488 3.488z" fill="#9494ff"/><path d="m331.001 272.898h-7.752c-1.927 0-3.488-1.562-3.488-3.488v-7.752c0-1.927 1.562-3.488 3.488-3.488h7.752c1.927 0 3.488 1.562 3.488 3.488v7.752c.001 1.926-1.561 3.488-3.488 3.488z" fill="#b3b3ff"/></g><g><path d="m375.187 295.564h-7.752c-1.927 0-3.488-1.562-3.488-3.488v-7.752c0-1.927 1.562-3.488 3.488-3.488h7.752c1.927 0 3.488 1.562 3.488 3.488v7.752c.001 1.926-1.561 3.488-3.488 3.488z" fill="#ff9d33"/><path d="m389.916 295.564h-7.752c-1.927 0-3.488-1.562-3.488-3.488v-7.752c0-1.927 1.562-3.488 3.488-3.488h7.752c1.927 0 3.488 1.562 3.488 3.488v7.752c0 1.926-1.561 3.488-3.488 3.488z" fill="#ff8b00"/><path d="m360.459 295.564h-7.752c-1.927 0-3.488-1.562-3.488-3.488v-7.752c0-1.927 1.562-3.488 3.488-3.488h7.752c1.927 0 3.488 1.562 3.488 3.488v7.752c0 1.926-1.562 3.488-3.488 3.488z" fill="#ffab66"/><path d="m345.73 295.564h-7.752c-1.927 0-3.488-1.562-3.488-3.488v-7.752c0-1.927 1.562-3.488 3.488-3.488h7.752c1.927 0 3.488 1.562 3.488 3.488v7.752c0 1.926-1.561 3.488-3.488 3.488z" fill="#ffc599"/><path d="m331.001 295.564h-7.752c-1.927 0-3.488-1.562-3.488-3.488v-7.752c0-1.927 1.562-3.488 3.488-3.488h7.752c1.927 0 3.488 1.562 3.488 3.488v7.752c.001 1.926-1.561 3.488-3.488 3.488z" fill="#ffd6bb"/></g><path d="m393.404 372.404h-51.55v-52.235c0-1.657 1.343-3 3-3h45.55c1.657 0 3 1.343 3 3z" fill="#b3b3ff"/><path d="m393.404 331.263h-51.55v-11.094c0-1.657 1.343-3 3-3h45.55c1.657 0 3 1.343 3 3z" fill="#9494ff"/><g><path d="m238.651 188.94 1.571 7.423c.748 3.537-2.389 6.675-5.927 5.927l-7.423-1.571c-5.326-1.127-10.21-3.776-14.059-7.625l-114.543-114.544c-5.029-5.029-5.029-13.184 0-18.213 5.029-5.029 13.184-5.029 18.213 0l114.544 114.544c3.849 3.849 6.498 8.733 7.624 14.059z" fill="#6c6cff"/><path d="m106.074 75.02h25.757v12h-25.757z" fill="#ffab66" transform="matrix(.707 -.707 .707 .707 -22.449 107.842)"/><path d="m197.881 178.161 14.933 14.933c3.849 3.849 8.733 6.498 14.059 7.625l7.423 1.57c3.537.749 6.675-2.389 5.927-5.927l-1.57-7.423c-1.127-5.326-3.776-10.21-7.625-14.059l-14.933-14.933z" fill="#4d4dff"/><g fill="#00c"><path d="m469.934 282.334c-2.762 0-5 2.238-5 5v94.502c0 8.271-6.729 15-15 15h-387.868c-8.271 0-15-6.729-15-15v-247.334c0-8.271 6.729-15 15-15h70.085l77.127 77.127c4.544 4.545 10.271 7.65 16.559 8.981l7.422 1.57c.695.147 1.394.219 2.086.219 2.621 0 5.156-1.031 7.057-2.931 2.401-2.402 3.415-5.819 2.712-9.142l-1.57-7.423c-1.331-6.288-4.437-12.015-8.981-16.559l-114.545-114.542c-6.971-6.971-18.313-6.971-25.283 0s-6.971 18.313 0 25.283l27.417 27.417h-60.086c-13.785 0-25 11.215-25 25v247.334c0 13.785 11.215 25 25 25h387.867c13.785 0 25-11.215 25-25v-94.502c.001-2.762-2.238-5-4.999-5zm-368.129-218.462c1.536-1.535 3.554-2.304 5.571-2.304s4.035.769 5.571 2.304l114.544 114.544c3.172 3.173 5.34 7.169 6.269 11.559l1.57 7.423-7.423-1.57c-4.39-.929-8.386-3.097-11.559-6.269l-114.543-114.544c-3.072-3.073-3.072-8.071 0-11.143z"/><path d="m449.934 109.502h-245.684c-2.762 0-5 2.238-5 5s2.238 5 5 5h245.684c8.271 0 15 6.729 15 15v118.831c0 2.762 2.238 5 5 5s5-2.238 5-5v-118.831c0-13.785-11.215-25-25-25z"/></g></g><circle cx="200.027" cy="292.212" fill="#9494ff" r="44.052"/><g><path d="m263.466 333.254c-.733 0-1.478-.162-2.182-.504-2.483-1.207-3.519-4.199-2.312-6.683 1.951-4.016 2.088-6.327 1.564-7.15-1.86-2.931-13.938-2.772-21.158-2.68-14.123.187-31.694.413-32.626-13.644-.623-9.408 13.956-17.503 37.793-29.931 7.988-4.165 19.697-10.269 23.038-13.362-.027-.019-.055-.037-.084-.056-6.108-3.939-32.8 4.299-54.247 10.917-40.702 12.56-82.79 25.547-92.457 2.47-2.52-6.016-2.428-11.572.275-16.513 7.706-14.086 35.69-18.976 65.318-24.152 24.696-4.315 50.232-8.776 59.826-18.024 1.988-1.916 5.154-1.859 7.07.129 1.917 1.988 1.858 5.154-.129 7.07-11.797 11.372-37.662 15.891-65.045 20.675-24.782 4.33-52.87 9.237-58.266 19.101-.757 1.384-1.563 3.703.175 7.851 6.161 14.708 49.002 1.491 80.285-8.162 32.606-10.062 53.076-15.916 62.615-9.766 2.858 1.843 4.602 4.651 5.041 8.121.864 6.818-7.671 11.559-28.791 22.569-10.769 5.614-30.721 16.017-32.415 20.613.662 4.38 12.75 4.221 22.495 4.096 12.793-.17 24.878-.324 29.73 7.318 2.741 4.317 2.41 9.839-1.013 16.882-.864 1.78-2.646 2.815-4.5 2.815z" fill="#ffab66"/></g><path d="m184.5 346.766h-27.024c-2.761 0-5-2.239-5-5v-27.024c0-2.761 2.239-5 5-5h27.024c2.761 0 5 2.239 5 5v27.024c0 2.761-2.239 5-5 5z" fill="#ff4d4d"/><g><path d="m148.06 183.489v91.8c-3.81.15-7.19-.05-10-.72v-91.08c0-2.76 2.24-5 5-5s5 2.24 5 5z" fill="#6c6cff"/></g></g></g><g><path d="m174 72.565c-1.279 0-2.56-.488-3.535-1.465l-11-11c-1.953-1.952-1.953-5.118 0-7.07l11-11c1.951-1.953 5.119-1.953 7.07 0l11 11c1.953 1.952 1.953 5.118 0 7.07l-11 11c-.975.977-2.256 1.465-3.535 1.465zm-3.929-16 3.929 3.929 3.929-3.929-3.929-3.928z" fill="#ff9d33"/></g><g><path d="m330.5 465.423c-1.279 0-2.56-.488-3.535-1.465l-11-11c-1.953-1.952-1.953-5.118 0-7.07l11-11c1.951-1.953 5.119-1.953 7.07 0l11 11c1.953 1.952 1.953 5.118 0 7.07l-11 11c-.975.977-2.256 1.465-3.535 1.465zm-3.929-16 3.929 3.929 3.929-3.929-3.929-3.929z" fill="#6c6cff"/></g><g><path d="m421.972 78.652c-1.279 0-2.56-.488-3.535-1.465l-11-11c-1.953-1.952-1.953-5.118 0-7.07l11-11c1.951-1.953 5.119-1.953 7.07 0l11 11c1.953 1.952 1.953 5.118 0 7.07l-11 11c-.976.977-2.256 1.465-3.535 1.465zm-3.929-16 3.929 3.929 3.929-3.929-3.929-3.929z" fill="#ff6c6c"/></g><g><path d="m222.831 90.724c-7.175 0-13.012-5.837-13.012-13.012s5.837-13.013 13.012-13.013 13.012 5.838 13.012 13.013-5.837 13.012-13.012 13.012zm0-16.025c-1.661 0-3.012 1.352-3.012 3.013s1.351 3.012 3.012 3.012 3.012-1.351 3.012-3.012-1.351-3.013-3.012-3.013z" fill="#6c6cff"/></g><g><path d="m266.977 471.435c-7.175 0-13.012-5.837-13.012-13.012s5.837-13.012 13.012-13.012 13.012 5.837 13.012 13.012-5.838 13.012-13.012 13.012zm0-16.024c-1.661 0-3.012 1.351-3.012 3.012s1.351 3.012 3.012 3.012 3.012-1.351 3.012-3.012-1.351-3.012-3.012-3.012z" fill="#ff6c6c"/></g></g></g></svg>