<svg id="Capa_1" enable-background="new 0 0 512 512" height="512" viewBox="0 0 512 512" width="512" xmlns="http://www.w3.org/2000/svg" xmlns:xlink="http://www.w3.org/1999/xlink"><linearGradient id="SVGID_1_" gradientUnits="userSpaceOnUse" x1="484.555" x2="-53.445" y1="672.3" y2="-139.701"><stop offset=".008" stop-color="#ffe8dc" stop-opacity="0"/><stop offset=".993" stop-color="#9494ff"/></linearGradient><g><path d="m419.843 204.806c1.055-7.758 1.571-15.687 1.509-23.748-.692-90.025-74.256-163.486-164.281-164.057-91.815-.581-166.428 73.673-166.428 165.354 0 7.615.516 15.109 1.513 22.45 4.043 29.747-9.887 59.143-35.212 75.263-35.611 22.668-56.944 51.54-56.944 82.98 0 72.876 114.615 131.954 256 131.954s256-59.078 256-131.954c0-31.44-21.334-60.312-56.946-82.98-25.325-16.12-39.254-45.516-35.211-75.262z" fill="url(#SVGID_1_)"/><g><g opacity=".1"><g><path d="m440.33 154.015c-.883 0-1.778-.234-2.588-.726-6.579-3.991-14.132-6.1-21.845-6.1s-15.266 2.109-21.845 6.1c-2.361 1.433-5.436.68-6.868-1.682-1.432-2.361-.679-5.436 1.682-6.868 8.143-4.939 17.49-7.55 27.031-7.55s18.889 2.611 27.031 7.55c2.361 1.432 3.114 4.507 1.682 6.868-.941 1.551-2.59 2.408-4.28 2.408z" fill="#00c"/></g><g><path d="m426.288 170.252c-.883 0-1.778-.234-2.588-.726-4.698-2.85-10.908-2.85-15.606 0-2.361 1.433-5.436.68-6.868-1.682s-.679-5.436 1.682-6.868c3.914-2.374 8.405-3.628 12.99-3.628s9.076 1.255 12.99 3.628c2.361 1.432 3.114 4.507 1.682 6.868-.942 1.551-2.591 2.408-4.282 2.408z" fill="#00c"/></g><g><path d="m453.32 136.931c-.883 0-1.778-.234-2.588-.726-10.491-6.364-22.537-9.729-34.835-9.729s-24.344 3.364-34.835 9.729c-2.362 1.433-5.437.68-6.868-1.682-1.432-2.361-.679-5.436 1.682-6.868 12.055-7.313 25.895-11.179 40.021-11.179s27.966 3.866 40.021 11.179c2.361 1.432 3.114 4.507 1.682 6.868-.941 1.551-2.59 2.408-4.28 2.408z" fill="#00c"/></g></g><g><path d="m466.5 191.423h-101c-5.523 0-10 4.477-10 10v8.396h-310c-5.523 0-10 4.477-10 10v146.41c0 5.523 4.477 10 10 10h51.152v61.507c0 2.761 2.239 5 5 5h184.659c2.761 0 5-2.239 5-5v-61.506h175.189c5.523 0 10-4.477 10-10v-164.807c0-5.522-4.477-10-10-10z" fill="#00c" opacity=".1"/><g><path d="m320.167 197.753h-254.775v-59.765c0-5.523 4.477-10 10-10h234.775c5.523 0 10 4.477 10 10z" fill="#4d4dff"/><g><path d="m101.652 111.092h184.659c2.761 0 5 2.239 5 5v86.846h-194.659v-86.846c0-2.762 2.238-5 5-5z" fill="#fff"/></g><path d="m429.851 349.23h-384.351c-5.523 0-10-4.477-10-10v-146.41c0-5.523 4.477-10 10-10h384.351z" fill="#9494ff"/><path d="m328.856 349.23h-264.727v-48.856c0-3.962 3.212-7.174 7.174-7.174h250.379c3.962 0 7.174 3.212 7.174 7.174z" fill="#4d4dff"/><g><path d="m286.311 415.737h-184.659c-2.761 0-5-2.239-5-5v-86.846h194.659v86.846c0 2.761-2.239 5-5 5z" fill="#ffab66"/><path d="m96.652 323.891h194.659v20.097h-194.659z" fill="#ff9d33"/></g><path d="m466.5 349.23h-101c-5.523 0-10-4.477-10-10v-164.807c0-5.523 4.477-10 10-10h101c5.523 0 10 4.477 10 10v164.807c0 5.523-4.477 10-10 10z" fill="#b3b3ff"/><g><path d="m395 349.23h-21v-29.242c0-5.799 4.701-10.5 10.5-10.5 5.799 0 10.5 4.701 10.5 10.5z" fill="#ff4d4d"/><path d="m426.5 349.23h-21v-29.242c0-5.799 4.701-10.5 10.5-10.5 5.799 0 10.5 4.701 10.5 10.5z" fill="#6c6cff"/><path d="m458 349.23h-21v-29.242c0-5.799 4.701-10.5 10.5-10.5 5.799 0 10.5 4.701 10.5 10.5z" fill="#ff9d33"/></g><path d="m476.5 253.42h-89c-2.761 0-5-2.239-5-5v-46.333c0-2.761 2.239-5 5-5h89z" fill="#ffab66"/><g fill="#00c"><path d="m440.33 127.016c1.69 0 3.339-.857 4.28-2.407 1.432-2.361.679-5.437-1.682-6.869-8.144-4.939-17.491-7.551-27.031-7.551s-18.887 2.611-27.031 7.551c-2.361 1.433-3.114 4.508-1.682 6.868 1.433 2.361 4.506 3.115 6.868 1.683 6.58-3.992 14.134-6.102 21.845-6.102s15.265 2.109 21.845 6.102c.81.49 1.704.725 2.588.725z"/><path d="m415.896 130.348c-4.584 0-9.076 1.255-12.99 3.628-2.361 1.433-3.114 4.508-1.682 6.868 1.432 2.361 4.507 3.115 6.868 1.683 4.698-2.852 10.907-2.852 15.607 0 .811.491 1.705.726 2.588.726 1.69 0 3.34-.857 4.28-2.408 1.432-2.361.679-5.436-1.683-6.868-3.911-2.374-8.403-3.629-12.988-3.629z"/><path d="m381.062 109.205c10.491-6.364 22.537-9.729 34.835-9.729s24.344 3.364 34.835 9.729c.811.492 1.705.727 2.588.727 1.69 0 3.339-.857 4.28-2.407 1.432-2.361.679-5.437-1.682-6.868-12.055-7.314-25.895-11.18-40.022-11.18s-27.967 3.866-40.021 11.18c-2.361 1.432-3.114 4.507-1.682 6.868 1.433 2.36 4.509 3.115 6.869 1.68z"/><path d="m466.5 159.424h-101c-8.271 0-15 6.729-15 15v3.396h-25.333v-39.832c0-8.271-6.729-15-15-15h-13.855v-6.896c0-5.514-4.486-10-10-10h-184.66c-5.514 0-10 4.486-10 10v6.896h-16.26c-8.271 0-15 6.729-15 15v39.832h-14.892c-8.271 0-15 6.729-15 15v146.41c0 8.271 6.729 15 15 15h46.152v56.506c0 5.514 4.486 10 10 10h184.659c5.514 0 10-4.486 10-10v-56.506h170.189c8.271 0 15-6.729 15-15v-164.806c0-8.272-6.729-15-15-15zm-156.333-26.436c2.757 0 5 2.243 5 5v39.832h-18.855v-44.832zm-239.775 5c0-2.757 2.243-5 5-5h16.26v44.832h-21.26zm31.26 272.748v-81.845h184.66l.006 81.845zm369.848-71.506c0 2.757-2.243 5-5 5h-170.189v-15.339h9.587c2.761 0 5-2.238 5-5s-2.239-5-5-5h-218.812c-2.761 0-5 2.238-5 5s2.239 5 5 5h4.566v15.339h-46.152c-2.757 0-5-2.243-5-5v-146.41c0-2.757 2.243-5 5-5h211.811c2.761 0 5-2.238 5-5s-2.239-5-5-5h-155.659v-61.729h184.659v66.729c0 2.762 2.239 5 5 5h59.189v127.409c0 2.762 2.239 5 5 5s5-2.238 5-5v-140.805c0-2.757 2.243-5 5-5h101c2.757 0 5 2.243 5 5z"/></g><g><path d="m417.491 220.753h-16.52c-2.762 0-5-2.239-5-5s2.238-5 5-5h16.52c2.762 0 5 2.239 5 5s-2.238 5-5 5z" fill="#ff8b00"/></g><g><path d="m453.491 238.753h-52.52c-2.762 0-5-2.239-5-5s2.238-5 5-5h52.52c2.762 0 5 2.239 5 5s-2.238 5-5 5z" fill="#fff3ee"/></g><g><path d="m122.911 257.988h-52.52c-2.762 0-5-2.239-5-5s2.238-5 5-5h52.52c2.762 0 5 2.239 5 5s-2.238 5-5 5z" fill="#fff3ee"/></g><path d="m145.167 236.753h-76.038c-2.761 0-5-2.239-5-5v-16.432c0-2.761 2.239-5 5-5h76.038c2.761 0 5 2.239 5 5v16.432c0 2.762-2.239 5-5 5z" fill="#ffab66"/><g><circle cx="316.833" cy="242.546" fill="#ffb3b3" r="7.443"/><circle cx="316.833" cy="267.404" fill="#ff4d4d" r="7.443"/></g></g><g><path d="m405.5 433.629c-1.28 0-2.559-.488-3.536-1.465l-11.292-11.292c-.938-.938-1.464-2.209-1.464-3.535s.527-2.598 1.464-3.535l11.292-11.293c.938-.938 2.209-1.465 3.536-1.465s2.598.526 3.536 1.465l11.292 11.293c.938.938 1.464 2.209 1.464 3.535s-.527 2.598-1.464 3.535l-11.292 11.292c-.977.977-2.256 1.465-3.536 1.465zm-4.221-16.292 4.221 4.221 4.221-4.221-4.221-4.222z" fill="#ff9d33"/></g><g><path d="m331.5 109.033c-1.28 0-2.559-.488-3.536-1.465l-11.292-11.292c-.938-.938-1.464-2.209-1.464-3.535s.527-2.598 1.464-3.535l11.292-11.292c1.953-1.953 5.118-1.953 7.071 0l11.292 11.292c.938.938 1.464 2.209 1.464 3.535s-.527 2.598-1.464 3.535l-11.292 11.292c-.976.977-2.255 1.465-3.535 1.465zm-4.221-16.292 4.221 4.221 4.221-4.221-4.221-4.221z" fill="#ff6c6c"/></g><g><path d="m291.543 83.721c-1.28 0-2.559-.488-3.536-1.465l-11.292-11.292c-.938-.938-1.464-2.209-1.464-3.535s.527-2.598 1.464-3.535l11.292-11.292c1.953-1.953 5.118-1.953 7.071 0l11.292 11.292c.938.938 1.464 2.209 1.464 3.535s-.527 2.598-1.464 3.535l-11.292 11.292c-.975.976-2.255 1.465-3.535 1.465zm-4.221-16.292 4.221 4.221 4.221-4.221-4.221-4.221z" fill="#6c6cff"/></g><g><path d="m348.824 403.284c-7.292 0-13.225-5.933-13.225-13.226 0-7.292 5.933-13.225 13.225-13.225s13.225 5.933 13.225 13.225c0 7.294-5.933 13.226-13.225 13.226zm0-16.45c-1.778 0-3.225 1.446-3.225 3.225s1.447 3.226 3.225 3.226 3.225-1.447 3.225-3.226-1.447-3.225-3.225-3.225z" fill="#ff6c6c"/></g><g><path d="m73.617 460.863c-7.292 0-13.225-5.933-13.225-13.225s5.933-13.225 13.225-13.225 13.225 5.933 13.225 13.225-5.933 13.225-13.225 13.225zm0-16.449c-1.778 0-3.225 1.446-3.225 3.225s1.447 3.225 3.225 3.225 3.225-1.446 3.225-3.225-1.447-3.225-3.225-3.225z" fill="#6c6cff"/></g></g></g></g></svg>