<svg id="Capa_1" enable-background="new 0 0 512 512" height="512" viewBox="0 0 512 512" width="512" xmlns="http://www.w3.org/2000/svg" xmlns:xlink="http://www.w3.org/1999/xlink"><linearGradient id="SVGID_1_" gradientUnits="userSpaceOnUse" x1="378.974" x2="130.974" y1="16.81" y2="640.81"><stop offset=".0023" stop-color="#ffc599"/><stop offset=".992" stop-color="#ffe8dc" stop-opacity="0"/></linearGradient><g><path d="m465.257 164.114c-14.861-17.312-24.645-38.356-29.218-60.708-3.878-18.954-12.095-35.401-24.961-48.267-58.773-58.773-192.264-20.572-298.161 85.325s-144.098 239.387-85.325 298.16c27.937 27.937 72.757 33.955 123.469 21.212 29.453-7.401 60.532-4.287 88.29 8.03 23.202 10.295 48.799 16.173 75.724 16.566 105.676 1.543 193.748-82.552 196.839-188.195 1.479-50.505-16.354-96.822-46.657-132.123z" fill="url(#SVGID_1_)"/><g><g><path d="m472.217 159.851h-98.349c-2.761 0-5 2.239-5 5v45.104h-112.868-165c-5.523 0-10 4.477-10 10v130.685h-41.217c-2.761 0-5 2.239-5 5v74.419c0 2.761 2.239 5 5 5h98.348c2.761 0 5-2.239 5-5v-45.104h112.869 165c5.523 0 10-4.477 10-10v-130.684h41.217c2.761 0 5-2.239 5-5v-74.419c0-2.762-2.239-5.001-5-5.001z" fill="#00c" opacity=".1"/><g><g><g><path d="m256 357.956h-175v-165c0-5.523 4.477-10 10-10h165z" fill="#fff"/></g><g fill="#6c6cff"><path d="m161.167 266.313h14.667c2.761 0 5 2.239 5 5v38.988c0 2.761-2.239 5-5 5h-14.667c-2.761 0-5-2.239-5-5v-38.988c0-2.761 2.238-5 5-5z"/><g><path d="m156.327 230.61v14.667c0 2.761-2.239 5-5 5h-38.988c-2.761 0-5-2.239-5-5v-14.667c0-2.761 2.239-5 5-5h38.988c2.762 0 5 2.239 5 5z"/><path d="m229.661 230.61v14.667c0 2.761-2.239 5-5 5h-38.988c-2.761 0-5-2.239-5-5v-14.667c0-2.761 2.239-5 5-5h38.988c2.761 0 5 2.239 5 5z"/></g></g><g fill="#d9d9ff"><circle cx="104.358" cy="206.314" r="7.443"/><circle cx="232.642" cy="334.598" r="7.443"/></g><g fill="#6c6cff"><path d="m133.5 287.869h-4.5c-2.761 0-5-2.239-5-5v-12.173c0-2.761 2.239-5 5-5h4.5c2.761 0 5 2.239 5 5v12.173c0 2.762-2.239 5-5 5z"/><path d="m208 287.869h-4.5c-2.761 0-5-2.239-5-5v-12.173c0-2.761 2.239-5 5-5h4.5c2.761 0 5 2.239 5 5v12.173c0 2.762-2.239 5-5 5z"/></g></g><g><g><path d="m431 182.956v165c0 5.523-4.477 10-10 10h-165v-175z" fill="#fff"/></g><g><path d="m431 182.956v54.17h-57.13c-2.76 0-5-2.24-5-5v-49.17z" fill="#fff3ee"/></g><path d="m343.5 206.786c-35.16 0-63.67 28.51-63.67 63.67s28.51 63.67 63.67 63.67 63.67-28.51 63.67-63.67-28.51-63.67-63.67-63.67zm0 108.92c-24.99 0-45.25-20.26-45.25-45.25s20.26-45.25 45.25-45.25 45.25 20.26 45.25 45.25-20.26 45.25-45.25 45.25z" fill="#ffab66"/><path d="m397.75 237.126h-23.64c-1.61-1.48-3.33-2.85-5.15-4.08-.06-.3-.09-.61-.09-.92v-20.07c12 5.21 22.08 14.02 28.88 25.07z" fill="#ff9d33"/><circle cx="343.5" cy="270.456" fill="#ff6c6c" r="18.847"/><g fill="#d9d9ff"><circle cx="279.358" cy="206.314" r="7.443"/><circle cx="407.642" cy="334.598" r="7.443"/></g></g></g><g><g><g><path d="m368.868 212.271v-74.419c0-2.761 2.239-5 5-5h98.348c2.761 0 5 2.239 5 5v74.419c0 2.761-2.239 5-5 5h-98.348c-2.761 0-5-2.239-5-5z" fill="#ffc599"/></g><g><path d="m407.164 159.241h31.758c8.738 0 15.824 7.08 15.824 15.818s-7.086 15.824-15.824 15.824h-31.758c-8.745 0-15.824-7.086-15.824-15.824 0-4.369 1.768-8.325 4.634-11.184 2.865-2.866 6.815-4.634 11.19-4.634z" fill="#ff7300"/><circle cx="407.161" cy="175.061" fill="#fff" r="15.823"/></g></g><g><path d="m34.783 403.06v-74.419c0-2.761 2.239-5 5-5h98.348c2.761 0 5 2.239 5 5v74.419c0 2.761-2.239 5-5 5h-98.348c-2.761 0-5-2.238-5-5z" fill="#6c6cff"/></g></g><g><g fill="#00c"><path d="m472.217 127.852h-98.349c-5.514 0-10 4.486-10 10v40.104h-272.868c-8.271 0-15 6.729-15 15v125.685h-36.217c-5.514 0-10 4.486-10 10v74.42c0 5.514 4.486 10 10 10h98.349c5.514 0 10-4.486 10-10v-40.104h272.868c8.271 0 15-6.729 15-15v-96.685c0-2.762-2.238-5-5-5s-5 2.238-5 5v96.685c0 2.757-2.243 5-5 5h-160v-165h102.868v24.314c0 5.514 4.486 10 10 10h98.349c5.514 0 10-4.486 10-10v-74.419c0-5.514-4.487-10-10-10zm-334.085 190.789h-23.132c-2.761 0-5 2.238-5 5s2.239 5 5 5h23.131v74.42h-98.348v-74.42h41.217c2.761 0 5-2.238 5-5v-130.685c0-2.757 2.243-5 5-5h160v165h-102.868v-24.315c0-5.514-4.486-10-10-10zm334.085-106.37-98.349.007v-74.426h98.349z"/><path d="m280.433 141.771c1.69 0 3.339-.857 4.28-2.407 1.432-2.361.679-5.437-1.682-6.869-8.143-4.938-17.49-7.55-27.031-7.55-9.542 0-18.889 2.611-27.031 7.55-2.361 1.433-3.114 4.508-1.682 6.869 1.432 2.36 4.507 3.113 6.868 1.682 6.579-3.991 14.132-6.101 21.845-6.101 7.712 0 15.266 2.109 21.844 6.101.811.49 1.705.725 2.589.725z"/><path d="m256 145.103c-4.583 0-9.075 1.255-12.99 3.629-2.361 1.433-3.114 4.508-1.682 6.868 1.432 2.361 4.506 3.114 6.868 1.683 4.701-2.852 10.907-2.851 15.607 0 .811.491 1.705.726 2.588.726 1.69 0 3.34-.857 4.28-2.408 1.432-2.36.679-5.436-1.683-6.868-3.913-2.376-8.404-3.63-12.988-3.63z"/><path d="m218.577 124.687c.883 0 1.778-.234 2.588-.726 10.492-6.364 22.537-9.729 34.835-9.729 12.297 0 24.343 3.364 34.836 9.729 2.363 1.432 5.437.678 6.868-1.683s.679-5.436-1.683-6.868c-12.056-7.313-25.896-11.178-40.021-11.178-14.127 0-27.966 3.865-40.021 11.178-2.361 1.433-3.114 4.508-1.682 6.868.94 1.551 2.589 2.409 4.28 2.409z"/></g><g opacity=".1"><g><path d="m280.433 168.771c-.883 0-1.778-.234-2.588-.726-6.579-3.991-14.132-6.1-21.845-6.1s-15.266 2.109-21.845 6.1c-2.361 1.433-5.436.68-6.868-1.682-1.432-2.361-.679-5.436 1.682-6.868 8.143-4.939 17.49-7.55 27.031-7.55s18.889 2.611 27.031 7.55c2.361 1.432 3.114 4.507 1.682 6.868-.941 1.55-2.59 2.408-4.28 2.408z" fill="#00c"/></g><g><path d="m266.392 185.007c-.883 0-1.778-.234-2.588-.726-4.698-2.85-10.908-2.85-15.606 0-2.361 1.433-5.436.68-6.868-1.682s-.679-5.436 1.682-6.868c3.914-2.374 8.405-3.628 12.99-3.628s9.076 1.255 12.99 3.628c2.361 1.432 3.114 4.507 1.682 6.868-.943 1.551-2.592 2.408-4.282 2.408z" fill="#00c"/></g><g><path d="m293.423 151.686c-.883 0-1.778-.234-2.588-.726-10.491-6.364-22.537-9.729-34.835-9.729s-24.344 3.364-34.835 9.729c-2.362 1.433-5.437.68-6.868-1.682-1.432-2.361-.679-5.436 1.682-6.868 12.055-7.313 25.895-11.179 40.021-11.179s27.966 3.866 40.021 11.179c2.361 1.432 3.114 4.507 1.682 6.868-.94 1.551-2.59 2.408-4.28 2.408z" fill="#00c"/></g></g></g><path d="m97.503 343.825-6.987 16.768h10.976c1.114 0 1.703 1.319.959 2.149l-20.98 27.597c-1.307 1.72-3.983.106-3.071-1.853l9.746-20.936h-11.93c-.919 0-1.543-.935-1.189-1.784l9.555-22.932c.2-.48.669-.793 1.189-.793h10.543c.919 0 1.543.935 1.189 1.784z" fill="#ffc599"/></g><g><path d="m88.958 104.524c-1.28 0-2.559-.488-3.536-1.465l-11.293-11.291c-.938-.938-1.464-2.209-1.464-3.535s.527-2.598 1.464-3.535l11.292-11.293c.938-.938 2.209-1.465 3.536-1.465s2.598.526 3.536 1.465l11.292 11.293c.938.938 1.464 2.209 1.464 3.535s-.527 2.598-1.464 3.535l-11.292 11.292c-.976.976-2.256 1.464-3.535 1.464zm-4.222-16.292 4.221 4.221 4.221-4.221-4.221-4.222z" fill="#ff9d33"/></g><g><path d="m143.132 138.415c-1.28 0-2.559-.488-3.536-1.465l-11.292-11.292c-.938-.938-1.464-2.209-1.464-3.535s.527-2.598 1.464-3.535l11.292-11.293c.938-.938 2.209-1.465 3.536-1.465s2.598.526 3.536 1.465l11.292 11.293c.938.938 1.464 2.209 1.464 3.535s-.527 2.598-1.464 3.535l-11.292 11.292c-.977.977-2.256 1.465-3.536 1.465zm-4.221-16.292 4.221 4.221 4.221-4.221-4.221-4.222z" fill="#6c6cff"/></g><g><path d="m198.5 439.275c-1.326 0-2.598-.526-3.536-1.465l-11.292-11.293c-.938-.938-1.464-2.209-1.464-3.535s.527-2.598 1.464-3.535l11.292-11.292c1.953-1.953 5.118-1.953 7.071 0l11.292 11.292c.938.938 1.464 2.209 1.464 3.535s-.527 2.598-1.464 3.535l-11.292 11.293c-.937.939-2.209 1.465-3.535 1.465zm-4.221-16.293 4.221 4.222 4.221-4.222-4.221-4.221z" fill="#ff6c6c"/></g><g><path d="m391.34 434.607c-7.292 0-13.225-5.933-13.225-13.225s5.933-13.225 13.225-13.225 13.225 5.933 13.225 13.225-5.933 13.225-13.225 13.225zm0-16.449c-1.778 0-3.225 1.446-3.225 3.225s1.446 3.225 3.225 3.225 3.225-1.446 3.225-3.225-1.447-3.225-3.225-3.225z" fill="#6c6cff"/></g><g><path d="m343.5 113.348c-7.292 0-13.225-5.933-13.225-13.225s5.933-13.225 13.225-13.225 13.225 5.933 13.225 13.225-5.933 13.225-13.225 13.225zm0-16.45c-1.778 0-3.225 1.446-3.225 3.225s1.446 3.225 3.225 3.225 3.225-1.446 3.225-3.225-1.447-3.225-3.225-3.225z" fill="#6c6cff"/></g></g></g></svg>