<svg id="Capa_1" enable-background="new 0 0 512 512" height="512" viewBox="0 0 512 512" width="512" xmlns="http://www.w3.org/2000/svg" xmlns:xlink="http://www.w3.org/1999/xlink"><linearGradient id="SVGID_1_" gradientUnits="userSpaceOnUse" x1="378.974" x2="130.974" y1="16.81" y2="640.81"><stop offset=".0023" stop-color="#ffc599"/><stop offset=".992" stop-color="#ffe8dc" stop-opacity="0"/></linearGradient><path d="m465.257 164.114c-14.861-17.312-24.645-38.356-29.218-60.708-3.878-18.954-12.095-35.401-24.961-48.267-58.773-58.773-192.264-20.572-298.161 85.325s-144.098 239.387-85.325 298.16c27.937 27.937 72.757 33.955 123.469 21.212 29.453-7.401 60.532-4.287 88.29 8.03 23.202 10.295 48.799 16.173 75.724 16.566 105.676 1.543 193.748-82.552 196.839-188.195 1.479-50.505-16.354-96.822-46.657-132.123z" fill="url(#SVGID_1_)"/><g fill="#00c" opacity=".1"><path d="m429.612 232.239-172.768-122.878c-3.47-2.468-8.122-2.468-11.592 0l-172.767 122.878c-2.638 1.876-4.204 4.912-4.204 8.149v215.619c0 5.523 4.477 10 10 10h345.536c5.523 0 10-4.477 10-10v-215.619c-.001-3.237-1.567-6.273-4.205-8.149z"/><path d="m405.883 70h-64.901v72.456h96.431c3.483 0 6.306-2.823 6.306-6.306v-28.314c0-20.897-16.94-37.836-37.836-37.836z"/></g><path d="m423.816 442.007h-345.536c-5.523 0-10-4.477-10-10v-215.619c0-3.237 1.567-6.273 4.204-8.149l172.769-122.878c3.47-2.468 8.122-2.468 11.592 0l172.768 122.878c2.638 1.876 4.204 4.912 4.204 8.149v215.619c-.001 5.523-4.478 10-10.001 10z" fill="#ff8b00"/><path d="m433.819 216.393-182.77 127.04-182.77-127.04c0-3.24 1.57-6.28 4.21-8.15l172.76-122.88c3.47-2.47 8.13-2.47 11.6 0l172.76 122.88c2.639 1.87 4.21 4.91 4.21 8.15z" fill="#4d4dff"/><path d="m443.719 112.149v-28.314c0-20.896-16.94-37.836-37.836-37.836h-64.902v72.455h96.431c3.483.001 6.307-2.822 6.307-6.305z" fill="#ff9d33"/><path d="m443.722 83.84v18.729c0-20.885-16.938-37.836-37.836-37.836h-64.901v-18.729h64.901c20.898 0 37.836 16.938 37.836 37.836z" fill="#ff8b00"/><path d="m407.278 45.993c-20.9 0-37.84 16.94-37.84 37.84v177.31l-118.39 82.29-113.49-78.88v-180.72c0-20.9 16.94-37.84 37.84-37.84z" fill="#fff"/><path d="m369.439 195.258h-195.439c-2.761 0-5-2.239-5-5v-77.748c0-2.761 2.239-5 5-5h195.439z" fill="#ffd6bb"/><path d="m78.28 442.007 165.839-159.374c3.871-3.72 9.988-3.72 13.858 0l165.839 159.374z" fill="#ffab66"/><path d="m407.839 41.05c-.186-.021-.368-.056-.56-.056h-231.88c-23.622 0-42.84 19.218-42.84 42.84v75.544l-62.973 44.788c-3.898 2.773-6.236 7.264-6.295 12.041-.002.053-.009.104-.01.157 0 .009-.002.017-.002.025v215.619c0 8.271 6.729 15 15 15h345.536c8.271 0 15-6.729 15-15v-215.62c0-.009-.001-.017-.001-.025 0-.052-.008-.104-.01-.157-.059-4.777-2.396-9.268-6.296-12.041l-58.071-41.302v-79.03c0-17.829 14.283-32.374 32.007-32.819 17.846.303 32.273 14.905 32.273 32.822v28.313c0 .721-.586 1.307-1.306 1.307h-33.974c-2.762 0-5 2.238-5 5s2.238 5 5 5h33.974c6.234 0 11.306-5.072 11.306-11.307v-28.313c.002-22.964-18.163-41.76-40.878-42.786zm-334.559 184.908 129.17 89.784-125.857 120.951c-1.925-.696-3.313-2.524-3.313-4.687zm17.419 211.049 156.884-150.769c1.943-1.867 4.986-1.867 6.93 0l156.884 150.769zm334.805-.314-125.857-120.951 129.17-89.784v206.049c-.001 2.162-1.388 3.99-3.313 4.686zm1.211-224.38c.674.48 1.207 1.116 1.568 1.837l-53.845 37.427v-76.445zm-62.277-128.48v174.695l-72.146 50.147-30.851-29.648c-5.829-5.601-14.96-5.601-20.788 0l-30.851 29.648-135.99-94.524c.362-.722.894-1.358 1.569-1.838l57.176-40.665v58.905c0 2.762 2.239 5 5 5s5-2.238 5-5v-146.72c0-18.108 14.732-32.84 32.84-32.84h204.398c-9.381 7.865-15.357 19.668-15.357 32.84z" fill="#00c"/><path d="m112 102.817c-1.28 0-2.559-.488-3.536-1.465l-6.464-6.463-6.464 6.464c-1.953 1.953-5.118 1.953-7.071 0-1.953-1.952-1.953-5.118 0-7.07l10-10c1.953-1.953 5.118-1.953 7.071 0l10 10c1.953 1.952 1.953 5.118 0 7.07-.977.976-2.256 1.464-3.536 1.464z" fill="#ff9d33"/><path d="m487.553 232.642c-1.279 0-2.56-.488-3.535-1.465l-6.465-6.464-6.465 6.464c-1.951 1.953-5.119 1.953-7.07 0-1.953-1.952-1.953-5.118 0-7.07l10-10c1.951-1.953 5.119-1.953 7.07 0l10 10c1.953 1.952 1.953 5.118 0 7.07-.976.976-2.256 1.465-3.535 1.465z" fill="#ff9d33"/><path d="m44.448 354.141c-1.28 0-2.559-.488-3.536-1.465l-6.464-6.464-6.464 6.464c-1.953 1.953-5.118 1.953-7.071 0-1.953-1.952-1.953-5.118 0-7.07l10-10c1.953-1.953 5.118-1.953 7.071 0l10 10c1.953 1.952 1.953 5.118 0 7.07-.977.976-2.256 1.465-3.536 1.465z" fill="#ff6c6c"/><path d="m443.719 180.526c-1.279 0-2.56-.488-3.535-1.465-1.953-1.952-1.953-5.118 0-7.07l10-10c1.951-1.953 5.119-1.953 7.07 0 1.953 1.952 1.953 5.118 0 7.07l-10 10c-.976.977-2.256 1.465-3.535 1.465z" fill="#6c6cff"/><path d="m73.28 155.062c-1.28 0-2.559-.488-3.536-1.465-1.953-1.952-1.953-5.118 0-7.07l10-10c1.953-1.953 5.118-1.953 7.071 0 1.953 1.952 1.953 5.118 0 7.07l-10 10c-.976.976-2.255 1.465-3.535 1.465z" fill="#ff6c6c"/><g fill="#ff2c2c"><path d="m321.301 155.413h12.5c2.762 0 5-2.239 5-5s-2.238-5-5-5h-12.5c-2.762 0-5 2.239-5 5s2.238 5 5 5z"/><path d="m240.301 155.413h60.5c2.762 0 5-2.239 5-5s-2.238-5-5-5h-60.5c-2.762 0-5 2.239-5 5s2.238 5 5 5z"/><path d="m291.301 138.186h42.5c2.762 0 5-2.239 5-5s-2.238-5-5-5h-42.5c-2.762 0-5 2.239-5 5s2.238 5 5 5z"/><path d="m228.301 162.499h105.5c2.762 0 5 2.239 5 5s-2.238 5-5 5h-105.5c-2.762 0-5-2.239-5-5s2.238-5 5-5z"/></g><path d="m174 211.393h159.801c2.762 0 5 2.239 5 5s-2.238 5-5 5h-159.801c-2.762 0-5-2.239-5-5s2.238-5 5-5z" fill="#ff9d33"/><path d="m174 230.247h159.801c2.762 0 5 2.239 5 5s-2.238 5-5 5h-159.801c-2.762 0-5-2.239-5-5s2.238-5 5-5z" fill="#ff9d33"/><path d="m174 249.1h159.801c2.762 0 5 2.239 5 5s-2.238 5-5 5h-159.801c-2.762 0-5-2.239-5-5s2.238-5 5-5z" fill="#ff9d33"/><path d="m215 133.861h-19.013c-2.761 0-5-2.238-5-5s2.239-5 5-5h19.013c3.129 0 5.676-2.546 5.676-5.675 0-3.13-2.546-5.676-5.676-5.676h-13.788c-8.644 0-15.676-7.032-15.676-15.676s7.032-15.676 15.676-15.676h19.012c2.761 0 5 2.238 5 5s-2.239 5-5 5h-19.012c-3.129 0-5.676 2.546-5.676 5.676s2.546 5.676 5.676 5.676h13.788c8.644 0 15.676 7.031 15.676 15.675s-7.032 15.676-15.676 15.676z" fill="#ff7300"/><path d="m208.106 141.812c-2.761 0-5-2.238-5-5v-58.603c0-2.762 2.239-5 5-5s5 2.238 5 5v58.603c0 2.761-2.239 5-5 5z" fill="#ff7300"/><path d="m184.057 414.966c0 2.761-2.238 5-5 5h-12.5c-2.762 0-5-2.239-5-5s2.238-5 5-5h12.5c2.761 0 5 2.238 5 5" fill="#fff"/><path d="m179.057 402.739h-12.5c-2.762 0-5-2.239-5-5s2.238-5 5-5h12.5c2.762 0 5 2.239 5 5s-2.239 5-5 5z" fill="#fff"/></svg>