<svg id="Capa_1" enable-background="new 0 0 512 512" height="512" viewBox="0 0 512 512" width="512" xmlns="http://www.w3.org/2000/svg" xmlns:xlink="http://www.w3.org/1999/xlink"><linearGradient id="SVGID_1_" gradientUnits="userSpaceOnUse" x1="433.516" x2="93.516" y1="-273.645" y2="744.355"><stop offset=".007" stop-color="#9494ff"/><stop offset=".992" stop-color="#ffe8dc" stop-opacity="0"/></linearGradient><g><path d="m512 257.859c0-27.631-12.504-53.535-34.347-75.837-15.199-15.518-27.854-33.295-37.513-52.751-30.889-62.217-83.554-103.196-143.336-103.196-42.483 0-81.369 20.698-111.403 55.003-19.88 22.707-44.981 40.125-72.987 51.371-67.839 27.242-112.414 73.243-112.414 125.41s44.575 98.168 112.414 125.41c28.006 11.247 53.107 28.664 72.988 51.371 30.034 34.305 68.92 55.003 111.403 55.003 59.782 0 112.447-40.979 143.336-103.196 9.659-19.456 22.314-37.233 37.513-52.751 21.842-22.303 34.346-48.206 34.346-75.837z" fill="url(#SVGID_1_)"/><g><g><g><path d="" fill="#8383ff"/><g><path d="m421.752 195.904c-1.279 0-2.56-.488-3.535-1.464l-11-11c-1.953-1.953-1.953-5.119 0-7.071l11-11c1.951-1.952 5.119-1.952 7.07 0l11 11c1.953 1.953 1.953 5.119 0 7.071l-11 11c-.975.976-2.256 1.464-3.535 1.464zm-3.929-16 3.929 3.929 3.929-3.929-3.929-3.929z" fill="#ff6c6c"/></g><g><path d="m97.752 298.316c-1.279 0-2.56-.488-3.535-1.464l-11-11c-1.953-1.953-1.953-5.119 0-7.071l11-11c1.951-1.952 5.119-1.952 7.07 0l11 11c1.953 1.953 1.953 5.119 0 7.071l-11 11c-.975.975-2.256 1.464-3.535 1.464zm-3.929-16 3.929 3.929 3.929-3.929-3.929-3.929z" fill="#6c6cff"/></g><g><path d="m89.528 118.816c-1.326 0-2.598-.527-3.535-1.464l-11.293-11.293c-.938-.938-1.465-2.209-1.465-3.536s.526-2.598 1.465-3.536l11.293-11.292c1.951-1.952 5.119-1.952 7.07 0l11.292 11.292c1.953 1.953 1.953 5.119 0 7.071l-11.292 11.292c-.937.939-2.209 1.466-3.535 1.466zm-4.221-16.292 4.222 4.221 4.221-4.221-4.221-4.221z" fill="#ff9d33"/></g><g><path d="m419.752 330.356c-7.175 0-13.012-5.837-13.012-13.012s5.837-13.012 13.012-13.012 13.013 5.837 13.013 13.012-5.838 13.012-13.013 13.012zm0-16.024c-1.661 0-3.012 1.351-3.012 3.012s1.351 3.012 3.012 3.012 3.013-1.351 3.013-3.012-1.352-3.012-3.013-3.012z" fill="#ff6c6c"/></g><g><path d="m77.517 251.997c-7.175 0-13.013-5.837-13.013-13.012s5.838-13.012 13.013-13.012 13.012 5.837 13.012 13.012-5.838 13.012-13.012 13.012zm0-16.024c-1.661 0-3.013 1.351-3.013 3.012s1.352 3.012 3.013 3.012 3.012-1.351 3.012-3.012-1.351-3.012-3.012-3.012z" fill="#ff6c6c"/></g><g><g><g><path d="m132.1 467.53c0 11.5 9.33 20.83 20.84 20.83h206.12c11.51 0 20.84-9.33 20.84-20.83v-392.34c0-11.5-9.33-20.83-20.84-20.83h-206.12c-11.51 0-20.84 9.33-20.84 20.83z" fill="#00c" opacity=".1"/><path d="m379.9 48.189v392.34c0 11.5-9.33 20.83-20.84 20.83h-206.12c-11.51 0-20.84-9.33-20.84-20.83v-392.34c0-11.5 9.33-20.83 20.84-20.83h25.976l76.084 10 77-10h27.06c11.51 0 20.84 9.33 20.84 20.83z" fill="#b3b3ff"/><path d="m379.9 273.009v-224.82c0-11.5-9.33-20.83-20.84-20.83h-27.06l-77 10-75-10h-27.06c-11.51 0-20.84 9.33-20.84 20.83v224.82z" fill="#8383ff"/><path d="m323.547 55.364 8.453-28.006h-152l8.453 28.007c1.274 4.222 5.164 7.11 9.573 7.11h115.946c4.411 0 8.3-2.889 9.575-7.111z" fill="#ffab66"/></g></g><g><circle cx="212.008" cy="44.916" fill="#6c6cff" r="4.854"/></g><g><circle cx="228.333" cy="44.916" fill="#6c6cff" r="4.854"/></g><g><path d="m296.601 49.77h-37.202c-2.573 0-4.659-2.086-4.659-4.659s2.086-4.659 4.659-4.659h37.202c2.573 0 4.659 2.086 4.659 4.659s-2.086 4.659-4.659 4.659z" fill="#ff8b00"/></g></g></g></g><g><g><path d="m267.667 143.461h-25.333v-18.781c0-6.996 5.671-12.667 12.667-12.667 6.996 0 12.667 5.671 12.667 12.667v18.781z" fill="#ffc599"/><path d="m348.886 222.693c-2.9-48.783-43.374-87.452-92.886-87.452s-89.986 38.668-92.886 87.452z" fill="#fff"/></g><path d="m348.5 233.467h-185c-4.556 0-8.25-3.694-8.25-8.25 0-4.556 3.694-8.25 8.25-8.25h185c4.556 0 8.25 3.694 8.25 8.25 0 4.557-3.694 8.25-8.25 8.25z" fill="#ebebff"/></g><g><g><g><g><path d="m264.422 322.608h-76.52c-2.762 0-5-2.239-5-5s2.238-5 5-5h76.52c2.762 0 5 2.239 5 5s-2.239 5-5 5z" fill="#6c6cff"/></g></g><g><path d="m168.114 322.665c-2.762 0-5-2.239-5-5v-.115c0-2.761 2.238-5 5-5s5 2.239 5 5v.115c0 2.761-2.238 5-5 5z" fill="#fff"/></g></g><g><g><g><path d="m294.422 343.689h-106.52c-2.762 0-5-2.239-5-5s2.238-5 5-5h106.52c2.762 0 5 2.239 5 5s-2.239 5-5 5z" fill="#6c6cff"/></g></g><g><path d="m168.114 343.746c-2.762 0-5-2.239-5-5v-.115c0-2.761 2.238-5 5-5s5 2.239 5 5v.115c0 2.762-2.238 5-5 5z" fill="#fff"/></g></g><g><g><g><path d="m264.422 364.77h-76.52c-2.762 0-5-2.239-5-5s2.238-5 5-5h76.52c2.762 0 5 2.239 5 5s-2.239 5-5 5z" fill="#6c6cff"/></g></g><g><path d="m168.114 364.828c-2.762 0-5-2.239-5-5v-.115c0-2.761 2.238-5 5-5s5 2.239 5 5v.115c0 2.761-2.238 5-5 5z" fill="#fff"/></g></g><g><g><g><path d="m231.422 385.852h-43.52c-2.762 0-5-2.239-5-5s2.238-5 5-5h43.52c2.762 0 5 2.239 5 5s-2.239 5-5 5z" fill="#6c6cff"/></g></g><g><path d="m168.114 385.909c-2.762 0-5-2.239-5-5v-.115c0-2.761 2.238-5 5-5s5 2.239 5 5v.115c0 2.761-2.238 5-5 5z" fill="#fff"/></g></g><g><g><g><path d="m249.422 406.933h-61.52c-2.762 0-5-2.239-5-5s2.238-5 5-5h61.52c2.762 0 5 2.239 5 5s-2.239 5-5 5z" fill="#6c6cff"/></g></g><g><path d="m168.114 406.99c-2.762 0-5-2.239-5-5v-.115c0-2.761 2.238-5 5-5s5 2.239 5 5v.115c0 2.762-2.238 5-5 5z" fill="#fff"/></g></g></g><g fill="#00c"><path d="m379.898 310.859c2.762 0 5-2.239 5-5v-257.666c0-14.246-11.59-25.835-25.835-25.835h-145.063c-2.762 0-5 2.239-5 5s2.238 5 5 5h111.268l-6.508 21.562c-.642 2.126-2.565 3.555-4.786 3.555h-115.948c-2.221 0-4.145-1.429-4.786-3.555l-8.453-28.007c-.638-2.111-2.582-3.555-4.787-3.555h-27.063c-14.245 0-25.835 11.59-25.835 25.835v392.333c0 14.246 11.59 25.835 25.835 25.835h206.127c14.245 0 25.835-11.59 25.835-25.835v-100.667c0-2.761-2.238-5-5-5s-5 2.239-5 5v100.667c0 8.732-7.104 15.835-15.835 15.835h-206.127c-8.731 0-15.835-7.104-15.835-15.835v-392.333c0-8.732 7.104-15.835 15.835-15.835h23.35l7.38 24.452c1.926 6.379 7.697 10.666 14.36 10.666h115.947c6.663 0 12.435-4.286 14.36-10.666l7.38-24.452h23.349c8.731 0 15.835 7.104 15.835 15.835v257.666c0 2.761 2.239 5 5 5z"/><path d="m344.615 435.354c.977.977 2.257 1.465 3.536 1.465s2.56-.488 3.535-1.464l5.834-5.833c.938-.938 1.465-2.209 1.465-3.536s-.526-2.598-1.465-3.536l-5.834-5.833c-1.953-1.952-5.118-1.953-7.071 0-1.952 1.953-1.952 5.118.001 7.071l2.298 2.298-2.298 2.298c-1.953 1.952-1.953 5.117-.001 7.07z"/><path d="m167.384 59.479c-1.951-1.952-5.119-1.952-7.07 0l-5.834 5.834c-.938.938-1.465 2.209-1.465 3.536s.527 2.598 1.465 3.536l5.834 5.833c.977.976 2.256 1.464 3.535 1.464s2.56-.488 3.536-1.465c1.952-1.953 1.952-5.118-.001-7.071l-2.298-2.298 2.298-2.298c1.953-1.953 1.953-5.119 0-7.071z"/></g><path d="m307.034 284.855h-102.068c-2.761 0-5-2.239-5-5v-13.692c0-2.761 2.239-5 5-5h102.068c2.761 0 5 2.239 5 5v13.692c0 2.761-2.238 5-5 5z" fill="#ff9d33"/></g></g></svg>