<svg id="Capa_1" enable-background="new 0 0 512 512" height="512" viewBox="0 0 512 512" width="512" xmlns="http://www.w3.org/2000/svg" xmlns:xlink="http://www.w3.org/1999/xlink"><linearGradient id="SVGID_1_" gradientUnits="userSpaceOnUse" x1="514.782" x2="-122.413" y1="-43.218" y2="593.978"><stop offset=".0023" stop-color="#ffc599"/><stop offset=".992" stop-color="#ffe8dc" stop-opacity="0"/></linearGradient><g><path d="m428.41 171.888c-8.356-8.356-18.026-14.923-28.717-19.765-28.021-12.69-50.051-35.407-62.434-63.565-22.917-52.113-74.975-88.512-135.546-88.558-79.311-.06-145.162 63.163-148.147 142.418-1.277 33.922 8.857 65.421 26.87 90.969 22.877 32.448 28.821 73.782 17.021 111.69-16.764 53.857-10.919 104.898 20.973 136.791 55.888 55.888 170.586 31.804 256.185-53.795 85.598-85.599 109.683-200.296 53.795-256.185z" fill="url(#SVGID_1_)"/><g><g opacity=".1"><path d="m452 447.147h-44.708v-12.127c0-24.677-9.512-47.128-25.063-63.901l41.44-82.103c12.692-25.145 2.596-55.818-22.549-68.509-8.685-4.384-18.028-6.046-27.063-5.312l-97.189-82.936 11.907-11.907c8.092-8.091 8.092-21.258 0-29.349-8.09-8.092-21.258-8.092-29.348 0l-7.781 7.781c-.268.268-.492.563-.687.871-.913-9.015-4.805-17.785-11.712-24.692-15.923-15.923-41.74-15.923-57.664 0-10.82 10.82-14.279 26.206-10.395 39.954l-26.832 26.832c-4.304 4.303-4.304 11.281 0 15.585l1.225 1.225-26.353 26.353c-1.953 1.952-1.953 5.118 0 7.07.976.977 2.256 1.465 3.535 1.465s2.56-.488 3.535-1.465l26.353-26.353 4.224 4.224c4.304 4.304 11.281 4.304 15.585 0l26.832-26.832c6.526 1.844 13.417 2.028 20.018.559l14.777 17.317-5.047 5.047c-3.802 3.802-5.896 8.856-5.896 14.233 0 5.376 2.095 10.431 5.896 14.232 3.802 3.802 8.856 5.896 14.233 5.896 5.376 0 10.431-2.094 14.232-5.896l2.795-2.795 61.75 72.361-41.913 83.039c-35.574 13.401-60.883 47.745-60.883 88.005v12.127h-159.254c-5.523 0-10 4.477-10 10v13.292c0 5.523 4.477 10 10 10h392c5.523 0 10-4.477 10-10v-13.292c0-5.522-4.477-9.999-10-9.999zm-201.28-337.201c.236-1.555.381-3.12.438-4.689.151.206.302.412.489.598 1.951 1.953 5.119 1.953 7.07 0l7.781-7.781c2.031-2.03 4.731-3.148 7.604-3.148s5.572 1.118 7.604 3.148c4.192 4.193 4.192 11.015 0 15.208l-12.467 12.467zm-.283 77.394c-1.913 1.913-4.457 2.966-7.162 2.966-2.706 0-5.249-1.053-7.162-2.966-3.949-3.949-3.949-10.376 0-14.325l4.488-4.488 13.191 15.458z" fill="#00c"/><g><g><path d="m159.371 226.688c-2.762 0-5-2.238-5-5 0-3.309-2.691-6-6-6-2.762 0-5-2.238-5-5s2.238-5 5-5c3.309 0 6-2.691 6-6 0-2.762 2.238-5 5-5s5 2.238 5 5c0 3.309 2.691 6 6 6 2.762 0 5 2.238 5 5s-2.238 5-5 5c-3.309 0-6 2.691-6 6 0 2.762-2.238 5-5 5z" fill="#00c"/></g><g><path d="m94.471 147.407c-2.762 0-5-2.238-5-5 0-3.309-2.691-6-6-6-2.762 0-5-2.238-5-5s2.238-5 5-5c3.309 0 6-2.691 6-6 0-2.762 2.238-5 5-5s5 2.238 5 5c0 3.309 2.691 6 6 6 2.762 0 5 2.238 5 5s-2.238 5-5 5c-3.309 0-6 2.691-6 6 0 2.761-2.239 5-5 5z" fill="#00c"/></g><g><path d="m76.274 210.176c-2.762 0-5-2.238-5-5 0-3.309-2.691-6-6-6-2.762 0-5-2.238-5-5s2.238-5 5-5c3.309 0 6-2.691 6-6 0-2.762 2.238-5 5-5s5 2.238 5 5c0 3.309 2.691 6 6 6 2.762 0 5 2.238 5 5s-2.238 5-5 5c-3.309 0-6 2.691-6 6 0 2.762-2.238 5-5 5z" fill="#00c"/></g></g></g><g><g><g opacity=".1"><g><g><path d="m364.578 186.688c-2.25 0-4.294-1.529-4.853-3.812-1.83-7.474-5.68-14.307-11.133-19.761-5.453-5.453-12.286-9.303-19.761-11.133-2.682-.657-4.324-3.363-3.667-6.046.656-2.682 3.361-4.326 6.046-3.667 9.25 2.266 17.706 7.028 24.452 13.775 6.747 6.746 11.511 15.202 13.775 24.452.657 2.683-.985 5.39-3.667 6.046-.398.099-.798.146-1.192.146z" fill="#00c"/></g><g><path d="m343.168 188.241c-2.25 0-4.294-1.529-4.853-3.812-.653-2.67-2.029-5.11-3.978-7.06-1.948-1.948-4.389-3.323-7.059-3.977-2.682-.656-4.324-3.363-3.667-6.046.656-2.682 3.362-4.325 6.046-3.667 4.445 1.088 8.509 3.377 11.75 6.619 3.242 3.242 5.532 7.306 6.62 11.751.657 2.683-.985 5.39-3.667 6.046-.398.099-.798.146-1.192.146z" fill="#00c"/></g><g><path d="m385.844 183.793c-2.25 0-4.294-1.529-4.853-3.812-2.919-11.92-9.058-22.815-17.753-31.512-8.695-8.695-19.592-14.835-31.512-17.753-2.682-.656-4.324-3.363-3.667-6.046.656-2.682 3.362-4.323 6.046-3.667 13.696 3.354 26.215 10.405 36.204 20.396 9.988 9.988 17.041 22.508 20.395 36.203.657 2.683-.985 5.389-3.667 6.046-.399.099-.799.145-1.193.145z" fill="#00c"/></g></g></g><g><g><g><path d="m364.578 129.688c-2.25 0-4.294-1.529-4.853-3.812-1.83-7.475-5.68-14.308-11.133-19.761-5.454-5.453-12.287-9.303-19.761-11.133-2.682-.657-4.324-3.363-3.667-6.046.656-2.683 3.361-4.326 6.046-3.667 9.249 2.265 17.704 7.028 24.452 13.774 6.747 6.747 11.51 15.203 13.775 24.453.657 2.683-.985 5.39-3.667 6.046-.398.099-.798.146-1.192.146z" fill="#00c"/></g><g><path d="m343.168 131.24c-2.25 0-4.294-1.529-4.853-3.812-.653-2.669-2.029-5.109-3.978-7.059-1.948-1.948-4.389-3.324-7.059-3.978-2.682-.656-4.324-3.363-3.667-6.046.656-2.682 3.362-4.325 6.046-3.667 4.445 1.088 8.509 3.378 11.751 6.62s5.53 7.306 6.619 11.75c.657 2.683-.985 5.389-3.667 6.046-.398.099-.798.146-1.192.146z" fill="#00c"/></g><g><path d="m385.844 126.794c-2.25 0-4.294-1.529-4.853-3.813-2.918-11.917-9.057-22.813-17.754-31.512-8.694-8.694-19.591-14.834-31.511-17.753-2.682-.657-4.324-3.363-3.667-6.046.656-2.683 3.359-4.326 6.046-3.667 13.696 3.354 26.215 10.406 36.203 20.396 9.99 9.991 17.043 22.511 20.396 36.205.657 2.682-.985 5.389-3.668 6.045-.398.098-.799.145-1.192.145z" fill="#00c"/></g></g></g></g><path d="m386.452 198.772-52.339 52.339-117.859-138.114 32.084-32.084z" fill="#8383ff"/><g><path d="m300.853 217.132c-1.412 0-2.816-.596-3.806-1.754l-80.695-94.563c-1.792-2.101-1.543-5.257.558-7.05 2.103-1.789 5.256-1.542 7.05.558l80.695 94.563c1.792 2.101 1.543 5.257-.558 7.05-.943.802-2.096 1.196-3.244 1.196z" fill="#00c"/></g><path d="m358.726 390.685-91.058-45.96 64.944-128.669c12.692-25.145 43.364-35.241 68.509-22.549 25.145 12.692 35.241 43.364 22.549 68.509z" fill="#ffab66"/><path d="m407.292 436.793h-188.035v-28.773c0-51.925 42.093-94.018 94.018-94.018 51.925 0 94.018 42.093 94.018 94.018v28.773z" fill="#ff8b00"/><path d="m374.941 420.147h-123.333l8.039-31.466c.566-2.214 2.56-3.762 4.844-3.762h97.567c2.285 0 4.279 1.549 4.844 3.762z" fill="#ffab66"/><path d="m452 453.439h-392c-5.523 0-10-4.477-10-10v-13.292c0-5.523 4.477-10 10-10h392c5.523 0 10 4.477 10 10v13.292c0 5.523-4.477 10-10 10z" fill="#9494ff"/><path d="m171.434 420.147h19v33.292h-19z" fill="#ff8b00"/><path d="m145.983 420.147h-85.983c-5.523 0-10 4.477-10 10v13.292c0 5.523 4.477 10 10 10h85.983z" fill="#b3b3ff"/><circle cx="315.285" cy="349.241" fill="#ffc599" r="13.932"/><circle cx="301.124" cy="156.882" fill="#ff4d4d" r="5.167"/><circle cx="311.458" cy="167.216" fill="#ffb3b3" r="5.167"/><circle cx="380.972" cy="229.106" fill="#ffd6bb" r="13.932"/><g><path d="m156.877 142.853-12.52-12.52c-4.304-4.304-4.304-11.281 0-15.585l41.097-41.097 28.104 28.104-41.097 41.097c-4.302 4.305-11.28 4.305-15.584.001z" fill="#6c6cff"/><circle cx="210.416" cy="76.795" fill="#ffab66" r="40.774"/><circle cx="210.416" cy="76.795" fill="#ffd6bb" r="16.568"/></g><path d="m452 415.146h-39.708v-7.126c0-24.688-9.083-47.294-24.082-64.654l39.924-79.098c6.739-13.354 7.876-28.532 3.199-42.74-4.677-14.209-14.606-25.745-27.96-32.485-8.687-4.384-18.147-6.38-27.609-5.965l-95.349-81.366 5.36-5.36c3.92-3.92 6.079-9.131 6.079-14.674 0-5.544-2.159-10.755-6.078-14.674-3.92-3.92-9.131-6.079-14.675-6.079s-10.755 2.159-14.674 6.079l-1.089 1.088c-1.667-8.676-5.852-16.96-12.556-23.665-17.848-17.848-46.887-17.848-64.734 0-11.365 11.366-15.48 27.268-12.371 41.93l-24.857 24.856c-6.244 6.246-6.244 16.409.001 22.656l2.724 2.724-27.317 27.317c-1.953 1.952-1.953 5.118 0 7.07.976.977 2.256 1.465 3.535 1.465s2.56-.488 3.535-1.465l27.317-27.317 2.725 2.725c3.025 3.026 7.049 4.692 11.328 4.692 4.278 0 8.302-1.666 11.327-4.692l24.855-24.855c3.15.668 6.356 1.015 9.563 1.015 11.722 0 23.443-4.462 32.367-13.386 5.012-5.012 8.616-10.907 10.813-17.189l12.096 10.322-39.649 39.649c-7.849 7.848-7.849 20.618-.001 28.466 3.802 3.802 8.856 5.896 14.233 5.896 5.376 0 10.431-2.094 14.232-5.895l5.693-5.692c1.953-1.953 1.953-5.118.001-7.071-1.953-1.953-5.118-1.952-7.071-.001l-5.693 5.693c-1.913 1.913-4.457 2.966-7.162 2.966-2.706 0-5.249-1.053-7.162-2.966-3.949-3.949-3.949-10.376 0-14.325l40.209-40.209 89.5 76.375c-.731.209-1.462.422-2.189.662-14.209 4.677-25.745 14.606-32.485 27.96l-51.622 102.275c-36.456 14.623-62.269 50.323-62.269 91.943v7.126h-154.254c-8.271 0-15 6.729-15 15v13.293c0 8.271 6.729 15 15 15h392c8.271 0 15-6.729 15-15v-13.293c0-8.272-6.729-15.001-15-15.001zm-283.073-275.828c-1.138 1.137-2.649 1.763-4.257 1.763s-3.119-.626-4.257-1.764l-12.52-12.519c-2.348-2.348-2.348-6.167-.001-8.515l21.403-21.403c2.163 4.437 5.072 8.6 8.753 12.281s7.844 6.591 12.281 8.753zm66.786-37.227c-13.949 13.949-36.646 13.948-50.593.001-13.948-13.949-13.948-36.645-.001-50.593 6.976-6.976 16.135-10.461 25.297-10.461 9.16 0 18.323 3.487 25.296 10.46 13.948 13.949 13.948 36.645.001 50.593zm20.662-20.894 7.124-7.123c2.03-2.031 4.73-3.149 7.603-3.149s5.572 1.118 7.604 3.15c2.031 2.03 3.149 4.73 3.149 7.603s-1.118 5.572-3.149 7.604l-5.92 5.92zm80.7 137.112c5.536-10.969 15.013-19.126 26.684-22.967 11.67-3.842 24.138-2.908 35.108 2.629 10.969 5.536 19.126 15.013 22.968 26.684 3.841 11.671 2.907 24.14-2.629 35.108l-38.344 75.967c-17.708-16.567-41.482-26.727-67.588-26.727-8.055 0-15.886.974-23.388 2.798zm119.925 225.13c0 2.757-2.243 5-5 5h-392c-2.757 0-5-2.243-5-5v-13.293c0-2.757 2.243-5 5-5h159.257c2.762 0 5-2.238 5-5v-12.126c0-49.084 39.933-89.018 89.018-89.018 49.084 0 89.018 39.934 89.018 89.018v7.126h-137.626c-2.762 0-5 2.238-5 5s2.238 5 5 5h187.333c2.757 0 5 2.243 5 5z" fill="#00c"/><g><path d="m284.823 148.767-11.681-11.681c-1.953-1.953-1.952-5.119 0-7.071s5.118-1.953 7.071 0l11.681 11.681c1.953 1.953 1.952 5.119 0 7.071s-5.118 1.953-7.071 0z" fill="#ff9d33"/></g><g><path d="m159.371 202.688c-2.762 0-5-2.238-5-5 0-3.309-2.691-6-6-6-2.762 0-5-2.238-5-5s2.238-5 5-5c3.309 0 6-2.691 6-6 0-2.762 2.238-5 5-5s5 2.238 5 5c0 3.309 2.691 6 6 6 2.762 0 5 2.238 5 5s-2.238 5-5 5c-3.309 0-6 2.691-6 6 0 2.761-2.238 5-5 5z" fill="#00c"/></g><g><path d="m94.471 123.406c-2.762 0-5-2.238-5-5 0-3.309-2.691-6-6-6-2.762 0-5-2.238-5-5s2.238-5 5-5c3.309 0 6-2.691 6-6 0-2.762 2.238-5 5-5s5 2.238 5 5c0 3.309 2.691 6 6 6 2.762 0 5 2.238 5 5s-2.238 5-5 5c-3.309 0-6 2.691-6 6 0 2.762-2.239 5-5 5z" fill="#00c"/></g><g><path d="m76.274 186.176c-2.762 0-5-2.238-5-5 0-3.309-2.691-6-6-6-2.762 0-5-2.238-5-5s2.238-5 5-5c3.309 0 6-2.691 6-6 0-2.762 2.238-5 5-5s5 2.238 5 5c0 3.309 2.691 6 6 6 2.762 0 5 2.238 5 5s-2.238 5-5 5c-3.309 0-6 2.691-6 6 0 2.762-2.238 5-5 5z" fill="#00c"/></g></g><g><path d="m220.483 310.63c-1.279 0-2.56-.488-3.535-1.465l-11.292-11.292c-1.953-1.952-1.953-5.118-.001-7.07l11.292-11.293c.938-.938 2.21-1.465 3.536-1.465s2.598.526 3.536 1.465l11.292 11.293c1.952 1.952 1.952 5.118-.001 7.07l-11.292 11.292c-.975.977-2.255 1.465-3.535 1.465zm-4.22-16.292 4.221 4.221 4.221-4.221-4.221-4.222z" fill="#ff9d33"/></g><g><path d="m169.642 353.463c-1.279 0-2.56-.488-3.535-1.465l-11.292-11.292c-1.953-1.952-1.953-5.118-.001-7.07l11.292-11.293c.938-.938 2.21-1.465 3.536-1.465s2.598.526 3.535 1.465l11.293 11.293c.938.938 1.465 2.209 1.465 3.535s-.527 2.598-1.465 3.536l-11.293 11.292c-.976.976-2.256 1.464-3.535 1.464zm-4.221-16.292 4.221 4.221 4.222-4.221-4.222-4.222z" fill="#6c6cff"/></g><g><path d="m430.162 148.947c-2.188 0-4.352-.558-6.315-1.652-3.036-1.692-5.231-4.465-6.181-7.809-.95-3.342-.542-6.855 1.15-9.892 1.691-3.035 4.465-5.231 7.808-6.182s6.856-.542 9.893 1.15 5.231 4.466 6.182 7.809c1.961 6.901-2.059 14.111-8.959 16.073-1.181.337-2.384.503-3.578.503zm.025-16.031c-.276 0-.555.038-.828.116-.773.22-1.415.729-1.807 1.431-.393.703-.486 1.517-.267 2.29.22.774.728 1.416 1.431 1.808.702.392 1.515.486 2.289.266 1.598-.454 2.528-2.123 2.074-3.721-.22-.773-.729-1.415-1.431-1.807-.455-.254-.956-.383-1.461-.383z" fill="#ff9d33"/></g><g><path d="m446.527 357.985c-7.175 0-13.012-5.837-13.012-13.012s5.837-13.012 13.012-13.012 13.012 5.837 13.012 13.012-5.837 13.012-13.012 13.012zm0-16.023c-1.661 0-3.012 1.351-3.012 3.012s1.351 3.012 3.012 3.012 3.012-1.351 3.012-3.012-1.351-3.012-3.012-3.012z" fill="#ff6c6c"/></g><g><path d="m94.471 52.584c-7.175 0-13.012-5.837-13.012-13.012s5.837-13.012 13.012-13.012 13.012 5.837 13.012 13.012-5.837 13.012-13.012 13.012zm0-16.023c-1.661 0-3.012 1.351-3.012 3.012s1.351 3.012 3.012 3.012 3.012-1.351 3.012-3.012-1.351-3.012-3.012-3.012z" fill="#ff6c6c"/></g></g></g></svg>