<svg id="Capa_1" enable-background="new 0 0 512 512" height="512" viewBox="0 0 512 512" width="512" xmlns="http://www.w3.org/2000/svg" xmlns:xlink="http://www.w3.org/1999/xlink"><linearGradient id="SVGID_1_" gradientUnits="userSpaceOnUse" x1="514.782" x2="-122.413" y1="-43.218" y2="593.978"><stop offset=".0023" stop-color="#ffc599"/><stop offset=".992" stop-color="#ffe8dc" stop-opacity="0"/></linearGradient><path d="m428.41 171.888c-8.356-8.356-18.026-14.923-28.717-19.765-28.021-12.69-50.051-35.407-62.434-63.565-22.917-52.113-74.975-88.512-135.546-88.558-79.311-.06-145.162 63.163-148.147 142.418-1.277 33.922 8.857 65.421 26.87 90.969 22.877 32.448 28.821 73.782 17.021 111.69-16.764 53.857-10.919 104.898 20.973 136.791 55.888 55.888 170.586 31.804 256.185-53.795 85.598-85.599 109.683-200.296 53.795-256.185z" fill="url(#SVGID_1_)"/><path d="m351.887 476.5h-191.774c-12.208 0-22.105-9.897-22.105-22.105v-375.79c0-12.208 9.897-22.105 22.105-22.105h191.775c12.208 0 22.105 9.897 22.105 22.105v375.789c0 12.209-9.897 22.106-22.106 22.106z" fill="#00c" opacity=".1"/><path d="m386.443 145.09h-21.522v-66.913h21.522c3.803 0 6.885 3.083 6.885 6.885v53.143c0 3.803-3.082 6.885-6.885 6.885z" fill="#6c6cff"/><path d="m122.407 213.943h24.672v-135.766h-24.672c-3.803 0-3.735 3.083-3.735 6.885v121.995c0 3.803-.067 6.886 3.735 6.886z" fill="#6c6cff"/><path d="m351.887 455.5h-191.774c-12.208 0-22.105-9.897-22.105-22.105v-375.79c0-12.208 9.897-22.105 22.105-22.105h191.775c12.208 0 22.105 9.897 22.105 22.105v375.789c0 12.209-9.897 22.106-22.106 22.106z" fill="#ff9d33"/><path d="m138.011 87.622h235.977v315.756h-235.977z" fill="#fff"/><path d="m373.988 87.622v120.046c-10.752-.357-20.58-4.378-28.298-10.826-8.106 6.773-18.532 10.857-29.893 10.857s-21.788-4.085-29.904-10.857c-8.106 6.773-18.532 10.858-29.893 10.858s-21.787-4.085-29.893-10.857c-8.117 6.773-18.543 10.857-29.904 10.857s-21.788-4.085-29.893-10.857c-7.718 6.447-17.546 10.469-28.298 10.826v-120.047z" fill="#ebebff"/><path d="" style="fill:none;stroke:#00c;stroke-width:10;stroke-linecap:round;stroke-linejoin:round;stroke-miterlimit:10"/><path d="m166.304 137.267h-59.797l31.5-49.64h47.197z" fill="#ffc599"/><path d="m226.101 137.267h-59.797l18.9-49.64h47.197z" fill="#ff4d4d"/><path d="m285.899 137.267h-59.798l6.3-49.64h47.198z" fill="#ffc599"/><path d="m345.696 137.267h-59.797l-6.3-49.64h47.197z" fill="#ff4d4d"/><path d="m405.493 137.267h-59.797l-18.9-49.64h47.197z" fill="#ffc599"/><path d="m136.406 190.9c-16.513 0-29.899-13.386-29.899-29.899v-23.735h59.797v23.735c0 16.513-13.386 29.899-29.898 29.899z" fill="#ffd6bb"/><path d="m196.203 190.9c-16.513 0-29.899-13.386-29.899-29.899v-23.735h59.797v23.735c0 16.513-13.386 29.899-29.898 29.899z" fill="#ff6c6c"/><path d="m256 190.9c-16.513 0-29.899-13.386-29.899-29.899v-23.735h59.797v23.735c.001 16.513-13.385 29.899-29.898 29.899z" fill="#ffd6bb"/><path d="m315.797 190.9c-16.513 0-29.899-13.386-29.899-29.899v-23.735h59.797v23.735c.001 16.513-13.385 29.899-29.898 29.899z" fill="#ff6c6c"/><path d="m375.594 190.9c-16.513 0-29.899-13.386-29.899-29.899v-23.735h59.797v23.735c.001 16.513-13.385 29.899-29.898 29.899z" fill="#ffd6bb"/><path d="m410.487 137.208c-.011-.903-.287-1.857-.772-2.621l-11.387-17.944v-31.581c0-6.554-5.331-11.885-11.885-11.885h-7.451v-15.572c0-14.946-12.159-27.105-27.104-27.105h-191.776c-14.945 0-27.104 12.16-27.104 27.105v15.571h-10.601c-3.777 0-6.669 1.877-7.934 5.151-.803 2.079-.803 4.347-.802 6.54v31.775l-11.387 17.944c-.496.781-.778 1.754-.778 2.679v23.735c0 10.564 4.725 20.04 12.165 26.445v19.805c-.001 2.193-.001 4.461.802 6.54 1.265 3.273 4.156 5.151 7.934 5.151h10.601v214.452c0 14.946 12.159 27.105 27.104 27.105h191.775c14.945 0 27.104-12.16 27.104-27.105v-208.493c0-2.761-2.238-5-5-5s-5 2.239-5 5v208.494c0 9.432-7.673 17.105-17.104 17.105h-191.775c-9.432 0-17.104-7.673-17.104-17.105v-25.021h196.98c2.762 0 5-2.239 5-5s-2.238-5-5-5h-196.98v-203.108c9.868-1.898 18.272-7.959 23.297-16.285 6.115 10.13 17.228 16.919 29.898 16.919s23.784-6.789 29.898-16.919c6.115 10.13 17.228 16.919 29.898 16.919s23.784-6.789 29.898-16.919c6.115 10.13 17.228 16.919 29.898 16.919s23.784-6.789 29.898-16.919c6.115 10.13 17.228 16.919 29.898 16.919 19.243 0 34.899-15.655 34.899-34.898v-23.735c.003-.019-.002-.038-.003-.058zm-269.731-44.581h37.194l-15.092 39.64h-47.256zm47.895 0h38.076l-5.031 39.64h-48.138zm48.156 0h38.387l5.031 39.64h-48.448zm53.497 39.64-5.031-39.64h38.076l15.092 39.64zm58.838 0-15.092-39.64h37.194l25.154 39.64zm37.301-49.09c1.039 0 1.885.846 1.885 1.885v15.823l-9.336-14.712v-2.996zm-226.331-42.677h191.775c9.432 0 17.104 7.673 17.104 17.105v25.021h-225.983v-25.021c0-9.432 7.673-17.105 17.104-17.105zm-36.44 44.365c0-.5 0-1.128.018-1.688h9.318v2.996l-9.336 14.712zm.017 124.077c-.018-.56-.018-1.188-.018-1.688v-13.771c2.941 1.157 6.071 1.931 9.336 2.248v13.21h-9.318zm12.717-23.042c-13.729 0-24.899-11.169-24.899-24.898v-18.735h49.798v18.735c0 13.728-11.169 24.898-24.899 24.898zm59.797 0c-13.729 0-24.898-11.169-24.898-24.898v-18.735h49.797v18.735c0 13.728-11.169 24.898-24.899 24.898zm59.797 0c-13.729 0-24.898-11.169-24.898-24.898v-18.735h49.797v18.735c-.001 13.728-11.17 24.898-24.899 24.898zm59.797 0c-13.729 0-24.898-11.169-24.898-24.898v-18.735h49.797v18.735c-.001 13.728-11.17 24.898-24.899 24.898zm84.696-24.899c0 13.729-11.17 24.898-24.899 24.898s-24.898-11.169-24.898-24.898v-18.735h49.798v18.735z" fill="#00c"/><path d="m276.26 66.5h-40.52c-2.762 0-5-2.239-5-5s2.238-5 5-5h40.52c2.762 0 5 2.239 5 5s-2.239 5-5 5z" fill="#ff4d4d"/><path d="m235.667 422.5v12.667c0 2.761 2.239 5 5 5h30.667c2.761 0 5-2.239 5-5v-12.667c0-2.761-2.239-5-5-5h-30.667c-2.762 0-5 2.238-5 5z" fill="#ff4d4d"/><path d="m335.01 433.833h-16.52c-2.762 0-5-2.239-5-5s2.238-5 5-5h16.52c2.762 0 5 2.239 5 5s-2.239 5-5 5z" fill="#ff4d4d"/><path d="m193.51 433.833h-16.52c-2.762 0-5-2.239-5-5s2.238-5 5-5h16.52c2.762 0 5 2.239 5 5s-2.239 5-5 5z" fill="#ff4d4d"/><path d="m327.852 257.644c-1.279 0-2.56-.488-3.535-1.464-37.669-37.669-98.962-37.67-136.633 0-1.951 1.952-5.119 1.952-7.07 0-1.953-1.953-1.953-5.119 0-7.071 41.567-41.568 109.206-41.568 150.773 0 1.953 1.953 1.953 5.119 0 7.071-.976.976-2.256 1.464-3.535 1.464z" fill="#ff2c2c"/><path d="m306.639 278.857c-1.279 0-2.56-.488-3.535-1.464-25.975-25.973-68.234-25.973-94.207 0-1.951 1.952-5.119 1.952-7.07 0-1.953-1.953-1.953-5.119 0-7.071 29.871-29.871 78.477-29.871 108.348 0 1.953 1.953 1.953 5.119 0 7.071-.977.976-2.257 1.464-3.536 1.464z" fill="#ff2c2c"/><path d="m285.425 300.07c-1.279 0-2.56-.488-3.535-1.464-6.903-6.903-16.098-10.705-25.89-10.704-9.792 0-18.986 3.801-25.89 10.704-1.951 1.952-5.119 1.952-7.07 0-1.953-1.953-1.953-5.119 0-7.071 8.791-8.792 20.496-13.633 32.96-13.633s24.169 4.841 32.96 13.633c1.953 1.953 1.953 5.119 0 7.071-.976.976-2.256 1.464-3.535 1.464z" fill="#ff2c2c"/><circle cx="256" cy="345.514" fill="#ff9d33" r="37.9"/><path d="m256 355.641c-8.411 0-15.254-6.843-15.254-15.254s6.843-15.254 15.254-15.254 15.254 6.843 15.254 15.254-6.843 15.254-15.254 15.254zm0-20.508c-2.897 0-5.254 2.357-5.254 5.254s2.356 5.254 5.254 5.254 5.254-2.357 5.254-5.254-2.357-5.254-5.254-5.254z" fill="#ff2c2c"/><path d="m266.254 365.894c-2.762 0-5-2.239-5-5 0-2.897-2.356-5.253-5.254-5.253s-5.254 2.356-5.254 5.253c0 2.761-2.238 5-5 5s-5-2.239-5-5c0-8.411 6.843-15.253 15.254-15.253s15.254 6.843 15.254 15.253c0 2.761-2.238 5-5 5z" fill="#ff2c2c"/><g fill="#ebebff"><path d="m190.329 378.307h-21c-2.762 0-5-2.239-5-5s2.238-5 5-5h21c2.762 0 5 2.239 5 5s-2.238 5-5 5z"/><path d="m190.329 358.08h-21c-2.762 0-5-2.239-5-5s2.238-5 5-5h21c2.762 0 5 2.239 5 5s-2.238 5-5 5z"/><path d="m342.671 378.307h-21c-2.762 0-5-2.239-5-5s2.238-5 5-5h21c2.762 0 5 2.239 5 5s-2.238 5-5 5z"/><path d="m342.671 358.08h-21c-2.762 0-5-2.239-5-5s2.238-5 5-5h21c2.762 0 5 2.239 5 5s-2.238 5-5 5z"/></g><path d="m464.771 336.563c-1.279 0-2.56-.488-3.535-1.464l-6.465-6.464-6.465 6.464c-1.951 1.952-5.119 1.952-7.07 0-1.953-1.953-1.953-5.119 0-7.071l10-10c1.951-1.952 5.119-1.952 7.07 0l10 10c1.953 1.953 1.953 5.119 0 7.071-.976.975-2.256 1.464-3.535 1.464z" fill="#ff6c6c"/><path d="m67.229 154c-1.279 0-2.56-.488-3.535-1.464l-6.465-6.464-6.465 6.464c-1.951 1.952-5.119 1.952-7.07 0-1.953-1.953-1.953-5.119 0-7.071l10-10c1.951-1.952 5.119-1.952 7.07 0l10 10c1.953 1.953 1.953 5.119 0 7.071-.975.976-2.255 1.464-3.535 1.464z" fill="#ff6c6c"/><path d="m430.771 188.81c-1.279 0-2.56-.488-3.535-1.464-1.953-1.953-1.953-5.119 0-7.071l10-10c1.951-1.952 5.119-1.952 7.07 0 1.953 1.953 1.953 5.119 0 7.071l-10 10c-.976.976-2.256 1.464-3.535 1.464z" fill="#6c6cff"/><path d="m105.278 255.554c-1.279 0-2.56-.488-3.535-1.464-1.953-1.953-1.953-5.119 0-7.071l10-10c1.951-1.952 5.119-1.952 7.07 0 1.953 1.953 1.953 5.119 0 7.071l-10 10c-.975.975-2.255 1.464-3.535 1.464z" fill="#6c6cff"/><path d="m52.229 348c-1.279 0-2.56-.488-3.535-1.464-1.953-1.953-1.953-5.119 0-7.071l10-10c1.951-1.952 5.119-1.952 7.07 0 1.953 1.953 1.953 5.119 0 7.071l-10 10c-.975.976-2.255 1.464-3.535 1.464z" fill="#ff9d33"/></svg>