<svg id="Capa_1" enable-background="new 0 0 512 512" height="512" viewBox="0 0 512 512" width="512" xmlns="http://www.w3.org/2000/svg" xmlns:xlink="http://www.w3.org/1999/xlink"><linearGradient id="SVGID_1_" gradientUnits="userSpaceOnUse" x1="-19.521" x2="541.451" y1="614.372" y2="-104.092"><stop offset=".007" stop-color="#9494ff"/><stop offset=".992" stop-color="#ffe8dc" stop-opacity="0"/></linearGradient><path d="m512 256c0-27.631-12.504-53.535-34.347-75.837-15.199-15.518-27.854-33.295-37.513-52.751-30.889-62.217-83.554-103.196-143.336-103.196-42.483 0-81.369 20.698-111.403 55.003-19.88 22.707-44.981 40.125-72.987 51.371-67.839 27.242-112.414 73.243-112.414 125.41s44.575 98.168 112.414 125.41c28.006 11.246 53.107 28.664 72.988 51.371 30.034 34.305 68.92 55.003 111.403 55.003 59.782 0 112.447-40.979 143.336-103.196 9.659-19.456 22.314-37.233 37.513-52.751 21.842-22.302 34.346-48.206 34.346-75.837z" fill="url(#SVGID_1_)"/><path d="m53.771 294.242c-1.28 0-2.559-.488-3.536-1.464l-6.464-6.464-6.464 6.464c-1.953 1.952-5.118 1.952-7.071 0-1.953-1.953-1.953-5.119 0-7.071l10-10c1.953-1.952 5.118-1.952 7.071 0l10 10c1.953 1.953 1.953 5.119 0 7.071-.977.975-2.257 1.464-3.536 1.464z" fill="#6c6cff"/><path d="m482.25 393.307c-1.28 0-2.559-.488-3.536-1.464l-6.464-6.464-6.464 6.464c-1.953 1.952-5.118 1.952-7.071 0-1.953-1.953-1.953-5.119 0-7.071l10-10c1.953-1.952 5.118-1.952 7.071 0l10 10c1.953 1.953 1.953 5.119 0 7.071-.977.975-2.256 1.464-3.536 1.464z" fill="#6c6cff"/><path d="m29.75 394.667c-1.28 0-2.559-.488-3.536-1.464-1.953-1.953-1.953-5.119 0-7.071l10-10c1.953-1.952 5.118-1.952 7.071 0 1.953 1.953 1.953 5.119 0 7.071l-10 10c-.976.975-2.255 1.464-3.535 1.464z" fill="#ff9d33"/><path d="m465.25 227.333c-1.28 0-2.559-.488-3.536-1.464-1.953-1.953-1.953-5.119 0-7.071l10-10c1.953-1.952 5.118-1.952 7.071 0 1.953 1.953 1.953 5.119 0 7.071l-10 10c-.976.976-2.255 1.464-3.535 1.464z" fill="#ff6c6c"/><path d="m41.5 150.422c-1.28 0-2.559-.488-3.536-1.464-1.953-1.953-1.953-5.119 0-7.071l10-10c1.953-1.952 5.118-1.952 7.071 0 1.953 1.953 1.953 5.119 0 7.071l-10 10c-.976.976-2.255 1.464-3.535 1.464z" fill="#ff6c6c"/><path d="m422.952 460.5h-331.904c-10.52 0-19.048-8.528-19.048-19.048v-349.904c0-10.52 8.528-19.048 19.048-19.048h331.905c10.52 0 19.048 8.528 19.048 19.048v349.905c-.001 10.519-8.529 19.047-19.049 19.047z" fill="#00c" opacity=".1"/><path d="m422.952 439.5h-331.904c-10.52 0-19.048-8.528-19.048-19.048v-349.904c0-10.52 8.528-19.048 19.048-19.048h331.905c10.52 0 19.048 8.528 19.048 19.048v349.905c-.001 10.519-8.529 19.047-19.049 19.047z" fill="#fff"/><path d="m442 107.69v-37.142c0-10.52-8.528-19.048-19.048-19.048h-331.904c-10.52 0-19.048 8.528-19.048 19.048v37.143h370z" fill="#b3b3ff"/><path d="m422.952 46.5h-331.904c-13.26 0-24.048 10.788-24.048 24.048v37.143c0 2.761 2.239 5 5 5h365v273.761c0 2.761 2.239 5 5 5s5-2.239 5-5v-315.904c0-13.26-10.788-24.048-24.048-24.048zm-345.952 56.19v-32.142c0-7.746 6.302-14.048 14.048-14.048h331.904c7.746 0 14.048 6.302 14.048 14.048v32.143h-360z" fill="#00c"/><path d="m442 415.452c-2.761 0-5 2.239-5 5 0 7.746-6.302 14.048-14.048 14.048h-331.904c-7.746 0-14.048-6.302-14.048-14.048v-278.761c0-2.761-2.239-5-5-5s-5 2.239-5 5v278.761c0 13.26 10.788 24.048 24.048 24.048h331.904c13.26 0 24.048-10.788 24.048-24.048 0-2.761-2.239-5-5-5z" fill="#00c"/><path d="m400.5 84.595h-16.52c-2.762 0-5-2.239-5-5s2.238-5 5-5h16.52c2.762 0 5 2.239 5 5s-2.238 5-5 5z" fill="#ff4d4d"/><path d="m362 84.595h-16.52c-2.762 0-5-2.239-5-5s2.238-5 5-5h16.52c2.762 0 5 2.239 5 5s-2.238 5-5 5z" fill="#ff9d33"/><path d="m306.5 84.595h-136.52c-2.762 0-5-2.239-5-5s2.238-5 5-5h136.52c2.762 0 5 2.239 5 5s-2.238 5-5 5z" fill="#ebebff"/><g fill="#d9d9ff"><path d="m257 414.316c-2.761 0-5-2.239-5-5v-30.226c0-2.761 2.239-5 5-5s5 2.239 5 5v30.226c0 2.762-2.239 5-5 5z"/><path d="m129.58 409.317h-12.5c-2.762 0-5-2.239-5-5s2.238-5 5-5h12.5c2.762 0 5 2.239 5 5s-2.238 5-5 5z"/><path d="m222.58 409.317h-72.5c-2.762 0-5-2.239-5-5s2.238-5 5-5h72.5c2.762 0 5 2.239 5 5s-2.238 5-5 5z"/><path d="m159.58 389.09h-42.5c-2.762 0-5-2.239-5-5s2.238-5 5-5h42.5c2.762 0 5 2.239 5 5s-2.238 5-5 5z"/><path d="m396.92 409.317h-108c-2.762 0-5-2.239-5-5s2.238-5 5-5h108c2.762 0 5 2.239 5 5s-2.238 5-5 5z"/><path d="m396.92 389.09h-108c-2.762 0-5-2.239-5-5s2.238-5 5-5h108c2.762 0 5 2.239 5 5s-2.238 5-5 5z"/></g><path d="m129.58 360.51h-12.5c-2.762 0-5-2.239-5-5s2.238-5 5-5h12.5c2.762 0 5 2.239 5 5s-2.238 5-5 5z" fill="#ff4d4d"/><path d="m393.907 219.133-11.4 11.4c-1.447 1.447-3.793 1.447-5.239 0l-6.7-6.7v45.551c0 2.046-1.659 3.705-3.705 3.705h-49.143c-1.71 0-3.096-1.386-3.096-3.096v-46.16l-7.13 7.13c-1.209 1.209-3.17 1.209-4.379 0l-12.261-12.261c-1.209-1.209-1.209-3.17 0-4.379l22.863-22.863c.581-.581 1.368-.907 2.189-.907h10.398c1.203 0 2.296.698 2.802 1.79 2.357 5.089 7.511 8.62 13.49 8.62s11.133-3.531 13.49-8.62c.506-1.092 1.598-1.79 2.802-1.79h10.146c.983 0 1.925.39 2.62 1.085l22.255 22.255c1.445 1.447 1.445 3.793-.002 5.24z" fill="#ffb3b3"/><path d="m222.968 219.133-11.4 11.4c-1.447 1.447-3.793 1.447-5.239 0l-6.7-6.7v45.551c0 2.046-1.659 3.705-3.705 3.705h-49.143c-1.71 0-3.096-1.386-3.096-3.096v-46.16l-7.13 7.13c-1.209 1.209-3.17 1.209-4.379 0l-12.261-12.261c-1.209-1.209-1.209-3.17 0-4.379l22.863-22.863c.581-.581 1.368-.907 2.189-.907h10.398c1.203 0 2.296.698 2.802 1.79 2.357 5.089 7.511 8.62 13.49 8.62s11.133-3.531 13.49-8.62c.506-1.092 1.598-1.79 2.802-1.79h10.146c.983 0 1.925.39 2.62 1.085l22.255 22.255c1.445 1.447 1.445 3.793-.002 5.24z" fill="#ffb3b3"/><path d="m340.554 195.441-19.799 19.799c-1.953 1.953-5.118 1.953-7.071 0l-11.514-11.515v74.54c0 2.761-2.239 5-5 5h-80.34c-2.761 0-5-2.239-5-5v-74.54l-11.514 11.515c-1.953 1.953-5.118 1.953-7.071 0l-19.799-19.799c-1.953-1.953-1.953-5.118 0-7.071l36.92-36.92c.938-.938 2.209-1.464 3.536-1.464h16.791c1.943 0 3.708 1.127 4.524 2.89 3.806 8.218 12.129 13.92 21.784 13.92 9.654 0 17.978-5.702 21.784-13.92.816-1.763 2.581-2.89 4.524-2.89h16.791c1.326 0 2.598.527 3.536 1.464l36.92 36.92c1.951 1.953 1.951 5.119-.002 7.071z" fill="#ff4d4d"/><circle cx="303.915" cy="216.811" fill="#9494ff" r="21.35"/><path d="m299.217 226.508c-1.28 0-2.559-.488-3.536-1.464-1.953-1.953-1.953-5.119 0-7.071l10-10c1.953-1.952 5.118-1.952 7.071 0 1.953 1.953 1.953 5.119 0 7.071l-10 10c-.976.976-2.255 1.464-3.535 1.464z" fill="#fff"/><path d="m217.5 322.892c0 7.64 6.193 13.833 13.833 13.833h49.667c7.64 0 13.833-6.193 13.833-13.833 0-7.64-6.193-13.833-13.833-13.833h-49.667c-7.639 0-13.833 6.194-13.833 13.833z" fill="#6c6cff"/></svg>