<svg id="Capa_1" enable-background="new 0 0 512 512" height="512" viewBox="0 0 512 512" width="512" xmlns="http://www.w3.org/2000/svg" xmlns:xlink="http://www.w3.org/1999/xlink"><linearGradient id="SVGID_1_" gradientUnits="userSpaceOnUse" x1="256" x2="256" y1="-3.859" y2="630.723"><stop offset=".0023" stop-color="#ffc599"/><stop offset=".992" stop-color="#ffe8dc" stop-opacity="0"/></linearGradient><path d="m512 192.053c0-77.209-114.615-139.799-256-139.799s-256 62.59-256 139.799c0 12.48 2.999 24.577 8.62 36.089 10.007 20.491 12.502 43.828 7.537 66.086-2.036 9.127-3.179 18.59-3.333 28.294-1.235 77.812 61.961 142.061 139.782 142.06 58.443 0 108.503-35.865 129.385-86.785 11.468-27.964 35.565-48.919 65.155-55.077 96.38-20.057 164.854-70.992 164.854-130.667z" fill="url(#SVGID_1_)"/><path d="m421.952 461.418h-331.904c-10.52 0-19.048-8.528-19.048-19.048v-349.904c0-10.52 8.528-19.048 19.048-19.048h331.905c10.52 0 19.048 8.528 19.048 19.048v349.904c-.001 10.52-8.529 19.048-19.049 19.048z" fill="#00c" opacity=".1"/><path d="m421.952 440.418h-331.904c-10.52 0-19.048-8.528-19.048-19.048v-349.904c0-10.52 8.528-19.048 19.048-19.048h331.905c10.52 0 19.048 8.528 19.048 19.048v349.904c-.001 10.52-8.529 19.048-19.049 19.048z" fill="#fff"/><path d="m441 108.608v-37.142c0-10.52-8.528-19.048-19.048-19.048h-331.904c-10.52 0-19.048 8.528-19.048 19.048v37.143h370z" fill="#b3b3ff"/><path d="m421.952 47.418h-331.904c-13.26 0-24.048 10.788-24.048 24.048v37.143c0 2.761 2.239 5 5 5h336c2.761 0 5-2.239 5-5s-2.239-5-5-5h-331v-32.143c0-7.746 6.302-14.048 14.048-14.048h331.904c7.746 0 14.048 6.302 14.048 14.048v349.904c0 7.746-6.302 14.048-14.048 14.048h-331.904c-7.746 0-14.048-6.302-14.048-14.048v-278.761c0-2.761-2.239-5-5-5s-5 2.239-5 5v278.761c0 13.26 10.788 24.048 24.048 24.048h331.904c13.26 0 24.048-10.788 24.048-24.048v-349.904c0-13.26-10.788-24.048-24.048-24.048z" fill="#00c"/><path d="m399.5 85.513h-16.52c-2.762 0-5-2.239-5-5s2.238-5 5-5h16.52c2.762 0 5 2.239 5 5s-2.238 5-5 5z" fill="#ff4d4d"/><path d="m361 85.513h-16.52c-2.762 0-5-2.239-5-5s2.238-5 5-5h16.52c2.762 0 5 2.239 5 5s-2.238 5-5 5z" fill="#ff9d33"/><path d="m305.5 85.513h-136.52c-2.762 0-5-2.239-5-5s2.238-5 5-5h136.52c2.762 0 5 2.239 5 5s-2.238 5-5 5z" fill="#ebebff"/><g fill="#d9d9ff"><path d="m256 425.751c-2.761 0-5-2.239-5-5v-288.333c0-2.761 2.239-5 5-5s5 2.239 5 5v288.333c0 2.761-2.239 5-5 5z"/><path d="m116.801 396.725h-12.5c-2.762 0-5-2.239-5-5s2.238-5 5-5h12.5c2.762 0 5 2.239 5 5s-2.239 5-5 5z"/><path d="m209.801 396.725h-72.5c-2.762 0-5-2.239-5-5s2.238-5 5-5h72.5c2.762 0 5 2.239 5 5s-2.239 5-5 5z"/><path d="m146.801 379.498h-42.5c-2.762 0-5-2.239-5-5s2.238-5 5-5h42.5c2.762 0 5 2.239 5 5s-2.239 5-5 5z"/><path d="m303.236 396.725h-12.5c-2.762 0-5-2.239-5-5s2.238-5 5-5h12.5c2.762 0 5 2.239 5 5s-2.239 5-5 5z"/><path d="m396.236 396.725h-72.5c-2.762 0-5-2.239-5-5s2.238-5 5-5h72.5c2.762 0 5 2.239 5 5s-2.239 5-5 5z"/><path d="m333.236 379.498h-42.5c-2.762 0-5-2.239-5-5s2.238-5 5-5h42.5c2.762 0 5 2.239 5 5s-2.239 5-5 5z"/></g><path d="m124.116 315.251c0 7.64 6.193 13.833 13.833 13.833h49.667c7.64 0 13.833-6.193 13.833-13.833 0-7.64-6.193-13.833-13.833-13.833h-49.667c-7.64 0-13.833 6.193-13.833 13.833z" fill="#6c6cff"/><path d="m310.551 315.251c0 7.64 6.193 13.833 13.833 13.833h49.667c7.64 0 13.833-6.193 13.833-13.833 0-7.64-6.193-13.833-13.833-13.833h-49.667c-7.64 0-13.833 6.193-13.833 13.833z" fill="#6c6cff"/><path d="m212.632 274.356h-105.021c-2.715 0-4.75-2.483-4.224-5.146l12.086-61.161 2.681-13.577h83.936l2.681 13.577 12.094 61.161c.525 2.664-1.518 5.146-4.233 5.146z" fill="#ffc599"/><path d="m204.77 208.049h-89.298l2.681-13.577h83.936z" fill="#ffab66"/><path d="m152.298 199.558-1.543 8.491-3.198 17.62c-.379 2.086-2.198 3.543-4.241 3.543-.25 0-.509-.026-.776-.069-2.336-.422-3.896-2.672-3.465-5.008l2.922-16.086 1.819-10.034c.422-2.345 2.664-3.905 5.008-3.474 2.345.431 3.897 2.672 3.474 5.017z" fill="#ffab66"/><path d="m176.332 244.806c-.207.026-.414.043-.621.043-2.103 0-3.948-1.552-4.258-3.698l-4.784-33.102-1.25-8.646c-.336-2.353 1.302-4.543 3.655-4.888 2.353-.336 4.543 1.302 4.879 3.655l1.431 9.879 4.603 31.869c.336 2.354-1.293 4.543-3.655 4.888z" fill="#ffab66"/><path d="m175.384 208.049h-8.715l-1.25-8.646c-.336-2.353 1.302-4.543 3.655-4.888 2.353-.336 4.543 1.302 4.879 3.655z" fill="#ff9d33"/><path d="m152.298 199.558-1.543 8.491h-8.758l1.819-10.034c.422-2.345 2.664-3.905 5.008-3.474 2.345.431 3.897 2.672 3.474 5.017z" fill="#ff9d33"/><path d="m204.951 179.645v17.413c0 .328-.034.647-.103.957-.44 1.922-2.155 3.353-4.207 3.353h-81.031c-2.379 0-4.31-1.931-4.31-4.31v-17.413c0-2.379 1.931-4.31 4.31-4.31h81.031c2.379 0 4.31 1.931 4.31 4.31z" fill="#ff8b00"/><path d="m204.951 179.645v17.413c0 .328-.034.647-.103.957-10.827-1.035-19.284-10.146-19.284-21.241 0-.483.017-.965.052-1.44h15.025c2.379.001 4.31 1.932 4.31 4.311z" fill="#ff7300"/><circle cx="206.915" cy="171.599" fill="#ff4d4d" r="21.35"/><path d="m202.217 181.297c-1.28 0-2.559-.488-3.536-1.464-1.953-1.953-1.953-5.119 0-7.071l10-10c1.953-1.952 5.118-1.952 7.071 0 1.953 1.953 1.953 5.119 0 7.071l-10 10c-.976.976-2.255 1.464-3.535 1.464z" fill="#fff"/><path d="m399.071 274.356h-105.022c-2.715 0-4.758-2.483-4.233-5.146l12.094-61.161 2.681-13.577h83.936l2.681 13.577 12.086 61.161c.527 2.664-1.508 5.146-4.223 5.146z" fill="#d9d9ff"/><path d="m336.57 197.518-1.79 9.85-3.71 20.44c-.44 2.42-2.54 4.11-4.91 4.11-.3 0-.6-.03-.9-.08-2.72-.49-4.52-3.1-4.03-5.81l3.39-18.66 2.11-11.64c.5-2.72 3.1-4.53 5.82-4.03 2.71.5 4.52 3.1 4.02 5.82z" fill="#b3b3ff"/><path d="m362.771 244.806c-.207.026-.414.043-.621.043-2.112 0-3.948-1.552-4.258-3.698l-4.784-33.102-1.25-8.646c-.345-2.353 1.293-4.543 3.646-4.888 2.353-.336 4.543 1.302 4.888 3.655l1.422 9.879 4.603 31.869c.345 2.354-1.293 4.543-3.646 4.888z" fill="#b3b3ff"/><path d="m391.209 208.049h-89.298l2.681-13.577h83.936z" fill="#b3b3ff"/><path d="m336.57 197.518-1.79 9.85h-10.16l2.11-11.64c.5-2.72 3.1-4.53 5.82-4.03 2.71.5 4.52 3.1 4.02 5.82z" fill="#9494ff"/><path d="m361.814 208.049h-8.707l-1.25-8.646c-.345-2.353 1.293-4.543 3.646-4.888 2.353-.336 4.543 1.302 4.888 3.655z" fill="#9494ff"/><path d="m391.382 179.645v17.413c0 .328-.035.647-.112.957-.431 1.922-2.146 3.353-4.198 3.353h-81.032c-2.379 0-4.31-1.931-4.31-4.31v-17.413c0-2.379 1.931-4.31 4.31-4.31h81.031c2.38 0 4.311 1.931 4.311 4.31z" fill="#8383ff"/><path d="m391.382 179.645v17.413c0 .328-.035.647-.112.957-10.819-1.043-19.266-10.146-19.266-21.241 0-.483.017-.965.052-1.44h15.017c2.378.001 4.309 1.932 4.309 4.311z" fill="#6c6cff"/><circle cx="393.349" cy="171.599" fill="#ff4d4d" r="21.35"/><path d="m388.337 181.297c-1.28 0-2.559-.488-3.536-1.464-1.953-1.953-1.953-5.119 0-7.071l10-10c1.953-1.952 5.118-1.952 7.071 0 1.953 1.953 1.953 5.119 0 7.071l-10 10c-.976.976-2.255 1.464-3.535 1.464z" fill="#fff"/><path d="m42.5 168.978c-1.28 0-2.559-.488-3.536-1.464l-6.464-6.464-6.464 6.464c-1.953 1.952-5.118 1.952-7.071 0-1.953-1.953-1.953-5.119 0-7.071l10-10c1.953-1.952 5.118-1.952 7.071 0l10 10c1.953 1.953 1.953 5.119 0 7.071-.977.975-2.256 1.464-3.536 1.464z" fill="#6c6cff"/><path d="m483.5 229.368c-1.28 0-2.559-.488-3.536-1.464l-6.464-6.464-6.464 6.464c-1.953 1.953-5.118 1.952-7.071 0-1.953-1.953-1.953-5.119 0-7.071l10-10c1.953-1.952 5.118-1.952 7.071 0l10 10c1.953 1.953 1.953 5.119 0 7.071-.976.975-2.256 1.464-3.536 1.464z" fill="#6c6cff"/><path d="m28.75 457.085c-1.28 0-2.559-.488-3.536-1.464-1.953-1.953-1.953-5.119 0-7.071l10-10c1.953-1.952 5.118-1.952 7.071 0 1.953 1.953 1.953 5.119 0 7.071l-10 10c-.976.975-2.255 1.464-3.535 1.464z" fill="#ff9d33"/><path d="m473.25 79.752c-1.28 0-2.559-.488-3.536-1.464-1.953-1.953-1.953-5.119 0-7.071l10-10c1.953-1.952 5.118-1.952 7.071 0 1.953 1.953 1.953 5.119 0 7.071l-10 10c-.976.975-2.255 1.464-3.535 1.464z" fill="#ff6c6c"/><path d="m37.5 221.84c-1.28 0-2.559-.488-3.536-1.464-1.953-1.953-1.953-5.119 0-7.071l10-10c1.953-1.952 5.118-1.952 7.071 0 1.953 1.953 1.953 5.119 0 7.071l-10 10c-.976.976-2.255 1.464-3.535 1.464z" fill="#ff6c6c"/><path d="m116.801 354.725h-12.5c-2.762 0-5-2.239-5-5s2.238-5 5-5h12.5c2.762 0 5 2.239 5 5s-2.239 5-5 5z" fill="#ff8b00"/><path d="m303.236 354.725h-12.5c-2.762 0-5-2.239-5-5s2.238-5 5-5h12.5c2.762 0 5 2.239 5 5s-2.239 5-5 5z" fill="#8383ff"/></svg>