<svg id="Capa_1" enable-background="new 0 0 512 512" height="512" viewBox="0 0 512 512" width="512" xmlns="http://www.w3.org/2000/svg" xmlns:xlink="http://www.w3.org/1999/xlink"><linearGradient id="SVGID_1_" gradientUnits="userSpaceOnUse" x1="484.555" x2="-53.445" y1="672.3" y2="-139.701"><stop offset=".0023" stop-color="#ff9494"/><stop offset=".992" stop-color="#ffe8dc" stop-opacity="0"/></linearGradient><path d="m419.843 204.806c1.055-7.758 1.571-15.687 1.509-23.748-.692-90.025-74.256-163.486-164.281-164.057-91.815-.581-166.428 73.673-166.428 165.354 0 7.615.516 15.109 1.513 22.45 4.043 29.747-9.887 59.143-35.212 75.263-35.611 22.668-56.944 51.54-56.944 82.98 0 72.876 114.615 131.954 256 131.954s256-59.078 256-131.954c0-31.44-21.334-60.312-56.946-82.98-25.325-16.12-39.254-45.516-35.211-75.262z" fill="url(#SVGID_1_)"/><path d="m421.952 460.5h-331.904c-10.52 0-19.048-8.528-19.048-19.048v-349.904c0-10.52 8.528-19.048 19.048-19.048h331.905c10.52 0 19.048 8.528 19.048 19.048v349.905c-.001 10.519-8.529 19.047-19.049 19.047z" fill="#00c" opacity=".1"/><path d="m421.952 439.5h-331.904c-10.52 0-19.048-8.528-19.048-19.048v-349.904c0-10.52 8.528-19.048 19.048-19.048h331.905c10.52 0 19.048 8.528 19.048 19.048v349.905c-.001 10.519-8.529 19.047-19.049 19.047z" fill="#fff"/><path d="m441 107.69v-37.142c0-10.52-8.528-19.048-19.048-19.048h-331.904c-10.52 0-19.048 8.528-19.048 19.048v37.143h370z" fill="#b3b3ff"/><path d="m421.952 46.5h-331.904c-13.26 0-24.048 10.788-24.048 24.048v37.143c0 2.761 2.239 5 5 5h365v307.762c0 7.746-6.302 14.048-14.048 14.048-2.762 0-5 2.239-5 5s2.238 5 5 5c13.26 0 24.048-10.788 24.048-24.048v-349.905c0-13.26-10.788-24.048-24.048-24.048zm-345.952 56.19v-32.142c0-7.746 6.302-14.048 14.048-14.048h331.904c7.746 0 14.048 6.302 14.048 14.048v32.143h-360z" fill="#00c"/><path d="m387.952 434.5h-297.904c-7.746 0-14.048-6.302-14.048-14.048v-278.761c0-2.761-2.239-5-5-5s-5 2.239-5 5v278.761c0 13.26 10.788 24.048 24.048 24.048h297.904c2.762 0 5-2.239 5-5s-2.238-5-5-5z" fill="#00c"/><path d="m399.5 84.595h-16.52c-2.762 0-5-2.239-5-5s2.238-5 5-5h16.52c2.762 0 5 2.239 5 5s-2.238 5-5 5z" fill="#ff4d4d"/><path d="m361 84.595h-16.52c-2.762 0-5-2.239-5-5s2.238-5 5-5h16.52c2.762 0 5 2.239 5 5s-2.238 5-5 5z" fill="#ff9d33"/><path d="m305.5 84.595h-136.52c-2.762 0-5-2.239-5-5s2.238-5 5-5h136.52c2.762 0 5 2.239 5 5s-2.238 5-5 5z" fill="#ebebff"/><g fill="#d9d9ff"><path d="m256 414.316c-2.761 0-5-2.239-5-5v-30.226c0-2.761 2.239-5 5-5 2.762 0 5 2.239 5 5v30.226c0 2.762-2.238 5-5 5z"/><path d="m158.58 409.317h-42.5c-2.762 0-5-2.239-5-5s2.238-5 5-5h42.5c2.762 0 5 2.239 5 5s-2.238 5-5 5z"/><path d="m221.58 409.317h-42.5c-2.762 0-5-2.239-5-5s2.238-5 5-5h42.5c2.762 0 5 2.239 5 5s-2.238 5-5 5z"/><path d="m194.58 389.09h-78.5c-2.762 0-5-2.239-5-5s2.238-5 5-5h78.5c2.762 0 5 2.239 5 5s-2.238 5-5 5z"/><path d="m395.92 409.317h-108c-2.762 0-5-2.239-5-5s2.238-5 5-5h108c2.762 0 5 2.239 5 5s-2.238 5-5 5z"/><path d="m395.92 389.09h-108c-2.762 0-5-2.239-5-5s2.238-5 5-5h108c2.762 0 5 2.239 5 5s-2.238 5-5 5z"/></g><path d="m128.58 360.51h-12.5c-2.762 0-5-2.239-5-5s2.238-5 5-5h12.5c2.762 0 5 2.239 5 5s-2.238 5-5 5z" fill="#6c6cff"/><path d="m216.5 322.892c0 7.64 6.193 13.833 13.833 13.833h49.667c7.64 0 13.833-6.193 13.833-13.833 0-7.64-6.193-13.833-13.833-13.833h-49.667c-7.639 0-13.833 6.194-13.833 13.833z" fill="#6c6cff"/><path d="m214.667 148.998v130.002c0 2.761 2.239 5 5 5h22.913c2.761 0 5-2.239 5-5v-85.58c0-4.65 3.77-8.42 8.42-8.42 4.65 0 8.42 3.77 8.42 8.42v85.58c0 2.761 2.239 5 5 5h22.913c2.761 0 5-2.239 5-5v-130.002c0-2.761-2.239-5-5-5h-72.667c-2.761 0-4.999 2.238-4.999 5z" fill="#9494ff"/><path d="m297.333 158.167v-9.169c0-2.761-2.239-5-5-5h-72.667c-2.761 0-5 2.239-5 5v9.169z" fill="#d9d9ff"/><path d="m214.667 269v10c0 2.761 2.239 5 5 5h22.913c2.761 0 5-2.239 5-5v-10z" fill="#d9d9ff"/><path d="m264.42 269v10c0 2.761 2.239 5 5 5h22.913c2.761 0 5-2.239 5-5v-10z" fill="#d9d9ff"/><path d="m277.521 158.167c.218 8.505 4.822 16.295 12.219 20.56l7.59 4.38v-24.94z" fill="#6c6cff"/><path d="m234.476 158.167c-.218 8.505-4.822 16.295-12.219 20.56l-7.59 4.38v-24.94z" fill="#6c6cff"/><path d="m240.226 159.762h-4.75c-.552 0-1-.448-1-1v-14.764h6.75v14.764c0 .552-.448 1-1 1z" fill="#b3b3ff"/><path d="m276.521 159.762h-4.75c-.552 0-1-.448-1-1v-14.764h6.75v14.764c0 .552-.448 1-1 1z" fill="#b3b3ff"/><path d="m312.187 184.71v86.58c0 1.839 1.491 3.33 3.33 3.33h15.26c1.839 0 3.33-1.491 3.33-3.33v-56.995c0-3.097 2.511-5.608 5.608-5.608 3.097 0 5.608 2.511 5.608 5.608v56.995c0 1.839 1.491 3.33 3.33 3.33h15.26c1.839 0 3.33-1.491 3.33-3.33v-86.58c0-1.839-1.491-3.33-3.33-3.33h-48.395c-1.841 0-3.331 1.491-3.331 3.33z" fill="#9494ff"/><path d="m367.242 190.816v-6.106c0-1.839-1.491-3.33-3.33-3.33h-48.395c-1.839 0-3.33 1.491-3.33 3.33v6.106z" fill="#d9d9ff"/><path d="m312.187 264.63v6.66c0 1.839 1.491 3.33 3.33 3.33h15.26c1.839 0 3.33-1.491 3.33-3.33v-6.66z" fill="#d9d9ff"/><path d="m345.322 264.63v6.66c0 1.839 1.491 3.33 3.33 3.33h15.26c1.839 0 3.33-1.491 3.33-3.33v-6.66z" fill="#d9d9ff"/><path d="m354.047 190.816c.145 5.664 3.211 10.853 8.138 13.693l5.055 2.917v-16.61z" fill="#6c6cff"/><path d="m325.379 190.816c-.145 5.664-3.211 10.853-8.138 13.693l-5.055 2.917v-16.61z" fill="#6c6cff"/><path d="m329.209 191.879h-3.163c-.368 0-.666-.298-.666-.666v-9.833h4.495v9.833c0 .368-.299.666-.666.666z" fill="#b3b3ff"/><path d="m353.381 191.879h-3.163c-.368 0-.666-.298-.666-.666v-9.833h4.495v9.833c0 .368-.298.666-.666.666z" fill="#b3b3ff"/><path d="m144.758 184.71v86.58c0 1.839 1.491 3.33 3.33 3.33h15.26c1.839 0 3.33-1.491 3.33-3.33v-56.995c0-3.097 2.511-5.608 5.608-5.608 3.097 0 5.608 2.511 5.608 5.608v56.995c0 1.839 1.491 3.33 3.33 3.33h15.26c1.839 0 3.33-1.491 3.33-3.33v-86.58c0-1.839-1.491-3.33-3.33-3.33h-48.395c-1.84 0-3.331 1.491-3.331 3.33z" fill="#9494ff"/><path d="m199.813 190.816v-6.106c0-1.839-1.491-3.33-3.33-3.33h-48.395c-1.839 0-3.33 1.491-3.33 3.33v6.106z" fill="#d9d9ff"/><path d="m144.758 264.63v6.66c0 1.839 1.491 3.33 3.33 3.33h15.26c1.839 0 3.33-1.491 3.33-3.33v-6.66z" fill="#d9d9ff"/><path d="m177.894 264.63v6.66c0 1.839 1.491 3.33 3.33 3.33h15.26c1.839 0 3.33-1.491 3.33-3.33v-6.66z" fill="#d9d9ff"/><path d="m186.619 190.816c.145 5.664 3.211 10.853 8.138 13.693l5.055 2.917v-16.61z" fill="#6c6cff"/><path d="m157.951 190.816c-.145 5.664-3.211 10.853-8.138 13.693l-5.055 2.917v-16.61z" fill="#6c6cff"/><path d="m161.78 191.879h-3.163c-.368 0-.666-.298-.666-.666v-9.833h4.495v9.833c0 .368-.298.666-.666.666z" fill="#b3b3ff"/><path d="m185.953 191.879h-3.163c-.368 0-.666-.298-.666-.666v-9.833h4.495v9.833c0 .368-.299.666-.666.666z" fill="#b3b3ff"/><circle cx="304.27" cy="193.1" fill="#ff4d4d" r="21.35"/><path d="m299.572 202.798c-1.279 0-2.56-.488-3.535-1.464-1.953-1.953-1.953-5.119 0-7.071l10-10c1.951-1.952 5.119-1.952 7.07 0 1.953 1.953 1.953 5.119 0 7.071l-10 10c-.975.976-2.255 1.464-3.535 1.464z" fill="#fff"/><path d="m39.125 106.931c-1.28 0-2.559-.488-3.536-1.464-1.953-1.953-1.953-5.119 0-7.071l10-10c1.953-1.952 5.118-1.952 7.071 0 1.953 1.953 1.953 5.119 0 7.071l-10 10c-.976.976-2.255 1.464-3.535 1.464z" fill="#ff9d33"/><path d="m465.875 343.51c-1.279 0-2.56-.488-3.535-1.464-1.953-1.953-1.953-5.119 0-7.071l10-10c1.951-1.952 5.119-1.952 7.07 0 1.953 1.953 1.953 5.119 0 7.071l-10 10c-.975.976-2.256 1.464-3.535 1.464z" fill="#ff6c6c"/><path d="m49.125 346.726c-1.28 0-2.559-.488-3.536-1.464l-6.464-6.464-6.464 6.464c-1.953 1.952-5.118 1.952-7.071 0-1.953-1.953-1.953-5.119 0-7.071l10-10c1.953-1.952 5.118-1.952 7.071 0l10 10c1.953 1.953 1.953 5.119 0 7.071-.977.975-2.256 1.464-3.536 1.464z" fill="#ff6c6c"/><path d="m482.875 225.5c-1.279 0-2.56-.488-3.535-1.464l-6.465-6.464-6.465 6.464c-1.951 1.952-5.119 1.952-7.07 0-1.953-1.953-1.953-5.119 0-7.071l10-10c1.951-1.952 5.119-1.952 7.07 0l10 10c1.953 1.953 1.953 5.119 0 7.071-.975.976-2.256 1.464-3.535 1.464z" fill="#ff9d33"/><path d="m39.125 391.807c-1.28 0-2.559-.488-3.536-1.464-1.953-1.953-1.953-5.119 0-7.071l10-10c1.953-1.952 5.118-1.952 7.071 0 1.953 1.953 1.953 5.119 0 7.071l-10 10c-.976.975-2.255 1.464-3.535 1.464z" fill="#6c6cff"/></svg>