<svg id="Capa_1" enable-background="new 0 0 512 512" height="512" viewBox="0 0 512 512" width="512" xmlns="http://www.w3.org/2000/svg" xmlns:xlink="http://www.w3.org/1999/xlink"><linearGradient id="SVGID_1_" gradientUnits="userSpaceOnUse" x1="484.555" x2="-53.445" y1="672.3" y2="-139.701"><stop offset=".0023" stop-color="#ff9494"/><stop offset=".992" stop-color="#ffe8dc" stop-opacity="0"/></linearGradient><g><path d="m419.843 204.806c1.055-7.758 1.571-15.687 1.509-23.748-.692-90.025-74.256-163.486-164.281-164.057-91.815-.581-166.428 73.673-166.428 165.354 0 7.615.516 15.109 1.513 22.45 4.043 29.747-9.887 59.143-35.212 75.263-35.611 22.668-56.944 51.54-56.944 82.98 0 72.876 114.615 131.954 256 131.954s256-59.078 256-131.954c0-31.44-21.334-60.312-56.946-82.98-25.325-16.12-39.254-45.516-35.211-75.262z" fill="url(#SVGID_1_)"/><g><g><path d="m459.21 68.533h-118.797c-7.468 0-13.528 6.052-13.528 13.52v135.552c-12.962-26.849-40.427-45.382-72.239-45.382-42.202 0-76.79 32.598-79.96 73.988-3.393.447-6.743 1.301-9.97 2.56h-111.923c-7.468 0-13.528 6.052-13.528 13.52v209.662c0 7.468 6.06 13.52 13.528 13.52h118.797c7.468 0 13.52-6.052 13.52-13.52v-132.444c1.451.171 2.924.27 4.421.27 10.448 0 19.889-4.293 26.669-11.206 11.034 7.092 24.163 11.206 38.254 11.206 12.242 0 23.758-3.105 33.805-8.57 7.903 5.405 17.458 8.57 27.755 8.57 11.709 0 22.457-4.095 30.908-10.921 6.792 2.8 14.545 3.393 22.14 1.153 12.056-3.556 20.584-13.321 23.137-24.777h67.011c7.468 0 13.52-6.052 13.52-13.52v-209.662c0-7.468-6.052-13.519-13.52-13.519z" fill="#00c" opacity=".1"/><g><g fill="#00c" opacity=".1"><path d="m428.784 338.782-7.61-7.61c-1.951-1.952-5.119-1.952-7.07 0l-7.61 7.61c-1.953 1.953-1.953 5.119 0 7.071 1.668 1.669 4.219 1.899 6.146.715v83.166h-188.374c1.184-1.926.954-4.476-.715-6.146-1.952-1.952-5.117-1.952-7.071 0l-7.61 7.61c-.938.938-1.464 2.209-1.464 3.536s.527 2.598 1.464 3.536l7.61 7.61c.977.976 2.256 1.464 3.536 1.464s2.559-.488 3.536-1.464c1.669-1.669 1.899-4.219.715-6.146h193.373c2.762 0 5-2.239 5-5v-88.166c.8.492 1.703.75 2.61.75 1.279 0 2.56-.488 3.535-1.464 1.952-1.954 1.952-5.12-.001-7.072z"/><path d="m99.361 207.432v-83.165h188.373c-1.184 1.926-.954 4.476.715 6.146.976.976 2.256 1.464 3.535 1.464s2.56-.488 3.535-1.464l7.61-7.61c.938-.938 1.465-2.209 1.465-3.536s-.526-2.598-1.465-3.536l-7.61-7.61c-1.951-1.952-5.119-1.952-7.07 0-1.669 1.669-1.899 4.219-.715 6.146h-193.373c-2.761 0-5 2.239-5 5v88.166c-1.927-1.184-4.477-.954-6.146.715-1.953 1.953-1.953 5.119 0 7.071l7.61 7.61c.938.938 2.209 1.464 3.536 1.464 1.326 0 2.598-.527 3.536-1.464l7.61-7.61c1.953-1.953 1.953-5.119 0-7.071-1.669-1.669-4.22-1.899-6.146-.716z"/></g><g><g><g><path d="m472.73 55.052v209.662c0 7.468-6.052 13.52-13.52 13.52h-118.797c-7.468 0-13.528-6.052-13.528-13.52v-209.662c0-7.468 6.06-13.52 13.528-13.52h118.797c7.469.001 13.52 6.052 13.52 13.52z" fill="#fff"/><path d="m436.158 59.706 5.487-18.179h-83.662l5.487 18.179c.827 2.74 3.352 4.615 6.214 4.615h60.26c2.862 0 5.387-1.875 6.214-4.615z" fill="#ffab66"/></g></g></g><g><path d="m391.628 264.561c-4.456-15.107-18.659-24.673-33.729-23.883-5.473-8.838-13.665-15.813-23.408-19.763-3.785-40.772-38.084-72.693-79.845-72.693-42.202 0-76.79 32.598-79.96 73.987-9.009 1.187-17.712 5.235-24.634 12.158-5.571 5.571-9.275 12.298-11.133 19.407-12.96 2.985-22.627 14.585-22.627 28.451 0 16.129 13.075 29.204 29.204 29.204 6.796 0 13.045-2.328 18.007-6.221 6.729 6.537 15.904 10.569 26.027 10.569 10.448 0 19.889-4.293 26.669-11.205 11.034 7.091 24.163 11.205 38.254 11.205 12.242 0 23.758-3.105 33.805-8.57 7.903 5.404 17.458 8.57 27.755 8.57 11.709 0 22.457-4.095 30.908-10.92 6.792 2.8 14.545 3.393 22.14 1.153 17.678-5.213 27.781-23.771 22.567-41.449z" fill="#d9d9ff"/><path d="m356.002 307.164c-3.143-.333-6.198-1.122-9.075-2.31-8.453 6.831-19.205 10.93-30.912 10.93-10.297 0-19.849-3.165-27.758-8.575-10.041 5.465-21.56 8.575-33.8 8.575-14.095 0-27.224-4.121-38.254-11.208-6.787 6.909-16.228 11.208-26.669 11.208-10.13 0-19.305-4.032-26.036-10.574-3.155 2.488-6.842 4.332-10.852 5.343-.367-1.566-.555-3.199-.555-4.876 0-10.285 7.164-18.883 16.772-21.093 1.377-5.265 4.121-10.252 8.253-14.384 5.132-5.132 11.585-8.131 18.261-9.008 2.355-30.69 27.991-54.849 59.269-54.849 30.956 0 56.381 23.659 59.181 53.882 7.22 2.932 13.296 8.097 17.35 14.651 11.174-.589 21.704 6.509 25.003 17.705 1.466 4.964 1.299 10.018-.178 14.583z" fill="#ebebff"/></g><g><g><g><path d="m280.433 236.416c-.884 0-1.777-.234-2.589-.726-6.578-3.991-14.132-6.1-21.844-6.1s-15.266 2.109-21.845 6.1c-2.361 1.433-5.436.68-6.868-1.682-1.432-2.361-.679-5.436 1.682-6.868 8.143-4.939 17.49-7.55 27.031-7.55s18.889 2.611 27.031 7.55c2.36 1.432 3.113 4.507 1.682 6.868-.942 1.551-2.59 2.408-4.28 2.408z" fill="#ff8b00"/></g><g><path d="m266.392 252.653c-.883 0-1.777-.234-2.588-.726-2.35-1.425-5.048-2.178-7.804-2.178-2.755 0-5.454.753-7.803 2.178-2.362 1.433-5.436.68-6.868-1.682-1.432-2.361-.679-5.436 1.682-6.868 3.914-2.374 8.405-3.628 12.99-3.628s9.076 1.255 12.989 3.628c2.361 1.432 3.114 4.507 1.683 6.868-.942 1.55-2.591 2.408-4.281 2.408z" fill="#ff8b00"/></g><g><path d="m293.424 219.332c-.884 0-1.777-.234-2.588-.726-10.492-6.364-22.539-9.729-34.836-9.729-12.298 0-24.344 3.364-34.835 9.729-2.36 1.433-5.436.68-6.868-1.682-1.432-2.361-.679-5.436 1.682-6.868 12.055-7.313 25.895-11.179 40.021-11.179s27.966 3.866 40.021 11.179c2.361 1.432 3.114 4.507 1.683 6.868-.94 1.551-2.59 2.408-4.28 2.408z" fill="#ff8b00"/></g></g></g><g><g><g><path d="m185.11 235.29v209.662c0 7.468-6.052 13.52-13.52 13.52h-118.797c-7.468 0-13.528-6.052-13.528-13.52v-209.662c0-7.468 6.06-13.52 13.528-13.52h118.797c7.468 0 13.52 6.052 13.52 13.52z" fill="#ff6c6c"/><path d="m148.537 239.943 5.487-18.179h-83.662l5.487 18.179c.827 2.74 3.352 4.615 6.214 4.615h60.26c2.863.001 5.387-1.874 6.214-4.615z" fill="#ffab66"/></g></g></g><g fill="#00c"><path d="m459.21 36.53h-118.79c-10.218 0-18.53 8.308-18.53 18.52v121.069c-2.917-3.744-6.151-7.271-9.702-10.526-15.74-14.426-36.176-22.371-57.542-22.371-21.607 0-42.213 8.102-58.023 22.812-14.474 13.468-23.708 31.33-26.364 50.73h-117.463c-10.214 0-18.524 8.31-18.524 18.524v209.661c0 10.214 8.31 18.524 18.524 18.524h118.795c10.214 0 18.524-8.31 18.524-18.524v-124.183c9.901-.133 19.236-3.628 26.717-9.962 11.424 6.537 24.349 9.975 37.621 9.975 11.636 0 23.166-2.689 33.535-7.799 8.446 5.112 18.072 7.799 28.025 7.799 11.391 0 22.561-3.633 31.763-10.283 7.329 2.375 15.281 2.5 22.7.312 9.83-2.9 17.943-9.455 22.845-18.456 4.9-9.002 6.002-19.374 3.103-29.205-4.767-16.156-19.266-27.127-35.854-27.505-5.417-7.777-12.878-14.093-21.426-18.142-1.142-8.915-3.688-17.51-7.478-25.516.132-.448.224-.913.224-1.403v-135.531c0-4.698 3.827-8.52 8.53-8.52h13.849l4.413 14.621c1.476 4.887 5.896 8.17 11.001 8.17h60.26c5.105 0 9.526-3.283 11.002-8.17l4.412-14.621h13.852c4.704 0 8.53 3.822 8.53 8.52v209.66c0 4.704-3.826 8.53-8.53 8.53h-33.009c-2.762 0-5 2.239-5 5s2.238 5 5 5h33.01c10.218 0 18.53-8.313 18.53-18.53v-209.66c0-10.212-8.312-18.52-18.53-18.52zm-311.918 190.235-3.542 11.734c-.191.634-.765 1.06-1.427 1.06h-60.26c-.663 0-1.236-.426-1.428-1.06l-3.542-11.734zm206.356 16.546c.962 1.551 2.684 2.456 4.513 2.36 13.164-.686 24.94 7.662 28.671 20.305 2.145 7.269 1.33 14.938-2.294 21.593s-9.622 11.502-16.892 13.646c-6.269 1.85-12.776 1.511-18.819-.98-1.69-.698-3.626-.416-5.047.733-7.946 6.418-17.548 9.81-27.767 9.81-8.947 0-17.568-2.662-24.933-7.697-1.551-1.06-3.563-1.162-5.211-.265-9.577 5.208-20.44 7.962-31.417 7.962-12.66 0-24.953-3.6-35.55-10.412-1.994-1.281-4.613-.987-6.273.705-6.003 6.12-13.98 9.542-22.515 9.693v-16.764c0-2.761-2.239-5-5-5s-5 2.239-5 5v150.949c0 4.7-3.824 8.524-8.524 8.524h-118.794c-4.7 0-8.524-3.824-8.524-8.524v-209.66c0-4.7 3.824-8.524 8.524-8.524h13.853l4.414 14.624c1.475 4.887 5.896 8.17 11.001 8.17h60.26c5.104 0 9.525-3.283 11-8.17l4.414-14.624h13.853c.475 0 .939.049 1.393.124.386.141.788.246 1.215.288 3.428 1.105 5.916 4.322 5.916 8.112v24.711c0 2.761 2.239 5 5 5s5-2.239 5-5v-24.711c0-7.162-4.093-13.374-10.055-16.455 2.213-17.392 10.422-33.425 23.375-45.478 13.953-12.983 32.14-20.133 51.211-20.133 18.858 0 36.894 7.011 50.785 19.743 13.806 12.653 22.358 29.846 24.082 48.412.173 1.86 1.368 3.469 3.1 4.171 8.641 3.503 16.112 9.81 21.035 17.762zm77.723-185.05c-.191.634-.765 1.06-1.428 1.06h-60.26c-.662 0-1.235-.426-1.427-1.06l-3.541-11.731h70.196z"/><path d="m421.174 304.171c-1.951-1.952-5.119-1.952-7.07 0l-7.61 7.61c-1.953 1.953-1.953 5.119 0 7.071 1.668 1.669 4.219 1.899 6.146.715v83.166h-188.374c1.184-1.926.954-4.476-.715-6.146-1.952-1.951-5.117-1.952-7.071 0l-7.61 7.61c-.938.938-1.464 2.209-1.464 3.536s.527 2.598 1.464 3.536l7.61 7.61c.977.976 2.256 1.464 3.536 1.464s2.559-.488 3.536-1.464c1.669-1.669 1.899-4.219.715-6.146h193.373c2.762 0 5-2.239 5-5v-88.166c.8.492 1.703.75 2.61.75 1.279 0 2.56-.488 3.535-1.464 1.953-1.953 1.953-5.119 0-7.071z"/><path d="m90.826 195.829c.938.938 2.209 1.464 3.536 1.464 1.326 0 2.598-.527 3.536-1.464l7.61-7.61c1.953-1.953 1.953-5.119 0-7.071-1.669-1.668-4.219-1.898-6.146-.715v-83.166h188.373c-1.184 1.926-.954 4.476.715 6.146.976.976 2.256 1.464 3.535 1.464s2.56-.488 3.535-1.464l7.61-7.61c.938-.938 1.465-2.209 1.465-3.536s-.526-2.598-1.465-3.536l-7.61-7.61c-1.951-1.952-5.119-1.952-7.07 0-1.669 1.669-1.899 4.219-.715 6.146h-193.374c-2.761 0-5 2.239-5 5v88.166c-1.927-1.184-4.477-.954-6.146.715-1.953 1.953-1.953 5.119 0 7.071z"/></g><g fill="#ff6c6c"><circle cx="372.766" cy="159.881" r="7.801"/><circle cx="399.433" cy="159.881" r="7.801"/><circle cx="426.099" cy="159.881" r="7.801"/></g><g fill="#fff"><circle cx="85.52" cy="339.623" r="7.801"/><circle cx="112.187" cy="339.623" r="7.801"/><circle cx="138.854" cy="339.623" r="7.801"/></g><path d="m82.092 273.577h-3.99v-3.99c0-2.573-2.086-4.659-4.659-4.659s-4.659 2.086-4.659 4.659v3.99h-3.99c-2.573 0-4.659 2.086-4.659 4.659s2.086 4.659 4.659 4.659h3.99v3.99c0 2.573 2.086 4.659 4.659 4.659s4.659-2.086 4.659-4.659v-3.99h3.99c2.573 0 4.659-2.086 4.659-4.659s-2.086-4.659-4.659-4.659z" fill="#fff"/><path d="m372.097 92.218h-3.99v-3.99c0-2.573-2.086-4.659-4.659-4.659s-4.659 2.086-4.659 4.659v3.99h-3.99c-2.573 0-4.659 2.086-4.659 4.659s2.086 4.659 4.659 4.659h3.99v3.99c0 2.573 2.086 4.659 4.659 4.659s4.659-2.086 4.659-4.659v-3.99h3.99c2.573 0 4.659-2.086 4.659-4.659s-2.086-4.659-4.659-4.659z" fill="#ff6c6c"/><g><g><path d="m117.146 406.707h-43.52c-2.762 0-5-2.239-5-5s2.238-5 5-5h43.52c2.762 0 5 2.239 5 5s-2.238 5-5 5z" fill="#ffb3b3"/></g></g><g><g><path d="m135.146 427.788h-61.52c-2.762 0-5-2.239-5-5s2.238-5 5-5h61.52c2.762 0 5 2.239 5 5s-2.238 5-5 5z" fill="#ffb3b3"/></g></g></g></g><g><path d="m94.361 62.625c-1.28 0-2.559-.488-3.536-1.464l-11.292-11.292c-.938-.938-1.464-2.209-1.464-3.536s.527-2.598 1.464-3.536l11.292-11.292c.938-.938 2.209-1.464 3.536-1.464 1.326 0 2.598.527 3.536 1.464l11.292 11.292c1.953 1.953 1.953 5.119 0 7.071l-11.292 11.293c-.977.976-2.256 1.464-3.536 1.464zm-4.221-16.292 4.221 4.221 4.221-4.221-4.221-4.221z" fill="#ff9d33"/></g><g><path d="m57.42 97.267c-7.175 0-13.012-5.837-13.012-13.012s5.837-13.012 13.012-13.012 13.012 5.837 13.012 13.012-5.837 13.012-13.012 13.012zm0-16.024c-1.661 0-3.012 1.351-3.012 3.012s1.351 3.012 3.012 3.012 3.012-1.351 3.012-3.012-1.351-3.012-3.012-3.012z" fill="#ff6c6c"/></g><g><path d="m228.027 490.472c-7.175 0-13.012-5.837-13.012-13.012s5.837-13.012 13.012-13.012 13.012 5.837 13.012 13.012-5.837 13.012-13.012 13.012zm0-16.024c-1.661 0-3.012 1.351-3.012 3.012s1.351 3.012 3.012 3.012 3.012-1.351 3.012-3.012-1.351-3.012-3.012-3.012z" fill="#6c6cff"/></g><g><path d="m466.747 350.59c-.258 0-.518-.007-.777-.023-7.163-.419-12.648-6.588-12.229-13.75.202-3.469 1.744-6.652 4.342-8.962 2.597-2.309 5.936-3.477 9.407-3.266 3.471.203 6.653 1.745 8.963 4.342s3.47 5.938 3.267 9.408-1.745 6.652-4.343 8.962c-2.402 2.136-5.441 3.289-8.63 3.289zm-.021-16.024c-.738 0-1.441.267-1.997.761-.601.534-.958 1.271-1.005 2.073-.097 1.659 1.173 3.087 2.83 3.184.811.043 1.577-.222 2.178-.756.602-.535.959-1.271 1.006-2.075.047-.803-.222-1.576-.756-2.177-.535-.601-1.272-.958-2.075-1.005-.061-.004-.122-.005-.181-.005z" fill="#6c6cff"/></g><g><path d="m450.706 389.968c-7.175 0-13.012-5.837-13.012-13.012s5.837-13.012 13.012-13.012 13.012 5.837 13.012 13.012-5.837 13.012-13.012 13.012zm0-16.024c-1.661 0-3.012 1.351-3.012 3.012s1.351 3.012 3.012 3.012 3.012-1.351 3.012-3.012-1.351-3.012-3.012-3.012z" fill="#ff6c6c"/></g></g></g></svg>