<svg id="Capa_1" enable-background="new 0 0 512 512" height="512" viewBox="0 0 512 512" width="512" xmlns="http://www.w3.org/2000/svg" xmlns:xlink="http://www.w3.org/1999/xlink"><linearGradient id="SVGID_1_" gradientUnits="userSpaceOnUse" x1="508.537" x2="-41.463" y1="5.8" y2="409.8"><stop offset=".0023" stop-color="#ffc599"/><stop offset=".992" stop-color="#ffe8dc" stop-opacity="0"/></linearGradient><path d="m512 191.303c0-77.209-114.615-139.799-256-139.799s-256 62.59-256 139.799c0 12.48 2.999 24.577 8.62 36.089 10.007 20.491 12.502 43.828 7.537 66.086-2.036 9.127-3.179 18.59-3.333 28.294-1.235 77.812 61.961 142.061 139.782 142.06 58.443 0 108.503-35.865 129.385-86.785 11.468-27.964 35.565-48.919 65.155-55.077 96.38-20.057 164.854-70.992 164.854-130.667z" fill="url(#SVGID_1_)"/><path d="m422.952 462.168h-331.904c-10.52 0-19.048-8.528-19.048-19.048v-349.904c0-10.52 8.528-19.048 19.048-19.048h331.905c10.52 0 19.048 8.528 19.048 19.048v349.904c-.001 10.52-8.529 19.048-19.049 19.048z" fill="#00c" opacity=".1"/><path d="m422.952 441.168h-331.904c-10.52 0-19.048-8.528-19.048-19.048v-349.904c0-10.52 8.528-19.048 19.048-19.048h331.905c10.52 0 19.048 8.528 19.048 19.048v349.904c-.001 10.52-8.529 19.048-19.049 19.048z" fill="#fff"/><path d="m442 109.358v-37.142c0-10.52-8.528-19.048-19.048-19.048h-331.904c-10.52 0-19.048 8.528-19.048 19.048v37.143h370z" fill="#b3b3ff"/><path d="m442 114.358c2.762 0 5-2.239 5-5v-37.142c0-13.26-10.788-24.048-24.048-24.048h-297.904c-2.762 0-5 2.239-5 5s2.238 5 5 5h297.904c7.746 0 14.048 6.302 14.048 14.048v32.143h-360v-32.143c0-7.746 6.302-14.048 14.048-14.048 2.762 0 5-2.239 5-5s-2.238-5-5-5c-13.26 0-24.048 10.788-24.048 24.048v349.904c0 13.26 10.788 24.048 24.048 24.048h331.904c13.26 0 24.048-10.788 24.048-24.048v-278.761c0-2.761-2.238-5-5-5s-5 2.239-5 5v278.761c0 7.746-6.302 14.048-14.048 14.048h-331.904c-7.746 0-14.048-6.302-14.048-14.048v-307.762z" fill="#00c"/><path d="m400.5 86.263h-16.52c-2.762 0-5-2.239-5-5s2.238-5 5-5h16.52c2.762 0 5 2.239 5 5s-2.238 5-5 5z" fill="#ff4d4d"/><path d="m362 86.263h-16.52c-2.762 0-5-2.239-5-5s2.238-5 5-5h16.52c2.762 0 5 2.239 5 5s-2.238 5-5 5z" fill="#ff9d33"/><path d="m306.5 86.263h-136.52c-2.762 0-5-2.239-5-5s2.238-5 5-5h136.52c2.762 0 5 2.239 5 5s-2.238 5-5 5z" fill="#ebebff"/><g fill="#d9d9ff"><path d="m257 415.984c-2.762 0-5-2.239-5-5v-30.226c0-2.761 2.238-5 5-5s5 2.239 5 5v30.226c0 2.762-2.238 5-5 5z"/><path d="m159.58 410.985h-42.5c-2.762 0-5-2.239-5-5s2.238-5 5-5h42.5c2.762 0 5 2.239 5 5s-2.238 5-5 5z"/><path d="m222.58 410.985h-42.5c-2.762 0-5-2.239-5-5s2.238-5 5-5h42.5c2.762 0 5 2.239 5 5s-2.238 5-5 5z"/><path d="m195.58 390.758h-78.5c-2.762 0-5-2.239-5-5s2.238-5 5-5h78.5c2.762 0 5 2.239 5 5s-2.238 5-5 5z"/><path d="m396.92 410.985h-108c-2.762 0-5-2.239-5-5s2.238-5 5-5h108c2.762 0 5 2.239 5 5s-2.238 5-5 5z"/><path d="m396.92 390.758h-108c-2.762 0-5-2.239-5-5s2.238-5 5-5h108c2.762 0 5 2.239 5 5s-2.238 5-5 5z"/></g><path d="m129.58 362.178h-12.5c-2.762 0-5-2.239-5-5s2.238-5 5-5h12.5c2.762 0 5 2.239 5 5s-2.238 5-5 5z" fill="#ff9d33"/><path d="m217.5 324.56c0 7.64 6.193 13.833 13.833 13.833h49.667c7.64 0 13.833-6.193 13.833-13.833 0-7.64-6.193-13.833-13.833-13.833h-49.667c-7.639 0-13.833 6.194-13.833 13.833z" fill="#6c6cff"/><path d="m370.38 281.728c-19.81 3.28-67.9 10.37-113.38 10.37s-93.57-7.09-113.38-10.37c-3.98-.66-5.57-5.53-2.76-8.42l27.85-28.64h176.58l27.85 28.64c2.81 2.89 1.22 7.76-2.76 8.42z" fill="#ffab66"/><path d="m189.477 176.232-20.764 68.436s42.286 9 88.286 9c48.27 0 88.286-9 88.286-9l-20.764-68.436c-2.558-8.43-10.329-14.193-19.139-14.193h-96.768c-8.807-.001-16.579 5.763-19.137 14.193z" fill="#ff9d33"/><path d="m320.34 168.768c-16.12 2.3-38.65 4.65-63.34 4.65-23.88 0-46.76-2.43-63.25-4.76 3.71-4.12 9.07-6.62 14.87-6.62h96.76c5.86 0 11.26 2.55 14.96 6.73z" fill="#ff8b00"/><path d="m368 268.018c-.16.05-.32.08-.48.11-18.34 3.14-65.83 10.44-110.52 10.44s-92.18-7.3-110.52-10.44c-.16-.03-.32-.06-.48-.11l8.47-8.7c21.18 3.43 63.03 9.25 102.53 9.25s81.35-5.82 102.53-9.25z" fill="#ff8b00"/><circle cx="317.225" cy="167.47" fill="#ff4d4d" r="21.35"/><path d="m312.527 177.168c-1.279 0-2.56-.488-3.535-1.464-1.953-1.953-1.953-5.119 0-7.071l10-10c1.951-1.952 5.119-1.952 7.07 0 1.953 1.953 1.953 5.119 0 7.071l-10 10c-.975.976-2.255 1.464-3.535 1.464z" fill="#fff"/><path d="m40.125 147.599c-1.279 0-2.56-.488-3.535-1.464-1.953-1.953-1.953-5.119 0-7.071l10-10c1.951-1.952 5.119-1.952 7.07 0 1.953 1.953 1.953 5.119 0 7.071l-10 10c-.975.976-2.256 1.464-3.535 1.464z" fill="#ff9d33"/><path d="m466.875 192.178c-1.279 0-2.56-.488-3.535-1.464-1.953-1.953-1.953-5.119 0-7.071l10-10c1.951-1.952 5.119-1.952 7.07 0 1.953 1.953 1.953 5.119 0 7.071l-10 10c-.975.976-2.256 1.464-3.535 1.464z" fill="#ff6c6c"/><path d="m50.125 348.394c-1.279 0-2.56-.488-3.535-1.464l-6.465-6.464-6.465 6.464c-1.951 1.952-5.119 1.952-7.07 0-1.953-1.953-1.953-5.119 0-7.071l10-10c1.951-1.952 5.119-1.952 7.07 0l10 10c1.953 1.953 1.953 5.119 0 7.071-.975.975-2.256 1.464-3.535 1.464z" fill="#ff6c6c"/><path d="m486.875 311.168c-1.279 0-2.56-.488-3.535-1.464l-6.465-6.464-6.465 6.464c-1.951 1.952-5.119 1.952-7.07 0-1.953-1.953-1.953-5.119 0-7.071l10-10c1.951-1.952 5.119-1.952 7.07 0l10 10c1.953 1.953 1.953 5.119 0 7.071-.975.976-2.256 1.464-3.535 1.464z" fill="#ff9d33"/><path d="m25.125 105.475c-1.279 0-2.56-.488-3.535-1.464-1.953-1.953-1.953-5.119 0-7.071l10-10c1.951-1.952 5.119-1.952 7.07 0 1.953 1.953 1.953 5.119 0 7.071l-10 10c-.975.975-2.256 1.464-3.535 1.464z" fill="#6c6cff"/></svg>