<svg id="Capa_1" enable-background="new 0 0 512 512" height="512" viewBox="0 0 512 512" width="512" xmlns="http://www.w3.org/2000/svg"><g><path d="m512 256.17c-.092 141.735-114.265 255.83-256 255.83-141.385 0-256-114.615-256-256 0-141.738 114.106-255.916 255.844-256 9.141-.005 18.17.468 27.063 1.397 14.48 1.513 26.709 11.5 30.902 25.442 24.383 81.078 87.882 145.219 168.568 170.496 15.794 4.948 27.076 18.797 28.568 35.281.704 7.757 1.06 15.614 1.055 23.554z" fill="#b03244"/><path d="m511.163 235.148c-9.691 110.324-102.322 196.852-215.163 196.852-119.293 0-216-96.707-216-216 0-112.841 86.528-205.472 196.852-215.163 124.755 10.057 224.254 109.556 234.311 234.311z" fill="#f44545"/><path d="m130 365c0 30.327-24.673 55-55 55s-55-24.673-55-55c0-16.537 7.559-32.084 20-42.406v-227.594c0-19.299 15.701-35 35-35s35 15.701 35 35v227.594c12.441 10.322 20 25.869 20 42.406z" fill="#b4e7fd"/><path d="m91.5 417.472c-22.291-7.025-38.5-27.891-38.5-52.472 0-16.537 7.559-32.084 20-42.406v-227.594c0-13.337 7.498-24.954 18.5-30.86 11.002 5.906 18.5 17.524 18.5 30.86v227.594c12.441 10.322 20 25.869 20 42.406 0 24.581-16.209 45.447-38.5 52.472z" fill="#d5f1fe"/><path d="m152.856 397.356c0-2.761 2.239-5 5-5h30c2.761 0 5 2.239 5 5 0 2.761-2.239 5-5 5h-30c-2.761 0-5-2.238-5-5zm-32 38v15c0 2.761 2.239 5 5 5 2.761 0 5-2.239 5-5v-15c0-2.761-2.239-5-5-5-2.761 0-5 2.239-5 5zm21.858-14.071 21.213 21.213c1.953 1.953 5.118 1.953 7.071 0 1.953-1.953 1.953-5.118 0-7.071l-21.213-21.213c-1.953-1.953-5.118-1.953-7.071 0-1.952 1.953-1.952 5.119 0 7.071zm155.378-313.536c1.953 1.953 5.118 1.953 7.071 0l21.213-21.213c1.953-1.953 1.953-5.118 0-7.071-1.953-1.953-5.118-1.953-7.071 0l-21.213 21.213c-1.953 1.952-1.953 5.118 0 7.071zm-42.427-4.243c1.953-1.953 1.953-5.118 0-7.071l-10.607-10.607c-1.953-1.953-5.118-1.953-7.071 0-1.953 1.953-1.953 5.118 0 7.071l10.607 10.607c1.953 1.953 5.119 1.953 7.071 0zm23.335-.506c2.761 0 5-2.239 5-5v-30c0-2.761-2.239-5-5-5-2.761 0-5 2.239-5 5v30c0 2.761 2.239 5 5 5z" fill="#ff956a"/><path d="m328.402 260.41v81.809c0 4.142-3.357 7.5-7.5 7.5s-7.5-3.358-7.5-7.5v-81.809c0-4.142 3.357-7.5 7.5-7.5s7.5 3.358 7.5 7.5zm162.598 73.935h-26.656v-25.531h24.138c4.143 0 7.5-3.358 7.5-7.5s-3.357-7.5-7.5-7.5h-24.138v-25.531h26.656c4.143 0 7.5-3.358 7.5-7.5s-3.357-7.5-7.5-7.5h-34.156c-4.143 0-7.5 3.358-7.5 7.5v81.062c0 4.142 3.357 7.5 7.5 7.5h34.156c4.143 0 7.5-3.358 7.5-7.5s-3.357-7.5-7.5-7.5zm-61.1-9.418c-3.174-2.662-7.902-2.25-10.566.923-.8.952-1.663 1.843-2.564 2.646-4.636 4.129-10.511 6.222-17.461 6.222-18.419 0-33.404-14.985-33.404-33.404s14.985-33.404 33.404-33.404c6.694 0 13.151 1.971 18.672 5.701 3.433 2.319 8.095 1.416 10.413-2.017 2.318-3.432 1.416-8.094-2.017-10.413-8.01-5.411-17.37-8.271-27.068-8.271-26.69 0-48.404 21.714-48.404 48.404s21.714 48.404 48.404 48.404c10.589 0 20.076-3.465 27.439-10.022 1.441-1.285 2.813-2.699 4.074-4.203 2.663-3.172 2.25-7.903-.922-10.566zm-168.668-14.78 23.866 27.117c2.736 3.109 2.435 7.849-.675 10.585-1.425 1.254-3.192 1.87-4.952 1.87-2.08 0-4.15-.86-5.633-2.545l-31.101-35.336v30.381c0 4.142-3.357 7.5-7.5 7.5s-7.5-3.358-7.5-7.5v-81.809c0-4.142 3.357-7.5 7.5-7.5h.013.013 21.74c16.522 0 29.964 12.902 29.964 28.761.002 14.482-11.207 26.498-25.735 28.476zm10.737-28.476c0-7.459-6.853-13.761-14.964-13.761h-14.217c.015 4.994.031 11.102.031 13.761 0 3.135.027 9.021.054 13.813 4.862-.025 10.878-.052 14.132-.052 8.111 0 14.964-6.302 14.964-13.761zm-60.406 1.825c0 16.865-13.924 30.586-31.039 30.586-3.49 0-10.107.032-15.278.06v28.076c0 4.142-3.357 7.5-7.5 7.5s-7.5-3.358-7.5-7.5v-81.808c0-.024.001-.048.001-.073 0-.034 0-.069.001-.103.001-.042.003-.084.004-.126.001-.018.001-.037.002-.055.003-.056.006-.112.01-.168 0-.004 0-.008.001-.011.271-3.83 3.416-6.866 7.293-6.961.063-.002.125-.002.188-.002h22.778c17.116-.001 31.039 13.72 31.039 30.585zm-15 0c0-8.449-7.345-15.586-16.039-15.586h-15.256c.016 5.53.034 12.583.034 15.586 0 3.548.031 10.334.06 15.646 5.161-.028 11.688-.059 15.162-.059 8.695 0 16.039-7.138 16.039-15.587z" fill="#72d1fb"/><path d="m402.548 136.782c0 4.142-3.357 7.5-7.5 7.5h-15.182v74.309c0 4.142-3.357 7.5-7.5 7.5s-7.5-3.358-7.5-7.5v-74.309h-14.998c-4.143 0-7.5-3.358-7.5-7.5s3.357-7.5 7.5-7.5h45.18c4.142 0 7.5 3.358 7.5 7.5zm-188.19-7.5c-4.143 0-7.5 3.358-7.5 7.5v32.001h-41.612v-32.001c0-4.142-3.357-7.5-7.5-7.5s-7.5 3.358-7.5 7.5v81.809c0 4.142 3.357 7.5 7.5 7.5s7.5-3.358 7.5-7.5v-34.808h41.612v34.808c0 4.142 3.357 7.5 7.5 7.5s7.5-3.358 7.5-7.5v-81.809c0-4.142-3.357-7.5-7.5-7.5zm121.33 48.404c0 26.69-21.714 48.404-48.404 48.404s-48.404-21.714-48.404-48.404 21.714-48.404 48.404-48.404 48.404 21.714 48.404 48.404zm-15 0c0-18.419-14.985-33.404-33.404-33.404s-33.404 14.985-33.404 33.404 14.985 33.404 33.404 33.404 33.404-14.984 33.404-33.404z" fill="#fff36c"/><path d="m110 365c0 19.33-15.67 35-35 35s-35-15.67-35-35 15.67-35 35-35 35 15.67 35 35z" fill="#c83c50"/><path d="m107.505 352c-5.161 12.893-17.769 22-32.505 22s-27.345-9.107-32.505-22c3.281-8.196 9.572-14.862 17.505-18.631v-88.369c0-8.284 6.716-15 15-15s15 6.716 15 15v88.369c7.934 3.769 14.225 10.435 17.505 18.631z" fill="#f44545"/><path d="m75 290c-8.284 0-15-6.716-15-15v-98c0-8.284 6.716-15 15-15 8.284 0 15 6.716 15 15v98c0 8.284-6.716 15-15 15z" fill="#ffa90b"/><path d="m90 95v90c0 8.284-6.716 15-15 15s-15-6.716-15-15v-90c0-8.284 6.716-15 15-15s15 6.716 15 15z" fill="#fff04a"/></g></svg>