<svg id="Capa_1" enable-background="new 0 0 512 512" height="512" viewBox="0 0 512 512" width="512" xmlns="http://www.w3.org/2000/svg" xmlns:xlink="http://www.w3.org/1999/xlink"><linearGradient id="SVGID_1_" gradientUnits="userSpaceOnUse" x1="52.862" x2="474.314" y1="256" y2="256"><stop offset="0" stop-color="#ffdbed"/><stop offset="1" stop-color="#dcfdee"/></linearGradient><g><g><g><path d="m104.734 38.232c-135.328 119.538 38.83 235.409 22.243 366.028-7.375 58.072 16.054 113.588 92.705 107.244 93.413-7.732 59.504-97.209 79.066-156.778 33.66-102.501 240.73-78.56 154.895-236.448-54.778-100.758-255.767-162.321-348.909-80.046z" fill="url(#SVGID_1_)"/></g><g><path d="m408.851 149.088c.39-2.164.605-4.39.605-6.666 0-20.612-16.709-37.321-37.321-37.321-5.332 0-10.399 1.126-14.987 3.141-27.791-15.171-59.668-23.797-93.56-23.797-37.965 0-73.396 10.831-103.392 29.554-.112-20.516-16.773-37.114-37.315-37.114-20.612 0-37.321 16.709-37.321 37.321 0 18.482 13.438 33.816 31.073 36.79-30.249 34.43-48.599 79.571-48.599 129.004 0 51.808 20.155 98.903 53.042 133.893-.803 3.045-1.234 6.24-1.234 9.537 0 20.612 16.709 37.321 37.321 37.321 7.166 0 13.858-2.024 19.542-5.525 26.176 13.004 55.673 20.329 86.884 20.329 108.001 0 195.554-87.553 195.554-195.554-.001-50.351-19.035-96.251-50.292-130.913z" fill="#2626bc" opacity=".1"/><circle cx="263.588" cy="256" fill="#dcfdee" r="195.554"/><g fill="#97ffd2"><circle cx="381.722" cy="342.833" r="37.321"/><path d="m409.458 137.92c0 20.61-16.71 37.32-37.32 37.32s-37.32-16.71-37.32-37.32 16.71-37.32 37.32-37.32c4.69 0 9.17.86 13.3 2.45 7.21 5.74 14 11.99 20.34 18.69v.01c2.36 4.89 3.68 10.38 3.68 16.17z"/><path d="m160.198 109.71c0 20.61-16.71 37.32-37.32 37.32-6.67 0-12.92-1.75-18.34-4.82 13.98-19.51 31.47-36.34 51.53-49.58 2.64 5.11 4.13 10.92 4.13 17.08z"/><circle cx="242.3" cy="273.106" r="37.321"/></g><g><path d="m217.878 421.23c-1.14 5.49.67 16.92.69 25.11-20.96-4.94-40.61-13.24-58.36-24.32-6.55-17.28-3.25-34.57-3.89-54.6-.91-28.26-18-29.64-38.86-42.38-17.39-10.63-33.36-21.37-46.24-33.73-2.09-11.45-3.18-23.25-3.18-35.31 0-39.03 11.43-75.38 31.14-105.9 3.43 4.41 8.44 5.79 16.88 6.17 5.21-5.27 10.71-6.54 16.51-3.81.82 1.89 1.64 3.78 2.46 5.67-.46 4.2.71 7.86 3.5 10.99 6.04.92 11.89.18 17.56-2.22 8.54-1.73 17.96-7.45 26.69-7.73 35.56-1.13 12.9 23.47 2.14 39.25-12.29 18.04-17.82 43.59-40.59 51.96-16.65 6.12-36.94-2.23-37.71 24-.61 20.69 23.38 42.65 41.47 48.87 22.14 7.6 50.63-3.67 72.15 9.35 16.17 9.78 11.76 41.76 7.77 60.63-2.04 9.64-8.08 18.09-10.13 28z" fill="#02ffb3"/></g><path d="m194.478 418.93c0 6.61-1.71 12.81-4.72 18.19-10.32-4.2-20.2-9.26-29.55-15.1-4.95-13.07-4.27-26.14-3.93-40.4.29-.01.58-.01.88-.01 20.62 0 37.32 16.71 37.32 37.32z" fill="#01eca5"/><g><path d="m243.938 107.29c-4.92 7.3-12.54 13.09-14.9 21.56-2.52 9.03 1.11 20.32-5.5 26.96-10.23-6.92-14.68-20.14-14.24-32.47.27-7.31 1.37-16.14-4.52-20.48-5.22-3.85-14.61-2.76-16.44-8.99-.78-2.66.41-5.64-.52-8.25-1.01-2.87-4.14-4.29-6.44-6.28-.2-.17-.39-.36-.57-.56 21.68-10.14 45.52-16.42 70.64-17.96.9 15.98 1.43 33.21-7.51 46.47z" fill="#02ffb3"/></g><g><path d="m459.138 256c0 79.09-46.95 147.21-114.49 178.01 2.51-7.47 7.38-14.59 11.05-21.73 6.45-12.55 9.48-26.59 11.13-40.6.88-7.48.59-16.65-5.9-20.47-3.38-1.99-7.53-1.88-11.45-1.94-6.93-.11-13.84-.95-20.59-2.51-7.24-1.68-14.69-4.44-19.34-10.25-6.94-8.68-5.57-21.12-3.85-32.1 1.77-11.28 3.54-22.55 5.31-33.83 1.45-9.27 4.11-20.13 12.86-23.55 5.99-2.34 12.67-.19 19.09.29 18.87 1.39 36.4-12.01 55.29-11.01 3.31.18 6.69.79 9.88-.08 2.29-.63 4.33-2 6.06-3.63 9.93-9.29 9.6-25.07 6.7-38.36-1.27-5.83-3.02-11.83-7.07-16.21-4.06-4.39-11.04-6.59-16.18-3.54-8.26 4.9-7.39 19.61-16.51 22.64-8.05 2.66-16.37-6.73-24.48-4.27-11.32 3.42-7.06 23.23-17.13 29.42-5.22 3.2-12.02 1.2-17.46-1.59-6.76-3.48-13.48-8.95-14.36-16.49-1.17-10.06 8.27-17.93 17.05-22.98s18.97-10.68 20.96-20.6c.67-3.3.3-6.74 1.01-10.03 2.04-9.57 12.12-14.99 21.44-17.97s19.68-5.27 25.9-12.83c1.5-1.82 2.68-3.87 3.84-5.93 37.71 35.66 61.24 86.15 61.24 142.14z" fill="#02ffb3"/></g><path d="m419.038 342.83c0 20.61-16.7 37.32-37.32 37.32-5.56 0-10.82-1.21-15.56-3.39.25-1.69.47-3.39.67-5.08.88-7.48.59-16.65-5.9-20.47-3.38-1.99-7.53-1.88-11.45-1.94-1.52-.02-3.04-.08-4.56-.19-.34-2.03-.52-4.12-.52-6.25 0-20.61 16.71-37.32 37.32-37.32 20.62 0 37.32 16.71 37.32 37.32z" fill="#01eca5"/><path d="m409.458 137.92c0 20.61-16.71 37.32-37.32 37.32-10.75 0-20.44-4.55-27.25-11.82.35-.89.62-1.83.82-2.8.67-3.3.3-6.74 1.01-10.03 2.04-9.57 12.12-14.99 21.44-17.97s19.68-5.27 25.9-12.83c1.5-1.82 2.68-3.86 3.83-5.92 2.7 2.54 5.33 5.17 7.89 7.87v.01c2.36 4.89 3.68 10.38 3.68 16.17z" fill="#01eca5"/><g><circle cx="242.3" cy="253.606" fill="#ff7eb8" r="37.321"/><path d="m234.716 269.44c-1.28 0-2.559-.488-3.536-1.464l-3.333-3.333c-1.953-1.953-1.953-5.119 0-7.071l18.333-18.333c1.953-1.952 5.118-1.952 7.071 0l3.5 3.5c1.953 1.953 1.953 5.119 0 7.071-1.941 1.94-5.08 1.954-7.036.035l-11.268 11.269c1.754 1.963 1.688 4.979-.196 6.863-.976.974-2.255 1.463-3.535 1.463z" fill="#fff"/></g><g><circle cx="372.135" cy="118.422" fill="#ff7eb8" r="37.321"/><path d="m364.552 134.256c-1.28 0-2.559-.488-3.536-1.464l-3.333-3.333c-1.953-1.953-1.953-5.119 0-7.071l18.333-18.333c1.953-1.952 5.118-1.952 7.071 0l3.5 3.5c1.953 1.953 1.953 5.119 0 7.071-1.941 1.94-5.08 1.954-7.036.035l-11.268 11.269c1.754 1.963 1.688 4.979-.196 6.863-.976.974-2.255 1.463-3.535 1.463z" fill="#fff"/></g><g><circle cx="381.722" cy="323.333" fill="#ff7eb8" r="37.321"/><path d="m374.139 339.167c-1.28 0-2.559-.488-3.536-1.464l-3.333-3.333c-1.953-1.953-1.953-5.119 0-7.071l18.333-18.333c1.953-1.952 5.118-1.952 7.071 0l3.5 3.5c1.953 1.953 1.953 5.119 0 7.071-1.941 1.94-5.08 1.954-7.036.035l-11.268 11.269c1.754 1.963 1.688 4.979-.196 6.863-.976.974-2.256 1.463-3.535 1.463z" fill="#fff"/></g><g><circle cx="122.88" cy="90.206" fill="#ff7eb8" r="37.321"/><path d="m115.297 106.039c-1.28 0-2.559-.488-3.536-1.464l-3.333-3.333c-1.953-1.953-1.953-5.119 0-7.071l18.333-18.333c1.953-1.952 5.118-1.952 7.071 0l3.5 3.5c1.953 1.953 1.953 5.119 0 7.071-1.941 1.94-5.08 1.954-7.036.035l-11.268 11.269c1.754 1.963 1.688 4.979-.196 6.863-.976.975-2.255 1.463-3.535 1.463z" fill="#fff"/></g><g><circle cx="157.162" cy="399.429" fill="#ff7eb8" r="37.321"/><path d="m149.578 415.263c-1.28 0-2.559-.488-3.536-1.464l-3.333-3.333c-1.953-1.953-1.953-5.119 0-7.071l18.333-18.333c1.953-1.952 5.118-1.952 7.071 0l3.5 3.5c1.953 1.953 1.953 5.119 0 7.071-1.941 1.94-5.08 1.954-7.036.035l-11.268 11.269c1.754 1.963 1.688 4.979-.196 6.863-.976.975-2.255 1.463-3.535 1.463z" fill="#fff"/></g><path d="m427.907 462.34c-1.279 0-2.56-.488-3.535-1.464l-11-11c-1.953-1.953-1.953-5.119 0-7.071l11-11c1.951-1.952 5.119-1.952 7.07 0l11 11c1.953 1.953 1.953 5.119 0 7.071l-11 11c-.975.976-2.255 1.464-3.535 1.464zm-3.928-16 3.929 3.929 3.929-3.929-3.929-3.929z" fill="#6583fe"/><path d="m67.978 419.815c-1.279 0-2.56-.488-3.535-1.464l-11-11c-1.953-1.953-1.953-5.119 0-7.071l11-11c1.951-1.952 5.119-1.952 7.07 0l11 11c1.953 1.953 1.953 5.119 0 7.071l-11 11c-.976.976-2.256 1.464-3.535 1.464zm-3.929-16 3.929 3.929 3.929-3.929-3.929-3.929z" fill="#6583fe"/><path d="m459.138 405.005c-2.762 0-5-2.239-5-5 0-3.309-2.691-6-6-6-2.762 0-5-2.239-5-5s2.238-5 5-5c3.309 0 6-2.691 6-6 0-2.761 2.238-5 5-5s5 2.239 5 5c0 3.309 2.691 6 6 6 2.762 0 5 2.239 5 5s-2.238 5-5 5c-3.309 0-6 2.691-6 6 0 2.762-2.239 5-5 5z" fill="#ff7eb8"/><path d="m52.862 150.255c-2.762 0-5-2.239-5-5 0-3.309-2.691-6-6-6-2.762 0-5-2.239-5-5s2.238-5 5-5c3.309 0 6-2.691 6-6 0-2.761 2.238-5 5-5s5 2.239 5 5c0 3.309 2.691 6 6 6 2.762 0 5 2.239 5 5s-2.238 5-5 5c-3.309 0-6 2.691-6 6 0 2.762-2.238 5-5 5z" fill="#ff7eb8"/><path d="m414.588 78.979c-2.762 0-5-2.239-5-5 0-3.309-2.691-6-6-6-2.762 0-5-2.239-5-5s2.238-5 5-5c3.309 0 6-2.691 6-6 0-2.761 2.238-5 5-5s5 2.239 5 5c0 3.309 2.691 6 6 6 2.762 0 5 2.239 5 5s-2.238 5-5 5c-3.309 0-6 2.691-6 6 0 2.762-2.238 5-5 5z" fill="#01eca5"/></g></g><path d="m62.978 256c0 .218.037.425.064.635.157 50.053 18.809 97.843 52.579 134.733-.506 2.611-.779 5.304-.779 8.061 0 4.645.76 9.232 2.258 13.635.89 2.613 3.729 4.012 6.344 3.123 2.614-.889 4.013-3.73 3.123-6.344-1.145-3.364-1.725-6.868-1.725-10.414 0-17.822 14.499-32.321 32.321-32.321 17.821 0 32.32 14.499 32.32 32.321 0 17.821-14.499 32.32-32.32 32.32-3.329 0-6.617-.507-9.771-1.507-2.637-.835-5.443.625-6.277 3.256-.834 2.632.624 5.442 3.256 6.277 4.134 1.31 8.438 1.974 12.793 1.974 7.106 0 13.803-1.768 19.689-4.876 27.178 13.057 56.359 19.68 86.737 19.68 110.371 0 200.197-89.62 200.546-199.911.028-.213.065-.423.065-.643s-.037-.429-.065-.641c-.159-50.42-19.036-96.497-50.015-131.685.214-1.722.338-3.472.338-5.252 0-23.336-18.984-42.321-42.32-42.321-5.203 0-10.187.949-14.795 2.674-27.249-14.475-58.202-22.848-91.046-23.286-.9-.029-1.803-.044-2.707-.044-25.729 0-50.784 4.805-74.469 14.282-2.563 1.026-3.811 3.936-2.785 6.5 1.025 2.563 3.935 3.809 6.5 2.785 6.328-2.532 12.762-4.7 19.282-6.527-14.368 10.048-27.539 24.379-38.881 42.593-.625 1.003-1.238 2.019-1.847 3.039-4.441-1.514-8.786-3.143-13.032-4.877 4.323-6.634 6.846-14.543 6.846-23.035 0-23.336-18.985-42.321-42.321-42.321s-42.324 18.987-42.324 42.323c0 18.017 11.322 33.432 27.222 39.526-28.768 35.472-44.596 79.78-44.74 125.635-.027.21-.064.416-.064.633zm56.355 124.49c-28.81-33.346-45.084-75.375-46.229-119.49h63.761c.528 34.016 6.421 67.057 17.181 96.236-15.201 1.112-28.192 10.283-34.713 23.254zm245.058-220.47c9.93 27.609 15.406 58.922 15.922 90.98h-95.781c-.754-12.345-6.823-23.27-15.944-30.523v-77.713c22.224-.34 43.918-2.953 64.609-7.772 5.481 12.832 17.128 22.415 31.194 25.028zm-14.99 163.313c0-17.822 14.499-32.321 32.32-32.321s32.32 14.499 32.32 32.321c0 17.821-14.499 32.32-32.32 32.32s-32.32-14.498-32.32-32.32zm29.937-42.249c-22.231 1.241-39.937 19.714-39.937 42.25 0 15.895 8.813 29.765 21.804 36.998-3.072 7.618-6.43 14.808-10.05 21.529-25.597-7.815-53.745-12.17-82.568-12.622v-82.502c7.922-6.299 13.537-15.37 15.372-25.735h96.35c-.107 6.729-.433 13.451-.971 20.082zm-181.895 105.38c19.587-4.471 40.113-6.894 61.145-7.226v67.138c-21.98-1.523-43.044-13.078-61.254-33.658 1.387-4.182 2.149-8.646 2.149-13.287-.001-4.523-.721-8.879-2.04-12.967zm77.177-132.858c0 17.821-14.499 32.32-32.32 32.32-17.822 0-32.321-14.499-32.321-32.32 0-17.822 14.499-32.321 32.321-32.321 17.821.001 32.32 14.5 32.32 32.321zm-6.032 125.634c27.027.436 53.403 4.401 77.464 11.515-20.535 33.573-47.992 53.566-77.464 55.606zm61.808-253.862c-19.789 4.568-40.541 7.048-61.808 7.384v-67.141c23.268 1.599 45.361 14.358 64.239 37.151-1.936 4.845-3.012 10.123-3.012 15.651-.001 2.369.205 4.691.581 6.955zm-71.808 89.172c-5.016-2.1-10.518-3.264-16.288-3.264-22.46 0-40.881 17.589-42.233 39.714h-53.216c.734-46.258 11.625-88.458 29.154-120.891 25.603 7.823 53.75 12.181 82.583 12.634zm-93.604 143.295c-11.336-29.058-17.568-62.403-18.118-96.845h53.773c3.509 19.821 20.848 34.927 41.661 34.927 5.77 0 11.272-1.164 16.288-3.264v76.573c-22.523.344-44.497 3.023-65.433 7.966-6.154-9.928-16.295-17.127-28.171-19.357zm21.209 72.335c2.448-2.313 4.621-4.912 6.464-7.747 6.243 6.664 12.796 12.388 19.599 17.139-8.867-2.479-17.565-5.605-26.063-9.392zm169.64-36.31c9.307 3.172 18.218 6.826 26.615 10.953-19.646 15.722-42.453 27.647-67.309 34.641 15.278-10.675 29.107-26.109 40.694-45.594zm34.898 3.934c-9.385-4.852-19.41-9.131-29.934-12.8 3.468-6.57 6.697-13.537 9.661-20.883 3.589.992 7.363 1.534 11.263 1.534 23.336 0 42.32-18.985 42.32-42.32 0-20.741-15.002-38.033-34.722-41.624.55-6.839.883-13.771.99-20.709h63.766c-1.404 54.251-25.602 102.927-63.344 136.802zm63.341-146.804h-63.759c-.495-31.673-5.675-62.694-15.105-90.381 16.004-1.155 29.566-11.24 35.714-25.292 26.002 31.682 42.015 71.853 43.15 115.673zm-49.616-132.578c0 17.821-14.499 32.32-32.32 32.32-17.822 0-32.321-14.499-32.321-32.32 0-17.822 14.499-32.321 32.321-32.321 17.821.001 32.32 14.5 32.32 32.321zm-57.709-33.836c-3.328 2.503-6.271 5.487-8.736 8.844-7.221-8.287-14.882-15.27-22.893-20.895 10.974 3.088 21.547 7.139 31.629 12.051zm-88.159-18.954v67.112c-27.036-.438-53.398-4.42-77.458-11.546 20.037-32.637 47.285-53.481 77.458-55.566zm-168.028 24.574c0-17.822 14.499-32.321 32.32-32.321 17.822 0 32.321 14.499 32.321 32.321 0 17.821-14.499 32.32-32.321 32.32-17.821 0-32.32-14.499-32.32-32.32zm32.32 42.32c11.069 0 21.154-4.276 28.703-11.257 4.813 2.042 9.75 3.954 14.81 5.719-18.473 34.785-28.842 78.119-29.544 124.012h-63.743c1.142-43.61 17.198-85.504 45.536-118.686 1.394.139 2.807.212 4.238.212z" fill="#2626bc"/></g></svg>