<svg id="Capa_1" enable-background="new 0 0 512 512" height="512" viewBox="0 0 512 512" width="512" xmlns="http://www.w3.org/2000/svg" xmlns:xlink="http://www.w3.org/1999/xlink"><linearGradient id="SVGID_1_" gradientUnits="userSpaceOnUse" x1="53.821" x2="457.87" y1="256" y2="256"><stop offset=".0485" stop-color="#d2deff"/><stop offset=".9993" stop-color="#dcfdee"/></linearGradient><g><g><g><path d="m169.936.39c-68.06 4.435-134.218 61.127-111.591 135.073 18.265 59.691 84.702 87.73 134.671 115.676 47.928 26.805 98.6 60.229 112.037 117.192 9.247 39.199-2.084 84.916 22.012 117.187 42.331 56.693 124.077 13.634 130.314-47.258 5.176-50.542-31.51-94.701-65.828-132.165-33.267-36.317-70.462-71.374-99.992-110.843-27.345-36.55-41.639-81.985-5.379-118.188 8.145-8.132 17.848-16.505 14.872-29.734-9.77-43.394-97.817-49.109-131.116-46.94z" fill="url(#SVGID_1_)"/></g><g><path d="m408.398 138.5h-36.323v-32.99c0-14.464-11.726-26.19-26.19-26.19h-175.52c-14.46 0-26.19 11.72-26.19 26.19v32.99h-40.883c-5.523 0-10 4.477-10 10v69.333c0 5.523 4.477 10 10 10h40.883v86.237c-12.251 10.082-20.065 25.361-20.065 42.465v124.465c0 5.523 4.477 10 10 10h188.302c5.523 0 10-4.477 10-10v-10.951h30.724c9.643 0 17.459-7.817 17.459-17.459v-7.857c0-6.371-3.424-11.929-8.521-14.978v-201.922h36.323c5.523 0 10-4.477 10-10v-69.333c.001-5.523-4.476-10-9.999-10z" fill="#2626bc" opacity=".1"/><g><path d="m232.312 416.95h100.101v50.05h-100.101z" fill="#ff7eb8"/><g><g><path d="m372.075 81.51v329.91c0 14.47-11.72 26.19-26.19 26.19h-175.52c-14.46 0-26.19-11.72-26.19-26.19v-329.91c0-14.47 11.73-26.19 26.19-26.19h175.52c14.47 0 26.19 11.72 26.19 26.19z" fill="#fff"/><path d="m182.625 142.28v69.33c0 5.53-4.48 10-10 10h-28.45v-89.33h28.45c5.52 0 10 4.48 10 10z" fill="#d2deff"/><path d="m372.075 132.28v89.33h-33.01c-5.52 0-10-4.47-10-10v-69.33c0-5.52 4.48-10 10-10z" fill="#d2deff"/><g><g><path d="m218.39 220.872h37.455c24.259 0 43.925-19.666 43.925-43.925 0-24.259-19.666-43.925-43.925-43.925-24.259 0-43.925 19.666-43.925 43.925v37.455c0 3.573 2.897 6.47 6.47 6.47z" fill="#dcfdee"/></g></g><path d="m144.179 244.323v167.099c0 14.465 11.724 26.189 26.189 26.189h175.52c14.465 0 26.189-11.724 26.189-26.189v-167.099z" fill="#97ffd2"/><path d="m306.159 75.345 6.248-20.025h-109.558l6.248 20.025c1.138 3.646 4.514 6.13 8.334 6.13h80.395c3.819 0 7.196-2.483 8.333-6.13z" fill="#6583fe"/></g></g><g fill="#ffa8cf"><path d="m124.111 467v-134.465c0-30.359 24.611-54.97 54.97-54.97h57.596c14.946 0 27.062 12.116 27.062 27.062 0 14.946-12.116 27.062-27.062 27.062h-46.559s77.112 6.111 77.112 135.311"/><g><path d="m370.121 311.972h-46.019c-12.606 0-22.825-10.219-22.825-22.825 0-12.606 10.219-22.825 22.825-22.825h46.019c9.643 0 17.459 7.817 17.459 17.459v10.732c0 9.642-7.817 17.459-17.459 17.459z"/><path d="m370.121 357.623h-56.494c-12.606 0-22.825-10.219-22.825-22.825 0-12.606 10.219-22.825 22.825-22.825h56.494c9.643 0 17.459 7.817 17.459 17.459v10.732c0 9.642-7.817 17.459-17.459 17.459z"/><path d="m370.121 403.273h-46.019c-12.606 0-22.825-10.219-22.825-22.825 0-12.606 10.219-22.825 22.825-22.825h46.019c9.643 0 17.459 7.817 17.459 17.459v10.732c0 9.642-7.817 17.459-17.459 17.459z"/><path d="m363.137 446.049h-41.361c-11.812 0-21.388-9.576-21.388-21.388 0-11.812 9.576-21.388 21.388-21.388h41.361c9.643 0 17.459 7.817 17.459 17.459v7.857c0 9.643-7.817 17.46-17.459 17.46z"/></g></g></g><g><path d="m188.471 82.723h-16c-2.761 0-5-2.239-5-5v-4.98c0-2.761 2.239-5 5-5h16c2.761 0 5 2.239 5 5v4.98c0 2.761-2.239 5-5 5z" fill="#b7c5ff"/><g><g><path d="m328.804 81.982c-2.761 0-5-2.239-5-5v-3.5c0-2.761 2.239-5 5-5s5 2.239 5 5v3.5c0 2.762-2.238 5-5 5z" fill="#b7c5ff"/></g><g><path d="m344.054 81.982c-2.761 0-5-2.239-5-5v-3.5c0-2.761 2.239-5 5-5s5 2.239 5 5v3.5c0 2.762-2.238 5-5 5z" fill="#b7c5ff"/></g></g></g><g><path d="m172.626 203.833h-69.333c-5.523 0-10-4.477-10-10v-69.333c0-5.523 4.477-10 10-10h69.333c5.523 0 10 4.477 10 10v69.333c0 5.523-4.478 10-10 10z" fill="#8399fe"/><g><path d="m121.012 203.834v-46.205c0-11.834 9.628-21.462 21.462-21.462h14.038c4.142 0 7.5 3.358 7.5 7.5s-3.358 7.5-7.5 7.5h-14.038c-3.563 0-6.462 2.899-6.462 6.462v46.205z" fill="#fff"/></g><path d="m145.971 161.5h-16.792v15h16.792c4.142 0 7.5-3.358 7.5-7.5s-3.358-7.5-7.5-7.5z" fill="#fff"/></g><g><path d="m408.398 203.833h-69.333c-5.523 0-10-4.477-10-10v-69.333c0-5.523 4.477-10 10-10h69.333c5.523 0 10 4.477 10 10v69.333c0 5.523-4.477 10-10 10z" fill="#ff7eb8"/><circle cx="398.039" cy="133.022" fill="#fff" r="6.552"/><path d="m329.065 167v26.833c0 5.523 4.477 10 10 10h69.333c5.523 0 10-4.477 10-10v-26.833z" fill="#6583fe"/><circle cx="373.732" cy="159.167" fill="#fff" r="22.114"/><circle cx="373.732" cy="159.167" fill="#02ffb3" r="9.167"/></g><g><g><g><path d="m218.39 203.092h37.455c24.259 0 43.925-19.666 43.925-43.925 0-24.259-19.666-43.925-43.925-43.925-24.259 0-43.925 19.666-43.925 43.925v37.455c0 3.573 2.897 6.47 6.47 6.47z" fill="#02ffb3"/></g></g><path d="m244.755 180.774c-1.631 0-3.262-.622-4.507-1.867l-4.249-4.249c-2.489-2.489-2.489-6.525 0-9.014l26.219-26.219c2.49-2.488 6.524-2.488 9.014 0l4.462 4.462c2.489 2.489 2.489 6.525 0 9.014-2.474 2.474-6.476 2.49-8.969.045l-17.212 17.213c2.236 2.503 2.152 6.346-.25 8.749-1.246 1.244-2.877 1.866-4.508 1.866z" fill="#fff"/></g><g><g><g><path d="m316.181 244.323c0 1.279-.488 2.56-1.464 3.535l-5.833 5.834c-1.953 1.953-5.118 1.953-7.071.001-1.953-1.953-1.953-5.118 0-7.071l2.298-2.299-2.298-2.299c-1.952-1.951-1.953-5.118 0-7.071 1.953-1.952 5.118-1.952 7.071.001l5.833 5.834c.976.976 1.464 2.256 1.464 3.535z" fill="#8399fe"/></g></g><g><g><path d="m195.51 244.323c0 1.279.488 2.56 1.464 3.535l5.833 5.834c1.953 1.953 5.118 1.953 7.071.001 1.953-1.953 1.953-5.118 0-7.071l-2.298-2.299 2.298-2.299c1.952-1.951 1.953-5.118 0-7.071-1.953-1.952-5.118-1.952-7.071.001l-5.833 5.834c-.976.976-1.464 2.256-1.464 3.535z" fill="#8399fe"/></g></g></g><path d="m93.292 275c-2.761 0-5-2.239-5-5 0-3.309-2.691-6-6-6-2.761 0-5-2.239-5-5s2.239-5 5-5c3.309 0 6-2.691 6-6 0-2.761 2.239-5 5-5s5 2.239 5 5c0 3.309 2.691 6 6 6 2.761 0 5 2.239 5 5s-2.239 5-5 5c-3.309 0-6 2.691-6 6 0 2.761-2.239 5-5 5z" fill="#01eca5"/><path d="m404.59 70.665c-2.761 0-5-2.239-5-5 0-3.309-2.691-6-6-6-2.761 0-5-2.239-5-5s2.239-5 5-5c3.309 0 6-2.691 6-6 0-2.761 2.239-5 5-5s5 2.239 5 5c0 3.309 2.691 6 6 6 2.761 0 5 2.239 5 5s-2.239 5-5 5c-3.309 0-6 2.691-6 6 0 2.761-2.238 5-5 5z" fill="#ff7eb8"/><path d="m442.179 98.723c-1.28 0-2.559-.488-3.536-1.464l-11-11c-1.953-1.953-1.953-5.119 0-7.071l11-11c1.953-1.952 5.118-1.952 7.071 0l11 11c1.953 1.953 1.953 5.119 0 7.071l-11 11c-.976.975-2.255 1.464-3.535 1.464zm-3.929-16 3.929 3.929 3.929-3.929-3.929-3.929z" fill="#01eca5"/><g fill="#6583fe"><path d="m426.59 430.273c-1.28 0-2.559-.488-3.536-1.464l-11-11c-1.953-1.953-1.953-5.119 0-7.071l11-11c1.953-1.952 5.118-1.952 7.071 0l11 11c1.953 1.953 1.953 5.119 0 7.071l-11 11c-.975.976-2.255 1.464-3.535 1.464zm-3.928-16 3.929 3.929 3.929-3.929-3.929-3.929z"/><path d="m86.512 332.333c-1.28 0-2.559-.488-3.536-1.464l-11-11c-1.953-1.953-1.953-5.119 0-7.071l11-11c1.953-1.952 5.118-1.952 7.071 0l11 11c1.953 1.953 1.953 5.119 0 7.071l-11 11c-.976.976-2.255 1.464-3.535 1.464zm-3.929-16 3.929 3.929 3.929-3.929-3.929-3.929z"/></g></g></g><g fill="#2626bc"><g><path d="m345.888 50.32h-175.52c-17.198 0-31.189 13.991-31.189 31.189v27.991h-35.887c-8.271 0-15 6.729-15 15v69.333c0 8.271 6.729 15 15 15h69.333c8.271 0 15-6.729 15-15v-69.333c0-8.271-6.729-15-15-15h-23.446v-27.991c0-11.684 9.505-21.189 21.189-21.189h175.52c11.684 0 21.189 9.505 21.189 21.189v27.991h-28.012c-8.271 0-15 6.729-15 15v69.333c0 8.271 6.729 15 15 15h28.012v52.488h-42.975c-15.343 0-27.825 12.482-27.825 27.825 0 7.569 3.041 14.437 7.961 19.459-10.737 3.86-18.437 14.142-18.437 26.192s7.7 22.331 18.437 26.192c-4.92 5.021-7.961 11.89-7.961 19.459 0 9.036 4.333 17.078 11.027 22.164-7.171 4.722-11.916 12.84-11.916 22.05 0 2.77.432 5.441 1.227 7.952h-26.465c-3.912-30.75-14.226-63.515-38.096-85.404-4.761-4.366-9.526-7.808-14.041-10.52h18.664c17.679 0 32.062-14.383 32.062-32.062s-14.383-32.063-32.062-32.063c-2.761 0-5 2.239-5 5s2.239 5 5 5c12.165 0 22.062 9.897 22.062 22.063 0 12.165-9.897 22.062-22.062 22.062h-46.559-20.66c-2.761 0-5 2.239-5 5s2.239 5 5 5h20.404c1.755.2 18.974 2.538 35.935 18.354 23.835 22.228 36.434 60.941 36.434 111.956 0 2.761 2.239 5 5 5s5-2.239 5-5c0-7.663-.294-15.891-1.026-24.387h31.254c4.822 5.184 11.695 8.436 19.316 8.436h5.637v15.951c0 2.761 2.239 5 5 5s5-2.239 5-5v-15.951h25.724c12.384 0 22.459-10.075 22.459-22.459v-7.857c0-5.653-2.104-10.82-5.563-14.772 7.426-3.668 12.547-11.319 12.547-20.147v-10.731c0-7.044-3.263-13.339-8.353-17.459 5.09-4.121 8.353-10.415 8.353-17.459v-10.731c0-7.044-3.263-13.339-8.353-17.459 5.09-4.121 8.353-10.415 8.353-17.459v-10.731c0-9.956-6.514-18.415-15.503-21.351v-53.596h31.321c8.271 0 15-6.729 15-15v-69.338c0-8.271-6.729-15-15-15h-31.321v-27.991c.001-17.198-13.99-31.189-31.188-31.189zm-168.262 74.18v69.333c0 2.757-2.243 5-5 5h-69.333c-2.757 0-5-2.243-5-5v-69.333c0-2.757 2.243-5 5-5h69.333c2.756 0 5 2.243 5 5zm197.97 304.089c0 6.87-5.589 12.459-12.459 12.459h-41.361c-9.037 0-16.388-7.352-16.388-16.388s7.352-16.388 16.388-16.388h2.327 39.035c6.87 0 12.459 5.589 12.459 12.459v7.858zm6.984-53.507v10.731c0 6.87-5.589 12.459-12.459 12.459h-6.984-39.035c-9.829 0-17.825-7.997-17.825-17.825s7.997-17.825 17.825-17.825h46.019c6.87.001 12.459 5.59 12.459 12.46zm0-45.65v10.731c0 6.87-5.589 12.459-12.459 12.459h-46.019-10.476c-9.829 0-17.825-7.997-17.825-17.825s7.996-17.825 17.825-17.825h10.476 46.019c6.87 0 12.459 5.59 12.459 12.46zm0-45.651v10.731c0 6.87-5.589 12.459-12.459 12.459h-46.019c-9.829 0-17.825-7.997-17.825-17.825s7.997-17.825 17.825-17.825h46.019c6.87.001 12.459 5.59 12.459 12.46zm30.819-159.281v69.333c0 2.757-2.243 5-5 5h-69.333c-2.757 0-5-2.243-5-5v-69.333c0-2.757 2.243-5 5-5h69.333c2.756 0 5 2.243 5 5z"/><path d="m119.111 332.535v134.465c0 2.761 2.239 5 5 5s5-2.239 5-5v-134.465c0-27.554 22.417-49.97 49.97-49.97h23.936c2.761 0 5-2.239 5-5s-2.239-5-5-5h-23.936c-10.885 0-21.092 2.93-29.901 8.02v-42.485c0-2.761-2.239-5-5-5s-5 2.239-5 5v49.233c0 .152.031.295.045.444-12.331 10.992-20.114 26.98-20.114 44.758z"/></g><path d="m218.39 208.092h37.455c26.978 0 48.925-21.948 48.925-48.925s-21.948-48.925-48.925-48.925-48.925 21.948-48.925 48.925v37.455c0 6.324 5.146 11.47 11.47 11.47zm-1.47-48.925c0-21.463 17.462-38.925 38.925-38.925s38.925 17.462 38.925 38.925-17.462 38.925-38.925 38.925h-37.455c-.811 0-1.47-.66-1.47-1.47z"/></g></g></svg>