<svg id="Capa_1" enable-background="new 0 0 510.5 510.5" height="512" viewBox="0 0 510.5 510.5" width="512" xmlns="http://www.w3.org/2000/svg"><path id="XMLID_447_" d="m413.008 0h-315.516c-24.813 0-45 20.187-45 45v420.5c0 24.813 20.187 45 45 45h315.517c24.813 0 45-20.187 45-45v-420.5c-.001-24.813-20.188-45-45.001-45z" fill="#5085d4"/><path id="XMLID_628_" d="m413.008 0h-157.977v510.5h157.977c24.813 0 45-20.187 45-45v-420.5c0-24.813-20.187-45-45-45z" fill="#0078c8"/><path id="XMLID_445_" d="m118.725 64.605h273.051v364.129h-273.051z" fill="#ebf6fc"/><path id="XMLID_614_" d="m255.031 64.605h136.744v364.129h-136.744z" fill="#cdebfc"/><path id="XMLID_558_" d="m207.944 0h94.612v134.983h-94.612z" fill="#0078c8"/><path id="XMLID_616_" d="m255.031 0h47.525v134.983h-47.525z" fill="#0053bf"/><g fill="#4ab8f7"><path id="XMLID_477_" d="m255.031 161.43h67.852v30h-67.852z"/><path id="XMLID_476_" d="m255.031 221.575h67.852v30h-67.852z"/><path id="XMLID_475_" d="m255.031 281.72h67.852v30h-67.852z"/></g><path id="XMLID_465_" d="m210.615 191.935c-8.284 0-15-6.716-15-15v-1.009c0-8.284 6.716-15 15-15s15 6.716 15 15v1.009c0 8.284-6.716 15-15 15z" fill="#80dbff"/><path id="XMLID_464_" d="m210.615 252.08c-8.284 0-15-6.716-15-15v-1.009c0-8.284 6.716-15 15-15s15 6.716 15 15v1.009c0 8.284-6.716 15-15 15z" fill="#80dbff"/><path id="XMLID_460_" d="m210.615 312.225c-8.284 0-15-6.716-15-15v-1.01c0-8.284 6.716-15 15-15s15 6.716 15 15v1.01c0 8.284-6.716 15-15 15z" fill="#80dbff"/><path id="XMLID_478_" d="m256.065 358.042h135.71v70.693h-135.71z" fill="#a7ddfa"/></svg>