<?xml version="1.0" encoding="iso-8859-1"?>
<!-- Generator: Adobe Illustrator 19.0.0, SVG Export Plug-In . SVG Version: 6.00 Build 0)  -->
<svg version="1.1" id="Capa_1" xmlns="http://www.w3.org/2000/svg" xmlns:xlink="http://www.w3.org/1999/xlink" x="0px" y="0px"
	 viewBox="0 0 512.042 512.042" style="enable-background:new 0 0 512.042 512.042;" xml:space="preserve">
<path style="fill:#2196F3;" d="M472.426,64.468l-213.333-64c-1.993-0.624-4.13-0.624-6.123,0l-213.333,64
	c-4.518,1.349-7.615,5.504-7.616,10.219v234.667c0,94.315,143.829,178.219,220.843,202.197c2.083,0.655,4.317,0.655,6.4,0
	c76.928-23.979,220.757-107.883,220.757-202.197V74.687C480.023,69.978,476.936,65.825,472.426,64.468z"/>
<path style="fill:#1976D2;" d="M408.426,112.084l-149.333-44.8c-1.993-0.624-4.13-0.624-6.123,0l-149.333,44.8
	c-4.51,1.356-7.596,5.509-7.595,10.219v187.051c0,41.835,82.411,105.323,156.117,134.144c2.497,0.976,5.269,0.976,7.765,0
	c73.685-28.821,156.096-92.309,156.096-134.144V122.282C416.014,117.58,412.929,113.438,408.426,112.084z"/>
<path style="fill:#FAFAFA;" d="M348.906,237.802l-85.333-85.333c-4.165-4.164-10.917-4.164-15.083,0l-85.333,85.333
	c-4.171,4.16-4.179,10.914-0.019,15.085c2.001,2.006,4.717,3.133,7.55,3.134h10.667v74.667c0,5.891,4.776,10.667,10.667,10.667
	h42.667c5.891,0,10.667-4.776,10.667-10.667v-53.333h21.333v53.333c0,5.891,4.776,10.667,10.667,10.667h42.667
	c5.891,0,10.667-4.776,10.667-10.667V256.02h10.667c5.891,0.011,10.675-4.757,10.686-10.648
	C352.045,242.532,350.917,239.807,348.906,237.802z"/>
<g>
</g>
<g>
</g>
<g>
</g>
<g>
</g>
<g>
</g>
<g>
</g>
<g>
</g>
<g>
</g>
<g>
</g>
<g>
</g>
<g>
</g>
<g>
</g>
<g>
</g>
<g>
</g>
<g>
</g>
</svg>
