<?xml version="1.0" encoding="iso-8859-1"?>
<!-- Generator: Adobe Illustrator 19.0.0, SVG Export Plug-In . SVG Version: 6.00 Build 0)  -->
<svg version="1.1" id="Capa_1" xmlns="http://www.w3.org/2000/svg" xmlns:xlink="http://www.w3.org/1999/xlink" x="0px" y="0px"
	 viewBox="0 0 428.448 428.448" style="enable-background:new 0 0 428.448 428.448;" xml:space="preserve">
<g>
	<g>
		<path style="fill:#00EFD1;" d="M389.786,207.195h32.914v118.073H313.509c-11.542,0-20.898-9.356-20.898-20.898v-76.278
			c0-11.542,9.356-20.898,20.898-20.898H389.786z"/>
		<path style="fill:#00ACEA;" d="M389.786,151.816c0-11.542-9.356-20.898-20.898-20.898h-36.571L189.688,68.224h173.976
			c14.427,0,26.122,11.695,26.122,26.122V151.816z"/>
		<polygon style="fill:#00EFD1;" points="189.688,68.224 332.317,130.918 49.672,130.918 73.182,68.224 89.378,24.338 		"/>
		<g>
			<path style="fill:#00ACEA;" d="M49.672,130.918H26.684c-11.542,0-20.898,9.356-20.898,20.898V94.346
				c0-14.427,11.695-26.122,26.122-26.122h41.273L49.672,130.918z"/>
			<path style="fill:#00ACEA;" d="M389.786,375.424c0,14.427-11.695,26.122-26.122,26.122H31.909
				c-14.427,0-26.122-11.695-26.122-26.122V151.816c0-11.542,9.356-20.898,20.898-20.898h342.204
				c11.542,0,20.898,9.356,20.898,20.898v55.38h-76.278c-11.542,0-20.898,9.356-20.898,20.898v76.278
				c0,11.542,9.356,20.898,20.898,20.898h76.278V375.424z"/>
		</g>
	</g>
	<path style="fill:#083863;" d="M422.701,197.269h-25.6V94.346c0.298-17.887-13.961-32.629-31.848-32.927
		c-0.53-0.009-1.059-0.005-1.589,0.013H191.256L92.513,17.546c-2.02-0.762-4.249-0.762-6.269,0c-2.136,0.704-3.731,2.499-4.18,4.702
		L67.435,61.432H31.909c-17.31-0.31-31.593,13.47-31.904,30.78c-0.013,0.712-0.001,1.423,0.034,2.134v281.078
		c0,18.808,13.061,36.049,31.869,36.049h331.755c18.808,0,33.437-17.241,33.437-36.049v-42.318h25.6c4.18,0,5.747-3.657,5.747-7.837
		V207.195C428.448,203.016,426.88,197.269,422.701,197.269z M363.664,77.106c9.215-0.582,17.157,6.416,17.739,15.631
		c0.034,0.536,0.042,1.073,0.024,1.61v31.869c-3.961-1.66-8.254-2.375-12.539-2.09h-35.004l-107.102-47.02H363.664z M94.08,34.787
		l89.861,39.706l3.657,2.09l107.624,47.543H61.166l18.808-51.722c0.416-0.613,0.601-1.353,0.522-2.09L94.08,34.787z M31.909,77.106
		h29.78l-17.241,47.02H26.684c-4.702,0-10.971,0-10.971,2.09V94.346C15.713,83.897,21.46,77.106,31.909,77.106z M381.427,375.424
		c0.601,10.491-7.288,19.541-17.763,20.376H31.909c-10.449,0-16.196-9.927-16.196-20.376V151.816
		c0-7.314,3.657-12.016,10.971-12.016h342.204c6.321-0.585,11.919,4.065,12.504,10.386c0.05,0.542,0.062,1.087,0.035,1.63v45.453
		h-67.918c-16.685,0.996-30.071,14.159-31.347,30.824v76.278c0,15.673,15.673,28.735,31.347,28.735h67.918V375.424z
		 M412.774,317.432h-99.265c-7.314,0-15.673-5.747-15.673-13.061v-76.278c0.964-8.132,7.514-14.464,15.673-15.151h99.265V317.432z"
		/>
</g>
<g>
</g>
<g>
</g>
<g>
</g>
<g>
</g>
<g>
</g>
<g>
</g>
<g>
</g>
<g>
</g>
<g>
</g>
<g>
</g>
<g>
</g>
<g>
</g>
<g>
</g>
<g>
</g>
<g>
</g>
</svg>
